<?xml version="1.0" encoding="utf-8"?>
<!-- Generator: Adobe Illustrator 19.2.1, SVG Export Plug-In . SVG Version: 6.00 Build 0)  -->
<svg version="1.1" id="图层_1" xmlns="http://www.w3.org/2000/svg" xmlns:xlink="http://www.w3.org/1999/xlink" x="0px" y="0px"
	 viewBox="0 0 100 100" style="enable-background:new 0 0 100 100;" xml:space="preserve">
<style type="text/css">
	.st0{fill:#F0F7F5;}
	.st1{fill:#065E49;}
	.st2{fill:#414249;}
	.st3{fill:#FFFFFF;}
	.st4{clip-path:url(#SVGID_2_);}
	.st5{fill:#D1E0DC;}
	.st6{fill:#2B937C;}
</style>
<g id="XMLID_1_">
	<g id="XMLID_153_">
		<circle class="st0" cx="50" cy="50" r="50"/>
	</g>
	<g id="XMLID_22_">
		<path class="st1" d="M53.6,64.7c3.2,0.9,7.1,1.4,11,1.4c8.8,0,17.8-2.3,17.8-6.8V27c0-0.4-0.2-0.7-0.4-0.9l0,0
			c-1.7-3.2-8.8-5-16.1-5.2h-2.5c-1.5,0-3,0.1-4.4,0.3c-5.5,0.7-10.3,2.3-11.6,4.9c-0.2,0.2-0.4,0.6-0.4,0.9v3.9v17.8v10.7
			c0,1.4,0.9,2.6,2.4,3.6L53.6,64.7z M46.8,32.1v15.2 M79.8,59.3c0,0.9-1.6,2-4.4,2.8c-2.6,0.8-6.3,1.4-10.8,1.4
			c-9.1,0-15.2-2.5-15.2-4.2v-6.8c3,2.1,9.2,3.2,15.2,3.2c3.8,0,7.7-0.5,10.8-1.3c1.8-0.5,3.3-1.1,4.4-1.9V59.3z M79.8,50.9
			c-0.8,0.8-2.3,1.6-4.4,2.2c-2.8,0.8-6.5,1.4-10.8,1.4c-7.6,0-13.4-1.7-15.2-3.6v-9.3c3,2.1,9.2,3.2,15.2,3.2
			c3.8,0,7.7-0.5,10.8-1.3c1.8-0.5,3.3-1.1,4.4-1.9V50.9z M79.8,39.9c-0.8,0.8-2.3,1.6-4.4,2.2c-2.8,0.8-6.5,1.4-10.8,1.4
			c-7.6,0-13.4-1.7-15.2-3.6v-8.6c3.3,2.1,9.3,3.1,15.2,3.1c3.8,0,7.7-0.4,10.8-1.3c1.7-0.5,3.3-1.1,4.4-1.8V39.9z M64.6,31.9
			c-9.1,0-15.2-2.5-15.2-4.2c0-1.7,6.1-4.2,15.2-4.2c9.1,0,15.2,2.5,15.2,4.2C79.8,29.3,73.7,31.9,64.6,31.9L64.6,31.9z M64.6,31.9"
			/>
	</g>
	<g id="XMLID_1949_">
		<path class="st2" d="M21.9,58.4h-2v-2h2V58.4z M21.9,54.4h-2v-2h2V54.4z M21.9,50.4h-2v-2h2V50.4z M21.9,46.4h-2v-2h2V46.4z
			 M43.5,44h-2v-2h2V44z M39.5,44h-2v-2h2V44z M35.5,44h-2v-2h2V44z M31.5,44h-2v-2h2V44z M27.5,44h-2v-2h2V44z M23.5,44h-2v-2h2V44
			z"/>
	</g>
	<g id="XMLID_6_">
		<circle class="st3" cx="21.2" cy="43.5" r="3.8"/>
		<path class="st2" d="M21.2,48.3c-2.7,0-4.8-2.2-4.8-4.8c0-2.7,2.2-4.8,4.8-4.8c2.7,0,4.8,2.2,4.8,4.8C26,46.2,23.8,48.3,21.2,48.3
			z M21.2,40.7c-1.6,0-2.8,1.3-2.8,2.8s1.3,2.8,2.8,2.8s2.8-1.3,2.8-2.8S22.7,40.7,21.2,40.7z"/>
	</g>
	<g id="XMLID_212_">
		<path class="st2" d="M72.9,82.8l-2,0l0-2l2,0L72.9,82.8z M68.9,82.8l-2,0l0-2l2,0L68.9,82.8z M64.9,82.8l-2,0l0-2l2,0L64.9,82.8z
			 M60.9,82.7l-2,0l0-2l2,0L60.9,82.7z M56.9,82.7l-2,0l0-2l2,0L56.9,82.7z M52.9,82.7l-2,0l0-2l2,0L52.9,82.7z M48.9,82.7l-2,0l0-2
			l2,0L48.9,82.7z M44.9,82.7l-2,0l0-2l2,0L44.9,82.7z M40.9,82.7l-2,0l0-2l2,0L40.9,82.7z M75,80.9h-2v-2h2V80.9z M39.2,80.3h-2v-2
			h2V80.3z M75,76.9h-2v-2h2V76.9z M39.2,76.3h-2v-2h2V76.3z M75,72.9h-2v-2h2V72.9z M39.2,72.3h-2v-0.2h2V72.3z M75,68.9h-2v-2h2
			V68.9z"/>
	</g>
	<g id="XMLID_211_">
		<circle class="st3" cx="73.7" cy="80.5" r="3.8"/>
		<path class="st2" d="M73.7,85.3c-2.7,0-4.8-2.2-4.8-4.8s2.2-4.8,4.8-4.8s4.8,2.2,4.8,4.8S76.4,85.3,73.7,85.3z M73.7,77.6
			c-1.6,0-2.8,1.3-2.8,2.8s1.3,2.8,2.8,2.8s2.8-1.3,2.8-2.8S75.2,77.6,73.7,77.6z"/>
	</g>
	<g id="XMLID_5_">
		<g id="XMLID_21_">
			<path class="st3" d="M52.6,56.3c-0.4,0-0.8,0-1.2,0.1c-0.7-6-5.7-10.6-11.9-10.6c-6.2,0-11.2,4.7-11.9,10.6
				c-1.4-0.7-2.9-1.1-4.5-1.1c-5.6,0-10.1,4.5-10.1,10.1s4.5,10.1,10.1,10.1h28.8c0,0,0.4,0,0.6,0c5.3,0,9.6-4.3,9.6-9.6
				S57.9,56.3,52.6,56.3z"/>
		</g>
		<g id="XMLID_16_">
			<defs>
				<path id="SVGID_1_" d="M52.6,56c-0.4,0-0.8,0-1.2,0.1c-0.7-6-5.7-10.6-11.9-10.6c-6.2,0-11.2,4.7-11.9,10.6
					c-1.4-0.7-2.9-1.1-4.5-1.1c-5.6,0-10.1,4.5-10.1,10.1s4.5,10.1,10.1,10.1h28.8c0,0,0.4,0,0.6,0c5.3,0,9.6-4.3,9.6-9.6
					S57.9,56,52.6,56z"/>
			</defs>
			<clipPath id="SVGID_2_">
				<use xlink:href="#SVGID_1_"  style="overflow:visible;"/>
			</clipPath>
			<g id="XMLID_23_" class="st4">
				<g id="XMLID_1931_">
					<rect x="-8.1" y="29.4" class="st5" width="86.5" height="0.2"/>
				</g>
				<g id="XMLID_24_">
					<path class="st5" d="M78.5,29.9h-0.2v1.9H76v-1.9h-0.2v1.9h-2.3v-1.9h-0.2v1.9h-2.3v-1.9h-0.2v1.9h-2.3v-1.9h-0.2v1.9h-2.3
						v-1.9h-0.2v1.9h-2.3v-1.9h-0.2v1.9h-2.3v-1.9H61v1.9h-2.3v-1.9h-0.2v1.9h-2.3v-1.9h-0.2v1.9h-2.3v-1.9h-0.2v1.9h-2.3v-1.9h-0.2
						v1.9h-2.3v-1.9h-0.2v1.9h-2.3v-1.9h-0.2v1.9h-2.3v-1.9h-0.2v1.9h-2.3v-1.9h-0.2v1.9H39v-1.9h-0.2v1.9h-2.3v-1.9h-0.2v1.9H34
						v-1.9h-0.2v1.9h-2.3v-1.9h-0.2v1.9h-2.3v-1.9h-0.2v1.9h-2.3v-1.9h-0.2v1.9h-2.3v-1.9h-0.2v1.9h-2.3v-1.9h-0.2v1.9h-2.3v-1.9H19
						v1.9h-2.3v-1.9h-0.2v1.9h-2.3v-1.9H14v1.9h-2.3v-1.9h-0.2v1.9H9.3v-1.9H9.1v1.9H6.8v-1.9H6.6v1.9H4.4v-1.9H4.2v1.9H1.9v-1.9
						H1.7v1.9h-2.3v-1.9h-0.2v1.9h-2.3v-1.9h-0.2v1.9h-2.3v-1.9h-0.2v1.9H-8v-1.9h-0.2v68.8h0.1v0.1h86.5v-0.1h0.1V29.9z M78.3,32
						v2.3H76V32H78.3z M43.7,66.4h-2.3v-2.3h2.3V66.4z M43.9,64.2h2.3v2.3h-2.3V64.2z M41.2,66.4H39v-2.3h2.3V66.4z M38.8,66.4h-2.3
						v-2.3h2.3V66.4z M36.3,66.4H34v-2.3h2.3V66.4z M33.8,66.4h-2.3v-2.3h2.3V66.4z M31.3,66.4h-2.3v-2.3h2.3V66.4z M28.9,66.4h-2.3
						v-2.3h2.3V66.4z M26.4,66.4h-2.3v-2.3h2.3V66.4z M23.9,66.4h-2.3v-2.3h2.3V66.4z M23.9,66.6v2.3h-2.3v-2.3H23.9z M24.1,66.6
						h2.3v2.3h-2.3V66.6z M26.6,66.6h2.3v2.3h-2.3V66.6z M29.1,66.6h2.3v2.3h-2.3V66.6z M31.5,66.6h2.3v2.3h-2.3V66.6z M34,66.6h2.3
						v2.3H34V66.6z M36.5,66.6h2.3v2.3h-2.3V66.6z M39,66.6h2.3v2.3H39V66.6z M41.4,66.6h2.3v2.3h-2.3V66.6z M43.9,66.6h2.3v2.3
						h-2.3V66.6z M46.4,66.6h2.3v2.3h-2.3V66.6z M46.4,66.4v-2.3h2.3v2.3H46.4z M46.4,64v-2.3h2.3V64H46.4z M46.2,64h-2.3v-2.3h2.3
						V64z M43.7,64h-2.3v-2.3h2.3V64z M41.2,64H39v-2.3h2.3V64z M38.8,64h-2.3v-2.3h2.3V64z M36.3,64H34v-2.3h2.3V64z M33.8,64h-2.3
						v-2.3h2.3V64z M31.3,64h-2.3v-2.3h2.3V64z M28.9,64h-2.3v-2.3h2.3V64z M26.4,64h-2.3v-2.3h2.3V64z M23.9,64h-2.3v-2.3h2.3V64z
						 M21.5,64h-2.3v-2.3h2.3V64z M21.5,64.2v2.3h-2.3v-2.3H21.5z M21.5,66.6v2.3h-2.3v-2.3H21.5z M21.5,69.1v2.3h-2.3v-2.3H21.5z
						 M21.7,69.1h2.3v2.3h-2.3V69.1z M24.1,69.1h2.3v2.3h-2.3V69.1z M26.6,69.1h2.3v2.3h-2.3V69.1z M29.1,69.1h2.3v2.3h-2.3V69.1z
						 M31.5,69.1h2.3v2.3h-2.3V69.1z M34,69.1h2.3v2.3H34V69.1z M36.5,69.1h2.3v2.3h-2.3V69.1z M39,69.1h2.3v2.3H39V69.1z
						 M41.4,69.1h2.3v2.3h-2.3V69.1z M43.9,69.1h2.3v2.3h-2.3V69.1z M46.4,69.1h2.3v2.3h-2.3V69.1z M48.8,69.1h2.3v2.3h-2.3V69.1z
						 M48.8,68.9v-2.3h2.3v2.3H48.8z M48.8,66.4v-2.3h2.3v2.3H48.8z M48.8,64v-2.3h2.3V64H48.8z M48.8,61.5v-2.3h2.3v2.3H48.8z
						 M48.6,61.5h-2.3v-2.3h2.3V61.5z M46.2,61.5h-2.3v-2.3h2.3V61.5z M43.7,61.5h-2.3v-2.3h2.3V61.5z M41.2,61.5H39v-2.3h2.3V61.5z
						 M38.8,61.5h-2.3v-2.3h2.3V61.5z M36.3,61.5H34v-2.3h2.3V61.5z M33.8,61.5h-2.3v-2.3h2.3V61.5z M31.3,61.5h-2.3v-2.3h2.3V61.5z
						 M28.9,61.5h-2.3v-2.3h2.3V61.5z M26.4,61.5h-2.3v-2.3h2.3V61.5z M23.9,61.5h-2.3v-2.3h2.3V61.5z M21.5,61.5h-2.3v-2.3h2.3
						V61.5z M19,61.5h-2.3v-2.3H19V61.5z M19,61.7V64h-2.3v-2.3H19z M19,64.2v2.3h-2.3v-2.3H19z M19,66.6v2.3h-2.3v-2.3H19z
						 M19,69.1v2.3h-2.3v-2.3H19z M19,71.6v2.3h-2.3v-2.3H19z M19.2,71.6h2.3v2.3h-2.3V71.6z M21.7,71.6h2.3v2.3h-2.3V71.6z
						 M24.1,71.6h2.3v2.3h-2.3V71.6z M26.6,71.6h2.3v2.3h-2.3V71.6z M29.1,71.6h2.3v2.3h-2.3V71.6z M31.5,71.6h2.3v2.3h-2.3V71.6z
						 M34,71.6h2.3v2.3H34V71.6z M36.5,71.6h2.3v2.3h-2.3V71.6z M39,71.6h2.3v2.3H39V71.6z M41.4,71.6h2.3v2.3h-2.3V71.6z
						 M43.9,71.6h2.3v2.3h-2.3V71.6z M46.4,71.6h2.3v2.3h-2.3V71.6z M48.8,71.6h2.3v2.3h-2.3V71.6z M51.3,71.6h2.3v2.3h-2.3V71.6z
						 M51.3,71.4v-2.3h2.3v2.3H51.3z M51.3,68.9v-2.3h2.3v2.3H51.3z M51.3,66.4v-2.3h2.3v2.3H51.3z M51.3,64v-2.3h2.3V64H51.3z
						 M51.3,61.5v-2.3h2.3v2.3H51.3z M51.3,59v-2.3h2.3V59H51.3z M51.1,59h-2.3v-2.3h2.3V59z M48.6,59h-2.3v-2.3h2.3V59z M46.2,59
						h-2.3v-2.3h2.3V59z M43.7,59h-2.3v-2.3h2.3V59z M41.2,59H39v-2.3h2.3V59z M38.8,59h-2.3v-2.3h2.3V59z M36.3,59H34v-2.3h2.3V59z
						 M33.8,59h-2.3v-2.3h2.3V59z M31.3,59h-2.3v-2.3h2.3V59z M28.9,59h-2.3v-2.3h2.3V59z M26.4,59h-2.3v-2.3h2.3V59z M23.9,59h-2.3
						v-2.3h2.3V59z M21.5,59h-2.3v-2.3h2.3V59z M19,59h-2.3v-2.3H19V59z M16.5,59h-2.3v-2.3h2.3V59z M16.5,59.2v2.3h-2.3v-2.3H16.5z
						 M16.5,61.7V64h-2.3v-2.3H16.5z M16.5,64.2v2.3h-2.3v-2.3H16.5z M16.5,66.6v2.3h-2.3v-2.3H16.5z M16.5,69.1v2.3h-2.3v-2.3H16.5
						z M16.5,71.6v2.3h-2.3v-2.3H16.5z M16.5,74v2.3h-2.3V74H16.5z M16.7,74H19v2.3h-2.3V74z M19.2,74h2.3v2.3h-2.3V74z M21.7,74
						h2.3v2.3h-2.3V74z M24.1,74h2.3v2.3h-2.3V74z M26.6,74h2.3v2.3h-2.3V74z M29.1,74h2.3v2.3h-2.3V74z M31.5,74h2.3v2.3h-2.3V74z
						 M34,74h2.3v2.3H34V74z M36.5,74h2.3v2.3h-2.3V74z M39,74h2.3v2.3H39V74z M41.4,74h2.3v2.3h-2.3V74z M43.9,74h2.3v2.3h-2.3V74z
						 M46.4,74h2.3v2.3h-2.3V74z M48.8,74h2.3v2.3h-2.3V74z M51.3,74h2.3v2.3h-2.3V74z M53.8,74h2.3v2.3h-2.3V74z M53.8,73.9v-2.3
						h2.3v2.3H53.8z M53.8,71.4v-2.3h2.3v2.3H53.8z M53.8,68.9v-2.3h2.3v2.3H53.8z M53.8,66.4v-2.3h2.3v2.3H53.8z M53.8,64v-2.3h2.3
						V64H53.8z M53.8,61.5v-2.3h2.3v2.3H53.8z M53.8,59v-2.3h2.3V59H53.8z M53.8,56.6v-2.3h2.3v2.3H53.8z M53.6,56.6h-2.3v-2.3h2.3
						V56.6z M51.1,56.6h-2.3v-2.3h2.3V56.6z M48.6,56.6h-2.3v-2.3h2.3V56.6z M46.2,56.6h-2.3v-2.3h2.3V56.6z M43.7,56.6h-2.3v-2.3
						h2.3V56.6z M41.2,56.6H39v-2.3h2.3V56.6z M38.8,56.6h-2.3v-2.3h2.3V56.6z M36.3,56.6H34v-2.3h2.3V56.6z M33.8,56.6h-2.3v-2.3
						h2.3V56.6z M31.3,56.6h-2.3v-2.3h2.3V56.6z M28.9,56.6h-2.3v-2.3h2.3V56.6z M26.4,56.6h-2.3v-2.3h2.3V56.6z M23.9,56.6h-2.3
						v-2.3h2.3V56.6z M21.5,56.6h-2.3v-2.3h2.3V56.6z M19,56.6h-2.3v-2.3H19V56.6z M16.5,56.6h-2.3v-2.3h2.3V56.6z M14,56.6h-2.3
						v-2.3H14V56.6z M14,56.7V59h-2.3v-2.3H14z M14,59.2v2.3h-2.3v-2.3H14z M14,61.7V64h-2.3v-2.3H14z M14,64.2v2.3h-2.3v-2.3H14z
						 M14,66.6v2.3h-2.3v-2.3H14z M14,69.1v2.3h-2.3v-2.3H14z M14,71.6v2.3h-2.3v-2.3H14z M14,74v2.3h-2.3V74H14z M14,76.5v2.3h-2.3
						v-2.3H14z M14.2,76.5h2.3v2.3h-2.3V76.5z M16.7,76.5H19v2.3h-2.3V76.5z M19.2,76.5h2.3v2.3h-2.3V76.5z M21.7,76.5h2.3v2.3h-2.3
						V76.5z M24.1,76.5h2.3v2.3h-2.3V76.5z M26.6,76.5h2.3v2.3h-2.3V76.5z M29.1,76.5h2.3v2.3h-2.3V76.5z M31.5,76.5h2.3v2.3h-2.3
						V76.5z M34,76.5h2.3v2.3H34V76.5z M36.5,76.5h2.3v2.3h-2.3V76.5z M39,76.5h2.3v2.3H39V76.5z M41.4,76.5h2.3v2.3h-2.3V76.5z
						 M43.9,76.5h2.3v2.3h-2.3V76.5z M46.4,76.5h2.3v2.3h-2.3V76.5z M48.8,76.5h2.3v2.3h-2.3V76.5z M51.3,76.5h2.3v2.3h-2.3V76.5z
						 M53.8,76.5h2.3v2.3h-2.3V76.5z M56.3,76.5h2.3v2.3h-2.3V76.5z M56.3,76.3V74h2.3v2.3H56.3z M56.3,73.9v-2.3h2.3v2.3H56.3z
						 M56.3,71.4v-2.3h2.3v2.3H56.3z M56.3,68.9v-2.3h2.3v2.3H56.3z M56.3,66.4v-2.3h2.3v2.3H56.3z M56.3,64v-2.3h2.3V64H56.3z
						 M56.3,61.5v-2.3h2.3v2.3H56.3z M56.3,59v-2.3h2.3V59H56.3z M56.3,56.6v-2.3h2.3v2.3H56.3z M56.3,54.1v-2.3h2.3v2.3H56.3z
						 M56.1,54.1h-2.3v-2.3h2.3V54.1z M53.6,54.1h-2.3v-2.3h2.3V54.1z M51.1,54.1h-2.3v-2.3h2.3V54.1z M48.6,54.1h-2.3v-2.3h2.3
						V54.1z M46.2,54.1h-2.3v-2.3h2.3V54.1z M43.7,54.1h-2.3v-2.3h2.3V54.1z M41.2,54.1H39v-2.3h2.3V54.1z M38.8,54.1h-2.3v-2.3h2.3
						V54.1z M36.3,54.1H34v-2.3h2.3V54.1z M33.8,54.1h-2.3v-2.3h2.3V54.1z M31.3,54.1h-2.3v-2.3h2.3V54.1z M28.9,54.1h-2.3v-2.3h2.3
						V54.1z M26.4,54.1h-2.3v-2.3h2.3V54.1z M23.9,54.1h-2.3v-2.3h2.3V54.1z M21.5,54.1h-2.3v-2.3h2.3V54.1z M19,54.1h-2.3v-2.3H19
						V54.1z M16.5,54.1h-2.3v-2.3h2.3V54.1z M14,54.1h-2.3v-2.3H14V54.1z M11.6,54.1H9.3v-2.3h2.3V54.1z M11.6,54.3v2.3H9.3v-2.3
						H11.6z M11.6,56.7V59H9.3v-2.3H11.6z M11.6,59.2v2.3H9.3v-2.3H11.6z M11.6,61.7V64H9.3v-2.3H11.6z M11.6,64.2v2.3H9.3v-2.3
						H11.6z M11.6,66.6v2.3H9.3v-2.3H11.6z M11.6,69.1v2.3H9.3v-2.3H11.6z M11.6,71.6v2.3H9.3v-2.3H11.6z M11.6,74v2.3H9.3V74H11.6z
						 M11.6,76.5v2.3H9.3v-2.3H11.6z M11.6,79v2.3H9.3V79H11.6z M11.8,79H14v2.3h-2.3V79z M14.2,79h2.3v2.3h-2.3V79z M16.7,79H19
						v2.3h-2.3V79z M19.2,79h2.3v2.3h-2.3V79z M21.7,79h2.3v2.3h-2.3V79z M24.1,79h2.3v2.3h-2.3V79z M26.6,79h2.3v2.3h-2.3V79z
						 M29.1,79h2.3v2.3h-2.3V79z M31.5,79h2.3v2.3h-2.3V79z M34,79h2.3v2.3H34V79z M36.5,79h2.3v2.3h-2.3V79z M39,79h2.3v2.3H39V79z
						 M41.4,79h2.3v2.3h-2.3V79z M43.9,79h2.3v2.3h-2.3V79z M46.4,79h2.3v2.3h-2.3V79z M48.8,79h2.3v2.3h-2.3V79z M51.3,79h2.3v2.3
						h-2.3V79z M53.8,79h2.3v2.3h-2.3V79z M56.3,79h2.3v2.3h-2.3V79z M58.7,79H61v2.3h-2.3V79z M58.7,78.8v-2.3H61v2.3H58.7z
						 M58.7,76.3V74H61v2.3H58.7z M58.7,73.9v-2.3H61v2.3H58.7z M58.7,71.4v-2.3H61v2.3H58.7z M58.7,68.9v-2.3H61v2.3H58.7z
						 M58.7,66.4v-2.3H61v2.3H58.7z M58.7,64v-2.3H61V64H58.7z M58.7,61.5v-2.3H61v2.3H58.7z M58.7,59v-2.3H61V59H58.7z M58.7,56.6
						v-2.3H61v2.3H58.7z M58.7,54.1v-2.3H61v2.3H58.7z M58.7,51.6v-2.3H61v2.3H58.7z M58.5,51.6h-2.3v-2.3h2.3V51.6z M56.1,51.6
						h-2.3v-2.3h2.3V51.6z M53.6,51.6h-2.3v-2.3h2.3V51.6z M51.1,51.6h-2.3v-2.3h2.3V51.6z M48.6,51.6h-2.3v-2.3h2.3V51.6z
						 M46.2,51.6h-2.3v-2.3h2.3V51.6z M43.7,51.6h-2.3v-2.3h2.3V51.6z M41.2,51.6H39v-2.3h2.3V51.6z M38.8,51.6h-2.3v-2.3h2.3V51.6z
						 M36.3,51.6H34v-2.3h2.3V51.6z M33.8,51.6h-2.3v-2.3h2.3V51.6z M31.3,51.6h-2.3v-2.3h2.3V51.6z M28.9,51.6h-2.3v-2.3h2.3V51.6z
						 M26.4,51.6h-2.3v-2.3h2.3V51.6z M23.9,51.6h-2.3v-2.3h2.3V51.6z M21.5,51.6h-2.3v-2.3h2.3V51.6z M19,51.6h-2.3v-2.3H19V51.6z
						 M16.5,51.6h-2.3v-2.3h2.3V51.6z M14,51.6h-2.3v-2.3H14V51.6z M11.6,51.6H9.3v-2.3h2.3V51.6z M9.1,51.6H6.8v-2.3h2.3V51.6z
						 M9.1,51.8v2.3H6.8v-2.3H9.1z M9.1,54.3v2.3H6.8v-2.3H9.1z M9.1,56.7V59H6.8v-2.3H9.1z M9.1,59.2v2.3H6.8v-2.3H9.1z M9.1,61.7
						V64H6.8v-2.3H9.1z M9.1,64.2v2.3H6.8v-2.3H9.1z M9.1,66.6v2.3H6.8v-2.3H9.1z M9.1,69.1v2.3H6.8v-2.3H9.1z M9.1,71.6v2.3H6.8
						v-2.3H9.1z M9.1,74v2.3H6.8V74H9.1z M9.1,76.5v2.3H6.8v-2.3H9.1z M9.1,79v2.3H6.8V79H9.1z M9.1,81.5v2.3H6.8v-2.3H9.1z
						 M9.3,81.5h2.3v2.3H9.3V81.5z M11.8,81.5H14v2.3h-2.3V81.5z M14.2,81.5h2.3v2.3h-2.3V81.5z M16.7,81.5H19v2.3h-2.3V81.5z
						 M19.2,81.5h2.3v2.3h-2.3V81.5z M21.7,81.5h2.3v2.3h-2.3V81.5z M24.1,81.5h2.3v2.3h-2.3V81.5z M26.6,81.5h2.3v2.3h-2.3V81.5z
						 M29.1,81.5h2.3v2.3h-2.3V81.5z M31.5,81.5h2.3v2.3h-2.3V81.5z M34,81.5h2.3v2.3H34V81.5z M36.5,81.5h2.3v2.3h-2.3V81.5z
						 M39,81.5h2.3v2.3H39V81.5z M41.4,81.5h2.3v2.3h-2.3V81.5z M43.9,81.5h2.3v2.3h-2.3V81.5z M46.4,81.5h2.3v2.3h-2.3V81.5z
						 M48.8,81.5h2.3v2.3h-2.3V81.5z M51.3,81.5h2.3v2.3h-2.3V81.5z M53.8,81.5h2.3v2.3h-2.3V81.5z M56.3,81.5h2.3v2.3h-2.3V81.5z
						 M58.7,81.5H61v2.3h-2.3V81.5z M61.2,81.5h2.3v2.3h-2.3V81.5z M61.2,81.3V79h2.3v2.3H61.2z M61.2,78.8v-2.3h2.3v2.3H61.2z
						 M61.2,76.3V74h2.3v2.3H61.2z M61.2,73.9v-2.3h2.3v2.3H61.2z M61.2,71.4v-2.3h2.3v2.3H61.2z M61.2,68.9v-2.3h2.3v2.3H61.2z
						 M61.2,66.4v-2.3h2.3v2.3H61.2z M61.2,64v-2.3h2.3V64H61.2z M61.2,61.5v-2.3h2.3v2.3H61.2z M61.2,59v-2.3h2.3V59H61.2z
						 M61.2,56.6v-2.3h2.3v2.3H61.2z M61.2,54.1v-2.3h2.3v2.3H61.2z M61.2,51.6v-2.3h2.3v2.3H61.2z M61.2,49.1v-2.3h2.3v2.3H61.2z
						 M61,49.1h-2.3v-2.3H61V49.1z M58.5,49.1h-2.3v-2.3h2.3V49.1z M56.1,49.1h-2.3v-2.3h2.3V49.1z M53.6,49.1h-2.3v-2.3h2.3V49.1z
						 M51.1,49.1h-2.3v-2.3h2.3V49.1z M48.6,49.1h-2.3v-2.3h2.3V49.1z M46.2,49.1h-2.3v-2.3h2.3V49.1z M43.7,49.1h-2.3v-2.3h2.3
						V49.1z M41.2,49.1H39v-2.3h2.3V49.1z M38.8,49.1h-2.3v-2.3h2.3V49.1z M36.3,49.1H34v-2.3h2.3V49.1z M33.8,49.1h-2.3v-2.3h2.3
						V49.1z M31.3,49.1h-2.3v-2.3h2.3V49.1z M28.9,49.1h-2.3v-2.3h2.3V49.1z M26.4,49.1h-2.3v-2.3h2.3V49.1z M23.9,49.1h-2.3v-2.3
						h2.3V49.1z M21.5,49.1h-2.3v-2.3h2.3V49.1z M19,49.1h-2.3v-2.3H19V49.1z M16.5,49.1h-2.3v-2.3h2.3V49.1z M14,49.1h-2.3v-2.3H14
						V49.1z M11.6,49.1H9.3v-2.3h2.3V49.1z M9.1,49.1H6.8v-2.3h2.3V49.1z M6.6,49.1H4.4v-2.3h2.3V49.1z M6.6,49.3v2.3H4.4v-2.3H6.6z
						 M6.6,51.8v2.3H4.4v-2.3H6.6z M6.6,54.3v2.3H4.4v-2.3H6.6z M6.6,56.7V59H4.4v-2.3H6.6z M6.6,59.2v2.3H4.4v-2.3H6.6z M6.6,61.7
						V64H4.4v-2.3H6.6z M6.6,64.2v2.3H4.4v-2.3H6.6z M6.6,66.6v2.3H4.4v-2.3H6.6z M6.6,69.1v2.3H4.4v-2.3H6.6z M6.6,71.6v2.3H4.4
						v-2.3H6.6z M6.6,74v2.3H4.4V74H6.6z M6.6,76.5v2.3H4.4v-2.3H6.6z M6.6,79v2.3H4.4V79H6.6z M6.6,81.5v2.3H4.4v-2.3H6.6z
						 M6.6,83.9v2.3H4.4v-2.3H6.6z M6.8,83.9h2.3v2.3H6.8V83.9z M9.3,83.9h2.3v2.3H9.3V83.9z M11.8,83.9H14v2.3h-2.3V83.9z
						 M14.2,83.9h2.3v2.3h-2.3V83.9z M16.7,83.9H19v2.3h-2.3V83.9z M19.2,83.9h2.3v2.3h-2.3V83.9z M21.7,83.9h2.3v2.3h-2.3V83.9z
						 M24.1,83.9h2.3v2.3h-2.3V83.9z M26.6,83.9h2.3v2.3h-2.3V83.9z M29.1,83.9h2.3v2.3h-2.3V83.9z M31.5,83.9h2.3v2.3h-2.3V83.9z
						 M34,83.9h2.3v2.3H34V83.9z M36.5,83.9h2.3v2.3h-2.3V83.9z M39,83.9h2.3v2.3H39V83.9z M41.4,83.9h2.3v2.3h-2.3V83.9z
						 M43.9,83.9h2.3v2.3h-2.3V83.9z M46.4,83.9h2.3v2.3h-2.3V83.9z M48.8,83.9h2.3v2.3h-2.3V83.9z M51.3,83.9h2.3v2.3h-2.3V83.9z
						 M53.8,83.9h2.3v2.3h-2.3V83.9z M56.3,83.9h2.3v2.3h-2.3V83.9z M58.7,83.9H61v2.3h-2.3V83.9z M61.2,83.9h2.3v2.3h-2.3V83.9z
						 M63.7,83.9h2.3v2.3h-2.3V83.9z M63.7,83.7v-2.3h2.3v2.3H63.7z M63.7,81.3V79h2.3v2.3H63.7z M63.7,78.8v-2.3h2.3v2.3H63.7z
						 M63.7,76.3V74h2.3v2.3H63.7z M63.7,73.9v-2.3h2.3v2.3H63.7z M63.7,71.4v-2.3h2.3v2.3H63.7z M63.7,68.9v-2.3h2.3v2.3H63.7z
						 M63.7,66.4v-2.3h2.3v2.3H63.7z M63.7,64v-2.3h2.3V64H63.7z M63.7,61.5v-2.3h2.3v2.3H63.7z M63.7,59v-2.3h2.3V59H63.7z
						 M63.7,56.6v-2.3h2.3v2.3H63.7z M63.7,54.1v-2.3h2.3v2.3H63.7z M63.7,51.6v-2.3h2.3v2.3H63.7z M63.7,49.1v-2.3h2.3v2.3H63.7z
						 M63.7,46.7v-2.3h2.3v2.3H63.7z M63.5,46.7h-2.3v-2.3h2.3V46.7z M61,46.7h-2.3v-2.3H61V46.7z M58.5,46.7h-2.3v-2.3h2.3V46.7z
						 M56.1,46.7h-2.3v-2.3h2.3V46.7z M53.6,46.7h-2.3v-2.3h2.3V46.7z M51.1,46.7h-2.3v-2.3h2.3V46.7z M48.6,46.7h-2.3v-2.3h2.3
						V46.7z M46.2,46.7h-2.3v-2.3h2.3V46.7z M43.7,46.7h-2.3v-2.3h2.3V46.7z M41.2,46.7H39v-2.3h2.3V46.7z M38.8,46.7h-2.3v-2.3h2.3
						V46.7z M36.3,46.7H34v-2.3h2.3V46.7z M33.8,46.7h-2.3v-2.3h2.3V46.7z M31.3,46.7h-2.3v-2.3h2.3V46.7z M28.9,46.7h-2.3v-2.3h2.3
						V46.7z M26.4,46.7h-2.3v-2.3h2.3V46.7z M23.9,46.7h-2.3v-2.3h2.3V46.7z M21.5,46.7h-2.3v-2.3h2.3V46.7z M19,46.7h-2.3v-2.3H19
						V46.7z M16.5,46.7h-2.3v-2.3h2.3V46.7z M14,46.7h-2.3v-2.3H14V46.7z M11.6,46.7H9.3v-2.3h2.3V46.7z M9.1,46.7H6.8v-2.3h2.3
						V46.7z M6.6,46.7H4.4v-2.3h2.3V46.7z M4.2,46.7H1.9v-2.3h2.3V46.7z M4.2,46.9v2.3H1.9v-2.3H4.2z M4.2,49.3v2.3H1.9v-2.3H4.2z
						 M4.2,51.8v2.3H1.9v-2.3H4.2z M4.2,54.3v2.3H1.9v-2.3H4.2z M4.2,56.7V59H1.9v-2.3H4.2z M4.2,59.2v2.3H1.9v-2.3H4.2z M4.2,61.7
						V64H1.9v-2.3H4.2z M4.2,64.2v2.3H1.9v-2.3H4.2z M4.2,66.6v2.3H1.9v-2.3H4.2z M4.2,69.1v2.3H1.9v-2.3H4.2z M4.2,71.6v2.3H1.9
						v-2.3H4.2z M4.2,74v2.3H1.9V74H4.2z M4.2,76.5v2.3H1.9v-2.3H4.2z M4.2,79v2.3H1.9V79H4.2z M4.2,81.5v2.3H1.9v-2.3H4.2z
						 M4.2,83.9v2.3H1.9v-2.3H4.2z M4.2,86.4v2.3H1.9v-2.3H4.2z M4.4,86.4h2.3v2.3H4.4V86.4z M6.8,86.4h2.3v2.3H6.8V86.4z M9.3,86.4
						h2.3v2.3H9.3V86.4z M11.8,86.4H14v2.3h-2.3V86.4z M14.2,86.4h2.3v2.3h-2.3V86.4z M16.7,86.4H19v2.3h-2.3V86.4z M19.2,86.4h2.3
						v2.3h-2.3V86.4z M21.7,86.4h2.3v2.3h-2.3V86.4z M24.1,86.4h2.3v2.3h-2.3V86.4z M26.6,86.4h2.3v2.3h-2.3V86.4z M29.1,86.4h2.3
						v2.3h-2.3V86.4z M31.5,86.4h2.3v2.3h-2.3V86.4z M34,86.4h2.3v2.3H34V86.4z M36.5,86.4h2.3v2.3h-2.3V86.4z M39,86.4h2.3v2.3H39
						V86.4z M41.4,86.4h2.3v2.3h-2.3V86.4z M43.9,86.4h2.3v2.3h-2.3V86.4z M46.4,86.4h2.3v2.3h-2.3V86.4z M48.8,86.4h2.3v2.3h-2.3
						V86.4z M51.3,86.4h2.3v2.3h-2.3V86.4z M53.8,86.4h2.3v2.3h-2.3V86.4z M56.3,86.4h2.3v2.3h-2.3V86.4z M58.7,86.4H61v2.3h-2.3
						V86.4z M61.2,86.4h2.3v2.3h-2.3V86.4z M63.7,86.4h2.3v2.3h-2.3V86.4z M66.1,86.4h2.3v2.3h-2.3V86.4z M66.1,86.2v-2.3h2.3v2.3
						H66.1z M66.1,83.7v-2.3h2.3v2.3H66.1z M66.1,81.3V79h2.3v2.3H66.1z M66.1,78.8v-2.3h2.3v2.3H66.1z M66.1,76.3V74h2.3v2.3H66.1z
						 M66.1,73.9v-2.3h2.3v2.3H66.1z M66.1,71.4v-2.3h2.3v2.3H66.1z M66.1,68.9v-2.3h2.3v2.3H66.1z M66.1,66.4v-2.3h2.3v2.3H66.1z
						 M66.1,64v-2.3h2.3V64H66.1z M66.1,61.5v-2.3h2.3v2.3H66.1z M66.1,59v-2.3h2.3V59H66.1z M66.1,56.6v-2.3h2.3v2.3H66.1z
						 M66.1,54.1v-2.3h2.3v2.3H66.1z M66.1,51.6v-2.3h2.3v2.3H66.1z M66.1,49.1v-2.3h2.3v2.3H66.1z M66.1,46.7v-2.3h2.3v2.3H66.1z
						 M66.1,44.2v-2.3h2.3v2.3H66.1z M65.9,44.2h-2.3v-2.3h2.3V44.2z M63.5,44.2h-2.3v-2.3h2.3V44.2z M61,44.2h-2.3v-2.3H61V44.2z
						 M58.5,44.2h-2.3v-2.3h2.3V44.2z M56.1,44.2h-2.3v-2.3h2.3V44.2z M53.6,44.2h-2.3v-2.3h2.3V44.2z M51.1,44.2h-2.3v-2.3h2.3
						V44.2z M48.6,44.2h-2.3v-2.3h2.3V44.2z M46.2,44.2h-2.3v-2.3h2.3V44.2z M43.7,44.2h-2.3v-2.3h2.3V44.2z M41.2,44.2H39v-2.3h2.3
						V44.2z M38.8,44.2h-2.3v-2.3h2.3V44.2z M36.3,44.2H34v-2.3h2.3V44.2z M33.8,44.2h-2.3v-2.3h2.3V44.2z M31.3,44.2h-2.3v-2.3h2.3
						V44.2z M28.9,44.2h-2.3v-2.3h2.3V44.2z M26.4,44.2h-2.3v-2.3h2.3V44.2z M23.9,44.2h-2.3v-2.3h2.3V44.2z M21.5,44.2h-2.3v-2.3
						h2.3V44.2z M19,44.2h-2.3v-2.3H19V44.2z M16.5,44.2h-2.3v-2.3h2.3V44.2z M14,44.2h-2.3v-2.3H14V44.2z M11.6,44.2H9.3v-2.3h2.3
						V44.2z M9.1,44.2H6.8v-2.3h2.3V44.2z M6.6,44.2H4.4v-2.3h2.3V44.2z M4.2,44.2H1.9v-2.3h2.3V44.2z M1.7,44.2h-2.3v-2.3h2.3V44.2
						z M1.7,44.4v2.3h-2.3v-2.3H1.7z M1.7,46.9v2.3h-2.3v-2.3H1.7z M1.7,49.3v2.3h-2.3v-2.3H1.7z M1.7,51.8v2.3h-2.3v-2.3H1.7z
						 M1.7,54.3v2.3h-2.3v-2.3H1.7z M1.7,56.7V59h-2.3v-2.3H1.7z M1.7,59.2v2.3h-2.3v-2.3H1.7z M1.7,61.7V64h-2.3v-2.3H1.7z
						 M1.7,64.2v2.3h-2.3v-2.3H1.7z M1.7,66.6v2.3h-2.3v-2.3H1.7z M1.7,69.1v2.3h-2.3v-2.3H1.7z M1.7,71.6v2.3h-2.3v-2.3H1.7z
						 M1.7,74v2.3h-2.3V74H1.7z M1.7,76.5v2.3h-2.3v-2.3H1.7z M1.7,79v2.3h-2.3V79H1.7z M1.7,81.5v2.3h-2.3v-2.3H1.7z M1.7,83.9v2.3
						h-2.3v-2.3H1.7z M1.7,86.4v2.3h-2.3v-2.3H1.7z M1.7,88.9v2.3h-2.3v-2.3H1.7z M1.9,88.9h2.3v2.3H1.9V88.9z M4.4,88.9h2.3v2.3
						H4.4V88.9z M6.8,88.9h2.3v2.3H6.8V88.9z M9.3,88.9h2.3v2.3H9.3V88.9z M11.8,88.9H14v2.3h-2.3V88.9z M14.2,88.9h2.3v2.3h-2.3
						V88.9z M16.7,88.9H19v2.3h-2.3V88.9z M19.2,88.9h2.3v2.3h-2.3V88.9z M21.7,88.9h2.3v2.3h-2.3V88.9z M24.1,88.9h2.3v2.3h-2.3
						V88.9z M26.6,88.9h2.3v2.3h-2.3V88.9z M29.1,88.9h2.3v2.3h-2.3V88.9z M31.5,88.9h2.3v2.3h-2.3V88.9z M34,88.9h2.3v2.3H34V88.9z
						 M36.5,88.9h2.3v2.3h-2.3V88.9z M39,88.9h2.3v2.3H39V88.9z M41.4,88.9h2.3v2.3h-2.3V88.9z M43.9,88.9h2.3v2.3h-2.3V88.9z
						 M46.4,88.9h2.3v2.3h-2.3V88.9z M48.8,88.9h2.3v2.3h-2.3V88.9z M51.3,88.9h2.3v2.3h-2.3V88.9z M53.8,88.9h2.3v2.3h-2.3V88.9z
						 M56.3,88.9h2.3v2.3h-2.3V88.9z M58.7,88.9H61v2.3h-2.3V88.9z M61.2,88.9h2.3v2.3h-2.3V88.9z M63.7,88.9h2.3v2.3h-2.3V88.9z
						 M66.1,88.9h2.3v2.3h-2.3V88.9z M68.6,88.9h2.3v2.3h-2.3V88.9z M68.6,88.7v-2.3h2.3v2.3H68.6z M68.6,86.2v-2.3h2.3v2.3H68.6z
						 M68.6,83.7v-2.3h2.3v2.3H68.6z M68.6,81.3V79h2.3v2.3H68.6z M68.6,78.8v-2.3h2.3v2.3H68.6z M68.6,76.3V74h2.3v2.3H68.6z
						 M68.6,73.9v-2.3h2.3v2.3H68.6z M68.6,71.4v-2.3h2.3v2.3H68.6z M68.6,68.9v-2.3h2.3v2.3H68.6z M68.6,66.4v-2.3h2.3v2.3H68.6z
						 M68.6,64v-2.3h2.3V64H68.6z M68.6,61.5v-2.3h2.3v2.3H68.6z M68.6,59v-2.3h2.3V59H68.6z M68.6,56.6v-2.3h2.3v2.3H68.6z
						 M68.6,54.1v-2.3h2.3v2.3H68.6z M68.6,51.6v-2.3h2.3v2.3H68.6z M68.6,49.1v-2.3h2.3v2.3H68.6z M68.6,46.7v-2.3h2.3v2.3H68.6z
						 M68.6,44.2v-2.3h2.3v2.3H68.6z M68.6,41.7v-2.3h2.3v2.3H68.6z M68.4,41.7h-2.3v-2.3h2.3V41.7z M65.9,41.7h-2.3v-2.3h2.3V41.7z
						 M63.5,41.7h-2.3v-2.3h2.3V41.7z M61,41.7h-2.3v-2.3H61V41.7z M58.5,41.7h-2.3v-2.3h2.3V41.7z M56.1,41.7h-2.3v-2.3h2.3V41.7z
						 M53.6,41.7h-2.3v-2.3h2.3V41.7z M51.1,41.7h-2.3v-2.3h2.3V41.7z M48.6,41.7h-2.3v-2.3h2.3V41.7z M46.2,41.7h-2.3v-2.3h2.3
						V41.7z M43.7,41.7h-2.3v-2.3h2.3V41.7z M41.2,41.7H39v-2.3h2.3V41.7z M38.8,41.7h-2.3v-2.3h2.3V41.7z M36.3,41.7H34v-2.3h2.3
						V41.7z M33.8,41.7h-2.3v-2.3h2.3V41.7z M31.3,41.7h-2.3v-2.3h2.3V41.7z M28.9,41.7h-2.3v-2.3h2.3V41.7z M26.4,41.7h-2.3v-2.3
						h2.3V41.7z M23.9,41.7h-2.3v-2.3h2.3V41.7z M21.5,41.7h-2.3v-2.3h2.3V41.7z M19,41.7h-2.3v-2.3H19V41.7z M16.5,41.7h-2.3v-2.3
						h2.3V41.7z M14,41.7h-2.3v-2.3H14V41.7z M11.6,41.7H9.3v-2.3h2.3V41.7z M9.1,41.7H6.8v-2.3h2.3V41.7z M6.6,41.7H4.4v-2.3h2.3
						V41.7z M4.2,41.7H1.9v-2.3h2.3V41.7z M1.7,41.7h-2.3v-2.3h2.3V41.7z M-0.8,41.7h-2.3v-2.3h2.3V41.7z M-0.8,41.9v2.3h-2.3v-2.3
						H-0.8z M-0.8,44.4v2.3h-2.3v-2.3H-0.8z M-0.8,46.9v2.3h-2.3v-2.3H-0.8z M-0.8,49.3v2.3h-2.3v-2.3H-0.8z M-0.8,51.8v2.3h-2.3
						v-2.3H-0.8z M-0.8,54.3v2.3h-2.3v-2.3H-0.8z M-0.8,56.7V59h-2.3v-2.3H-0.8z M-0.8,59.2v2.3h-2.3v-2.3H-0.8z M-0.8,61.7V64h-2.3
						v-2.3H-0.8z M-0.8,64.2v2.3h-2.3v-2.3H-0.8z M-0.8,66.6v2.3h-2.3v-2.3H-0.8z M-0.8,69.1v2.3h-2.3v-2.3H-0.8z M-0.8,71.6v2.3
						h-2.3v-2.3H-0.8z M-0.8,74v2.3h-2.3V74H-0.8z M-0.8,76.5v2.3h-2.3v-2.3H-0.8z M-0.8,79v2.3h-2.3V79H-0.8z M-0.8,81.5v2.3h-2.3
						v-2.3H-0.8z M-0.8,83.9v2.3h-2.3v-2.3H-0.8z M-0.8,86.4v2.3h-2.3v-2.3H-0.8z M-0.8,88.9v2.3h-2.3v-2.3H-0.8z M-0.8,91.3v2.3
						h-2.3v-2.3H-0.8z M-0.6,91.3h2.3v2.3h-2.3V91.3z M1.9,91.3h2.3v2.3H1.9V91.3z M4.4,91.3h2.3v2.3H4.4V91.3z M6.8,91.3h2.3v2.3
						H6.8V91.3z M9.3,91.3h2.3v2.3H9.3V91.3z M11.8,91.3H14v2.3h-2.3V91.3z M14.2,91.3h2.3v2.3h-2.3V91.3z M16.7,91.3H19v2.3h-2.3
						V91.3z M19.2,91.3h2.3v2.3h-2.3V91.3z M21.7,91.3h2.3v2.3h-2.3V91.3z M24.1,91.3h2.3v2.3h-2.3V91.3z M26.6,91.3h2.3v2.3h-2.3
						V91.3z M29.1,91.3h2.3v2.3h-2.3V91.3z M31.5,91.3h2.3v2.3h-2.3V91.3z M34,91.3h2.3v2.3H34V91.3z M36.5,91.3h2.3v2.3h-2.3V91.3z
						 M39,91.3h2.3v2.3H39V91.3z M41.4,91.3h2.3v2.3h-2.3V91.3z M43.9,91.3h2.3v2.3h-2.3V91.3z M46.4,91.3h2.3v2.3h-2.3V91.3z
						 M48.8,91.3h2.3v2.3h-2.3V91.3z M51.3,91.3h2.3v2.3h-2.3V91.3z M53.8,91.3h2.3v2.3h-2.3V91.3z M56.3,91.3h2.3v2.3h-2.3V91.3z
						 M58.7,91.3H61v2.3h-2.3V91.3z M61.2,91.3h2.3v2.3h-2.3V91.3z M63.7,91.3h2.3v2.3h-2.3V91.3z M66.1,91.3h2.3v2.3h-2.3V91.3z
						 M68.6,91.3h2.3v2.3h-2.3V91.3z M71.1,91.3h2.3v2.3h-2.3V91.3z M71.1,91.2v-2.3h2.3v2.3H71.1z M71.1,88.7v-2.3h2.3v2.3H71.1z
						 M71.1,86.2v-2.3h2.3v2.3H71.1z M71.1,83.7v-2.3h2.3v2.3H71.1z M71.1,81.3V79h2.3v2.3H71.1z M71.1,78.8v-2.3h2.3v2.3H71.1z
						 M71.1,76.3V74h2.3v2.3H71.1z M71.1,73.9v-2.3h2.3v2.3H71.1z M71.1,71.4v-2.3h2.3v2.3H71.1z M71.1,68.9v-2.3h2.3v2.3H71.1z
						 M71.1,66.4v-2.3h2.3v2.3H71.1z M71.1,64v-2.3h2.3V64H71.1z M71.1,61.5v-2.3h2.3v2.3H71.1z M71.1,59v-2.3h2.3V59H71.1z
						 M71.1,56.6v-2.3h2.3v2.3H71.1z M71.1,54.1v-2.3h2.3v2.3H71.1z M71.1,51.6v-2.3h2.3v2.3H71.1z M71.1,49.1v-2.3h2.3v2.3H71.1z
						 M71.1,46.7v-2.3h2.3v2.3H71.1z M71.1,44.2v-2.3h2.3v2.3H71.1z M71.1,41.7v-2.3h2.3v2.3H71.1z M71.1,39.3V37h2.3v2.3H71.1z
						 M70.9,39.3h-2.3V37h2.3V39.3z M68.4,39.3h-2.3V37h2.3V39.3z M65.9,39.3h-2.3V37h2.3V39.3z M63.5,39.3h-2.3V37h2.3V39.3z
						 M61,39.3h-2.3V37H61V39.3z M58.5,39.3h-2.3V37h2.3V39.3z M56.1,39.3h-2.3V37h2.3V39.3z M53.6,39.3h-2.3V37h2.3V39.3z
						 M51.1,39.3h-2.3V37h2.3V39.3z M48.6,39.3h-2.3V37h2.3V39.3z M46.2,39.3h-2.3V37h2.3V39.3z M43.7,39.3h-2.3V37h2.3V39.3z
						 M41.2,39.3H39V37h2.3V39.3z M38.8,39.3h-2.3V37h2.3V39.3z M36.3,39.3H34V37h2.3V39.3z M33.8,39.3h-2.3V37h2.3V39.3z
						 M31.3,39.3h-2.3V37h2.3V39.3z M28.9,39.3h-2.3V37h2.3V39.3z M26.4,39.3h-2.3V37h2.3V39.3z M23.9,39.3h-2.3V37h2.3V39.3z
						 M21.5,39.3h-2.3V37h2.3V39.3z M19,39.3h-2.3V37H19V39.3z M16.5,39.3h-2.3V37h2.3V39.3z M14,39.3h-2.3V37H14V39.3z M11.6,39.3
						H9.3V37h2.3V39.3z M9.1,39.3H6.8V37h2.3V39.3z M6.6,39.3H4.4V37h2.3V39.3z M4.2,39.3H1.9V37h2.3V39.3z M1.7,39.3h-2.3V37h2.3
						V39.3z M-0.8,39.3h-2.3V37h2.3V39.3z M-3.3,39.3h-2.3V37h2.3V39.3z M-3.3,39.4v2.3h-2.3v-2.3H-3.3z M-3.3,41.9v2.3h-2.3v-2.3
						H-3.3z M-3.3,44.4v2.3h-2.3v-2.3H-3.3z M-3.3,46.9v2.3h-2.3v-2.3H-3.3z M-3.3,49.3v2.3h-2.3v-2.3H-3.3z M-3.3,51.8v2.3h-2.3
						v-2.3H-3.3z M-3.3,54.3v2.3h-2.3v-2.3H-3.3z M-3.3,56.7V59h-2.3v-2.3H-3.3z M-3.3,59.2v2.3h-2.3v-2.3H-3.3z M-3.3,61.7V64h-2.3
						v-2.3H-3.3z M-3.3,64.2v2.3h-2.3v-2.3H-3.3z M-3.3,66.6v2.3h-2.3v-2.3H-3.3z M-3.3,69.1v2.3h-2.3v-2.3H-3.3z M-3.3,71.6v2.3
						h-2.3v-2.3H-3.3z M-3.3,74v2.3h-2.3V74H-3.3z M-3.3,76.5v2.3h-2.3v-2.3H-3.3z M-3.3,79v2.3h-2.3V79H-3.3z M-3.3,81.5v2.3h-2.3
						v-2.3H-3.3z M-3.3,83.9v2.3h-2.3v-2.3H-3.3z M-3.3,86.4v2.3h-2.3v-2.3H-3.3z M-3.3,88.9v2.3h-2.3v-2.3H-3.3z M-3.3,91.3v2.3
						h-2.3v-2.3H-3.3z M-3.3,93.8v2.3h-2.3v-2.3H-3.3z M-3.1,93.8h2.3v2.3h-2.3V93.8z M-0.6,93.8h2.3v2.3h-2.3V93.8z M1.9,93.8h2.3
						v2.3H1.9V93.8z M4.4,93.8h2.3v2.3H4.4V93.8z M6.8,93.8h2.3v2.3H6.8V93.8z M9.3,93.8h2.3v2.3H9.3V93.8z M11.8,93.8H14v2.3h-2.3
						V93.8z M14.2,93.8h2.3v2.3h-2.3V93.8z M16.7,93.8H19v2.3h-2.3V93.8z M19.2,93.8h2.3v2.3h-2.3V93.8z M21.7,93.8h2.3v2.3h-2.3
						V93.8z M24.1,93.8h2.3v2.3h-2.3V93.8z M26.6,93.8h2.3v2.3h-2.3V93.8z M29.1,93.8h2.3v2.3h-2.3V93.8z M31.5,93.8h2.3v2.3h-2.3
						V93.8z M34,93.8h2.3v2.3H34V93.8z M36.5,93.8h2.3v2.3h-2.3V93.8z M39,93.8h2.3v2.3H39V93.8z M41.4,93.8h2.3v2.3h-2.3V93.8z
						 M43.9,93.8h2.3v2.3h-2.3V93.8z M46.4,93.8h2.3v2.3h-2.3V93.8z M48.8,93.8h2.3v2.3h-2.3V93.8z M51.3,93.8h2.3v2.3h-2.3V93.8z
						 M53.8,93.8h2.3v2.3h-2.3V93.8z M56.3,93.8h2.3v2.3h-2.3V93.8z M58.7,93.8H61v2.3h-2.3V93.8z M61.2,93.8h2.3v2.3h-2.3V93.8z
						 M63.7,93.8h2.3v2.3h-2.3V93.8z M66.1,93.8h2.3v2.3h-2.3V93.8z M68.6,93.8h2.3v2.3h-2.3V93.8z M71.1,93.8h2.3v2.3h-2.3V93.8z
						 M73.6,93.8h2.3v2.3h-2.3V93.8z M73.6,93.6v-2.3h2.3v2.3H73.6z M73.6,91.2v-2.3h2.3v2.3H73.6z M73.6,88.7v-2.3h2.3v2.3H73.6z
						 M73.6,86.2v-2.3h2.3v2.3H73.6z M73.6,83.7v-2.3h2.3v2.3H73.6z M73.6,81.3V79h2.3v2.3H73.6z M73.6,78.8v-2.3h2.3v2.3H73.6z
						 M73.6,76.3V74h2.3v2.3H73.6z M73.6,73.9v-2.3h2.3v2.3H73.6z M73.6,71.4v-2.3h2.3v2.3H73.6z M73.6,68.9v-2.3h2.3v2.3H73.6z
						 M73.6,66.4v-2.3h2.3v2.3H73.6z M73.6,64v-2.3h2.3V64H73.6z M73.6,61.5v-2.3h2.3v2.3H73.6z M73.6,59v-2.3h2.3V59H73.6z
						 M73.6,56.6v-2.3h2.3v2.3H73.6z M73.6,54.1v-2.3h2.3v2.3H73.6z M73.6,51.6v-2.3h2.3v2.3H73.6z M73.6,49.1v-2.3h2.3v2.3H73.6z
						 M73.6,46.7v-2.3h2.3v2.3H73.6z M73.6,44.2v-2.3h2.3v2.3H73.6z M73.6,41.7v-2.3h2.3v2.3H73.6z M73.6,39.3V37h2.3v2.3H73.6z
						 M73.6,36.8v-2.3h2.3v2.3H73.6z M73.4,36.8h-2.3v-2.3h2.3V36.8z M70.9,36.8h-2.3v-2.3h2.3V36.8z M68.4,36.8h-2.3v-2.3h2.3V36.8
						z M65.9,36.8h-2.3v-2.3h2.3V36.8z M63.5,36.8h-2.3v-2.3h2.3V36.8z M61,36.8h-2.3v-2.3H61V36.8z M58.5,36.8h-2.3v-2.3h2.3V36.8z
						 M56.1,36.8h-2.3v-2.3h2.3V36.8z M53.6,36.8h-2.3v-2.3h2.3V36.8z M51.1,36.8h-2.3v-2.3h2.3V36.8z M48.6,36.8h-2.3v-2.3h2.3
						V36.8z M46.2,36.8h-2.3v-2.3h2.3V36.8z M43.7,36.8h-2.3v-2.3h2.3V36.8z M41.2,36.8H39v-2.3h2.3V36.8z M38.8,36.8h-2.3v-2.3h2.3
						V36.8z M36.3,36.8H34v-2.3h2.3V36.8z M33.8,36.8h-2.3v-2.3h2.3V36.8z M31.3,36.8h-2.3v-2.3h2.3V36.8z M28.9,36.8h-2.3v-2.3h2.3
						V36.8z M26.4,36.8h-2.3v-2.3h2.3V36.8z M23.9,36.8h-2.3v-2.3h2.3V36.8z M21.5,36.8h-2.3v-2.3h2.3V36.8z M19,36.8h-2.3v-2.3H19
						V36.8z M16.5,36.8h-2.3v-2.3h2.3V36.8z M14,36.8h-2.3v-2.3H14V36.8z M11.6,36.8H9.3v-2.3h2.3V36.8z M9.1,36.8H6.8v-2.3h2.3
						V36.8z M6.6,36.8H4.4v-2.3h2.3V36.8z M4.2,36.8H1.9v-2.3h2.3V36.8z M1.7,36.8h-2.3v-2.3h2.3V36.8z M-0.8,36.8h-2.3v-2.3h2.3
						V36.8z M-3.3,36.8h-2.3v-2.3h2.3V36.8z M-5.7,36.8H-8v-2.3h2.3V36.8z M-5.7,37v2.3H-8V37H-5.7z M-5.7,39.4v2.3H-8v-2.3H-5.7z
						 M-5.7,41.9v2.3H-8v-2.3H-5.7z M-5.7,44.4v2.3H-8v-2.3H-5.7z M-5.7,46.9v2.3H-8v-2.3H-5.7z M-5.7,49.3v2.3H-8v-2.3H-5.7z
						 M-5.7,51.8v2.3H-8v-2.3H-5.7z M-5.7,54.3v2.3H-8v-2.3H-5.7z M-5.7,56.7V59H-8v-2.3H-5.7z M-5.7,59.2v2.3H-8v-2.3H-5.7z
						 M-5.7,61.7V64H-8v-2.3H-5.7z M-5.7,64.2v2.3H-8v-2.3H-5.7z M-5.7,66.6v2.3H-8v-2.3H-5.7z M-5.7,69.1v2.3H-8v-2.3H-5.7z
						 M-5.7,71.6v2.3H-8v-2.3H-5.7z M-5.7,74v2.3H-8V74H-5.7z M-5.7,76.5v2.3H-8v-2.3H-5.7z M-5.7,79v2.3H-8V79H-5.7z M-5.7,81.5
						v2.3H-8v-2.3H-5.7z M-5.7,83.9v2.3H-8v-2.3H-5.7z M-5.7,86.4v2.3H-8v-2.3H-5.7z M-5.7,88.9v2.3H-8v-2.3H-5.7z M-5.7,91.3v2.3
						H-8v-2.3H-5.7z M-5.7,93.8v2.3H-8v-2.3H-5.7z M-5.7,96.3v2.3H-8v-2.3H-5.7z M-5.5,96.3h2.3v2.3h-2.3V96.3z M-3.1,96.3h2.3v2.3
						h-2.3V96.3z M-0.6,96.3h2.3v2.3h-2.3V96.3z M1.9,96.3h2.3v2.3H1.9V96.3z M4.4,96.3h2.3v2.3H4.4V96.3z M6.8,96.3h2.3v2.3H6.8
						V96.3z M9.3,96.3h2.3v2.3H9.3V96.3z M11.8,96.3H14v2.3h-2.3V96.3z M14.2,96.3h2.3v2.3h-2.3V96.3z M16.7,96.3H19v2.3h-2.3V96.3z
						 M19.2,96.3h2.3v2.3h-2.3V96.3z M21.7,96.3h2.3v2.3h-2.3V96.3z M24.1,96.3h2.3v2.3h-2.3V96.3z M26.6,96.3h2.3v2.3h-2.3V96.3z
						 M29.1,96.3h2.3v2.3h-2.3V96.3z M31.5,96.3h2.3v2.3h-2.3V96.3z M34,96.3h2.3v2.3H34V96.3z M36.5,96.3h2.3v2.3h-2.3V96.3z
						 M39,96.3h2.3v2.3H39V96.3z M41.4,96.3h2.3v2.3h-2.3V96.3z M43.9,96.3h2.3v2.3h-2.3V96.3z M46.4,96.3h2.3v2.3h-2.3V96.3z
						 M48.8,96.3h2.3v2.3h-2.3V96.3z M51.3,96.3h2.3v2.3h-2.3V96.3z M53.8,96.3h2.3v2.3h-2.3V96.3z M56.3,96.3h2.3v2.3h-2.3V96.3z
						 M58.7,96.3H61v2.3h-2.3V96.3z M61.2,96.3h2.3v2.3h-2.3V96.3z M63.7,96.3h2.3v2.3h-2.3V96.3z M66.1,96.3h2.3v2.3h-2.3V96.3z
						 M68.6,96.3h2.3v2.3h-2.3V96.3z M71.1,96.3h2.3v2.3h-2.3V96.3z M73.6,96.3h2.3v2.3h-2.3V96.3z M76,96.3h2.3v2.3H76V96.3z
						 M76,96.1v-2.3h2.3v2.3H76z M76,93.6v-2.3h2.3v2.3H76z M76,91.2v-2.3h2.3v2.3H76z M76,88.7v-2.3h2.3v2.3H76z M76,86.2v-2.3h2.3
						v2.3H76z M76,83.7v-2.3h2.3v2.3H76z M76,81.3V79h2.3v2.3H76z M76,78.8v-2.3h2.3v2.3H76z M76,76.3V74h2.3v2.3H76z M76,73.9v-2.3
						h2.3v2.3H76z M76,71.4v-2.3h2.3v2.3H76z M76,68.9v-2.3h2.3v2.3H76z M76,66.4v-2.3h2.3v2.3H76z M76,64v-2.3h2.3V64H76z M76,61.5
						v-2.3h2.3v2.3H76z M76,59v-2.3h2.3V59H76z M76,56.6v-2.3h2.3v2.3H76z M76,54.1v-2.3h2.3v2.3H76z M76,51.6v-2.3h2.3v2.3H76z
						 M76,49.1v-2.3h2.3v2.3H76z M76,46.7v-2.3h2.3v2.3H76z M76,44.2v-2.3h2.3v2.3H76z M76,41.7v-2.3h2.3v2.3H76z M76,39.3V37h2.3
						v2.3H76z M76,36.8v-2.3h2.3v2.3H76z M75.8,32v2.3h-2.3V32H75.8z M73.4,32v2.3h-2.3V32H73.4z M70.9,32v2.3h-2.3V32H70.9z
						 M68.4,32v2.3h-2.3V32H68.4z M65.9,32v2.3h-2.3V32H65.9z M63.5,32v2.3h-2.3V32H63.5z M61,32v2.3h-2.3V32H61z M58.5,32v2.3h-2.3
						V32H58.5z M56.1,32v2.3h-2.3V32H56.1z M53.6,32v2.3h-2.3V32H53.6z M51.1,32v2.3h-2.3V32H51.1z M48.6,32v2.3h-2.3V32H48.6z
						 M46.2,32v2.3h-2.3V32H46.2z M43.7,32v2.3h-2.3V32H43.7z M41.2,32v2.3H39V32H41.2z M38.8,32v2.3h-2.3V32H38.8z M36.3,32v2.3H34
						V32H36.3z M33.8,32v2.3h-2.3V32H33.8z M31.3,32v2.3h-2.3V32H31.3z M28.9,32v2.3h-2.3V32H28.9z M26.4,32v2.3h-2.3V32H26.4z
						 M23.9,32v2.3h-2.3V32H23.9z M21.5,32v2.3h-2.3V32H21.5z M19,32v2.3h-2.3V32H19z M16.5,32v2.3h-2.3V32H16.5z M14,32v2.3h-2.3
						V32H14z M11.6,32v2.3H9.3V32H11.6z M9.1,32v2.3H6.8V32H9.1z M6.6,32v2.3H4.4V32H6.6z M4.2,32v2.3H1.9V32H4.2z M1.7,32v2.3h-2.3
						V32H1.7z M-0.8,32v2.3h-2.3V32H-0.8z M-3.3,32v2.3h-2.3V32H-3.3z M-5.7,32v2.3H-8V32H-5.7z"/>
				</g>
			</g>
		</g>
		<g id="XMLID_63_">
			<path class="st6" d="M52.6,77H23.2c-6.4,0-11.6-5.2-11.6-11.6c0-6.4,5.2-11.6,11.6-11.6c1.1,0,2.3,0.2,3.3,0.5
				c1.5-5.9,6.8-10.1,13-10.1c6.4,0,11.8,4.4,13.1,10.5c6.1,0,11,5,11,11.1C63.6,72,58.7,77,52.6,77z M23.2,56.8
				c-4.7,0-8.6,3.8-8.6,8.6c0,4.7,3.8,8.6,8.6,8.6h29.4c4.5,0,8.1-3.6,8.1-8.1c0-4.5-3.6-8.1-8.1-8.1c-0.3,0-0.6,0-1,0.1l-1.5,0.2
				l-0.2-1.5c-0.6-5.3-5-9.3-10.4-9.3c-5.3,0-9.8,4-10.4,9.3l-0.2,2.1l-1.9-1C25.8,57.2,24.5,56.8,23.2,56.8z"/>
		</g>
	</g>
</g>
</svg>
