<?xml version="1.0" encoding="utf-8"?>
<!-- Generator: Adobe Illustrator 19.2.1, SVG Export Plug-In . SVG Version: 6.00 Build 0)  -->
<svg version="1.1" id="图层_1" xmlns="http://www.w3.org/2000/svg" xmlns:xlink="http://www.w3.org/1999/xlink" x="0px" y="0px"
	 viewBox="0 0 100 100" style="enable-background:new 0 0 100 100;" xml:space="preserve">
<style type="text/css">
	.st0{fill:#F0F7F5;}
	.st1{clip-path:url(#SVGID_2_);}
	.st2{fill:#D1E0DC;}
	.st3{fill:#FFFFFF;}
	.st4{fill:#2B937C;}
	.st5{clip-path:url(#SVGID_4_);}
	.st6{fill:#065E49;}
</style>
<g id="XMLID_153_">
	<circle class="st0" cx="50" cy="50" r="50"/>
</g>
<g id="XMLID_12_">
	<defs>
		<circle id="SVGID_1_" cx="50" cy="50" r="36.4"/>
	</defs>
	<clipPath id="SVGID_2_">
		<use xlink:href="#SVGID_1_"  style="overflow:visible;"/>
	</clipPath>
	<g id="XMLID_23_" class="st1">
		<g id="XMLID_1931_">
			<rect x="-9.4" y="1.9" class="st2" width="115.4" height="0.3"/>
		</g>
		<g id="XMLID_24_">
			<path class="st2" d="M106.1,2.6h-0.3v2.6h-3V2.6h-0.3v2.6h-3V2.6h-0.3v2.6h-3V2.6h-0.3v2.6h-3V2.6h-0.3v2.6h-3V2.6h-0.3v2.6h-3
				V2.6h-0.3v2.6h-3V2.6h-0.3v2.6h-3V2.6h-0.3v2.6h-3V2.6h-0.3v2.6h-3V2.6h-0.3v2.6h-3V2.6h-0.3v2.6h-3V2.6h-0.3v2.6h-3V2.6H63v2.6
				h-3V2.6h-0.3v2.6h-3V2.6h-0.3v2.6h-3V2.6h-0.3v2.6h-3V2.6h-0.3v2.6h-3V2.6h-0.3v2.6h-3V2.6h-0.3v2.6h-3V2.6h-0.3v2.6h-3V2.6h-0.3
				v2.6h-3V2.6h-0.3v2.6h-3V2.6H30v2.6h-3V2.6h-0.3v2.6h-3V2.6h-0.3v2.6h-3V2.6h-0.3v2.6h-3V2.6h-0.3v2.6h-3V2.6h-0.3v2.6h-3V2.6
				h-0.3v2.6h-3V2.6H6.9v2.6h-3V2.6H3.6v2.6h-3V2.6H0.3v2.6h-3V2.6H-3v2.6h-3V2.6h-0.3v2.6h-3V2.6h-0.3v91.8h0.1v0.1H106v-0.1h0.1
				V2.6z M105.8,5.4v3h-3v-3H105.8z M59.7,51.3h-3v-3h3V51.3z M59.9,48.3h3v3h-3V48.3z M56.4,51.3h-3v-3h3V51.3z M53.1,51.3h-3v-3h3
				V51.3z M49.8,51.3h-3v-3h3V51.3z M46.5,51.3h-3v-3h3V51.3z M43.2,51.3h-3v-3h3V51.3z M39.9,51.3h-3v-3h3V51.3z M36.6,51.3h-3v-3
				h3V51.3z M33.3,51.3h-3v-3h3V51.3z M33.3,51.6v3h-3v-3H33.3z M33.6,51.6h3v3h-3V51.6z M36.9,51.6h3v3h-3V51.6z M40.2,51.6h3v3h-3
				V51.6z M43.4,51.6h3v3h-3V51.6z M46.7,51.6h3v3h-3V51.6z M50,51.6h3v3h-3V51.6z M53.3,51.6h3v3h-3V51.6z M56.6,51.6h3v3h-3V51.6z
				 M59.9,51.6h3v3h-3V51.6z M63.2,51.6h3v3h-3V51.6z M63.2,51.3v-3h3v3H63.2z M63.2,48v-3h3v3H63.2z M63,48h-3v-3h3V48z M59.7,48
				h-3v-3h3V48z M56.4,48h-3v-3h3V48z M53.1,48h-3v-3h3V48z M49.8,48h-3v-3h3V48z M46.5,48h-3v-3h3V48z M43.2,48h-3v-3h3V48z
				 M39.9,48h-3v-3h3V48z M36.6,48h-3v-3h3V48z M33.3,48h-3v-3h3V48z M30,48h-3v-3h3V48z M30,48.3v3h-3v-3H30z M30,51.6v3h-3v-3H30z
				 M30,54.9v3h-3v-3H30z M30.3,54.9h3v3h-3V54.9z M33.6,54.9h3v3h-3V54.9z M36.9,54.9h3v3h-3V54.9z M40.2,54.9h3v3h-3V54.9z
				 M43.4,54.9h3v3h-3V54.9z M46.7,54.9h3v3h-3V54.9z M50,54.9h3v3h-3V54.9z M53.3,54.9h3v3h-3V54.9z M56.6,54.9h3v3h-3V54.9z
				 M59.9,54.9h3v3h-3V54.9z M63.2,54.9h3v3h-3V54.9z M66.5,54.9h3v3h-3V54.9z M66.5,54.6v-3h3v3H66.5z M66.5,51.3v-3h3v3H66.5z
				 M66.5,48v-3h3v3H66.5z M66.5,44.7v-3h3v3H66.5z M66.3,44.7h-3v-3h3V44.7z M63,44.7h-3v-3h3V44.7z M59.7,44.7h-3v-3h3V44.7z
				 M56.4,44.7h-3v-3h3V44.7z M53.1,44.7h-3v-3h3V44.7z M49.8,44.7h-3v-3h3V44.7z M46.5,44.7h-3v-3h3V44.7z M43.2,44.7h-3v-3h3V44.7
				z M39.9,44.7h-3v-3h3V44.7z M36.6,44.7h-3v-3h3V44.7z M33.3,44.7h-3v-3h3V44.7z M30,44.7h-3v-3h3V44.7z M26.7,44.7h-3v-3h3V44.7z
				 M26.7,45v3h-3v-3H26.7z M26.7,48.3v3h-3v-3H26.7z M26.7,51.6v3h-3v-3H26.7z M26.7,54.9v3h-3v-3H26.7z M26.7,58.2v3h-3v-3H26.7z
				 M27,58.2h3v3h-3V58.2z M30.3,58.2h3v3h-3V58.2z M33.6,58.2h3v3h-3V58.2z M36.9,58.2h3v3h-3V58.2z M40.2,58.2h3v3h-3V58.2z
				 M43.4,58.2h3v3h-3V58.2z M46.7,58.2h3v3h-3V58.2z M50,58.2h3v3h-3V58.2z M53.3,58.2h3v3h-3V58.2z M56.6,58.2h3v3h-3V58.2z
				 M59.9,58.2h3v3h-3V58.2z M63.2,58.2h3v3h-3V58.2z M66.5,58.2h3v3h-3V58.2z M69.8,58.2h3v3h-3V58.2z M69.8,57.9v-3h3v3H69.8z
				 M69.8,54.6v-3h3v3H69.8z M69.8,51.3v-3h3v3H69.8z M69.8,48v-3h3v3H69.8z M69.8,44.7v-3h3v3H69.8z M69.8,41.4v-3h3v3H69.8z
				 M69.6,41.4h-3v-3h3V41.4z M66.3,41.4h-3v-3h3V41.4z M63,41.4h-3v-3h3V41.4z M59.7,41.4h-3v-3h3V41.4z M56.4,41.4h-3v-3h3V41.4z
				 M53.1,41.4h-3v-3h3V41.4z M49.8,41.4h-3v-3h3V41.4z M46.5,41.4h-3v-3h3V41.4z M43.2,41.4h-3v-3h3V41.4z M39.9,41.4h-3v-3h3V41.4
				z M36.6,41.4h-3v-3h3V41.4z M33.3,41.4h-3v-3h3V41.4z M30,41.4h-3v-3h3V41.4z M26.7,41.4h-3v-3h3V41.4z M23.4,41.4h-3v-3h3V41.4z
				 M23.4,41.7v3h-3v-3H23.4z M23.4,45v3h-3v-3H23.4z M23.4,48.3v3h-3v-3H23.4z M23.4,51.6v3h-3v-3H23.4z M23.4,54.9v3h-3v-3H23.4z
				 M23.4,58.2v3h-3v-3H23.4z M23.4,61.5v3h-3v-3H23.4z M23.7,61.5h3v3h-3V61.5z M27,61.5h3v3h-3V61.5z M30.3,61.5h3v3h-3V61.5z
				 M33.6,61.5h3v3h-3V61.5z M36.9,61.5h3v3h-3V61.5z M40.2,61.5h3v3h-3V61.5z M43.4,61.5h3v3h-3V61.5z M46.7,61.5h3v3h-3V61.5z
				 M50,61.5h3v3h-3V61.5z M53.3,61.5h3v3h-3V61.5z M56.6,61.5h3v3h-3V61.5z M59.9,61.5h3v3h-3V61.5z M63.2,61.5h3v3h-3V61.5z
				 M66.5,61.5h3v3h-3V61.5z M69.8,61.5h3v3h-3V61.5z M73.1,61.5h3v3h-3V61.5z M73.1,61.2v-3h3v3H73.1z M73.1,57.9v-3h3v3H73.1z
				 M73.1,54.6v-3h3v3H73.1z M73.1,51.3v-3h3v3H73.1z M73.1,48v-3h3v3H73.1z M73.1,44.7v-3h3v3H73.1z M73.1,41.4v-3h3v3H73.1z
				 M73.1,38.1v-3h3v3H73.1z M72.9,38.1h-3v-3h3V38.1z M69.6,38.1h-3v-3h3V38.1z M66.3,38.1h-3v-3h3V38.1z M63,38.1h-3v-3h3V38.1z
				 M59.7,38.1h-3v-3h3V38.1z M56.4,38.1h-3v-3h3V38.1z M53.1,38.1h-3v-3h3V38.1z M49.8,38.1h-3v-3h3V38.1z M46.5,38.1h-3v-3h3V38.1
				z M43.2,38.1h-3v-3h3V38.1z M39.9,38.1h-3v-3h3V38.1z M36.6,38.1h-3v-3h3V38.1z M33.3,38.1h-3v-3h3V38.1z M30,38.1h-3v-3h3V38.1z
				 M26.7,38.1h-3v-3h3V38.1z M23.4,38.1h-3v-3h3V38.1z M20.1,38.1h-3v-3h3V38.1z M20.1,38.4v3h-3v-3H20.1z M20.1,41.7v3h-3v-3H20.1
				z M20.1,45v3h-3v-3H20.1z M20.1,48.3v3h-3v-3H20.1z M20.1,51.6v3h-3v-3H20.1z M20.1,54.9v3h-3v-3H20.1z M20.1,58.2v3h-3v-3H20.1z
				 M20.1,61.5v3h-3v-3H20.1z M20.1,64.8v3h-3v-3H20.1z M20.4,64.8h3v3h-3V64.8z M23.7,64.8h3v3h-3V64.8z M27,64.8h3v3h-3V64.8z
				 M30.3,64.8h3v3h-3V64.8z M33.6,64.8h3v3h-3V64.8z M36.9,64.8h3v3h-3V64.8z M40.2,64.8h3v3h-3V64.8z M43.4,64.8h3v3h-3V64.8z
				 M46.7,64.8h3v3h-3V64.8z M50,64.8h3v3h-3V64.8z M53.3,64.8h3v3h-3V64.8z M56.6,64.8h3v3h-3V64.8z M59.9,64.8h3v3h-3V64.8z
				 M63.2,64.8h3v3h-3V64.8z M66.5,64.8h3v3h-3V64.8z M69.8,64.8h3v3h-3V64.8z M73.1,64.8h3v3h-3V64.8z M76.4,64.8h3v3h-3V64.8z
				 M76.4,64.5v-3h3v3H76.4z M76.4,61.2v-3h3v3H76.4z M76.4,57.9v-3h3v3H76.4z M76.4,54.6v-3h3v3H76.4z M76.4,51.3v-3h3v3H76.4z
				 M76.4,48v-3h3v3H76.4z M76.4,44.7v-3h3v3H76.4z M76.4,41.4v-3h3v3H76.4z M76.4,38.1v-3h3v3H76.4z M76.4,34.8v-3h3v3H76.4z
				 M76.2,34.8h-3v-3h3V34.8z M72.9,34.8h-3v-3h3V34.8z M69.6,34.8h-3v-3h3V34.8z M66.3,34.8h-3v-3h3V34.8z M63,34.8h-3v-3h3V34.8z
				 M59.7,34.8h-3v-3h3V34.8z M56.4,34.8h-3v-3h3V34.8z M53.1,34.8h-3v-3h3V34.8z M49.8,34.8h-3v-3h3V34.8z M46.5,34.8h-3v-3h3V34.8
				z M43.2,34.8h-3v-3h3V34.8z M39.9,34.8h-3v-3h3V34.8z M36.6,34.8h-3v-3h3V34.8z M33.3,34.8h-3v-3h3V34.8z M30,34.8h-3v-3h3V34.8z
				 M26.7,34.8h-3v-3h3V34.8z M23.4,34.8h-3v-3h3V34.8z M20.1,34.8h-3v-3h3V34.8z M16.8,34.8h-3v-3h3V34.8z M16.8,35.1v3h-3v-3H16.8
				z M16.8,38.4v3h-3v-3H16.8z M16.8,41.7v3h-3v-3H16.8z M16.8,45v3h-3v-3H16.8z M16.8,48.3v3h-3v-3H16.8z M16.8,51.6v3h-3v-3H16.8z
				 M16.8,54.9v3h-3v-3H16.8z M16.8,58.2v3h-3v-3H16.8z M16.8,61.5v3h-3v-3H16.8z M16.8,64.8v3h-3v-3H16.8z M16.8,68.1v3h-3v-3H16.8
				z M17.1,68.1h3v3h-3V68.1z M20.4,68.1h3v3h-3V68.1z M23.7,68.1h3v3h-3V68.1z M27,68.1h3v3h-3V68.1z M30.3,68.1h3v3h-3V68.1z
				 M33.6,68.1h3v3h-3V68.1z M36.9,68.1h3v3h-3V68.1z M40.2,68.1h3v3h-3V68.1z M43.4,68.1h3v3h-3V68.1z M46.7,68.1h3v3h-3V68.1z
				 M50,68.1h3v3h-3V68.1z M53.3,68.1h3v3h-3V68.1z M56.6,68.1h3v3h-3V68.1z M59.9,68.1h3v3h-3V68.1z M63.2,68.1h3v3h-3V68.1z
				 M66.5,68.1h3v3h-3V68.1z M69.8,68.1h3v3h-3V68.1z M73.1,68.1h3v3h-3V68.1z M76.4,68.1h3v3h-3V68.1z M79.7,68.1h3v3h-3V68.1z
				 M79.7,67.8v-3h3v3H79.7z M79.7,64.5v-3h3v3H79.7z M79.7,61.2v-3h3v3H79.7z M79.7,57.9v-3h3v3H79.7z M79.7,54.6v-3h3v3H79.7z
				 M79.7,51.3v-3h3v3H79.7z M79.7,48v-3h3v3H79.7z M79.7,44.7v-3h3v3H79.7z M79.7,41.4v-3h3v3H79.7z M79.7,38.1v-3h3v3H79.7z
				 M79.7,34.8v-3h3v3H79.7z M79.7,31.5v-3h3v3H79.7z M79.5,31.5h-3v-3h3V31.5z M76.2,31.5h-3v-3h3V31.5z M72.9,31.5h-3v-3h3V31.5z
				 M69.6,31.5h-3v-3h3V31.5z M66.3,31.5h-3v-3h3V31.5z M63,31.5h-3v-3h3V31.5z M59.7,31.5h-3v-3h3V31.5z M56.4,31.5h-3v-3h3V31.5z
				 M53.1,31.5h-3v-3h3V31.5z M49.8,31.5h-3v-3h3V31.5z M46.5,31.5h-3v-3h3V31.5z M43.2,31.5h-3v-3h3V31.5z M39.9,31.5h-3v-3h3V31.5
				z M36.6,31.5h-3v-3h3V31.5z M33.3,31.5h-3v-3h3V31.5z M30,31.5h-3v-3h3V31.5z M26.7,31.5h-3v-3h3V31.5z M23.4,31.5h-3v-3h3V31.5z
				 M20.1,31.5h-3v-3h3V31.5z M16.8,31.5h-3v-3h3V31.5z M13.5,31.5h-3v-3h3V31.5z M13.5,31.8v3h-3v-3H13.5z M13.5,35.1v3h-3v-3H13.5
				z M13.5,38.4v3h-3v-3H13.5z M13.5,41.7v3h-3v-3H13.5z M13.5,45v3h-3v-3H13.5z M13.5,48.3v3h-3v-3H13.5z M13.5,51.6v3h-3v-3H13.5z
				 M13.5,54.9v3h-3v-3H13.5z M13.5,58.2v3h-3v-3H13.5z M13.5,61.5v3h-3v-3H13.5z M13.5,64.8v3h-3v-3H13.5z M13.5,68.1v3h-3v-3H13.5
				z M13.5,71.4v3h-3v-3H13.5z M13.8,71.4h3v3h-3V71.4z M17.1,71.4h3v3h-3V71.4z M20.4,71.4h3v3h-3V71.4z M23.7,71.4h3v3h-3V71.4z
				 M27,71.4h3v3h-3V71.4z M30.3,71.4h3v3h-3V71.4z M33.6,71.4h3v3h-3V71.4z M36.9,71.4h3v3h-3V71.4z M40.2,71.4h3v3h-3V71.4z
				 M43.4,71.4h3v3h-3V71.4z M46.7,71.4h3v3h-3V71.4z M50,71.4h3v3h-3V71.4z M53.3,71.4h3v3h-3V71.4z M56.6,71.4h3v3h-3V71.4z
				 M59.9,71.4h3v3h-3V71.4z M63.2,71.4h3v3h-3V71.4z M66.5,71.4h3v3h-3V71.4z M69.8,71.4h3v3h-3V71.4z M73.1,71.4h3v3h-3V71.4z
				 M76.4,71.4h3v3h-3V71.4z M79.7,71.4h3v3h-3V71.4z M83,71.4h3v3h-3V71.4z M83,71.1v-3h3v3H83z M83,67.8v-3h3v3H83z M83,64.5v-3h3
				v3H83z M83,61.2v-3h3v3H83z M83,57.9v-3h3v3H83z M83,54.6v-3h3v3H83z M83,51.3v-3h3v3H83z M83,48v-3h3v3H83z M83,44.7v-3h3v3H83z
				 M83,41.4v-3h3v3H83z M83,38.1v-3h3v3H83z M83,34.8v-3h3v3H83z M83,31.5v-3h3v3H83z M83,28.2v-3h3v3H83z M82.8,28.2h-3v-3h3V28.2
				z M79.5,28.2h-3v-3h3V28.2z M76.2,28.2h-3v-3h3V28.2z M72.9,28.2h-3v-3h3V28.2z M69.6,28.2h-3v-3h3V28.2z M66.3,28.2h-3v-3h3
				V28.2z M63,28.2h-3v-3h3V28.2z M59.7,28.2h-3v-3h3V28.2z M56.4,28.2h-3v-3h3V28.2z M53.1,28.2h-3v-3h3V28.2z M49.8,28.2h-3v-3h3
				V28.2z M46.5,28.2h-3v-3h3V28.2z M43.2,28.2h-3v-3h3V28.2z M39.9,28.2h-3v-3h3V28.2z M36.6,28.2h-3v-3h3V28.2z M33.3,28.2h-3v-3
				h3V28.2z M30,28.2h-3v-3h3V28.2z M26.7,28.2h-3v-3h3V28.2z M23.4,28.2h-3v-3h3V28.2z M20.1,28.2h-3v-3h3V28.2z M16.8,28.2h-3v-3
				h3V28.2z M13.5,28.2h-3v-3h3V28.2z M10.2,28.2h-3v-3h3V28.2z M10.2,28.5v3h-3v-3H10.2z M10.2,31.8v3h-3v-3H10.2z M10.2,35.1v3h-3
				v-3H10.2z M10.2,38.4v3h-3v-3H10.2z M10.2,41.7v3h-3v-3H10.2z M10.2,45v3h-3v-3H10.2z M10.2,48.3v3h-3v-3H10.2z M10.2,51.6v3h-3
				v-3H10.2z M10.2,54.9v3h-3v-3H10.2z M10.2,58.2v3h-3v-3H10.2z M10.2,61.5v3h-3v-3H10.2z M10.2,64.8v3h-3v-3H10.2z M10.2,68.1v3
				h-3v-3H10.2z M10.2,71.4v3h-3v-3H10.2z M10.2,74.7v3h-3v-3H10.2z M10.5,74.7h3v3h-3V74.7z M13.8,74.7h3v3h-3V74.7z M17.1,74.7h3
				v3h-3V74.7z M20.4,74.7h3v3h-3V74.7z M23.7,74.7h3v3h-3V74.7z M27,74.7h3v3h-3V74.7z M30.3,74.7h3v3h-3V74.7z M33.6,74.7h3v3h-3
				V74.7z M36.9,74.7h3v3h-3V74.7z M40.2,74.7h3v3h-3V74.7z M43.4,74.7h3v3h-3V74.7z M46.7,74.7h3v3h-3V74.7z M50,74.7h3v3h-3V74.7z
				 M53.3,74.7h3v3h-3V74.7z M56.6,74.7h3v3h-3V74.7z M59.9,74.7h3v3h-3V74.7z M63.2,74.7h3v3h-3V74.7z M66.5,74.7h3v3h-3V74.7z
				 M69.8,74.7h3v3h-3V74.7z M73.1,74.7h3v3h-3V74.7z M76.4,74.7h3v3h-3V74.7z M79.7,74.7h3v3h-3V74.7z M83,74.7h3v3h-3V74.7z
				 M86.3,74.7h3v3h-3V74.7z M86.3,74.4v-3h3v3H86.3z M86.3,71.1v-3h3v3H86.3z M86.3,67.8v-3h3v3H86.3z M86.3,64.5v-3h3v3H86.3z
				 M86.3,61.2v-3h3v3H86.3z M86.3,57.9v-3h3v3H86.3z M86.3,54.6v-3h3v3H86.3z M86.3,51.3v-3h3v3H86.3z M86.3,48v-3h3v3H86.3z
				 M86.3,44.7v-3h3v3H86.3z M86.3,41.4v-3h3v3H86.3z M86.3,38.1v-3h3v3H86.3z M86.3,34.8v-3h3v3H86.3z M86.3,31.5v-3h3v3H86.3z
				 M86.3,28.2v-3h3v3H86.3z M86.3,24.9v-3h3v3H86.3z M86.1,24.9h-3v-3h3V24.9z M82.8,24.9h-3v-3h3V24.9z M79.5,24.9h-3v-3h3V24.9z
				 M76.2,24.9h-3v-3h3V24.9z M72.9,24.9h-3v-3h3V24.9z M69.6,24.9h-3v-3h3V24.9z M66.3,24.9h-3v-3h3V24.9z M63,24.9h-3v-3h3V24.9z
				 M59.7,24.9h-3v-3h3V24.9z M56.4,24.9h-3v-3h3V24.9z M53.1,24.9h-3v-3h3V24.9z M49.8,24.9h-3v-3h3V24.9z M46.5,24.9h-3v-3h3V24.9
				z M43.2,24.9h-3v-3h3V24.9z M39.9,24.9h-3v-3h3V24.9z M36.6,24.9h-3v-3h3V24.9z M33.3,24.9h-3v-3h3V24.9z M30,24.9h-3v-3h3V24.9z
				 M26.7,24.9h-3v-3h3V24.9z M23.4,24.9h-3v-3h3V24.9z M20.1,24.9h-3v-3h3V24.9z M16.8,24.9h-3v-3h3V24.9z M13.5,24.9h-3v-3h3V24.9
				z M10.2,24.9h-3v-3h3V24.9z M6.9,24.9h-3v-3h3V24.9z M6.9,25.2v3h-3v-3H6.9z M6.9,28.5v3h-3v-3H6.9z M6.9,31.8v3h-3v-3H6.9z
				 M6.9,35.1v3h-3v-3H6.9z M6.9,38.4v3h-3v-3H6.9z M6.9,41.7v3h-3v-3H6.9z M6.9,45v3h-3v-3H6.9z M6.9,48.3v3h-3v-3H6.9z M6.9,51.6
				v3h-3v-3H6.9z M6.9,54.9v3h-3v-3H6.9z M6.9,58.2v3h-3v-3H6.9z M6.9,61.5v3h-3v-3H6.9z M6.9,64.8v3h-3v-3H6.9z M6.9,68.1v3h-3v-3
				H6.9z M6.9,71.4v3h-3v-3H6.9z M6.9,74.7v3h-3v-3H6.9z M6.9,78v3h-3v-3H6.9z M7.2,78h3v3h-3V78z M10.5,78h3v3h-3V78z M13.8,78h3v3
				h-3V78z M17.1,78h3v3h-3V78z M20.4,78h3v3h-3V78z M23.7,78h3v3h-3V78z M27,78h3v3h-3V78z M30.3,78h3v3h-3V78z M33.6,78h3v3h-3V78
				z M36.9,78h3v3h-3V78z M40.2,78h3v3h-3V78z M43.4,78h3v3h-3V78z M46.7,78h3v3h-3V78z M50,78h3v3h-3V78z M53.3,78h3v3h-3V78z
				 M56.6,78h3v3h-3V78z M59.9,78h3v3h-3V78z M63.2,78h3v3h-3V78z M66.5,78h3v3h-3V78z M69.8,78h3v3h-3V78z M73.1,78h3v3h-3V78z
				 M76.4,78h3v3h-3V78z M79.7,78h3v3h-3V78z M83,78h3v3h-3V78z M86.3,78h3v3h-3V78z M89.6,78h3v3h-3V78z M89.6,77.7v-3h3v3H89.6z
				 M89.6,74.4v-3h3v3H89.6z M89.6,71.1v-3h3v3H89.6z M89.6,67.8v-3h3v3H89.6z M89.6,64.5v-3h3v3H89.6z M89.6,61.2v-3h3v3H89.6z
				 M89.6,57.9v-3h3v3H89.6z M89.6,54.6v-3h3v3H89.6z M89.6,51.3v-3h3v3H89.6z M89.6,48v-3h3v3H89.6z M89.6,44.7v-3h3v3H89.6z
				 M89.6,41.4v-3h3v3H89.6z M89.6,38.1v-3h3v3H89.6z M89.6,34.8v-3h3v3H89.6z M89.6,31.5v-3h3v3H89.6z M89.6,28.2v-3h3v3H89.6z
				 M89.6,24.9v-3h3v3H89.6z M89.6,21.6v-3h3v3H89.6z M89.4,21.6h-3v-3h3V21.6z M86.1,21.6h-3v-3h3V21.6z M82.8,21.6h-3v-3h3V21.6z
				 M79.5,21.6h-3v-3h3V21.6z M76.2,21.6h-3v-3h3V21.6z M72.9,21.6h-3v-3h3V21.6z M69.6,21.6h-3v-3h3V21.6z M66.3,21.6h-3v-3h3V21.6
				z M63,21.6h-3v-3h3V21.6z M59.7,21.6h-3v-3h3V21.6z M56.4,21.6h-3v-3h3V21.6z M53.1,21.6h-3v-3h3V21.6z M49.8,21.6h-3v-3h3V21.6z
				 M46.5,21.6h-3v-3h3V21.6z M43.2,21.6h-3v-3h3V21.6z M39.9,21.6h-3v-3h3V21.6z M36.6,21.6h-3v-3h3V21.6z M33.3,21.6h-3v-3h3V21.6
				z M30,21.6h-3v-3h3V21.6z M26.7,21.6h-3v-3h3V21.6z M23.4,21.6h-3v-3h3V21.6z M20.1,21.6h-3v-3h3V21.6z M16.8,21.6h-3v-3h3V21.6z
				 M13.5,21.6h-3v-3h3V21.6z M10.2,21.6h-3v-3h3V21.6z M6.9,21.6h-3v-3h3V21.6z M3.6,21.6h-3v-3h3V21.6z M3.6,21.9v3h-3v-3H3.6z
				 M3.6,25.2v3h-3v-3H3.6z M3.6,28.5v3h-3v-3H3.6z M3.6,31.8v3h-3v-3H3.6z M3.6,35.1v3h-3v-3H3.6z M3.6,38.4v3h-3v-3H3.6z
				 M3.6,41.7v3h-3v-3H3.6z M3.6,45v3h-3v-3H3.6z M3.6,48.3v3h-3v-3H3.6z M3.6,51.6v3h-3v-3H3.6z M3.6,54.9v3h-3v-3H3.6z M3.6,58.2
				v3h-3v-3H3.6z M3.6,61.5v3h-3v-3H3.6z M3.6,64.8v3h-3v-3H3.6z M3.6,68.1v3h-3v-3H3.6z M3.6,71.4v3h-3v-3H3.6z M3.6,74.7v3h-3v-3
				H3.6z M3.6,78v3h-3v-3H3.6z M3.6,81.3v3h-3v-3H3.6z M3.9,81.3h3v3h-3V81.3z M7.2,81.3h3v3h-3V81.3z M10.5,81.3h3v3h-3V81.3z
				 M13.8,81.3h3v3h-3V81.3z M17.1,81.3h3v3h-3V81.3z M20.4,81.3h3v3h-3V81.3z M23.7,81.3h3v3h-3V81.3z M27,81.3h3v3h-3V81.3z
				 M30.3,81.3h3v3h-3V81.3z M33.6,81.3h3v3h-3V81.3z M36.9,81.3h3v3h-3V81.3z M40.2,81.3h3v3h-3V81.3z M43.4,81.3h3v3h-3V81.3z
				 M46.7,81.3h3v3h-3V81.3z M50,81.3h3v3h-3V81.3z M53.3,81.3h3v3h-3V81.3z M56.6,81.3h3v3h-3V81.3z M59.9,81.3h3v3h-3V81.3z
				 M63.2,81.3h3v3h-3V81.3z M66.5,81.3h3v3h-3V81.3z M69.8,81.3h3v3h-3V81.3z M73.1,81.3h3v3h-3V81.3z M76.4,81.3h3v3h-3V81.3z
				 M79.7,81.3h3v3h-3V81.3z M83,81.3h3v3h-3V81.3z M86.3,81.3h3v3h-3V81.3z M89.6,81.3h3v3h-3V81.3z M92.9,81.3h3v3h-3V81.3z
				 M92.9,81v-3h3v3H92.9z M92.9,77.7v-3h3v3H92.9z M92.9,74.4v-3h3v3H92.9z M92.9,71.1v-3h3v3H92.9z M92.9,67.8v-3h3v3H92.9z
				 M92.9,64.5v-3h3v3H92.9z M92.9,61.2v-3h3v3H92.9z M92.9,57.9v-3h3v3H92.9z M92.9,54.6v-3h3v3H92.9z M92.9,51.3v-3h3v3H92.9z
				 M92.9,48v-3h3v3H92.9z M92.9,44.7v-3h3v3H92.9z M92.9,41.4v-3h3v3H92.9z M92.9,38.1v-3h3v3H92.9z M92.9,34.8v-3h3v3H92.9z
				 M92.9,31.5v-3h3v3H92.9z M92.9,28.2v-3h3v3H92.9z M92.9,24.9v-3h3v3H92.9z M92.9,21.6v-3h3v3H92.9z M92.9,18.3v-3h3v3H92.9z
				 M92.7,18.3h-3v-3h3V18.3z M89.4,18.3h-3v-3h3V18.3z M86.1,18.3h-3v-3h3V18.3z M82.8,18.3h-3v-3h3V18.3z M79.5,18.3h-3v-3h3V18.3
				z M76.2,18.3h-3v-3h3V18.3z M72.9,18.3h-3v-3h3V18.3z M69.6,18.3h-3v-3h3V18.3z M66.3,18.3h-3v-3h3V18.3z M63,18.3h-3v-3h3V18.3z
				 M59.7,18.3h-3v-3h3V18.3z M56.4,18.3h-3v-3h3V18.3z M53.1,18.3h-3v-3h3V18.3z M49.8,18.3h-3v-3h3V18.3z M46.5,18.3h-3v-3h3V18.3
				z M43.2,18.3h-3v-3h3V18.3z M39.9,18.3h-3v-3h3V18.3z M36.6,18.3h-3v-3h3V18.3z M33.3,18.3h-3v-3h3V18.3z M30,18.3h-3v-3h3V18.3z
				 M26.7,18.3h-3v-3h3V18.3z M23.4,18.3h-3v-3h3V18.3z M20.1,18.3h-3v-3h3V18.3z M16.8,18.3h-3v-3h3V18.3z M13.5,18.3h-3v-3h3V18.3
				z M10.2,18.3h-3v-3h3V18.3z M6.9,18.3h-3v-3h3V18.3z M3.6,18.3h-3v-3h3V18.3z M0.3,18.3h-3v-3h3V18.3z M0.3,18.6v3h-3v-3H0.3z
				 M0.3,21.9v3h-3v-3H0.3z M0.3,25.2v3h-3v-3H0.3z M0.3,28.5v3h-3v-3H0.3z M0.3,31.8v3h-3v-3H0.3z M0.3,35.1v3h-3v-3H0.3z
				 M0.3,38.4v3h-3v-3H0.3z M0.3,41.7v3h-3v-3H0.3z M0.3,45v3h-3v-3H0.3z M0.3,48.3v3h-3v-3H0.3z M0.3,51.6v3h-3v-3H0.3z M0.3,54.9
				v3h-3v-3H0.3z M0.3,58.2v3h-3v-3H0.3z M0.3,61.5v3h-3v-3H0.3z M0.3,64.8v3h-3v-3H0.3z M0.3,68.1v3h-3v-3H0.3z M0.3,71.4v3h-3v-3
				H0.3z M0.3,74.7v3h-3v-3H0.3z M0.3,78v3h-3v-3H0.3z M0.3,81.3v3h-3v-3H0.3z M0.3,84.6v3h-3v-3H0.3z M0.6,84.6h3v3h-3V84.6z
				 M3.9,84.6h3v3h-3V84.6z M7.2,84.6h3v3h-3V84.6z M10.5,84.6h3v3h-3V84.6z M13.8,84.6h3v3h-3V84.6z M17.1,84.6h3v3h-3V84.6z
				 M20.4,84.6h3v3h-3V84.6z M23.7,84.6h3v3h-3V84.6z M27,84.6h3v3h-3V84.6z M30.3,84.6h3v3h-3V84.6z M33.6,84.6h3v3h-3V84.6z
				 M36.9,84.6h3v3h-3V84.6z M40.2,84.6h3v3h-3V84.6z M43.4,84.6h3v3h-3V84.6z M46.7,84.6h3v3h-3V84.6z M50,84.6h3v3h-3V84.6z
				 M53.3,84.6h3v3h-3V84.6z M56.6,84.6h3v3h-3V84.6z M59.9,84.6h3v3h-3V84.6z M63.2,84.6h3v3h-3V84.6z M66.5,84.6h3v3h-3V84.6z
				 M69.8,84.6h3v3h-3V84.6z M73.1,84.6h3v3h-3V84.6z M76.4,84.6h3v3h-3V84.6z M79.7,84.6h3v3h-3V84.6z M83,84.6h3v3h-3V84.6z
				 M86.3,84.6h3v3h-3V84.6z M89.6,84.6h3v3h-3V84.6z M92.9,84.6h3v3h-3V84.6z M96.2,84.6h3v3h-3V84.6z M96.2,84.3v-3h3v3H96.2z
				 M96.2,81v-3h3v3H96.2z M96.2,77.7v-3h3v3H96.2z M96.2,74.4v-3h3v3H96.2z M96.2,71.1v-3h3v3H96.2z M96.2,67.8v-3h3v3H96.2z
				 M96.2,64.5v-3h3v3H96.2z M96.2,61.2v-3h3v3H96.2z M96.2,57.9v-3h3v3H96.2z M96.2,54.6v-3h3v3H96.2z M96.2,51.3v-3h3v3H96.2z
				 M96.2,48v-3h3v3H96.2z M96.2,44.7v-3h3v3H96.2z M96.2,41.4v-3h3v3H96.2z M96.2,38.1v-3h3v3H96.2z M96.2,34.8v-3h3v3H96.2z
				 M96.2,31.5v-3h3v3H96.2z M96.2,28.2v-3h3v3H96.2z M96.2,24.9v-3h3v3H96.2z M96.2,21.6v-3h3v3H96.2z M96.2,18.3v-3h3v3H96.2z
				 M96.2,15v-3h3v3H96.2z M95.9,15h-3v-3h3V15z M92.7,15h-3v-3h3V15z M89.4,15h-3v-3h3V15z M86.1,15h-3v-3h3V15z M82.8,15h-3v-3h3
				V15z M79.5,15h-3v-3h3V15z M76.2,15h-3v-3h3V15z M72.9,15h-3v-3h3V15z M69.6,15h-3v-3h3V15z M66.3,15h-3v-3h3V15z M63,15h-3v-3h3
				V15z M59.7,15h-3v-3h3V15z M56.4,15h-3v-3h3V15z M53.1,15h-3v-3h3V15z M49.8,15h-3v-3h3V15z M46.5,15h-3v-3h3V15z M43.2,15h-3v-3
				h3V15z M39.9,15h-3v-3h3V15z M36.6,15h-3v-3h3V15z M33.3,15h-3v-3h3V15z M30,15h-3v-3h3V15z M26.7,15h-3v-3h3V15z M23.4,15h-3v-3
				h3V15z M20.1,15h-3v-3h3V15z M16.8,15h-3v-3h3V15z M13.5,15h-3v-3h3V15z M10.2,15h-3v-3h3V15z M6.9,15h-3v-3h3V15z M3.6,15h-3v-3
				h3V15z M0.3,15h-3v-3h3V15z M-3,15h-3v-3h3V15z M-3,15.3v3h-3v-3H-3z M-3,18.6v3h-3v-3H-3z M-3,21.9v3h-3v-3H-3z M-3,25.2v3h-3
				v-3H-3z M-3,28.5v3h-3v-3H-3z M-3,31.8v3h-3v-3H-3z M-3,35.1v3h-3v-3H-3z M-3,38.4v3h-3v-3H-3z M-3,41.7v3h-3v-3H-3z M-3,45v3h-3
				v-3H-3z M-3,48.3v3h-3v-3H-3z M-3,51.6v3h-3v-3H-3z M-3,54.9v3h-3v-3H-3z M-3,58.2v3h-3v-3H-3z M-3,61.5v3h-3v-3H-3z M-3,64.8v3
				h-3v-3H-3z M-3,68.1v3h-3v-3H-3z M-3,71.4v3h-3v-3H-3z M-3,74.7v3h-3v-3H-3z M-3,78v3h-3v-3H-3z M-3,81.3v3h-3v-3H-3z M-3,84.6v3
				h-3v-3H-3z M-3,87.9v3h-3v-3H-3z M-2.7,87.9h3v3h-3V87.9z M0.6,87.9h3v3h-3V87.9z M3.9,87.9h3v3h-3V87.9z M7.2,87.9h3v3h-3V87.9z
				 M10.5,87.9h3v3h-3V87.9z M13.8,87.9h3v3h-3V87.9z M17.1,87.9h3v3h-3V87.9z M20.4,87.9h3v3h-3V87.9z M23.7,87.9h3v3h-3V87.9z
				 M27,87.9h3v3h-3V87.9z M30.3,87.9h3v3h-3V87.9z M33.6,87.9h3v3h-3V87.9z M36.9,87.9h3v3h-3V87.9z M40.2,87.9h3v3h-3V87.9z
				 M43.4,87.9h3v3h-3V87.9z M46.7,87.9h3v3h-3V87.9z M50,87.9h3v3h-3V87.9z M53.3,87.9h3v3h-3V87.9z M56.6,87.9h3v3h-3V87.9z
				 M59.9,87.9h3v3h-3V87.9z M63.2,87.9h3v3h-3V87.9z M66.5,87.9h3v3h-3V87.9z M69.8,87.9h3v3h-3V87.9z M73.1,87.9h3v3h-3V87.9z
				 M76.4,87.9h3v3h-3V87.9z M79.7,87.9h3v3h-3V87.9z M83,87.9h3v3h-3V87.9z M86.3,87.9h3v3h-3V87.9z M89.6,87.9h3v3h-3V87.9z
				 M92.9,87.9h3v3h-3V87.9z M96.2,87.9h3v3h-3V87.9z M99.5,87.9h3v3h-3V87.9z M99.5,87.6v-3h3v3H99.5z M99.5,84.3v-3h3v3H99.5z
				 M99.5,81v-3h3v3H99.5z M99.5,77.7v-3h3v3H99.5z M99.5,74.4v-3h3v3H99.5z M99.5,71.1v-3h3v3H99.5z M99.5,67.8v-3h3v3H99.5z
				 M99.5,64.5v-3h3v3H99.5z M99.5,61.2v-3h3v3H99.5z M99.5,57.9v-3h3v3H99.5z M99.5,54.6v-3h3v3H99.5z M99.5,51.3v-3h3v3H99.5z
				 M99.5,48v-3h3v3H99.5z M99.5,44.7v-3h3v3H99.5z M99.5,41.4v-3h3v3H99.5z M99.5,38.1v-3h3v3H99.5z M99.5,34.8v-3h3v3H99.5z
				 M99.5,31.5v-3h3v3H99.5z M99.5,28.2v-3h3v3H99.5z M99.5,24.9v-3h3v3H99.5z M99.5,21.6v-3h3v3H99.5z M99.5,18.3v-3h3v3H99.5z
				 M99.5,15v-3h3v3H99.5z M99.5,11.7v-3h3v3H99.5z M99.2,11.7h-3v-3h3V11.7z M95.9,11.7h-3v-3h3V11.7z M92.7,11.7h-3v-3h3V11.7z
				 M89.4,11.7h-3v-3h3V11.7z M86.1,11.7h-3v-3h3V11.7z M82.8,11.7h-3v-3h3V11.7z M79.5,11.7h-3v-3h3V11.7z M76.2,11.7h-3v-3h3V11.7
				z M72.9,11.7h-3v-3h3V11.7z M69.6,11.7h-3v-3h3V11.7z M66.3,11.7h-3v-3h3V11.7z M63,11.7h-3v-3h3V11.7z M59.7,11.7h-3v-3h3V11.7z
				 M56.4,11.7h-3v-3h3V11.7z M53.1,11.7h-3v-3h3V11.7z M49.8,11.7h-3v-3h3V11.7z M46.5,11.7h-3v-3h3V11.7z M43.2,11.7h-3v-3h3V11.7
				z M39.9,11.7h-3v-3h3V11.7z M36.6,11.7h-3v-3h3V11.7z M33.3,11.7h-3v-3h3V11.7z M30,11.7h-3v-3h3V11.7z M26.7,11.7h-3v-3h3V11.7z
				 M23.4,11.7h-3v-3h3V11.7z M20.1,11.7h-3v-3h3V11.7z M16.8,11.7h-3v-3h3V11.7z M13.5,11.7h-3v-3h3V11.7z M10.2,11.7h-3v-3h3V11.7
				z M6.9,11.7h-3v-3h3V11.7z M3.6,11.7h-3v-3h3V11.7z M0.3,11.7h-3v-3h3V11.7z M-3,11.7h-3v-3h3V11.7z M-6.3,11.7h-3v-3h3V11.7z
				 M-6.3,12v3h-3v-3H-6.3z M-6.3,15.3v3h-3v-3H-6.3z M-6.3,18.6v3h-3v-3H-6.3z M-6.3,21.9v3h-3v-3H-6.3z M-6.3,25.2v3h-3v-3H-6.3z
				 M-6.3,28.5v3h-3v-3H-6.3z M-6.3,31.8v3h-3v-3H-6.3z M-6.3,35.1v3h-3v-3H-6.3z M-6.3,38.4v3h-3v-3H-6.3z M-6.3,41.7v3h-3v-3H-6.3
				z M-6.3,45v3h-3v-3H-6.3z M-6.3,48.3v3h-3v-3H-6.3z M-6.3,51.6v3h-3v-3H-6.3z M-6.3,54.9v3h-3v-3H-6.3z M-6.3,58.2v3h-3v-3H-6.3z
				 M-6.3,61.5v3h-3v-3H-6.3z M-6.3,64.8v3h-3v-3H-6.3z M-6.3,68.1v3h-3v-3H-6.3z M-6.3,71.4v3h-3v-3H-6.3z M-6.3,74.7v3h-3v-3H-6.3
				z M-6.3,78v3h-3v-3H-6.3z M-6.3,81.3v3h-3v-3H-6.3z M-6.3,84.6v3h-3v-3H-6.3z M-6.3,87.9v3h-3v-3H-6.3z M-6.3,91.2v3h-3v-3H-6.3z
				 M-6,91.2h3v3h-3V91.2z M-2.7,91.2h3v3h-3V91.2z M0.6,91.2h3v3h-3V91.2z M3.9,91.2h3v3h-3V91.2z M7.2,91.2h3v3h-3V91.2z
				 M10.5,91.2h3v3h-3V91.2z M13.8,91.2h3v3h-3V91.2z M17.1,91.2h3v3h-3V91.2z M20.4,91.2h3v3h-3V91.2z M23.7,91.2h3v3h-3V91.2z
				 M27,91.2h3v3h-3V91.2z M30.3,91.2h3v3h-3V91.2z M33.6,91.2h3v3h-3V91.2z M36.9,91.2h3v3h-3V91.2z M40.2,91.2h3v3h-3V91.2z
				 M43.4,91.2h3v3h-3V91.2z M46.7,91.2h3v3h-3V91.2z M50,91.2h3v3h-3V91.2z M53.3,91.2h3v3h-3V91.2z M56.6,91.2h3v3h-3V91.2z
				 M59.9,91.2h3v3h-3V91.2z M63.2,91.2h3v3h-3V91.2z M66.5,91.2h3v3h-3V91.2z M69.8,91.2h3v3h-3V91.2z M73.1,91.2h3v3h-3V91.2z
				 M76.4,91.2h3v3h-3V91.2z M79.7,91.2h3v3h-3V91.2z M83,91.2h3v3h-3V91.2z M86.3,91.2h3v3h-3V91.2z M89.6,91.2h3v3h-3V91.2z
				 M92.9,91.2h3v3h-3V91.2z M96.2,91.2h3v3h-3V91.2z M99.5,91.2h3v3h-3V91.2z M102.8,91.2h3v3h-3V91.2z M102.8,90.9v-3h3v3H102.8z
				 M102.8,87.6v-3h3v3H102.8z M102.8,84.3v-3h3v3H102.8z M102.8,81v-3h3v3H102.8z M102.8,77.7v-3h3v3H102.8z M102.8,74.4v-3h3v3
				H102.8z M102.8,71.1v-3h3v3H102.8z M102.8,67.8v-3h3v3H102.8z M102.8,64.5v-3h3v3H102.8z M102.8,61.2v-3h3v3H102.8z M102.8,57.9
				v-3h3v3H102.8z M102.8,54.6v-3h3v3H102.8z M102.8,51.3v-3h3v3H102.8z M102.8,48v-3h3v3H102.8z M102.8,44.7v-3h3v3H102.8z
				 M102.8,41.4v-3h3v3H102.8z M102.8,38.1v-3h3v3H102.8z M102.8,34.8v-3h3v3H102.8z M102.8,31.5v-3h3v3H102.8z M102.8,28.2v-3h3v3
				H102.8z M102.8,24.9v-3h3v3H102.8z M102.8,21.6v-3h3v3H102.8z M102.8,18.3v-3h3v3H102.8z M102.8,15v-3h3v3H102.8z M102.8,11.7v-3
				h3v3H102.8z M102.5,5.4v3h-3v-3H102.5z M99.2,5.4v3h-3v-3H99.2z M95.9,5.4v3h-3v-3H95.9z M92.7,5.4v3h-3v-3H92.7z M89.4,5.4v3h-3
				v-3H89.4z M86.1,5.4v3h-3v-3H86.1z M82.8,5.4v3h-3v-3H82.8z M79.5,5.4v3h-3v-3H79.5z M76.2,5.4v3h-3v-3H76.2z M72.9,5.4v3h-3v-3
				H72.9z M69.6,5.4v3h-3v-3H69.6z M66.3,5.4v3h-3v-3H66.3z M63,5.4v3h-3v-3H63z M59.7,5.4v3h-3v-3H59.7z M56.4,5.4v3h-3v-3H56.4z
				 M53.1,5.4v3h-3v-3H53.1z M49.8,5.4v3h-3v-3H49.8z M46.5,5.4v3h-3v-3H46.5z M43.2,5.4v3h-3v-3H43.2z M39.9,5.4v3h-3v-3H39.9z
				 M36.6,5.4v3h-3v-3H36.6z M33.3,5.4v3h-3v-3H33.3z M30,5.4v3h-3v-3H30z M26.7,5.4v3h-3v-3H26.7z M23.4,5.4v3h-3v-3H23.4z
				 M20.1,5.4v3h-3v-3H20.1z M16.8,5.4v3h-3v-3H16.8z M13.5,5.4v3h-3v-3H13.5z M10.2,5.4v3h-3v-3H10.2z M6.9,5.4v3h-3v-3H6.9z
				 M3.6,5.4v3h-3v-3H3.6z M0.3,5.4v3h-3v-3H0.3z M-3,5.4v3h-3v-3H-3z M-6.3,5.4v3h-3v-3H-6.3z"/>
		</g>
	</g>
</g>
<g id="XMLID_44_">
	<g id="XMLID_3_">
		<path class="st3" d="M49.8,65c-3.2-3.2-3.2-8.5,0-11.7s8.5-3.2,11.7,0c1.2,1.2,1.9,2.6,2.2,4.1l8.4-8.4L66,42.7
			c0.9-0.4,1.8-1,2.5-1.7c3.2-3.2,3.2-8.5,0-11.7s-8.5-3.2-11.7,0C56,30,55.4,30.9,55,31.8l-6.2-6.2L19.1,55.2l23.4,23.4l11.4-11.4
			C52.4,66.9,51,66.2,49.8,65z"/>
		<path class="st4" d="M42.5,80.8L17,55.2l31.8-31.8l5.9,5.9c0.3-0.4,0.6-0.8,1-1.1c1.9-1.9,4.3-2.9,6.9-2.9s5.1,1,6.9,2.9
			s2.9,4.3,2.9,6.9c0,2.6-1,5.1-2.9,6.9c-0.4,0.4-0.7,0.7-1.1,1l5.9,5.9L62.9,60.4l-0.6-2.7c-0.3-1.3-0.9-2.5-1.8-3.4
			c-2.7-2.7-7-2.7-9.6,0c-1.3,1.3-2,3-2,4.8s0.7,3.5,2,4.8h0c0.9,0.9,2.1,1.6,3.4,1.8l2.7,0.6L42.5,80.8z M21.2,55.2l21.3,21.3
			l8.7-8.7c-0.9-0.5-1.7-1.1-2.5-1.8c-1.9-1.9-2.9-4.3-2.9-6.9s1-5.1,2.9-6.9c3.8-3.8,10-3.8,13.9,0c0.7,0.7,1.3,1.6,1.8,2.5
			l5.7-5.7l-6.7-6.7l2-0.9c0.8-0.3,1.5-0.8,2.1-1.4c2.7-2.7,2.7-7,0-9.6c-1.3-1.3-3-2-4.8-2s-3.5,0.7-4.8,2
			c-0.6,0.6-1.1,1.3-1.4,2.1l-0.9,2l-6.7-6.7L21.2,55.2z"/>
	</g>
</g>
<g id="XMLID_61_">
	<defs>
		<circle id="SVGID_3_" cx="50" cy="50" r="36.4"/>
	</defs>
	<clipPath id="SVGID_4_">
		<use xlink:href="#SVGID_3_"  style="overflow:visible;"/>
	</clipPath>
	<g id="XMLID_58_" class="st5">
		<path class="st3" d="M98.1,84.2c-3.2,3.2-8.5,3.2-11.7,0s-3.2-8.5,0-11.7c1.2-1.2,2.6-1.9,4.1-2.2l-8.4-8.4l-6.2,6.2
			c-0.4-0.9-1-1.8-1.7-2.5c-3.2-3.2-8.5-3.2-11.7,0c-3.2,3.2-3.2,8.5,0,11.7c0.7,0.7,1.6,1.3,2.5,1.7l-6.2,6.2L88.3,115l23.4-23.4
			l-11.4-11.4C100,81.6,99.3,83.1,98.1,84.2z"/>
		<path class="st6" d="M88.3,116.4L57.2,85.3l6-6c-0.6-0.4-1.1-0.8-1.6-1.3c-1.8-1.8-2.7-4.1-2.7-6.6s1-4.8,2.7-6.6
			c3.6-3.6,9.5-3.6,13.2,0c0.5,0.5,0.9,1,1.3,1.6l6-6l10.4,10.4l-1.8,0.4c-1.4,0.3-2.6,1-3.6,2c-1.4,1.4-2.1,3.2-2.1,5.2
			c0,2,0.8,3.8,2.1,5.2s3.2,2.1,5.2,2.1c2,0,3.8-0.8,5.2-2.1l0,0c1-1,1.7-2.2,2-3.6l0.4-1.8l13.4,13.4L88.3,116.4z M60,85.3
			l28.3,28.3l22-22l-9.5-9.5c-0.5,1.1-1.1,2.1-2,3l0,0c-1.8,1.8-4.1,2.7-6.6,2.7s-4.8-1-6.6-2.7c-1.8-1.8-2.7-4.1-2.7-6.6
			s1-4.8,2.7-6.6c0.9-0.9,1.9-1.5,3-2l-6.5-6.5l-6.6,6.6l-0.6-1.3c-0.4-0.8-0.9-1.6-1.5-2.2c-1.4-1.4-3.2-2.1-5.2-2.1
			s-3.8,0.8-5.2,2.1c-2.8,2.8-2.8,7.5,0,10.3c0.6,0.6,1.4,1.1,2.2,1.5l1.3,0.6L60,85.3z"/>
	</g>
</g>
<g id="XMLID_15_">
	<rect x="46.6" y="15.4" transform="matrix(0.7071 -0.7071 0.7071 0.7071 -22.2275 49.469)" class="st4" width="4" height="72.4"/>
</g>
<g id="XMLID_1_">
	<path class="st4" d="M50,87.9c-20.9,0-37.9-17-37.9-37.9c0-20.9,17-37.9,37.9-37.9c20.9,0,37.9,17,37.9,37.9
		C87.9,70.9,70.9,87.9,50,87.9z M50,15.1c-19.2,0-34.9,15.6-34.9,34.9c0,19.2,15.6,34.9,34.9,34.9c19.2,0,34.9-15.6,34.9-34.9
		C84.9,30.8,69.2,15.1,50,15.1z"/>
</g>
</svg>
