<?xml version="1.0" encoding="utf-8"?>
<!-- Generator: Adobe Illustrator 19.2.1, SVG Export Plug-In . SVG Version: 6.00 Build 0)  -->
<svg version="1.1" id="图层_1" xmlns="http://www.w3.org/2000/svg" xmlns:xlink="http://www.w3.org/1999/xlink" x="0px" y="0px"
	 viewBox="0 0 100 100" style="enable-background:new 0 0 100 100;" xml:space="preserve">
<style type="text/css">
	.st0{fill:#F0F7F5;}
	.st1{fill:#FFFFFF;}
	.st2{fill:#2B937C;}
	.st3{fill:#065E49;}
	.st4{fill:#414249;}
	.st5{clip-path:url(#SVGID_2_);}
	.st6{fill:#D1E0DC;}
</style>
<circle id="XMLID_153_" class="st0" cx="50" cy="50" r="50"/>
<g id="XMLID_1_">
	<g id="XMLID_1220_">
		<g id="XMLID_1218_">
			<rect x="19" y="59.9" class="st1" width="13.6" height="13.6"/>
			<path class="st2" d="M33.7,74.5H18V58.9h15.6V74.5z M20,72.5h11.6V60.9H20V72.5z"/>
		</g>
		<g id="XMLID_1219_">
			<rect x="22.5" y="63.3" class="st3" width="6.7" height="6.7"/>
		</g>
	</g>
	<g id="XMLID_1222_">
		<g id="XMLID_1933_">
			<rect x="43.2" y="73.5" class="st1" width="13.6" height="13.6"/>
			<path class="st2" d="M57.8,88.2H42.2V72.5h15.6V88.2z M44.2,86.2h11.6V74.5H44.2V86.2z"/>
		</g>
		<g id="XMLID_1932_">
			<rect x="46.6" y="77" class="st3" width="6.7" height="6.7"/>
		</g>
	</g>
	<g id="XMLID_1934_">
		<g id="XMLID_1936_">
			<rect x="67.3" y="66.1" class="st1" width="13.6" height="13.6"/>
			<path class="st2" d="M82,80.8H66.3V65.1H82V80.8z M68.3,78.8H80V67.1H68.3V78.8z"/>
		</g>
		<g id="XMLID_1935_">
			<rect x="70.8" y="69.6" class="st3" width="6.7" height="6.7"/>
		</g>
	</g>
	<g id="XMLID_1937_">
		<g id="XMLID_10_">
			<rect x="24.9" y="57.9" class="st4" width="2" height="1"/>
		</g>
		<g id="XMLID_9_">
			<rect x="24.9" y="52.9" class="st4" width="2" height="2.5"/>
		</g>
		<g id="XMLID_8_">
			<rect x="24.9" y="48.5" class="st4" width="2" height="2"/>
		</g>
		<g id="XMLID_7_">
			<path class="st4" d="M71.1,50.5h-2v-2h2V50.5z M67.1,50.5h-2v-2h2V50.5z M63.1,50.5h-2v-2h2V50.5z M59.1,50.5h-2v-2h2V50.5z
				 M55,50.5h-2v-2h2V50.5z M51,50.5h-2v-2h2V50.5z M47,50.5h-2v-2h2V50.5z M43,50.5h-2v-2h2V50.5z M38.9,50.5h-2v-2h2V50.5z
				 M34.9,50.5h-2v-2h2V50.5z M30.9,50.5h-2v-2h2V50.5z"/>
		</g>
		<g id="XMLID_6_">
			<rect x="73.1" y="48.5" class="st4" width="2" height="2"/>
		</g>
		<g id="XMLID_5_">
			<path class="st4" d="M75.1,61.2h-2v-1.8h2V61.2z M75.1,57.6h-2v-1.8h2V57.6z M75.1,54h-2v-1.8h2V54z"/>
		</g>
		<g id="XMLID_3_">
			<rect x="73.1" y="62.9" class="st4" width="2" height="1"/>
		</g>
	</g>
	<g id="XMLID_1938_">
		<path class="st4" d="M51,69h-2v-2h2V69z M51,65h-2v-2h2V65z M51,61h-2v-2h2V61z M51,57h-2v-2h2V57z M51,53h-2v-2h2V53z M51,49h-2
			v-2h2V49z"/>
	</g>
	<g id="XMLID_1221_">
		<rect x="23.4" y="46.7" class="st4" width="5.5" height="5.5"/>
	</g>
	<g id="XMLID_1940_">
		<rect x="71.4" y="46.7" class="st4" width="5.5" height="5.5"/>
	</g>
	<g id="XMLID_1941_">
		<rect x="47.3" y="46.7" class="st4" width="5.5" height="5.5"/>
	</g>
	<g id="XMLID_1942_">
		<polygon class="st1" points="62.9,33.6 49.9,41.1 36.9,33.6 36.9,18.6 49.9,11.1 62.9,18.6 		"/>
	</g>
	<g id="XMLID_1939_">
		<defs>
			<polygon id="SVGID_1_" points="62.9,33.6 49.9,41.1 36.9,33.6 36.9,18.6 49.9,11.1 62.9,18.6 			"/>
		</defs>
		<clipPath id="SVGID_2_">
			<use xlink:href="#SVGID_1_"  style="overflow:visible;"/>
		</clipPath>
		<g id="XMLID_23_" class="st5">
			<g id="XMLID_1931_">
				<rect x="-12.8" y="-23.8" class="st6" width="115.4" height="0.3"/>
			</g>
			<g id="XMLID_24_">
				<path class="st6" d="M102.7-23.1h-0.3v2.6h-3v-2.6h-0.3v2.6h-3v-2.6h-0.3v2.6h-3v-2.6h-0.3v2.6h-3v-2.6h-0.3v2.6h-3v-2.6H86v2.6
					h-3v-2.6h-0.3v2.6h-3v-2.6h-0.3v2.6h-3v-2.6h-0.3v2.6h-3v-2.6h-0.3v2.6h-3v-2.6h-0.3v2.6h-3v-2.6h-0.3v2.6h-3v-2.6h-0.3v2.6h-3
					v-2.6h-0.3v2.6h-3v-2.6h-0.3v2.6h-3v-2.6H53v2.6h-3v-2.6h-0.3v2.6h-3v-2.6h-0.3v2.6h-3v-2.6h-0.3v2.6h-3v-2.6h-0.3v2.6h-3v-2.6
					h-0.3v2.6h-3v-2.6h-0.3v2.6h-3v-2.6h-0.3v2.6h-3v-2.6h-0.3v2.6h-3v-2.6h-0.3v2.6h-3v-2.6H20v2.6h-3v-2.6h-0.3v2.6h-3v-2.6h-0.3
					v2.6h-3v-2.6h-0.3v2.6h-3v-2.6H6.8v2.6h-3v-2.6H3.5v2.6h-3v-2.6H0.2v2.6h-3v-2.6h-0.3v2.6h-3v-2.6h-0.3v2.6h-3v-2.6h-0.3v2.6h-3
					v-2.6H-13v91.8h0.1v0.1h115.4v-0.1h0.1V-23.1z M102.5-20.3v3h-3v-3H102.5z M56.3,25.7h-3v-3h3V25.7z M56.6,22.6h3v3h-3V22.6z
					 M53,25.7h-3v-3h3V25.7z M49.7,25.7h-3v-3h3V25.7z M46.4,25.7h-3v-3h3V25.7z M43.1,25.7h-3v-3h3V25.7z M39.8,25.7h-3v-3h3V25.7z
					 M36.5,25.7h-3v-3h3V25.7z M33.2,25.7h-3v-3h3V25.7z M29.9,25.7h-3v-3h3V25.7z M29.9,25.9v3h-3v-3H29.9z M30.2,25.9h3v3h-3V25.9
					z M33.5,25.9h3v3h-3V25.9z M36.8,25.9h3v3h-3V25.9z M40.1,25.9h3v3h-3V25.9z M43.4,25.9h3v3h-3V25.9z M46.7,25.9h3v3h-3V25.9z
					 M50,25.9h3v3h-3V25.9z M53.3,25.9h3v3h-3V25.9z M56.6,25.9h3v3h-3V25.9z M59.9,25.9h3v3h-3V25.9z M59.9,25.7v-3h3v3H59.9z
					 M59.9,22.4v-3h3v3H59.9z M59.6,22.4h-3v-3h3V22.4z M56.3,22.4h-3v-3h3V22.4z M53,22.4h-3v-3h3V22.4z M49.7,22.4h-3v-3h3V22.4z
					 M46.4,22.4h-3v-3h3V22.4z M43.1,22.4h-3v-3h3V22.4z M39.8,22.4h-3v-3h3V22.4z M36.5,22.4h-3v-3h3V22.4z M33.2,22.4h-3v-3h3
					V22.4z M29.9,22.4h-3v-3h3V22.4z M26.6,22.4h-3v-3h3V22.4z M26.6,22.6v3h-3v-3H26.6z M26.6,25.9v3h-3v-3H26.6z M26.6,29.2v3h-3
					v-3H26.6z M26.9,29.2h3v3h-3V29.2z M30.2,29.2h3v3h-3V29.2z M33.5,29.2h3v3h-3V29.2z M36.8,29.2h3v3h-3V29.2z M40.1,29.2h3v3h-3
					V29.2z M43.4,29.2h3v3h-3V29.2z M46.7,29.2h3v3h-3V29.2z M50,29.2h3v3h-3V29.2z M53.3,29.2h3v3h-3V29.2z M56.6,29.2h3v3h-3V29.2
					z M59.9,29.2h3v3h-3V29.2z M63.2,29.2h3v3h-3V29.2z M63.2,28.9v-3h3v3H63.2z M63.2,25.7v-3h3v3H63.2z M63.2,22.4v-3h3v3H63.2z
					 M63.2,19.1v-3h3v3H63.2z M62.9,19.1h-3v-3h3V19.1z M59.6,19.1h-3v-3h3V19.1z M56.3,19.1h-3v-3h3V19.1z M53,19.1h-3v-3h3V19.1z
					 M49.7,19.1h-3v-3h3V19.1z M46.4,19.1h-3v-3h3V19.1z M43.1,19.1h-3v-3h3V19.1z M39.8,19.1h-3v-3h3V19.1z M36.5,19.1h-3v-3h3
					V19.1z M33.2,19.1h-3v-3h3V19.1z M29.9,19.1h-3v-3h3V19.1z M26.6,19.1h-3v-3h3V19.1z M23.3,19.1h-3v-3h3V19.1z M23.3,19.3v3h-3
					v-3H23.3z M23.3,22.6v3h-3v-3H23.3z M23.3,25.9v3h-3v-3H23.3z M23.3,29.2v3h-3v-3H23.3z M23.3,32.5v3h-3v-3H23.3z M23.6,32.5h3
					v3h-3V32.5z M26.9,32.5h3v3h-3V32.5z M30.2,32.5h3v3h-3V32.5z M33.5,32.5h3v3h-3V32.5z M36.8,32.5h3v3h-3V32.5z M40.1,32.5h3v3
					h-3V32.5z M43.4,32.5h3v3h-3V32.5z M46.7,32.5h3v3h-3V32.5z M50,32.5h3v3h-3V32.5z M53.3,32.5h3v3h-3V32.5z M56.6,32.5h3v3h-3
					V32.5z M59.9,32.5h3v3h-3V32.5z M63.2,32.5h3v3h-3V32.5z M66.5,32.5h3v3h-3V32.5z M66.5,32.2v-3h3v3H66.5z M66.5,28.9v-3h3v3
					H66.5z M66.5,25.7v-3h3v3H66.5z M66.5,22.4v-3h3v3H66.5z M66.5,19.1v-3h3v3H66.5z M66.5,15.8v-3h3v3H66.5z M66.2,15.8h-3v-3h3
					V15.8z M62.9,15.8h-3v-3h3V15.8z M59.6,15.8h-3v-3h3V15.8z M56.3,15.8h-3v-3h3V15.8z M53,15.8h-3v-3h3V15.8z M49.7,15.8h-3v-3h3
					V15.8z M46.4,15.8h-3v-3h3V15.8z M43.1,15.8h-3v-3h3V15.8z M39.8,15.8h-3v-3h3V15.8z M36.5,15.8h-3v-3h3V15.8z M33.2,15.8h-3v-3
					h3V15.8z M29.9,15.8h-3v-3h3V15.8z M26.6,15.8h-3v-3h3V15.8z M23.3,15.8h-3v-3h3V15.8z M20,15.8h-3v-3h3V15.8z M20,16v3h-3v-3
					H20z M20,19.3v3h-3v-3H20z M20,22.6v3h-3v-3H20z M20,25.9v3h-3v-3H20z M20,29.2v3h-3v-3H20z M20,32.5v3h-3v-3H20z M20,35.8v3h-3
					v-3H20z M20.3,35.8h3v3h-3V35.8z M23.6,35.8h3v3h-3V35.8z M26.9,35.8h3v3h-3V35.8z M30.2,35.8h3v3h-3V35.8z M33.5,35.8h3v3h-3
					V35.8z M36.8,35.8h3v3h-3V35.8z M40.1,35.8h3v3h-3V35.8z M43.4,35.8h3v3h-3V35.8z M46.7,35.8h3v3h-3V35.8z M50,35.8h3v3h-3V35.8
					z M53.3,35.8h3v3h-3V35.8z M56.6,35.8h3v3h-3V35.8z M59.9,35.8h3v3h-3V35.8z M63.2,35.8h3v3h-3V35.8z M66.5,35.8h3v3h-3V35.8z
					 M69.8,35.8h3v3h-3V35.8z M69.8,35.5v-3h3v3H69.8z M69.8,32.2v-3h3v3H69.8z M69.8,28.9v-3h3v3H69.8z M69.8,25.7v-3h3v3H69.8z
					 M69.8,22.4v-3h3v3H69.8z M69.8,19.1v-3h3v3H69.8z M69.8,15.8v-3h3v3H69.8z M69.8,12.5v-3h3v3H69.8z M69.5,12.5h-3v-3h3V12.5z
					 M66.2,12.5h-3v-3h3V12.5z M62.9,12.5h-3v-3h3V12.5z M59.6,12.5h-3v-3h3V12.5z M56.3,12.5h-3v-3h3V12.5z M53,12.5h-3v-3h3V12.5z
					 M49.7,12.5h-3v-3h3V12.5z M46.4,12.5h-3v-3h3V12.5z M43.1,12.5h-3v-3h3V12.5z M39.8,12.5h-3v-3h3V12.5z M36.5,12.5h-3v-3h3
					V12.5z M33.2,12.5h-3v-3h3V12.5z M29.9,12.5h-3v-3h3V12.5z M26.6,12.5h-3v-3h3V12.5z M23.3,12.5h-3v-3h3V12.5z M20,12.5h-3v-3h3
					V12.5z M16.7,12.5h-3v-3h3V12.5z M16.7,12.7v3h-3v-3H16.7z M16.7,16v3h-3v-3H16.7z M16.7,19.3v3h-3v-3H16.7z M16.7,22.6v3h-3v-3
					H16.7z M16.7,25.9v3h-3v-3H16.7z M16.7,29.2v3h-3v-3H16.7z M16.7,32.5v3h-3v-3H16.7z M16.7,35.8v3h-3v-3H16.7z M16.7,39.1v3h-3
					v-3H16.7z M17,39.1h3v3h-3V39.1z M20.3,39.1h3v3h-3V39.1z M23.6,39.1h3v3h-3V39.1z M26.9,39.1h3v3h-3V39.1z M30.2,39.1h3v3h-3
					V39.1z M33.5,39.1h3v3h-3V39.1z M36.8,39.1h3v3h-3V39.1z M40.1,39.1h3v3h-3V39.1z M43.4,39.1h3v3h-3V39.1z M46.7,39.1h3v3h-3
					V39.1z M50,39.1h3v3h-3V39.1z M53.3,39.1h3v3h-3V39.1z M56.6,39.1h3v3h-3V39.1z M59.9,39.1h3v3h-3V39.1z M63.2,39.1h3v3h-3V39.1
					z M66.5,39.1h3v3h-3V39.1z M69.8,39.1h3v3h-3V39.1z M73,39.1h3v3h-3V39.1z M73,38.8v-3h3v3H73z M73,35.5v-3h3v3H73z M73,32.2v-3
					h3v3H73z M73,28.9v-3h3v3H73z M73,25.7v-3h3v3H73z M73,22.4v-3h3v3H73z M73,19.1v-3h3v3H73z M73,15.8v-3h3v3H73z M73,12.5v-3h3
					v3H73z M73,9.2v-3h3v3H73z M72.8,9.2h-3v-3h3V9.2z M69.5,9.2h-3v-3h3V9.2z M66.2,9.2h-3v-3h3V9.2z M62.9,9.2h-3v-3h3V9.2z
					 M59.6,9.2h-3v-3h3V9.2z M56.3,9.2h-3v-3h3V9.2z M53,9.2h-3v-3h3V9.2z M49.7,9.2h-3v-3h3V9.2z M46.4,9.2h-3v-3h3V9.2z M43.1,9.2
					h-3v-3h3V9.2z M39.8,9.2h-3v-3h3V9.2z M36.5,9.2h-3v-3h3V9.2z M33.2,9.2h-3v-3h3V9.2z M29.9,9.2h-3v-3h3V9.2z M26.6,9.2h-3v-3h3
					V9.2z M23.3,9.2h-3v-3h3V9.2z M20,9.2h-3v-3h3V9.2z M16.7,9.2h-3v-3h3V9.2z M13.4,9.2h-3v-3h3V9.2z M13.4,9.4v3h-3v-3H13.4z
					 M13.4,12.7v3h-3v-3H13.4z M13.4,16v3h-3v-3H13.4z M13.4,19.3v3h-3v-3H13.4z M13.4,22.6v3h-3v-3H13.4z M13.4,25.9v3h-3v-3H13.4z
					 M13.4,29.2v3h-3v-3H13.4z M13.4,32.5v3h-3v-3H13.4z M13.4,35.8v3h-3v-3H13.4z M13.4,39.1v3h-3v-3H13.4z M13.4,42.4v3h-3v-3
					H13.4z M13.7,42.4h3v3h-3V42.4z M17,42.4h3v3h-3V42.4z M20.3,42.4h3v3h-3V42.4z M23.6,42.4h3v3h-3V42.4z M26.9,42.4h3v3h-3V42.4
					z M30.2,42.4h3v3h-3V42.4z M33.5,42.4h3v3h-3V42.4z M36.8,42.4h3v3h-3V42.4z M40.1,42.4h3v3h-3V42.4z M43.4,42.4h3v3h-3V42.4z
					 M46.7,42.4h3v3h-3V42.4z M50,42.4h3v3h-3V42.4z M53.3,42.4h3v3h-3V42.4z M56.6,42.4h3v3h-3V42.4z M59.9,42.4h3v3h-3V42.4z
					 M63.2,42.4h3v3h-3V42.4z M66.5,42.4h3v3h-3V42.4z M69.8,42.4h3v3h-3V42.4z M73,42.4h3v3h-3V42.4z M76.3,42.4h3v3h-3V42.4z
					 M76.3,42.1v-3h3v3H76.3z M76.3,38.8v-3h3v3H76.3z M76.3,35.5v-3h3v3H76.3z M76.3,32.2v-3h3v3H76.3z M76.3,28.9v-3h3v3H76.3z
					 M76.3,25.7v-3h3v3H76.3z M76.3,22.4v-3h3v3H76.3z M76.3,19.1v-3h3v3H76.3z M76.3,15.8v-3h3v3H76.3z M76.3,12.5v-3h3v3H76.3z
					 M76.3,9.2v-3h3v3H76.3z M76.3,5.9v-3h3v3H76.3z M76.1,5.9h-3v-3h3V5.9z M72.8,5.9h-3v-3h3V5.9z M69.5,5.9h-3v-3h3V5.9z
					 M66.2,5.9h-3v-3h3V5.9z M62.9,5.9h-3v-3h3V5.9z M59.6,5.9h-3v-3h3V5.9z M56.3,5.9h-3v-3h3V5.9z M53,5.9h-3v-3h3V5.9z M49.7,5.9
					h-3v-3h3V5.9z M46.4,5.9h-3v-3h3V5.9z M43.1,5.9h-3v-3h3V5.9z M39.8,5.9h-3v-3h3V5.9z M36.5,5.9h-3v-3h3V5.9z M33.2,5.9h-3v-3h3
					V5.9z M29.9,5.9h-3v-3h3V5.9z M26.6,5.9h-3v-3h3V5.9z M23.3,5.9h-3v-3h3V5.9z M20,5.9h-3v-3h3V5.9z M16.7,5.9h-3v-3h3V5.9z
					 M13.4,5.9h-3v-3h3V5.9z M10.1,5.9h-3v-3h3V5.9z M10.1,6.1v3h-3v-3H10.1z M10.1,9.4v3h-3v-3H10.1z M10.1,12.7v3h-3v-3H10.1z
					 M10.1,16v3h-3v-3H10.1z M10.1,19.3v3h-3v-3H10.1z M10.1,22.6v3h-3v-3H10.1z M10.1,25.9v3h-3v-3H10.1z M10.1,29.2v3h-3v-3H10.1z
					 M10.1,32.5v3h-3v-3H10.1z M10.1,35.8v3h-3v-3H10.1z M10.1,39.1v3h-3v-3H10.1z M10.1,42.4v3h-3v-3H10.1z M10.1,45.7v3h-3v-3
					H10.1z M10.4,45.7h3v3h-3V45.7z M13.7,45.7h3v3h-3V45.7z M17,45.7h3v3h-3V45.7z M20.3,45.7h3v3h-3V45.7z M23.6,45.7h3v3h-3V45.7
					z M26.9,45.7h3v3h-3V45.7z M30.2,45.7h3v3h-3V45.7z M33.5,45.7h3v3h-3V45.7z M36.8,45.7h3v3h-3V45.7z M40.1,45.7h3v3h-3V45.7z
					 M43.4,45.7h3v3h-3V45.7z M46.7,45.7h3v3h-3V45.7z M50,45.7h3v3h-3V45.7z M53.3,45.7h3v3h-3V45.7z M56.6,45.7h3v3h-3V45.7z
					 M59.9,45.7h3v3h-3V45.7z M63.2,45.7h3v3h-3V45.7z M66.5,45.7h3v3h-3V45.7z M69.8,45.7h3v3h-3V45.7z M73,45.7h3v3h-3V45.7z
					 M76.3,45.7h3v3h-3V45.7z M79.6,45.7h3v3h-3V45.7z M79.6,45.4v-3h3v3H79.6z M79.6,42.1v-3h3v3H79.6z M79.6,38.8v-3h3v3H79.6z
					 M79.6,35.5v-3h3v3H79.6z M79.6,32.2v-3h3v3H79.6z M79.6,28.9v-3h3v3H79.6z M79.6,25.7v-3h3v3H79.6z M79.6,22.4v-3h3v3H79.6z
					 M79.6,19.1v-3h3v3H79.6z M79.6,15.8v-3h3v3H79.6z M79.6,12.5v-3h3v3H79.6z M79.6,9.2v-3h3v3H79.6z M79.6,5.9v-3h3v3H79.6z
					 M79.6,2.6v-3h3v3H79.6z M79.4,2.6h-3v-3h3V2.6z M76.1,2.6h-3v-3h3V2.6z M72.8,2.6h-3v-3h3V2.6z M69.5,2.6h-3v-3h3V2.6z
					 M66.2,2.6h-3v-3h3V2.6z M62.9,2.6h-3v-3h3V2.6z M59.6,2.6h-3v-3h3V2.6z M56.3,2.6h-3v-3h3V2.6z M53,2.6h-3v-3h3V2.6z M49.7,2.6
					h-3v-3h3V2.6z M46.4,2.6h-3v-3h3V2.6z M43.1,2.6h-3v-3h3V2.6z M39.8,2.6h-3v-3h3V2.6z M36.5,2.6h-3v-3h3V2.6z M33.2,2.6h-3v-3h3
					V2.6z M29.9,2.6h-3v-3h3V2.6z M26.6,2.6h-3v-3h3V2.6z M23.3,2.6h-3v-3h3V2.6z M20,2.6h-3v-3h3V2.6z M16.7,2.6h-3v-3h3V2.6z
					 M13.4,2.6h-3v-3h3V2.6z M10.1,2.6h-3v-3h3V2.6z M6.8,2.6h-3v-3h3V2.6z M6.8,2.8v3h-3v-3H6.8z M6.8,6.1v3h-3v-3H6.8z M6.8,9.4v3
					h-3v-3H6.8z M6.8,12.7v3h-3v-3H6.8z M6.8,16v3h-3v-3H6.8z M6.8,19.3v3h-3v-3H6.8z M6.8,22.6v3h-3v-3H6.8z M6.8,25.9v3h-3v-3H6.8
					z M6.8,29.2v3h-3v-3H6.8z M6.8,32.5v3h-3v-3H6.8z M6.8,35.8v3h-3v-3H6.8z M6.8,39.1v3h-3v-3H6.8z M6.8,42.4v3h-3v-3H6.8z
					 M6.8,45.7v3h-3v-3H6.8z M6.8,49v3h-3v-3H6.8z M7.1,49h3v3h-3V49z M10.4,49h3v3h-3V49z M13.7,49h3v3h-3V49z M17,49h3v3h-3V49z
					 M20.3,49h3v3h-3V49z M23.6,49h3v3h-3V49z M26.9,49h3v3h-3V49z M30.2,49h3v3h-3V49z M33.5,49h3v3h-3V49z M36.8,49h3v3h-3V49z
					 M40.1,49h3v3h-3V49z M43.4,49h3v3h-3V49z M46.7,49h3v3h-3V49z M50,49h3v3h-3V49z M53.3,49h3v3h-3V49z M56.6,49h3v3h-3V49z
					 M59.9,49h3v3h-3V49z M63.2,49h3v3h-3V49z M66.5,49h3v3h-3V49z M69.8,49h3v3h-3V49z M73,49h3v3h-3V49z M76.3,49h3v3h-3V49z
					 M79.6,49h3v3h-3V49z M82.9,49h3v3h-3V49z M82.9,48.7v-3h3v3H82.9z M82.9,45.4v-3h3v3H82.9z M82.9,42.1v-3h3v3H82.9z M82.9,38.8
					v-3h3v3H82.9z M82.9,35.5v-3h3v3H82.9z M82.9,32.2v-3h3v3H82.9z M82.9,28.9v-3h3v3H82.9z M82.9,25.7v-3h3v3H82.9z M82.9,22.4v-3
					h3v3H82.9z M82.9,19.1v-3h3v3H82.9z M82.9,15.8v-3h3v3H82.9z M82.9,12.5v-3h3v3H82.9z M82.9,9.2v-3h3v3H82.9z M82.9,5.9v-3h3v3
					H82.9z M82.9,2.6v-3h3v3H82.9z M82.9-0.7v-3h3v3H82.9z M82.7-0.7h-3v-3h3V-0.7z M79.4-0.7h-3v-3h3V-0.7z M76.1-0.7h-3v-3h3V-0.7
					z M72.8-0.7h-3v-3h3V-0.7z M69.5-0.7h-3v-3h3V-0.7z M66.2-0.7h-3v-3h3V-0.7z M62.9-0.7h-3v-3h3V-0.7z M59.6-0.7h-3v-3h3V-0.7z
					 M56.3-0.7h-3v-3h3V-0.7z M53-0.7h-3v-3h3V-0.7z M49.7-0.7h-3v-3h3V-0.7z M46.4-0.7h-3v-3h3V-0.7z M43.1-0.7h-3v-3h3V-0.7z
					 M39.8-0.7h-3v-3h3V-0.7z M36.5-0.7h-3v-3h3V-0.7z M33.2-0.7h-3v-3h3V-0.7z M29.9-0.7h-3v-3h3V-0.7z M26.6-0.7h-3v-3h3V-0.7z
					 M23.3-0.7h-3v-3h3V-0.7z M20-0.7h-3v-3h3V-0.7z M16.7-0.7h-3v-3h3V-0.7z M13.4-0.7h-3v-3h3V-0.7z M10.1-0.7h-3v-3h3V-0.7z
					 M6.8-0.7h-3v-3h3V-0.7z M3.5-0.7h-3v-3h3V-0.7z M3.5-0.5v3h-3v-3H3.5z M3.5,2.8v3h-3v-3H3.5z M3.5,6.1v3h-3v-3H3.5z M3.5,9.4v3
					h-3v-3H3.5z M3.5,12.7v3h-3v-3H3.5z M3.5,16v3h-3v-3H3.5z M3.5,19.3v3h-3v-3H3.5z M3.5,22.6v3h-3v-3H3.5z M3.5,25.9v3h-3v-3H3.5
					z M3.5,29.2v3h-3v-3H3.5z M3.5,32.5v3h-3v-3H3.5z M3.5,35.8v3h-3v-3H3.5z M3.5,39.1v3h-3v-3H3.5z M3.5,42.4v3h-3v-3H3.5z
					 M3.5,45.7v3h-3v-3H3.5z M3.5,49v3h-3v-3H3.5z M3.5,52.3v3h-3v-3H3.5z M3.8,52.3h3v3h-3V52.3z M7.1,52.3h3v3h-3V52.3z
					 M10.4,52.3h3v3h-3V52.3z M13.7,52.3h3v3h-3V52.3z M17,52.3h3v3h-3V52.3z M20.3,52.3h3v3h-3V52.3z M23.6,52.3h3v3h-3V52.3z
					 M26.9,52.3h3v3h-3V52.3z M30.2,52.3h3v3h-3V52.3z M33.5,52.3h3v3h-3V52.3z M36.8,52.3h3v3h-3V52.3z M40.1,52.3h3v3h-3V52.3z
					 M43.4,52.3h3v3h-3V52.3z M46.7,52.3h3v3h-3V52.3z M50,52.3h3v3h-3V52.3z M53.3,52.3h3v3h-3V52.3z M56.6,52.3h3v3h-3V52.3z
					 M59.9,52.3h3v3h-3V52.3z M63.2,52.3h3v3h-3V52.3z M66.5,52.3h3v3h-3V52.3z M69.8,52.3h3v3h-3V52.3z M73,52.3h3v3h-3V52.3z
					 M76.3,52.3h3v3h-3V52.3z M79.6,52.3h3v3h-3V52.3z M82.9,52.3h3v3h-3V52.3z M86.2,52.3h3v3h-3V52.3z M86.2,52v-3h3v3H86.2z
					 M86.2,48.7v-3h3v3H86.2z M86.2,45.4v-3h3v3H86.2z M86.2,42.1v-3h3v3H86.2z M86.2,38.8v-3h3v3H86.2z M86.2,35.5v-3h3v3H86.2z
					 M86.2,32.2v-3h3v3H86.2z M86.2,28.9v-3h3v3H86.2z M86.2,25.7v-3h3v3H86.2z M86.2,22.4v-3h3v3H86.2z M86.2,19.1v-3h3v3H86.2z
					 M86.2,15.8v-3h3v3H86.2z M86.2,12.5v-3h3v3H86.2z M86.2,9.2v-3h3v3H86.2z M86.2,5.9v-3h3v3H86.2z M86.2,2.6v-3h3v3H86.2z
					 M86.2-0.7v-3h3v3H86.2z M86.2-4v-3h3v3H86.2z M86-4h-3v-3h3V-4z M82.7-4h-3v-3h3V-4z M79.4-4h-3v-3h3V-4z M76.1-4h-3v-3h3V-4z
					 M72.8-4h-3v-3h3V-4z M69.5-4h-3v-3h3V-4z M66.2-4h-3v-3h3V-4z M62.9-4h-3v-3h3V-4z M59.6-4h-3v-3h3V-4z M56.3-4h-3v-3h3V-4z
					 M53-4h-3v-3h3V-4z M49.7-4h-3v-3h3V-4z M46.4-4h-3v-3h3V-4z M43.1-4h-3v-3h3V-4z M39.8-4h-3v-3h3V-4z M36.5-4h-3v-3h3V-4z
					 M33.2-4h-3v-3h3V-4z M29.9-4h-3v-3h3V-4z M26.6-4h-3v-3h3V-4z M23.3-4h-3v-3h3V-4z M20-4h-3v-3h3V-4z M16.7-4h-3v-3h3V-4z
					 M13.4-4h-3v-3h3V-4z M10.1-4h-3v-3h3V-4z M6.8-4h-3v-3h3V-4z M3.5-4h-3v-3h3V-4z M0.2-4h-3v-3h3V-4z M0.2-3.8v3h-3v-3H0.2z
					 M0.2-0.5v3h-3v-3H0.2z M0.2,2.8v3h-3v-3H0.2z M0.2,6.1v3h-3v-3H0.2z M0.2,9.4v3h-3v-3H0.2z M0.2,12.7v3h-3v-3H0.2z M0.2,16v3
					h-3v-3H0.2z M0.2,19.3v3h-3v-3H0.2z M0.2,22.6v3h-3v-3H0.2z M0.2,25.9v3h-3v-3H0.2z M0.2,29.2v3h-3v-3H0.2z M0.2,32.5v3h-3v-3
					H0.2z M0.2,35.8v3h-3v-3H0.2z M0.2,39.1v3h-3v-3H0.2z M0.2,42.4v3h-3v-3H0.2z M0.2,45.7v3h-3v-3H0.2z M0.2,49v3h-3v-3H0.2z
					 M0.2,52.3v3h-3v-3H0.2z M0.2,55.6v3h-3v-3H0.2z M0.5,55.6h3v3h-3V55.6z M3.8,55.6h3v3h-3V55.6z M7.1,55.6h3v3h-3V55.6z
					 M10.4,55.6h3v3h-3V55.6z M13.7,55.6h3v3h-3V55.6z M17,55.6h3v3h-3V55.6z M20.3,55.6h3v3h-3V55.6z M23.6,55.6h3v3h-3V55.6z
					 M26.9,55.6h3v3h-3V55.6z M30.2,55.6h3v3h-3V55.6z M33.5,55.6h3v3h-3V55.6z M36.8,55.6h3v3h-3V55.6z M40.1,55.6h3v3h-3V55.6z
					 M43.4,55.6h3v3h-3V55.6z M46.7,55.6h3v3h-3V55.6z M50,55.6h3v3h-3V55.6z M53.3,55.6h3v3h-3V55.6z M56.6,55.6h3v3h-3V55.6z
					 M59.9,55.6h3v3h-3V55.6z M63.2,55.6h3v3h-3V55.6z M66.5,55.6h3v3h-3V55.6z M69.8,55.6h3v3h-3V55.6z M73,55.6h3v3h-3V55.6z
					 M76.3,55.6h3v3h-3V55.6z M79.6,55.6h3v3h-3V55.6z M82.9,55.6h3v3h-3V55.6z M86.2,55.6h3v3h-3V55.6z M89.5,55.6h3v3h-3V55.6z
					 M89.5,55.3v-3h3v3H89.5z M89.5,52v-3h3v3H89.5z M89.5,48.7v-3h3v3H89.5z M89.5,45.4v-3h3v3H89.5z M89.5,42.1v-3h3v3H89.5z
					 M89.5,38.8v-3h3v3H89.5z M89.5,35.5v-3h3v3H89.5z M89.5,32.2v-3h3v3H89.5z M89.5,28.9v-3h3v3H89.5z M89.5,25.7v-3h3v3H89.5z
					 M89.5,22.4v-3h3v3H89.5z M89.5,19.1v-3h3v3H89.5z M89.5,15.8v-3h3v3H89.5z M89.5,12.5v-3h3v3H89.5z M89.5,9.2v-3h3v3H89.5z
					 M89.5,5.9v-3h3v3H89.5z M89.5,2.6v-3h3v3H89.5z M89.5-0.7v-3h3v3H89.5z M89.5-4v-3h3v3H89.5z M89.5-7.3v-3h3v3H89.5z M89.3-7.3
					h-3v-3h3V-7.3z M86-7.3h-3v-3h3V-7.3z M82.7-7.3h-3v-3h3V-7.3z M79.4-7.3h-3v-3h3V-7.3z M76.1-7.3h-3v-3h3V-7.3z M72.8-7.3h-3
					v-3h3V-7.3z M69.5-7.3h-3v-3h3V-7.3z M66.2-7.3h-3v-3h3V-7.3z M62.9-7.3h-3v-3h3V-7.3z M59.6-7.3h-3v-3h3V-7.3z M56.3-7.3h-3v-3
					h3V-7.3z M53-7.3h-3v-3h3V-7.3z M49.7-7.3h-3v-3h3V-7.3z M46.4-7.3h-3v-3h3V-7.3z M43.1-7.3h-3v-3h3V-7.3z M39.8-7.3h-3v-3h3
					V-7.3z M36.5-7.3h-3v-3h3V-7.3z M33.2-7.3h-3v-3h3V-7.3z M29.9-7.3h-3v-3h3V-7.3z M26.6-7.3h-3v-3h3V-7.3z M23.3-7.3h-3v-3h3
					V-7.3z M20-7.3h-3v-3h3V-7.3z M16.7-7.3h-3v-3h3V-7.3z M13.4-7.3h-3v-3h3V-7.3z M10.1-7.3h-3v-3h3V-7.3z M6.8-7.3h-3v-3h3V-7.3z
					 M3.5-7.3h-3v-3h3V-7.3z M0.2-7.3h-3v-3h3V-7.3z M-3.1-7.3h-3v-3h3V-7.3z M-3.1-7.1v3h-3v-3H-3.1z M-3.1-3.8v3h-3v-3H-3.1z
					 M-3.1-0.5v3h-3v-3H-3.1z M-3.1,2.8v3h-3v-3H-3.1z M-3.1,6.1v3h-3v-3H-3.1z M-3.1,9.4v3h-3v-3H-3.1z M-3.1,12.7v3h-3v-3H-3.1z
					 M-3.1,16v3h-3v-3H-3.1z M-3.1,19.3v3h-3v-3H-3.1z M-3.1,22.6v3h-3v-3H-3.1z M-3.1,25.9v3h-3v-3H-3.1z M-3.1,29.2v3h-3v-3H-3.1z
					 M-3.1,32.5v3h-3v-3H-3.1z M-3.1,35.8v3h-3v-3H-3.1z M-3.1,39.1v3h-3v-3H-3.1z M-3.1,42.4v3h-3v-3H-3.1z M-3.1,45.7v3h-3v-3
					H-3.1z M-3.1,49v3h-3v-3H-3.1z M-3.1,52.3v3h-3v-3H-3.1z M-3.1,55.6v3h-3v-3H-3.1z M-3.1,58.9v3h-3v-3H-3.1z M-2.8,58.9h3v3h-3
					V58.9z M0.5,58.9h3v3h-3V58.9z M3.8,58.9h3v3h-3V58.9z M7.1,58.9h3v3h-3V58.9z M10.4,58.9h3v3h-3V58.9z M13.7,58.9h3v3h-3V58.9z
					 M17,58.9h3v3h-3V58.9z M20.3,58.9h3v3h-3V58.9z M23.6,58.9h3v3h-3V58.9z M26.9,58.9h3v3h-3V58.9z M30.2,58.9h3v3h-3V58.9z
					 M33.5,58.9h3v3h-3V58.9z M36.8,58.9h3v3h-3V58.9z M40.1,58.9h3v3h-3V58.9z M43.4,58.9h3v3h-3V58.9z M46.7,58.9h3v3h-3V58.9z
					 M50,58.9h3v3h-3V58.9z M53.3,58.9h3v3h-3V58.9z M56.6,58.9h3v3h-3V58.9z M59.9,58.9h3v3h-3V58.9z M63.2,58.9h3v3h-3V58.9z
					 M66.5,58.9h3v3h-3V58.9z M69.8,58.9h3v3h-3V58.9z M73,58.9h3v3h-3V58.9z M76.3,58.9h3v3h-3V58.9z M79.6,58.9h3v3h-3V58.9z
					 M82.9,58.9h3v3h-3V58.9z M86.2,58.9h3v3h-3V58.9z M89.5,58.9h3v3h-3V58.9z M92.8,58.9h3v3h-3V58.9z M92.8,58.6v-3h3v3H92.8z
					 M92.8,55.3v-3h3v3H92.8z M92.8,52v-3h3v3H92.8z M92.8,48.7v-3h3v3H92.8z M92.8,45.4v-3h3v3H92.8z M92.8,42.1v-3h3v3H92.8z
					 M92.8,38.8v-3h3v3H92.8z M92.8,35.5v-3h3v3H92.8z M92.8,32.2v-3h3v3H92.8z M92.8,28.9v-3h3v3H92.8z M92.8,25.7v-3h3v3H92.8z
					 M92.8,22.4v-3h3v3H92.8z M92.8,19.1v-3h3v3H92.8z M92.8,15.8v-3h3v3H92.8z M92.8,12.5v-3h3v3H92.8z M92.8,9.2v-3h3v3H92.8z
					 M92.8,5.9v-3h3v3H92.8z M92.8,2.6v-3h3v3H92.8z M92.8-0.7v-3h3v3H92.8z M92.8-4v-3h3v3H92.8z M92.8-7.3v-3h3v3H92.8z
					 M92.8-10.6v-3h3v3H92.8z M92.6-10.6h-3v-3h3V-10.6z M89.3-10.6h-3v-3h3V-10.6z M86-10.6h-3v-3h3V-10.6z M82.7-10.6h-3v-3h3
					V-10.6z M79.4-10.6h-3v-3h3V-10.6z M76.1-10.6h-3v-3h3V-10.6z M72.8-10.6h-3v-3h3V-10.6z M69.5-10.6h-3v-3h3V-10.6z M66.2-10.6
					h-3v-3h3V-10.6z M62.9-10.6h-3v-3h3V-10.6z M59.6-10.6h-3v-3h3V-10.6z M56.3-10.6h-3v-3h3V-10.6z M53-10.6h-3v-3h3V-10.6z
					 M49.7-10.6h-3v-3h3V-10.6z M46.4-10.6h-3v-3h3V-10.6z M43.1-10.6h-3v-3h3V-10.6z M39.8-10.6h-3v-3h3V-10.6z M36.5-10.6h-3v-3h3
					V-10.6z M33.2-10.6h-3v-3h3V-10.6z M29.9-10.6h-3v-3h3V-10.6z M26.6-10.6h-3v-3h3V-10.6z M23.3-10.6h-3v-3h3V-10.6z M20-10.6h-3
					v-3h3V-10.6z M16.7-10.6h-3v-3h3V-10.6z M13.4-10.6h-3v-3h3V-10.6z M10.1-10.6h-3v-3h3V-10.6z M6.8-10.6h-3v-3h3V-10.6z
					 M3.5-10.6h-3v-3h3V-10.6z M0.2-10.6h-3v-3h3V-10.6z M-3.1-10.6h-3v-3h3V-10.6z M-6.4-10.6h-3v-3h3V-10.6z M-6.4-10.4v3h-3v-3
					H-6.4z M-6.4-7.1v3h-3v-3H-6.4z M-6.4-3.8v3h-3v-3H-6.4z M-6.4-0.5v3h-3v-3H-6.4z M-6.4,2.8v3h-3v-3H-6.4z M-6.4,6.1v3h-3v-3
					H-6.4z M-6.4,9.4v3h-3v-3H-6.4z M-6.4,12.7v3h-3v-3H-6.4z M-6.4,16v3h-3v-3H-6.4z M-6.4,19.3v3h-3v-3H-6.4z M-6.4,22.6v3h-3v-3
					H-6.4z M-6.4,25.9v3h-3v-3H-6.4z M-6.4,29.2v3h-3v-3H-6.4z M-6.4,32.5v3h-3v-3H-6.4z M-6.4,35.8v3h-3v-3H-6.4z M-6.4,39.1v3h-3
					v-3H-6.4z M-6.4,42.4v3h-3v-3H-6.4z M-6.4,45.7v3h-3v-3H-6.4z M-6.4,49v3h-3v-3H-6.4z M-6.4,52.3v3h-3v-3H-6.4z M-6.4,55.6v3h-3
					v-3H-6.4z M-6.4,58.9v3h-3v-3H-6.4z M-6.4,62.2v3h-3v-3H-6.4z M-6.1,62.2h3v3h-3V62.2z M-2.8,62.2h3v3h-3V62.2z M0.5,62.2h3v3
					h-3V62.2z M3.8,62.2h3v3h-3V62.2z M7.1,62.2h3v3h-3V62.2z M10.4,62.2h3v3h-3V62.2z M13.7,62.2h3v3h-3V62.2z M17,62.2h3v3h-3
					V62.2z M20.3,62.2h3v3h-3V62.2z M23.6,62.2h3v3h-3V62.2z M26.9,62.2h3v3h-3V62.2z M30.2,62.2h3v3h-3V62.2z M33.5,62.2h3v3h-3
					V62.2z M36.8,62.2h3v3h-3V62.2z M40.1,62.2h3v3h-3V62.2z M43.4,62.2h3v3h-3V62.2z M46.7,62.2h3v3h-3V62.2z M50,62.2h3v3h-3V62.2
					z M53.3,62.2h3v3h-3V62.2z M56.6,62.2h3v3h-3V62.2z M59.9,62.2h3v3h-3V62.2z M63.2,62.2h3v3h-3V62.2z M66.5,62.2h3v3h-3V62.2z
					 M69.8,62.2h3v3h-3V62.2z M73,62.2h3v3h-3V62.2z M76.3,62.2h3v3h-3V62.2z M79.6,62.2h3v3h-3V62.2z M82.9,62.2h3v3h-3V62.2z
					 M86.2,62.2h3v3h-3V62.2z M89.5,62.2h3v3h-3V62.2z M92.8,62.2h3v3h-3V62.2z M96.1,62.2h3v3h-3V62.2z M96.1,61.9v-3h3v3H96.1z
					 M96.1,58.6v-3h3v3H96.1z M96.1,55.3v-3h3v3H96.1z M96.1,52v-3h3v3H96.1z M96.1,48.7v-3h3v3H96.1z M96.1,45.4v-3h3v3H96.1z
					 M96.1,42.1v-3h3v3H96.1z M96.1,38.8v-3h3v3H96.1z M96.1,35.5v-3h3v3H96.1z M96.1,32.2v-3h3v3H96.1z M96.1,28.9v-3h3v3H96.1z
					 M96.1,25.7v-3h3v3H96.1z M96.1,22.4v-3h3v3H96.1z M96.1,19.1v-3h3v3H96.1z M96.1,15.8v-3h3v3H96.1z M96.1,12.5v-3h3v3H96.1z
					 M96.1,9.2v-3h3v3H96.1z M96.1,5.9v-3h3v3H96.1z M96.1,2.6v-3h3v3H96.1z M96.1-0.7v-3h3v3H96.1z M96.1-4v-3h3v3H96.1z M96.1-7.3
					v-3h3v3H96.1z M96.1-10.6v-3h3v3H96.1z M96.1-13.9v-3h3v3H96.1z M95.9-13.9h-3v-3h3V-13.9z M92.6-13.9h-3v-3h3V-13.9z
					 M89.3-13.9h-3v-3h3V-13.9z M86-13.9h-3v-3h3V-13.9z M82.7-13.9h-3v-3h3V-13.9z M79.4-13.9h-3v-3h3V-13.9z M76.1-13.9h-3v-3h3
					V-13.9z M72.8-13.9h-3v-3h3V-13.9z M69.5-13.9h-3v-3h3V-13.9z M66.2-13.9h-3v-3h3V-13.9z M62.9-13.9h-3v-3h3V-13.9z M59.6-13.9
					h-3v-3h3V-13.9z M56.3-13.9h-3v-3h3V-13.9z M53-13.9h-3v-3h3V-13.9z M49.7-13.9h-3v-3h3V-13.9z M46.4-13.9h-3v-3h3V-13.9z
					 M43.1-13.9h-3v-3h3V-13.9z M39.8-13.9h-3v-3h3V-13.9z M36.5-13.9h-3v-3h3V-13.9z M33.2-13.9h-3v-3h3V-13.9z M29.9-13.9h-3v-3h3
					V-13.9z M26.6-13.9h-3v-3h3V-13.9z M23.3-13.9h-3v-3h3V-13.9z M20-13.9h-3v-3h3V-13.9z M16.7-13.9h-3v-3h3V-13.9z M13.4-13.9h-3
					v-3h3V-13.9z M10.1-13.9h-3v-3h3V-13.9z M6.8-13.9h-3v-3h3V-13.9z M3.5-13.9h-3v-3h3V-13.9z M0.2-13.9h-3v-3h3V-13.9z
					 M-3.1-13.9h-3v-3h3V-13.9z M-6.4-13.9h-3v-3h3V-13.9z M-9.7-13.9h-3v-3h3V-13.9z M-9.7-13.7v3h-3v-3H-9.7z M-9.7-10.4v3h-3v-3
					H-9.7z M-9.7-7.1v3h-3v-3H-9.7z M-9.7-3.8v3h-3v-3H-9.7z M-9.7-0.5v3h-3v-3H-9.7z M-9.7,2.8v3h-3v-3H-9.7z M-9.7,6.1v3h-3v-3
					H-9.7z M-9.7,9.4v3h-3v-3H-9.7z M-9.7,12.7v3h-3v-3H-9.7z M-9.7,16v3h-3v-3H-9.7z M-9.7,19.3v3h-3v-3H-9.7z M-9.7,22.6v3h-3v-3
					H-9.7z M-9.7,25.9v3h-3v-3H-9.7z M-9.7,29.2v3h-3v-3H-9.7z M-9.7,32.5v3h-3v-3H-9.7z M-9.7,35.8v3h-3v-3H-9.7z M-9.7,39.1v3h-3
					v-3H-9.7z M-9.7,42.4v3h-3v-3H-9.7z M-9.7,45.7v3h-3v-3H-9.7z M-9.7,49v3h-3v-3H-9.7z M-9.7,52.3v3h-3v-3H-9.7z M-9.7,55.6v3h-3
					v-3H-9.7z M-9.7,58.9v3h-3v-3H-9.7z M-9.7,62.2v3h-3v-3H-9.7z M-9.7,65.5v3h-3v-3H-9.7z M-9.4,65.5h3v3h-3V65.5z M-6.1,65.5h3v3
					h-3V65.5z M-2.8,65.5h3v3h-3V65.5z M0.5,65.5h3v3h-3V65.5z M3.8,65.5h3v3h-3V65.5z M7.1,65.5h3v3h-3V65.5z M10.4,65.5h3v3h-3
					V65.5z M13.7,65.5h3v3h-3V65.5z M17,65.5h3v3h-3V65.5z M20.3,65.5h3v3h-3V65.5z M23.6,65.5h3v3h-3V65.5z M26.9,65.5h3v3h-3V65.5
					z M30.2,65.5h3v3h-3V65.5z M33.5,65.5h3v3h-3V65.5z M36.8,65.5h3v3h-3V65.5z M40.1,65.5h3v3h-3V65.5z M43.4,65.5h3v3h-3V65.5z
					 M46.7,65.5h3v3h-3V65.5z M50,65.5h3v3h-3V65.5z M53.3,65.5h3v3h-3V65.5z M56.6,65.5h3v3h-3V65.5z M59.9,65.5h3v3h-3V65.5z
					 M63.2,65.5h3v3h-3V65.5z M66.5,65.5h3v3h-3V65.5z M69.8,65.5h3v3h-3V65.5z M73,65.5h3v3h-3V65.5z M76.3,65.5h3v3h-3V65.5z
					 M79.6,65.5h3v3h-3V65.5z M82.9,65.5h3v3h-3V65.5z M86.2,65.5h3v3h-3V65.5z M89.5,65.5h3v3h-3V65.5z M92.8,65.5h3v3h-3V65.5z
					 M96.1,65.5h3v3h-3V65.5z M99.4,65.5h3v3h-3V65.5z M99.4,65.2v-3h3v3H99.4z M99.4,61.9v-3h3v3H99.4z M99.4,58.6v-3h3v3H99.4z
					 M99.4,55.3v-3h3v3H99.4z M99.4,52v-3h3v3H99.4z M99.4,48.7v-3h3v3H99.4z M99.4,45.4v-3h3v3H99.4z M99.4,42.1v-3h3v3H99.4z
					 M99.4,38.8v-3h3v3H99.4z M99.4,35.5v-3h3v3H99.4z M99.4,32.2v-3h3v3H99.4z M99.4,28.9v-3h3v3H99.4z M99.4,25.7v-3h3v3H99.4z
					 M99.4,22.4v-3h3v3H99.4z M99.4,19.1v-3h3v3H99.4z M99.4,15.8v-3h3v3H99.4z M99.4,12.5v-3h3v3H99.4z M99.4,9.2v-3h3v3H99.4z
					 M99.4,5.9v-3h3v3H99.4z M99.4,2.6v-3h3v3H99.4z M99.4-0.7v-3h3v3H99.4z M99.4-4v-3h3v3H99.4z M99.4-7.3v-3h3v3H99.4z
					 M99.4-10.6v-3h3v3H99.4z M99.4-13.9v-3h3v3H99.4z M99.2-20.3v3h-3v-3H99.2z M95.9-20.3v3h-3v-3H95.9z M92.6-20.3v3h-3v-3H92.6z
					 M89.3-20.3v3h-3v-3H89.3z M86-20.3v3h-3v-3H86z M82.7-20.3v3h-3v-3H82.7z M79.4-20.3v3h-3v-3H79.4z M76.1-20.3v3h-3v-3H76.1z
					 M72.8-20.3v3h-3v-3H72.8z M69.5-20.3v3h-3v-3H69.5z M66.2-20.3v3h-3v-3H66.2z M62.9-20.3v3h-3v-3H62.9z M59.6-20.3v3h-3v-3
					H59.6z M56.3-20.3v3h-3v-3H56.3z M53-20.3v3h-3v-3H53z M49.7-20.3v3h-3v-3H49.7z M46.4-20.3v3h-3v-3H46.4z M43.1-20.3v3h-3v-3
					H43.1z M39.8-20.3v3h-3v-3H39.8z M36.5-20.3v3h-3v-3H36.5z M33.2-20.3v3h-3v-3H33.2z M29.9-20.3v3h-3v-3H29.9z M26.6-20.3v3h-3
					v-3H26.6z M23.3-20.3v3h-3v-3H23.3z M20-20.3v3h-3v-3H20z M16.7-20.3v3h-3v-3H16.7z M13.4-20.3v3h-3v-3H13.4z M10.1-20.3v3h-3
					v-3H10.1z M6.8-20.3v3h-3v-3H6.8z M3.5-20.3v3h-3v-3H3.5z M0.2-20.3v3h-3v-3H0.2z M-3.1-20.3v3h-3v-3H-3.1z M-6.4-20.3v3h-3v-3
					H-6.4z M-9.7-20.3v3h-3v-3H-9.7z"/>
			</g>
		</g>
	</g>
	<g id="XMLID_4_">
		<path class="st2" d="M49.9,43.4l-15-8.7V17.5l15-8.7l15,8.7v17.3L49.9,43.4z M38.9,32.4l11,6.3l11-6.3V19.8l-11-6.3l-11,6.3V32.4z
			 M62.9,33.6L62.9,33.6L62.9,33.6z"/>
	</g>
</g>
</svg>
