<?xml version="1.0" encoding="utf-8"?>
<!-- Generator: Adobe Illustrator 19.2.1, SVG Export Plug-In . SVG Version: 6.00 Build 0)  -->
<svg version="1.1" id="图层_1" xmlns="http://www.w3.org/2000/svg" xmlns:xlink="http://www.w3.org/1999/xlink" x="0px" y="0px"
	 viewBox="0 0 100 100" style="enable-background:new 0 0 100 100;" xml:space="preserve">
<style type="text/css">
	.st0{fill:#F0F7F5;}
	.st1{fill:#FFFFFF;}
	.st2{clip-path:url(#SVGID_2_);}
	.st3{fill:#D1E0DC;}
	.st4{fill:#2B937C;}
	.st5{fill:#414249;}
	.st6{fill:#065E49;}
</style>
<g id="XMLID_1_">
	<g id="XMLID_153_">
		<circle class="st0" cx="50" cy="50" r="50"/>
	</g>
	<g id="XMLID_1932_">
		<rect x="19.6" y="18.4" class="st1" width="60.3" height="61.9"/>
	</g>
	<g id="XMLID_21_">
		<defs>
			<rect id="SVGID_1_" x="19.6" y="18.3" width="60.3" height="62.5"/>
		</defs>
		<clipPath id="SVGID_2_">
			<use xlink:href="#SVGID_1_"  style="overflow:visible;"/>
		</clipPath>
		<g id="XMLID_23_" class="st2">
			<g id="XMLID_1931_">
				<rect x="-1.7" y="4.7" class="st3" width="109.4" height="0.3"/>
			</g>
			<g id="XMLID_24_">
				<path class="st3" d="M107.8,5.4h-0.3v2.5h-2.9V5.4h-0.3v2.5h-2.9V5.4h-0.3v2.5h-2.9V5.4h-0.3v2.5h-2.9V5.4H95v2.5h-2.9V5.4h-0.3
					v2.5H89V5.4h-0.3v2.5h-2.9V5.4h-0.3v2.5h-2.9V5.4h-0.3v2.5h-2.9V5.4h-0.3v2.5h-2.9V5.4h-0.3v2.5h-2.9V5.4h-0.3v2.5h-2.9V5.4H70
					v2.5h-2.9V5.4h-0.3v2.5H64V5.4h-0.2v2.5h-2.9V5.4h-0.3v2.5h-2.9V5.4h-0.3v2.5h-2.9V5.4h-0.3v2.5h-2.9V5.4h-0.3v2.5h-2.9V5.4
					h-0.3v2.5h-2.9V5.4H45v2.5h-2.9V5.4h-0.3v2.5H39V5.4h-0.3v2.5h-2.9V5.4h-0.3v2.5h-2.9V5.4h-0.3v2.5h-2.9V5.4h-0.3v2.5h-2.9V5.4
					h-0.3v2.5h-2.9V5.4h-0.3v2.5h-2.9V5.4H20v2.5h-2.9V5.4h-0.3v2.5H14V5.4h-0.3v2.5h-2.9V5.4h-0.3v2.5H7.8V5.4H7.5v2.5H4.6V5.4H4.4
					v2.5H1.5V5.4H1.3v2.5h-2.9V5.4h-0.3v87h0.1v0.1h109.4v-0.1h0.1V5.4z M107.5,8.1V11h-2.9V8.1H107.5z M63.8,51.6h-2.9v-2.9h2.9
					V51.6z M64,48.7h2.9v2.9H64V48.7z M60.6,51.6h-2.9v-2.9h2.9V51.6z M57.5,51.6h-2.9v-2.9h2.9V51.6z M54.4,51.6h-2.9v-2.9h2.9
					V51.6z M51.3,51.6h-2.9v-2.9h2.9V51.6z M48.1,51.6h-2.9v-2.9h2.9V51.6z M45,51.6h-2.9v-2.9H45V51.6z M41.9,51.6H39v-2.9h2.9
					V51.6z M38.8,51.6h-2.9v-2.9h2.9V51.6z M38.8,51.8v2.9h-2.9v-2.9H38.8z M39,51.8h2.9v2.9H39V51.8z M42.1,51.8H45v2.9h-2.9V51.8z
					 M45.3,51.8h2.9v2.9h-2.9V51.8z M48.4,51.8h2.9v2.9h-2.9V51.8z M51.5,51.8h2.9v2.9h-2.9V51.8z M54.6,51.8h2.9v2.9h-2.9V51.8z
					 M57.8,51.8h2.9v2.9h-2.9V51.8z M60.9,51.8h2.9v2.9h-2.9V51.8z M64,51.8h2.9v2.9H64V51.8z M67.1,51.8H70v2.9h-2.9V51.8z
					 M67.1,51.6v-2.9H70v2.9H67.1z M67.1,48.5v-2.9H70v2.9H67.1z M66.9,48.5H64v-2.9h2.9V48.5z M63.8,48.5h-2.9v-2.9h2.9V48.5z
					 M60.6,48.5h-2.9v-2.9h2.9V48.5z M57.5,48.5h-2.9v-2.9h2.9V48.5z M54.4,48.5h-2.9v-2.9h2.9V48.5z M51.3,48.5h-2.9v-2.9h2.9V48.5
					z M48.1,48.5h-2.9v-2.9h2.9V48.5z M45,48.5h-2.9v-2.9H45V48.5z M41.9,48.5H39v-2.9h2.9V48.5z M38.8,48.5h-2.9v-2.9h2.9V48.5z
					 M35.6,48.5h-2.9v-2.9h2.9V48.5z M35.6,48.7v2.9h-2.9v-2.9H35.6z M35.6,51.8v2.9h-2.9v-2.9H35.6z M35.6,55v2.9h-2.9V55H35.6z
					 M35.9,55h2.9v2.9h-2.9V55z M39,55h2.9v2.9H39V55z M42.1,55H45v2.9h-2.9V55z M45.3,55h2.9v2.9h-2.9V55z M48.4,55h2.9v2.9h-2.9
					V55z M51.5,55h2.9v2.9h-2.9V55z M54.6,55h2.9v2.9h-2.9V55z M57.8,55h2.9v2.9h-2.9V55z M60.9,55h2.9v2.9h-2.9V55z M64,55h2.9v2.9
					H64V55z M67.1,55H70v2.9h-2.9V55z M70.3,55h2.9v2.9h-2.9V55z M70.3,54.7v-2.9h2.9v2.9H70.3z M70.3,51.6v-2.9h2.9v2.9H70.3z
					 M70.3,48.5v-2.9h2.9v2.9H70.3z M70.3,45.3v-2.9h2.9v2.9H70.3z M70,45.3h-2.9v-2.9H70V45.3z M66.9,45.3H64v-2.9h2.9V45.3z
					 M63.8,45.3h-2.9v-2.9h2.9V45.3z M60.6,45.3h-2.9v-2.9h2.9V45.3z M57.5,45.3h-2.9v-2.9h2.9V45.3z M54.4,45.3h-2.9v-2.9h2.9V45.3
					z M51.3,45.3h-2.9v-2.9h2.9V45.3z M48.1,45.3h-2.9v-2.9h2.9V45.3z M45,45.3h-2.9v-2.9H45V45.3z M41.9,45.3H39v-2.9h2.9V45.3z
					 M38.8,45.3h-2.9v-2.9h2.9V45.3z M35.6,45.3h-2.9v-2.9h2.9V45.3z M32.5,45.3h-2.9v-2.9h2.9V45.3z M32.5,45.6v2.9h-2.9v-2.9H32.5
					z M32.5,48.7v2.9h-2.9v-2.9H32.5z M32.5,51.8v2.9h-2.9v-2.9H32.5z M32.5,55v2.9h-2.9V55H32.5z M32.5,58.1V61h-2.9v-2.9H32.5z
					 M32.8,58.1h2.9V61h-2.9V58.1z M35.9,58.1h2.9V61h-2.9V58.1z M39,58.1h2.9V61H39V58.1z M42.1,58.1H45V61h-2.9V58.1z M45.3,58.1
					h2.9V61h-2.9V58.1z M48.4,58.1h2.9V61h-2.9V58.1z M51.5,58.1h2.9V61h-2.9V58.1z M54.6,58.1h2.9V61h-2.9V58.1z M57.8,58.1h2.9V61
					h-2.9V58.1z M60.9,58.1h2.9V61h-2.9V58.1z M64,58.1h2.9V61H64V58.1z M67.1,58.1H70V61h-2.9V58.1z M70.3,58.1h2.9V61h-2.9V58.1z
					 M73.4,58.1h2.9V61h-2.9V58.1z M73.4,57.8V55h2.9v2.9H73.4z M73.4,54.7v-2.9h2.9v2.9H73.4z M73.4,51.6v-2.9h2.9v2.9H73.4z
					 M73.4,48.5v-2.9h2.9v2.9H73.4z M73.4,45.3v-2.9h2.9v2.9H73.4z M73.4,42.2v-2.9h2.9v2.9H73.4z M73.1,42.2h-2.9v-2.9h2.9V42.2z
					 M70,42.2h-2.9v-2.9H70V42.2z M66.9,42.2H64v-2.9h2.9V42.2z M63.8,42.2h-2.9v-2.9h2.9V42.2z M60.6,42.2h-2.9v-2.9h2.9V42.2z
					 M57.5,42.2h-2.9v-2.9h2.9V42.2z M54.4,42.2h-2.9v-2.9h2.9V42.2z M51.3,42.2h-2.9v-2.9h2.9V42.2z M48.1,42.2h-2.9v-2.9h2.9V42.2
					z M45,42.2h-2.9v-2.9H45V42.2z M41.9,42.2H39v-2.9h2.9V42.2z M38.8,42.2h-2.9v-2.9h2.9V42.2z M35.6,42.2h-2.9v-2.9h2.9V42.2z
					 M32.5,42.2h-2.9v-2.9h2.9V42.2z M29.4,42.2h-2.9v-2.9h2.9V42.2z M29.4,42.5v2.9h-2.9v-2.9H29.4z M29.4,45.6v2.9h-2.9v-2.9H29.4
					z M29.4,48.7v2.9h-2.9v-2.9H29.4z M29.4,51.8v2.9h-2.9v-2.9H29.4z M29.4,55v2.9h-2.9V55H29.4z M29.4,58.1V61h-2.9v-2.9H29.4z
					 M29.4,61.2v2.9h-2.9v-2.9H29.4z M29.6,61.2h2.9v2.9h-2.9V61.2z M32.8,61.2h2.9v2.9h-2.9V61.2z M35.9,61.2h2.9v2.9h-2.9V61.2z
					 M39,61.2h2.9v2.9H39V61.2z M42.1,61.2H45v2.9h-2.9V61.2z M45.3,61.2h2.9v2.9h-2.9V61.2z M48.4,61.2h2.9v2.9h-2.9V61.2z
					 M51.5,61.2h2.9v2.9h-2.9V61.2z M54.6,61.2h2.9v2.9h-2.9V61.2z M57.8,61.2h2.9v2.9h-2.9V61.2z M60.9,61.2h2.9v2.9h-2.9V61.2z
					 M64,61.2h2.9v2.9H64V61.2z M67.1,61.2H70v2.9h-2.9V61.2z M70.3,61.2h2.9v2.9h-2.9V61.2z M73.4,61.2h2.9v2.9h-2.9V61.2z
					 M76.5,61.2h2.9v2.9h-2.9V61.2z M76.5,61v-2.9h2.9V61H76.5z M76.5,57.8V55h2.9v2.9H76.5z M76.5,54.7v-2.9h2.9v2.9H76.5z
					 M76.5,51.6v-2.9h2.9v2.9H76.5z M76.5,48.5v-2.9h2.9v2.9H76.5z M76.5,45.3v-2.9h2.9v2.9H76.5z M76.5,42.2v-2.9h2.9v2.9H76.5z
					 M76.5,39.1v-2.9h2.9v2.9H76.5z M76.3,39.1h-2.9v-2.9h2.9V39.1z M73.1,39.1h-2.9v-2.9h2.9V39.1z M70,39.1h-2.9v-2.9H70V39.1z
					 M66.9,39.1H64v-2.9h2.9V39.1z M63.8,39.1h-2.9v-2.9h2.9V39.1z M60.6,39.1h-2.9v-2.9h2.9V39.1z M57.5,39.1h-2.9v-2.9h2.9V39.1z
					 M54.4,39.1h-2.9v-2.9h2.9V39.1z M51.3,39.1h-2.9v-2.9h2.9V39.1z M48.1,39.1h-2.9v-2.9h2.9V39.1z M45,39.1h-2.9v-2.9H45V39.1z
					 M41.9,39.1H39v-2.9h2.9V39.1z M38.8,39.1h-2.9v-2.9h2.9V39.1z M35.6,39.1h-2.9v-2.9h2.9V39.1z M32.5,39.1h-2.9v-2.9h2.9V39.1z
					 M29.4,39.1h-2.9v-2.9h2.9V39.1z M26.3,39.1h-2.9v-2.9h2.9V39.1z M26.3,39.3v2.9h-2.9v-2.9H26.3z M26.3,42.5v2.9h-2.9v-2.9H26.3
					z M26.3,45.6v2.9h-2.9v-2.9H26.3z M26.3,48.7v2.9h-2.9v-2.9H26.3z M26.3,51.8v2.9h-2.9v-2.9H26.3z M26.3,55v2.9h-2.9V55H26.3z
					 M26.3,58.1V61h-2.9v-2.9H26.3z M26.3,61.2v2.9h-2.9v-2.9H26.3z M26.3,64.3v2.9h-2.9v-2.9H26.3z M26.5,64.3h2.9v2.9h-2.9V64.3z
					 M29.6,64.3h2.9v2.9h-2.9V64.3z M32.8,64.3h2.9v2.9h-2.9V64.3z M35.9,64.3h2.9v2.9h-2.9V64.3z M39,64.3h2.9v2.9H39V64.3z
					 M42.1,64.3H45v2.9h-2.9V64.3z M45.3,64.3h2.9v2.9h-2.9V64.3z M48.4,64.3h2.9v2.9h-2.9V64.3z M51.5,64.3h2.9v2.9h-2.9V64.3z
					 M54.6,64.3h2.9v2.9h-2.9V64.3z M57.8,64.3h2.9v2.9h-2.9V64.3z M60.9,64.3h2.9v2.9h-2.9V64.3z M64,64.3h2.9v2.9H64V64.3z
					 M67.1,64.3H70v2.9h-2.9V64.3z M70.3,64.3h2.9v2.9h-2.9V64.3z M73.4,64.3h2.9v2.9h-2.9V64.3z M76.5,64.3h2.9v2.9h-2.9V64.3z
					 M79.6,64.3h2.9v2.9h-2.9V64.3z M79.6,64.1v-2.9h2.9v2.9H79.6z M79.6,61v-2.9h2.9V61H79.6z M79.6,57.8V55h2.9v2.9H79.6z
					 M79.6,54.7v-2.9h2.9v2.9H79.6z M79.6,51.6v-2.9h2.9v2.9H79.6z M79.6,48.5v-2.9h2.9v2.9H79.6z M79.6,45.3v-2.9h2.9v2.9H79.6z
					 M79.6,42.2v-2.9h2.9v2.9H79.6z M79.6,39.1v-2.9h2.9v2.9H79.6z M79.6,36v-2.9h2.9V36H79.6z M79.4,36h-2.9v-2.9h2.9V36z M76.3,36
					h-2.9v-2.9h2.9V36z M73.1,36h-2.9v-2.9h2.9V36z M70,36h-2.9v-2.9H70V36z M66.9,36H64v-2.9h2.9V36z M63.8,36h-2.9v-2.9h2.9V36z
					 M60.6,36h-2.9v-2.9h2.9V36z M57.5,36h-2.9v-2.9h2.9V36z M54.4,36h-2.9v-2.9h2.9V36z M51.3,36h-2.9v-2.9h2.9V36z M48.1,36h-2.9
					v-2.9h2.9V36z M45,36h-2.9v-2.9H45V36z M41.9,36H39v-2.9h2.9V36z M38.8,36h-2.9v-2.9h2.9V36z M35.6,36h-2.9v-2.9h2.9V36z
					 M32.5,36h-2.9v-2.9h2.9V36z M29.4,36h-2.9v-2.9h2.9V36z M26.3,36h-2.9v-2.9h2.9V36z M23.1,36h-2.9v-2.9h2.9V36z M23.1,36.2v2.9
					h-2.9v-2.9H23.1z M23.1,39.3v2.9h-2.9v-2.9H23.1z M23.1,42.5v2.9h-2.9v-2.9H23.1z M23.1,45.6v2.9h-2.9v-2.9H23.1z M23.1,48.7
					v2.9h-2.9v-2.9H23.1z M23.1,51.8v2.9h-2.9v-2.9H23.1z M23.1,55v2.9h-2.9V55H23.1z M23.1,58.1V61h-2.9v-2.9H23.1z M23.1,61.2v2.9
					h-2.9v-2.9H23.1z M23.1,64.3v2.9h-2.9v-2.9H23.1z M23.1,67.5v2.9h-2.9v-2.9H23.1z M23.4,67.5h2.9v2.9h-2.9V67.5z M26.5,67.5h2.9
					v2.9h-2.9V67.5z M29.6,67.5h2.9v2.9h-2.9V67.5z M32.8,67.5h2.9v2.9h-2.9V67.5z M35.9,67.5h2.9v2.9h-2.9V67.5z M39,67.5h2.9v2.9
					H39V67.5z M42.1,67.5H45v2.9h-2.9V67.5z M45.3,67.5h2.9v2.9h-2.9V67.5z M48.4,67.5h2.9v2.9h-2.9V67.5z M51.5,67.5h2.9v2.9h-2.9
					V67.5z M54.6,67.5h2.9v2.9h-2.9V67.5z M57.8,67.5h2.9v2.9h-2.9V67.5z M60.9,67.5h2.9v2.9h-2.9V67.5z M64,67.5h2.9v2.9H64V67.5z
					 M67.1,67.5H70v2.9h-2.9V67.5z M70.3,67.5h2.9v2.9h-2.9V67.5z M73.4,67.5h2.9v2.9h-2.9V67.5z M76.5,67.5h2.9v2.9h-2.9V67.5z
					 M79.6,67.5h2.9v2.9h-2.9V67.5z M82.8,67.5h2.9v2.9h-2.9V67.5z M82.8,67.2v-2.9h2.9v2.9H82.8z M82.8,64.1v-2.9h2.9v2.9H82.8z
					 M82.8,61v-2.9h2.9V61H82.8z M82.8,57.8V55h2.9v2.9H82.8z M82.8,54.7v-2.9h2.9v2.9H82.8z M82.8,51.6v-2.9h2.9v2.9H82.8z
					 M82.8,48.5v-2.9h2.9v2.9H82.8z M82.8,45.3v-2.9h2.9v2.9H82.8z M82.8,42.2v-2.9h2.9v2.9H82.8z M82.8,39.1v-2.9h2.9v2.9H82.8z
					 M82.8,36v-2.9h2.9V36H82.8z M82.8,32.8V30h2.9v2.9H82.8z M82.5,32.8h-2.9V30h2.9V32.8z M79.4,32.8h-2.9V30h2.9V32.8z
					 M76.3,32.8h-2.9V30h2.9V32.8z M73.1,32.8h-2.9V30h2.9V32.8z M70,32.8h-2.9V30H70V32.8z M66.9,32.8H64V30h2.9V32.8z M63.8,32.8
					h-2.9V30h2.9V32.8z M60.6,32.8h-2.9V30h2.9V32.8z M57.5,32.8h-2.9V30h2.9V32.8z M54.4,32.8h-2.9V30h2.9V32.8z M51.3,32.8h-2.9
					V30h2.9V32.8z M48.1,32.8h-2.9V30h2.9V32.8z M45,32.8h-2.9V30H45V32.8z M41.9,32.8H39V30h2.9V32.8z M38.8,32.8h-2.9V30h2.9V32.8
					z M35.6,32.8h-2.9V30h2.9V32.8z M32.5,32.8h-2.9V30h2.9V32.8z M29.4,32.8h-2.9V30h2.9V32.8z M26.3,32.8h-2.9V30h2.9V32.8z
					 M23.1,32.8h-2.9V30h2.9V32.8z M20,32.8h-2.9V30H20V32.8z M20,33.1V36h-2.9v-2.9H20z M20,36.2v2.9h-2.9v-2.9H20z M20,39.3v2.9
					h-2.9v-2.9H20z M20,42.5v2.9h-2.9v-2.9H20z M20,45.6v2.9h-2.9v-2.9H20z M20,48.7v2.9h-2.9v-2.9H20z M20,51.8v2.9h-2.9v-2.9H20z
					 M20,55v2.9h-2.9V55H20z M20,58.1V61h-2.9v-2.9H20z M20,61.2v2.9h-2.9v-2.9H20z M20,64.3v2.9h-2.9v-2.9H20z M20,67.5v2.9h-2.9
					v-2.9H20z M20,70.6v2.9h-2.9v-2.9H20z M20.3,70.6h2.9v2.9h-2.9V70.6z M23.4,70.6h2.9v2.9h-2.9V70.6z M26.5,70.6h2.9v2.9h-2.9
					V70.6z M29.6,70.6h2.9v2.9h-2.9V70.6z M32.8,70.6h2.9v2.9h-2.9V70.6z M35.9,70.6h2.9v2.9h-2.9V70.6z M39,70.6h2.9v2.9H39V70.6z
					 M42.1,70.6H45v2.9h-2.9V70.6z M45.3,70.6h2.9v2.9h-2.9V70.6z M48.4,70.6h2.9v2.9h-2.9V70.6z M51.5,70.6h2.9v2.9h-2.9V70.6z
					 M54.6,70.6h2.9v2.9h-2.9V70.6z M57.8,70.6h2.9v2.9h-2.9V70.6z M60.9,70.6h2.9v2.9h-2.9V70.6z M64,70.6h2.9v2.9H64V70.6z
					 M67.1,70.6H70v2.9h-2.9V70.6z M70.3,70.6h2.9v2.9h-2.9V70.6z M73.4,70.6h2.9v2.9h-2.9V70.6z M76.5,70.6h2.9v2.9h-2.9V70.6z
					 M79.6,70.6h2.9v2.9h-2.9V70.6z M82.8,70.6h2.9v2.9h-2.9V70.6z M85.9,70.6h2.9v2.9h-2.9V70.6z M85.9,70.3v-2.9h2.9v2.9H85.9z
					 M85.9,67.2v-2.9h2.9v2.9H85.9z M85.9,64.1v-2.9h2.9v2.9H85.9z M85.9,61v-2.9h2.9V61H85.9z M85.9,57.8V55h2.9v2.9H85.9z
					 M85.9,54.7v-2.9h2.9v2.9H85.9z M85.9,51.6v-2.9h2.9v2.9H85.9z M85.9,48.5v-2.9h2.9v2.9H85.9z M85.9,45.3v-2.9h2.9v2.9H85.9z
					 M85.9,42.2v-2.9h2.9v2.9H85.9z M85.9,39.1v-2.9h2.9v2.9H85.9z M85.9,36v-2.9h2.9V36H85.9z M85.9,32.8V30h2.9v2.9H85.9z
					 M85.9,29.7v-2.9h2.9v2.9H85.9z M85.6,29.7h-2.9v-2.9h2.9V29.7z M82.5,29.7h-2.9v-2.9h2.9V29.7z M79.4,29.7h-2.9v-2.9h2.9V29.7z
					 M76.3,29.7h-2.9v-2.9h2.9V29.7z M73.1,29.7h-2.9v-2.9h2.9V29.7z M70,29.7h-2.9v-2.9H70V29.7z M66.9,29.7H64v-2.9h2.9V29.7z
					 M63.8,29.7h-2.9v-2.9h2.9V29.7z M60.6,29.7h-2.9v-2.9h2.9V29.7z M57.5,29.7h-2.9v-2.9h2.9V29.7z M54.4,29.7h-2.9v-2.9h2.9V29.7
					z M51.3,29.7h-2.9v-2.9h2.9V29.7z M48.1,29.7h-2.9v-2.9h2.9V29.7z M45,29.7h-2.9v-2.9H45V29.7z M41.9,29.7H39v-2.9h2.9V29.7z
					 M38.8,29.7h-2.9v-2.9h2.9V29.7z M35.6,29.7h-2.9v-2.9h2.9V29.7z M32.5,29.7h-2.9v-2.9h2.9V29.7z M29.4,29.7h-2.9v-2.9h2.9V29.7
					z M26.3,29.7h-2.9v-2.9h2.9V29.7z M23.1,29.7h-2.9v-2.9h2.9V29.7z M20,29.7h-2.9v-2.9H20V29.7z M16.9,29.7H14v-2.9h2.9V29.7z
					 M16.9,30v2.9H14V30H16.9z M16.9,33.1V36H14v-2.9H16.9z M16.9,36.2v2.9H14v-2.9H16.9z M16.9,39.3v2.9H14v-2.9H16.9z M16.9,42.5
					v2.9H14v-2.9H16.9z M16.9,45.6v2.9H14v-2.9H16.9z M16.9,48.7v2.9H14v-2.9H16.9z M16.9,51.8v2.9H14v-2.9H16.9z M16.9,55v2.9H14
					V55H16.9z M16.9,58.1V61H14v-2.9H16.9z M16.9,61.2v2.9H14v-2.9H16.9z M16.9,64.3v2.9H14v-2.9H16.9z M16.9,67.5v2.9H14v-2.9H16.9
					z M16.9,70.6v2.9H14v-2.9H16.9z M16.9,73.7v2.9H14v-2.9H16.9z M17.1,73.7H20v2.9h-2.9V73.7z M20.3,73.7h2.9v2.9h-2.9V73.7z
					 M23.4,73.7h2.9v2.9h-2.9V73.7z M26.5,73.7h2.9v2.9h-2.9V73.7z M29.6,73.7h2.9v2.9h-2.9V73.7z M32.8,73.7h2.9v2.9h-2.9V73.7z
					 M35.9,73.7h2.9v2.9h-2.9V73.7z M39,73.7h2.9v2.9H39V73.7z M42.1,73.7H45v2.9h-2.9V73.7z M45.3,73.7h2.9v2.9h-2.9V73.7z
					 M48.4,73.7h2.9v2.9h-2.9V73.7z M51.5,73.7h2.9v2.9h-2.9V73.7z M54.6,73.7h2.9v2.9h-2.9V73.7z M57.8,73.7h2.9v2.9h-2.9V73.7z
					 M60.9,73.7h2.9v2.9h-2.9V73.7z M64,73.7h2.9v2.9H64V73.7z M67.1,73.7H70v2.9h-2.9V73.7z M70.3,73.7h2.9v2.9h-2.9V73.7z
					 M73.4,73.7h2.9v2.9h-2.9V73.7z M76.5,73.7h2.9v2.9h-2.9V73.7z M79.6,73.7h2.9v2.9h-2.9V73.7z M82.8,73.7h2.9v2.9h-2.9V73.7z
					 M85.9,73.7h2.9v2.9h-2.9V73.7z M89,73.7h2.9v2.9H89V73.7z M89,73.5v-2.9h2.9v2.9H89z M89,70.3v-2.9h2.9v2.9H89z M89,67.2v-2.9
					h2.9v2.9H89z M89,64.1v-2.9h2.9v2.9H89z M89,61v-2.9h2.9V61H89z M89,57.8V55h2.9v2.9H89z M89,54.7v-2.9h2.9v2.9H89z M89,51.6
					v-2.9h2.9v2.9H89z M89,48.5v-2.9h2.9v2.9H89z M89,45.3v-2.9h2.9v2.9H89z M89,42.2v-2.9h2.9v2.9H89z M89,39.1v-2.9h2.9v2.9H89z
					 M89,36v-2.9h2.9V36H89z M89,32.8V30h2.9v2.9H89z M89,29.7v-2.9h2.9v2.9H89z M89,26.6v-2.9h2.9v2.9H89z M88.8,26.6h-2.9v-2.9
					h2.9V26.6z M85.6,26.6h-2.9v-2.9h2.9V26.6z M82.5,26.6h-2.9v-2.9h2.9V26.6z M79.4,26.6h-2.9v-2.9h2.9V26.6z M76.3,26.6h-2.9
					v-2.9h2.9V26.6z M73.1,26.6h-2.9v-2.9h2.9V26.6z M70,26.6h-2.9v-2.9H70V26.6z M66.9,26.6H64v-2.9h2.9V26.6z M63.8,26.6h-2.9
					v-2.9h2.9V26.6z M60.6,26.6h-2.9v-2.9h2.9V26.6z M57.5,26.6h-2.9v-2.9h2.9V26.6z M54.4,26.6h-2.9v-2.9h2.9V26.6z M51.3,26.6
					h-2.9v-2.9h2.9V26.6z M48.1,26.6h-2.9v-2.9h2.9V26.6z M45,26.6h-2.9v-2.9H45V26.6z M41.9,26.6H39v-2.9h2.9V26.6z M38.8,26.6
					h-2.9v-2.9h2.9V26.6z M35.6,26.6h-2.9v-2.9h2.9V26.6z M32.5,26.6h-2.9v-2.9h2.9V26.6z M29.4,26.6h-2.9v-2.9h2.9V26.6z
					 M26.3,26.6h-2.9v-2.9h2.9V26.6z M23.1,26.6h-2.9v-2.9h2.9V26.6z M20,26.6h-2.9v-2.9H20V26.6z M16.9,26.6H14v-2.9h2.9V26.6z
					 M13.8,26.6h-2.9v-2.9h2.9V26.6z M13.8,26.8v2.9h-2.9v-2.9H13.8z M13.8,30v2.9h-2.9V30H13.8z M13.8,33.1V36h-2.9v-2.9H13.8z
					 M13.8,36.2v2.9h-2.9v-2.9H13.8z M13.8,39.3v2.9h-2.9v-2.9H13.8z M13.8,42.5v2.9h-2.9v-2.9H13.8z M13.8,45.6v2.9h-2.9v-2.9H13.8
					z M13.8,48.7v2.9h-2.9v-2.9H13.8z M13.8,51.8v2.9h-2.9v-2.9H13.8z M13.8,55v2.9h-2.9V55H13.8z M13.8,58.1V61h-2.9v-2.9H13.8z
					 M13.8,61.2v2.9h-2.9v-2.9H13.8z M13.8,64.3v2.9h-2.9v-2.9H13.8z M13.8,67.5v2.9h-2.9v-2.9H13.8z M13.8,70.6v2.9h-2.9v-2.9H13.8
					z M13.8,73.7v2.9h-2.9v-2.9H13.8z M13.8,76.8v2.9h-2.9v-2.9H13.8z M14,76.8h2.9v2.9H14V76.8z M17.1,76.8H20v2.9h-2.9V76.8z
					 M20.3,76.8h2.9v2.9h-2.9V76.8z M23.4,76.8h2.9v2.9h-2.9V76.8z M26.5,76.8h2.9v2.9h-2.9V76.8z M29.6,76.8h2.9v2.9h-2.9V76.8z
					 M32.8,76.8h2.9v2.9h-2.9V76.8z M35.9,76.8h2.9v2.9h-2.9V76.8z M39,76.8h2.9v2.9H39V76.8z M42.1,76.8H45v2.9h-2.9V76.8z
					 M45.3,76.8h2.9v2.9h-2.9V76.8z M48.4,76.8h2.9v2.9h-2.9V76.8z M51.5,76.8h2.9v2.9h-2.9V76.8z M54.6,76.8h2.9v2.9h-2.9V76.8z
					 M57.8,76.8h2.9v2.9h-2.9V76.8z M60.9,76.8h2.9v2.9h-2.9V76.8z M64,76.8h2.9v2.9H64V76.8z M67.1,76.8H70v2.9h-2.9V76.8z
					 M70.3,76.8h2.9v2.9h-2.9V76.8z M73.4,76.8h2.9v2.9h-2.9V76.8z M76.5,76.8h2.9v2.9h-2.9V76.8z M79.6,76.8h2.9v2.9h-2.9V76.8z
					 M82.8,76.8h2.9v2.9h-2.9V76.8z M85.9,76.8h2.9v2.9h-2.9V76.8z M89,76.8h2.9v2.9H89V76.8z M92.1,76.8H95v2.9h-2.9V76.8z
					 M92.1,76.6v-2.9H95v2.9H92.1z M92.1,73.5v-2.9H95v2.9H92.1z M92.1,70.3v-2.9H95v2.9H92.1z M92.1,67.2v-2.9H95v2.9H92.1z
					 M92.1,64.1v-2.9H95v2.9H92.1z M92.1,61v-2.9H95V61H92.1z M92.1,57.8V55H95v2.9H92.1z M92.1,54.7v-2.9H95v2.9H92.1z M92.1,51.6
					v-2.9H95v2.9H92.1z M92.1,48.5v-2.9H95v2.9H92.1z M92.1,45.3v-2.9H95v2.9H92.1z M92.1,42.2v-2.9H95v2.9H92.1z M92.1,39.1v-2.9
					H95v2.9H92.1z M92.1,36v-2.9H95V36H92.1z M92.1,32.8V30H95v2.9H92.1z M92.1,29.7v-2.9H95v2.9H92.1z M92.1,26.6v-2.9H95v2.9H92.1
					z M92.1,23.5v-2.9H95v2.9H92.1z M91.9,23.5H89v-2.9h2.9V23.5z M88.8,23.5h-2.9v-2.9h2.9V23.5z M85.6,23.5h-2.9v-2.9h2.9V23.5z
					 M82.5,23.5h-2.9v-2.9h2.9V23.5z M79.4,23.5h-2.9v-2.9h2.9V23.5z M76.3,23.5h-2.9v-2.9h2.9V23.5z M73.1,23.5h-2.9v-2.9h2.9V23.5
					z M70,23.5h-2.9v-2.9H70V23.5z M66.9,23.5H64v-2.9h2.9V23.5z M63.8,23.5h-2.9v-2.9h2.9V23.5z M60.6,23.5h-2.9v-2.9h2.9V23.5z
					 M57.5,23.5h-2.9v-2.9h2.9V23.5z M54.4,23.5h-2.9v-2.9h2.9V23.5z M51.3,23.5h-2.9v-2.9h2.9V23.5z M48.1,23.5h-2.9v-2.9h2.9V23.5
					z M45,23.5h-2.9v-2.9H45V23.5z M41.9,23.5H39v-2.9h2.9V23.5z M38.8,23.5h-2.9v-2.9h2.9V23.5z M35.6,23.5h-2.9v-2.9h2.9V23.5z
					 M32.5,23.5h-2.9v-2.9h2.9V23.5z M29.4,23.5h-2.9v-2.9h2.9V23.5z M26.3,23.5h-2.9v-2.9h2.9V23.5z M23.1,23.5h-2.9v-2.9h2.9V23.5
					z M20,23.5h-2.9v-2.9H20V23.5z M16.9,23.5H14v-2.9h2.9V23.5z M13.8,23.5h-2.9v-2.9h2.9V23.5z M10.6,23.5H7.8v-2.9h2.9V23.5z
					 M10.6,23.7v2.9H7.8v-2.9H10.6z M10.6,26.8v2.9H7.8v-2.9H10.6z M10.6,30v2.9H7.8V30H10.6z M10.6,33.1V36H7.8v-2.9H10.6z
					 M10.6,36.2v2.9H7.8v-2.9H10.6z M10.6,39.3v2.9H7.8v-2.9H10.6z M10.6,42.5v2.9H7.8v-2.9H10.6z M10.6,45.6v2.9H7.8v-2.9H10.6z
					 M10.6,48.7v2.9H7.8v-2.9H10.6z M10.6,51.8v2.9H7.8v-2.9H10.6z M10.6,55v2.9H7.8V55H10.6z M10.6,58.1V61H7.8v-2.9H10.6z
					 M10.6,61.2v2.9H7.8v-2.9H10.6z M10.6,64.3v2.9H7.8v-2.9H10.6z M10.6,67.5v2.9H7.8v-2.9H10.6z M10.6,70.6v2.9H7.8v-2.9H10.6z
					 M10.6,73.7v2.9H7.8v-2.9H10.6z M10.6,76.8v2.9H7.8v-2.9H10.6z M10.6,80v2.9H7.8V80H10.6z M10.9,80h2.9v2.9h-2.9V80z M14,80h2.9
					v2.9H14V80z M17.1,80H20v2.9h-2.9V80z M20.3,80h2.9v2.9h-2.9V80z M23.4,80h2.9v2.9h-2.9V80z M26.5,80h2.9v2.9h-2.9V80z M29.6,80
					h2.9v2.9h-2.9V80z M32.8,80h2.9v2.9h-2.9V80z M35.9,80h2.9v2.9h-2.9V80z M39,80h2.9v2.9H39V80z M42.1,80H45v2.9h-2.9V80z
					 M45.3,80h2.9v2.9h-2.9V80z M48.4,80h2.9v2.9h-2.9V80z M51.5,80h2.9v2.9h-2.9V80z M54.6,80h2.9v2.9h-2.9V80z M57.8,80h2.9v2.9
					h-2.9V80z M60.9,80h2.9v2.9h-2.9V80z M64,80h2.9v2.9H64V80z M67.1,80H70v2.9h-2.9V80z M70.3,80h2.9v2.9h-2.9V80z M73.4,80h2.9
					v2.9h-2.9V80z M76.5,80h2.9v2.9h-2.9V80z M79.6,80h2.9v2.9h-2.9V80z M82.8,80h2.9v2.9h-2.9V80z M85.9,80h2.9v2.9h-2.9V80z
					 M89,80h2.9v2.9H89V80z M92.1,80H95v2.9h-2.9V80z M95.3,80h2.9v2.9h-2.9V80z M95.3,79.7v-2.9h2.9v2.9H95.3z M95.3,76.6v-2.9h2.9
					v2.9H95.3z M95.3,73.5v-2.9h2.9v2.9H95.3z M95.3,70.3v-2.9h2.9v2.9H95.3z M95.3,67.2v-2.9h2.9v2.9H95.3z M95.3,64.1v-2.9h2.9
					v2.9H95.3z M95.3,61v-2.9h2.9V61H95.3z M95.3,57.8V55h2.9v2.9H95.3z M95.3,54.7v-2.9h2.9v2.9H95.3z M95.3,51.6v-2.9h2.9v2.9
					H95.3z M95.3,48.5v-2.9h2.9v2.9H95.3z M95.3,45.3v-2.9h2.9v2.9H95.3z M95.3,42.2v-2.9h2.9v2.9H95.3z M95.3,39.1v-2.9h2.9v2.9
					H95.3z M95.3,36v-2.9h2.9V36H95.3z M95.3,32.8V30h2.9v2.9H95.3z M95.3,29.7v-2.9h2.9v2.9H95.3z M95.3,26.6v-2.9h2.9v2.9H95.3z
					 M95.3,23.5v-2.9h2.9v2.9H95.3z M95.3,20.3v-2.9h2.9v2.9H95.3z M95,20.3h-2.9v-2.9H95V20.3z M91.9,20.3H89v-2.9h2.9V20.3z
					 M88.8,20.3h-2.9v-2.9h2.9V20.3z M85.6,20.3h-2.9v-2.9h2.9V20.3z M82.5,20.3h-2.9v-2.9h2.9V20.3z M79.4,20.3h-2.9v-2.9h2.9V20.3
					z M76.3,20.3h-2.9v-2.9h2.9V20.3z M73.1,20.3h-2.9v-2.9h2.9V20.3z M70,20.3h-2.9v-2.9H70V20.3z M66.9,20.3H64v-2.9h2.9V20.3z
					 M63.8,20.3h-2.9v-2.9h2.9V20.3z M60.6,20.3h-2.9v-2.9h2.9V20.3z M57.5,20.3h-2.9v-2.9h2.9V20.3z M54.4,20.3h-2.9v-2.9h2.9V20.3
					z M51.3,20.3h-2.9v-2.9h2.9V20.3z M48.1,20.3h-2.9v-2.9h2.9V20.3z M45,20.3h-2.9v-2.9H45V20.3z M41.9,20.3H39v-2.9h2.9V20.3z
					 M38.8,20.3h-2.9v-2.9h2.9V20.3z M35.6,20.3h-2.9v-2.9h2.9V20.3z M32.5,20.3h-2.9v-2.9h2.9V20.3z M29.4,20.3h-2.9v-2.9h2.9V20.3
					z M26.3,20.3h-2.9v-2.9h2.9V20.3z M23.1,20.3h-2.9v-2.9h2.9V20.3z M20,20.3h-2.9v-2.9H20V20.3z M16.9,20.3H14v-2.9h2.9V20.3z
					 M13.8,20.3h-2.9v-2.9h2.9V20.3z M10.6,20.3H7.8v-2.9h2.9V20.3z M7.5,20.3H4.6v-2.9h2.9V20.3z M7.5,20.6v2.9H4.6v-2.9H7.5z
					 M7.5,23.7v2.9H4.6v-2.9H7.5z M7.5,26.8v2.9H4.6v-2.9H7.5z M7.5,30v2.9H4.6V30H7.5z M7.5,33.1V36H4.6v-2.9H7.5z M7.5,36.2v2.9
					H4.6v-2.9H7.5z M7.5,39.3v2.9H4.6v-2.9H7.5z M7.5,42.5v2.9H4.6v-2.9H7.5z M7.5,45.6v2.9H4.6v-2.9H7.5z M7.5,48.7v2.9H4.6v-2.9
					H7.5z M7.5,51.8v2.9H4.6v-2.9H7.5z M7.5,55v2.9H4.6V55H7.5z M7.5,58.1V61H4.6v-2.9H7.5z M7.5,61.2v2.9H4.6v-2.9H7.5z M7.5,64.3
					v2.9H4.6v-2.9H7.5z M7.5,67.5v2.9H4.6v-2.9H7.5z M7.5,70.6v2.9H4.6v-2.9H7.5z M7.5,73.7v2.9H4.6v-2.9H7.5z M7.5,76.8v2.9H4.6
					v-2.9H7.5z M7.5,80v2.9H4.6V80H7.5z M7.5,83.1V86H4.6v-2.9H7.5z M7.8,83.1h2.9V86H7.8V83.1z M10.9,83.1h2.9V86h-2.9V83.1z
					 M14,83.1h2.9V86H14V83.1z M17.1,83.1H20V86h-2.9V83.1z M20.3,83.1h2.9V86h-2.9V83.1z M23.4,83.1h2.9V86h-2.9V83.1z M26.5,83.1
					h2.9V86h-2.9V83.1z M29.6,83.1h2.9V86h-2.9V83.1z M32.8,83.1h2.9V86h-2.9V83.1z M35.9,83.1h2.9V86h-2.9V83.1z M39,83.1h2.9V86
					H39V83.1z M42.1,83.1H45V86h-2.9V83.1z M45.3,83.1h2.9V86h-2.9V83.1z M48.4,83.1h2.9V86h-2.9V83.1z M51.5,83.1h2.9V86h-2.9V83.1
					z M54.6,83.1h2.9V86h-2.9V83.1z M57.8,83.1h2.9V86h-2.9V83.1z M60.9,83.1h2.9V86h-2.9V83.1z M64,83.1h2.9V86H64V83.1z
					 M67.1,83.1H70V86h-2.9V83.1z M70.3,83.1h2.9V86h-2.9V83.1z M73.4,83.1h2.9V86h-2.9V83.1z M76.5,83.1h2.9V86h-2.9V83.1z
					 M79.6,83.1h2.9V86h-2.9V83.1z M82.8,83.1h2.9V86h-2.9V83.1z M85.9,83.1h2.9V86h-2.9V83.1z M89,83.1h2.9V86H89V83.1z M92.1,83.1
					H95V86h-2.9V83.1z M95.3,83.1h2.9V86h-2.9V83.1z M98.4,83.1h2.9V86h-2.9V83.1z M98.4,82.8V80h2.9v2.9H98.4z M98.4,79.7v-2.9h2.9
					v2.9H98.4z M98.4,76.6v-2.9h2.9v2.9H98.4z M98.4,73.5v-2.9h2.9v2.9H98.4z M98.4,70.3v-2.9h2.9v2.9H98.4z M98.4,67.2v-2.9h2.9
					v2.9H98.4z M98.4,64.1v-2.9h2.9v2.9H98.4z M98.4,61v-2.9h2.9V61H98.4z M98.4,57.8V55h2.9v2.9H98.4z M98.4,54.7v-2.9h2.9v2.9
					H98.4z M98.4,51.6v-2.9h2.9v2.9H98.4z M98.4,48.5v-2.9h2.9v2.9H98.4z M98.4,45.3v-2.9h2.9v2.9H98.4z M98.4,42.2v-2.9h2.9v2.9
					H98.4z M98.4,39.1v-2.9h2.9v2.9H98.4z M98.4,36v-2.9h2.9V36H98.4z M98.4,32.8V30h2.9v2.9H98.4z M98.4,29.7v-2.9h2.9v2.9H98.4z
					 M98.4,26.6v-2.9h2.9v2.9H98.4z M98.4,23.5v-2.9h2.9v2.9H98.4z M98.4,20.3v-2.9h2.9v2.9H98.4z M98.4,17.2v-2.9h2.9v2.9H98.4z
					 M98.1,17.2h-2.9v-2.9h2.9V17.2z M95,17.2h-2.9v-2.9H95V17.2z M91.9,17.2H89v-2.9h2.9V17.2z M88.8,17.2h-2.9v-2.9h2.9V17.2z
					 M85.6,17.2h-2.9v-2.9h2.9V17.2z M82.5,17.2h-2.9v-2.9h2.9V17.2z M79.4,17.2h-2.9v-2.9h2.9V17.2z M76.3,17.2h-2.9v-2.9h2.9V17.2
					z M73.1,17.2h-2.9v-2.9h2.9V17.2z M70,17.2h-2.9v-2.9H70V17.2z M66.9,17.2H64v-2.9h2.9V17.2z M63.8,17.2h-2.9v-2.9h2.9V17.2z
					 M60.6,17.2h-2.9v-2.9h2.9V17.2z M57.5,17.2h-2.9v-2.9h2.9V17.2z M54.4,17.2h-2.9v-2.9h2.9V17.2z M51.3,17.2h-2.9v-2.9h2.9V17.2
					z M48.1,17.2h-2.9v-2.9h2.9V17.2z M45,17.2h-2.9v-2.9H45V17.2z M41.9,17.2H39v-2.9h2.9V17.2z M38.8,17.2h-2.9v-2.9h2.9V17.2z
					 M35.6,17.2h-2.9v-2.9h2.9V17.2z M32.5,17.2h-2.9v-2.9h2.9V17.2z M29.4,17.2h-2.9v-2.9h2.9V17.2z M26.3,17.2h-2.9v-2.9h2.9V17.2
					z M23.1,17.2h-2.9v-2.9h2.9V17.2z M20,17.2h-2.9v-2.9H20V17.2z M16.9,17.2H14v-2.9h2.9V17.2z M13.8,17.2h-2.9v-2.9h2.9V17.2z
					 M10.6,17.2H7.8v-2.9h2.9V17.2z M7.5,17.2H4.6v-2.9h2.9V17.2z M4.4,17.2H1.5v-2.9h2.9V17.2z M4.4,17.5v2.9H1.5v-2.9H4.4z
					 M4.4,20.6v2.9H1.5v-2.9H4.4z M4.4,23.7v2.9H1.5v-2.9H4.4z M4.4,26.8v2.9H1.5v-2.9H4.4z M4.4,30v2.9H1.5V30H4.4z M4.4,33.1V36
					H1.5v-2.9H4.4z M4.4,36.2v2.9H1.5v-2.9H4.4z M4.4,39.3v2.9H1.5v-2.9H4.4z M4.4,42.5v2.9H1.5v-2.9H4.4z M4.4,45.6v2.9H1.5v-2.9
					H4.4z M4.4,48.7v2.9H1.5v-2.9H4.4z M4.4,51.8v2.9H1.5v-2.9H4.4z M4.4,55v2.9H1.5V55H4.4z M4.4,58.1V61H1.5v-2.9H4.4z M4.4,61.2
					v2.9H1.5v-2.9H4.4z M4.4,64.3v2.9H1.5v-2.9H4.4z M4.4,67.5v2.9H1.5v-2.9H4.4z M4.4,70.6v2.9H1.5v-2.9H4.4z M4.4,73.7v2.9H1.5
					v-2.9H4.4z M4.4,76.8v2.9H1.5v-2.9H4.4z M4.4,80v2.9H1.5V80H4.4z M4.4,83.1V86H1.5v-2.9H4.4z M4.4,86.2v2.9H1.5v-2.9H4.4z
					 M4.6,86.2h2.9v2.9H4.6V86.2z M7.8,86.2h2.9v2.9H7.8V86.2z M10.9,86.2h2.9v2.9h-2.9V86.2z M14,86.2h2.9v2.9H14V86.2z M17.1,86.2
					H20v2.9h-2.9V86.2z M20.3,86.2h2.9v2.9h-2.9V86.2z M23.4,86.2h2.9v2.9h-2.9V86.2z M26.5,86.2h2.9v2.9h-2.9V86.2z M29.6,86.2h2.9
					v2.9h-2.9V86.2z M32.8,86.2h2.9v2.9h-2.9V86.2z M35.9,86.2h2.9v2.9h-2.9V86.2z M39,86.2h2.9v2.9H39V86.2z M42.1,86.2H45v2.9
					h-2.9V86.2z M45.3,86.2h2.9v2.9h-2.9V86.2z M48.4,86.2h2.9v2.9h-2.9V86.2z M51.5,86.2h2.9v2.9h-2.9V86.2z M54.6,86.2h2.9v2.9
					h-2.9V86.2z M57.8,86.2h2.9v2.9h-2.9V86.2z M60.9,86.2h2.9v2.9h-2.9V86.2z M64,86.2h2.9v2.9H64V86.2z M67.1,86.2H70v2.9h-2.9
					V86.2z M70.3,86.2h2.9v2.9h-2.9V86.2z M73.4,86.2h2.9v2.9h-2.9V86.2z M76.5,86.2h2.9v2.9h-2.9V86.2z M79.6,86.2h2.9v2.9h-2.9
					V86.2z M82.8,86.2h2.9v2.9h-2.9V86.2z M85.9,86.2h2.9v2.9h-2.9V86.2z M89,86.2h2.9v2.9H89V86.2z M92.1,86.2H95v2.9h-2.9V86.2z
					 M95.3,86.2h2.9v2.9h-2.9V86.2z M98.4,86.2h2.9v2.9h-2.9V86.2z M101.5,86.2h2.9v2.9h-2.9V86.2z M101.5,86v-2.9h2.9V86H101.5z
					 M101.5,82.8V80h2.9v2.9H101.5z M101.5,79.7v-2.9h2.9v2.9H101.5z M101.5,76.6v-2.9h2.9v2.9H101.5z M101.5,73.5v-2.9h2.9v2.9
					H101.5z M101.5,70.3v-2.9h2.9v2.9H101.5z M101.5,67.2v-2.9h2.9v2.9H101.5z M101.5,64.1v-2.9h2.9v2.9H101.5z M101.5,61v-2.9h2.9
					V61H101.5z M101.5,57.8V55h2.9v2.9H101.5z M101.5,54.7v-2.9h2.9v2.9H101.5z M101.5,51.6v-2.9h2.9v2.9H101.5z M101.5,48.5v-2.9
					h2.9v2.9H101.5z M101.5,45.3v-2.9h2.9v2.9H101.5z M101.5,42.2v-2.9h2.9v2.9H101.5z M101.5,39.1v-2.9h2.9v2.9H101.5z M101.5,36
					v-2.9h2.9V36H101.5z M101.5,32.8V30h2.9v2.9H101.5z M101.5,29.7v-2.9h2.9v2.9H101.5z M101.5,26.6v-2.9h2.9v2.9H101.5z
					 M101.5,23.5v-2.9h2.9v2.9H101.5z M101.5,20.3v-2.9h2.9v2.9H101.5z M101.5,17.2v-2.9h2.9v2.9H101.5z M101.5,14.1v-2.9h2.9v2.9
					H101.5z M101.3,14.1h-2.9v-2.9h2.9V14.1z M98.1,14.1h-2.9v-2.9h2.9V14.1z M95,14.1h-2.9v-2.9H95V14.1z M91.9,14.1H89v-2.9h2.9
					V14.1z M88.8,14.1h-2.9v-2.9h2.9V14.1z M85.6,14.1h-2.9v-2.9h2.9V14.1z M82.5,14.1h-2.9v-2.9h2.9V14.1z M79.4,14.1h-2.9v-2.9
					h2.9V14.1z M76.3,14.1h-2.9v-2.9h2.9V14.1z M73.1,14.1h-2.9v-2.9h2.9V14.1z M70,14.1h-2.9v-2.9H70V14.1z M66.9,14.1H64v-2.9h2.9
					V14.1z M63.8,14.1h-2.9v-2.9h2.9V14.1z M60.6,14.1h-2.9v-2.9h2.9V14.1z M57.5,14.1h-2.9v-2.9h2.9V14.1z M54.4,14.1h-2.9v-2.9
					h2.9V14.1z M51.3,14.1h-2.9v-2.9h2.9V14.1z M48.1,14.1h-2.9v-2.9h2.9V14.1z M45,14.1h-2.9v-2.9H45V14.1z M41.9,14.1H39v-2.9h2.9
					V14.1z M38.8,14.1h-2.9v-2.9h2.9V14.1z M35.6,14.1h-2.9v-2.9h2.9V14.1z M32.5,14.1h-2.9v-2.9h2.9V14.1z M29.4,14.1h-2.9v-2.9
					h2.9V14.1z M26.3,14.1h-2.9v-2.9h2.9V14.1z M23.1,14.1h-2.9v-2.9h2.9V14.1z M20,14.1h-2.9v-2.9H20V14.1z M16.9,14.1H14v-2.9h2.9
					V14.1z M13.8,14.1h-2.9v-2.9h2.9V14.1z M10.6,14.1H7.8v-2.9h2.9V14.1z M7.5,14.1H4.6v-2.9h2.9V14.1z M4.4,14.1H1.5v-2.9h2.9
					V14.1z M1.3,14.1h-2.9v-2.9h2.9V14.1z M1.3,14.3v2.9h-2.9v-2.9H1.3z M1.3,17.5v2.9h-2.9v-2.9H1.3z M1.3,20.6v2.9h-2.9v-2.9H1.3z
					 M1.3,23.7v2.9h-2.9v-2.9H1.3z M1.3,26.8v2.9h-2.9v-2.9H1.3z M1.3,30v2.9h-2.9V30H1.3z M1.3,33.1V36h-2.9v-2.9H1.3z M1.3,36.2
					v2.9h-2.9v-2.9H1.3z M1.3,39.3v2.9h-2.9v-2.9H1.3z M1.3,42.5v2.9h-2.9v-2.9H1.3z M1.3,45.6v2.9h-2.9v-2.9H1.3z M1.3,48.7v2.9
					h-2.9v-2.9H1.3z M1.3,51.8v2.9h-2.9v-2.9H1.3z M1.3,55v2.9h-2.9V55H1.3z M1.3,58.1V61h-2.9v-2.9H1.3z M1.3,61.2v2.9h-2.9v-2.9
					H1.3z M1.3,64.3v2.9h-2.9v-2.9H1.3z M1.3,67.5v2.9h-2.9v-2.9H1.3z M1.3,70.6v2.9h-2.9v-2.9H1.3z M1.3,73.7v2.9h-2.9v-2.9H1.3z
					 M1.3,76.8v2.9h-2.9v-2.9H1.3z M1.3,80v2.9h-2.9V80H1.3z M1.3,83.1V86h-2.9v-2.9H1.3z M1.3,86.2v2.9h-2.9v-2.9H1.3z M1.3,89.3
					v2.9h-2.9v-2.9H1.3z M1.5,89.3h2.9v2.9H1.5V89.3z M4.6,89.3h2.9v2.9H4.6V89.3z M7.8,89.3h2.9v2.9H7.8V89.3z M10.9,89.3h2.9v2.9
					h-2.9V89.3z M14,89.3h2.9v2.9H14V89.3z M17.1,89.3H20v2.9h-2.9V89.3z M20.3,89.3h2.9v2.9h-2.9V89.3z M23.4,89.3h2.9v2.9h-2.9
					V89.3z M26.5,89.3h2.9v2.9h-2.9V89.3z M29.6,89.3h2.9v2.9h-2.9V89.3z M32.8,89.3h2.9v2.9h-2.9V89.3z M35.9,89.3h2.9v2.9h-2.9
					V89.3z M39,89.3h2.9v2.9H39V89.3z M42.1,89.3H45v2.9h-2.9V89.3z M45.3,89.3h2.9v2.9h-2.9V89.3z M48.4,89.3h2.9v2.9h-2.9V89.3z
					 M51.5,89.3h2.9v2.9h-2.9V89.3z M54.6,89.3h2.9v2.9h-2.9V89.3z M57.8,89.3h2.9v2.9h-2.9V89.3z M60.9,89.3h2.9v2.9h-2.9V89.3z
					 M64,89.3h2.9v2.9H64V89.3z M67.1,89.3H70v2.9h-2.9V89.3z M70.3,89.3h2.9v2.9h-2.9V89.3z M73.4,89.3h2.9v2.9h-2.9V89.3z
					 M76.5,89.3h2.9v2.9h-2.9V89.3z M79.6,89.3h2.9v2.9h-2.9V89.3z M82.8,89.3h2.9v2.9h-2.9V89.3z M85.9,89.3h2.9v2.9h-2.9V89.3z
					 M89,89.3h2.9v2.9H89V89.3z M92.1,89.3H95v2.9h-2.9V89.3z M95.3,89.3h2.9v2.9h-2.9V89.3z M98.4,89.3h2.9v2.9h-2.9V89.3z
					 M101.5,89.3h2.9v2.9h-2.9V89.3z M104.6,89.3h2.9v2.9h-2.9V89.3z M104.6,89.1v-2.9h2.9v2.9H104.6z M104.6,86v-2.9h2.9V86H104.6z
					 M104.6,82.8V80h2.9v2.9H104.6z M104.6,79.7v-2.9h2.9v2.9H104.6z M104.6,76.6v-2.9h2.9v2.9H104.6z M104.6,73.5v-2.9h2.9v2.9
					H104.6z M104.6,70.3v-2.9h2.9v2.9H104.6z M104.6,67.2v-2.9h2.9v2.9H104.6z M104.6,64.1v-2.9h2.9v2.9H104.6z M104.6,61v-2.9h2.9
					V61H104.6z M104.6,57.8V55h2.9v2.9H104.6z M104.6,54.7v-2.9h2.9v2.9H104.6z M104.6,51.6v-2.9h2.9v2.9H104.6z M104.6,48.5v-2.9
					h2.9v2.9H104.6z M104.6,45.3v-2.9h2.9v2.9H104.6z M104.6,42.2v-2.9h2.9v2.9H104.6z M104.6,39.1v-2.9h2.9v2.9H104.6z M104.6,36
					v-2.9h2.9V36H104.6z M104.6,32.8V30h2.9v2.9H104.6z M104.6,29.7v-2.9h2.9v2.9H104.6z M104.6,26.6v-2.9h2.9v2.9H104.6z
					 M104.6,23.5v-2.9h2.9v2.9H104.6z M104.6,20.3v-2.9h2.9v2.9H104.6z M104.6,17.2v-2.9h2.9v2.9H104.6z M104.6,14.1v-2.9h2.9v2.9
					H104.6z M104.4,8.1V11h-2.9V8.1H104.4z M101.3,8.1V11h-2.9V8.1H101.3z M98.1,8.1V11h-2.9V8.1H98.1z M95,8.1V11h-2.9V8.1H95z
					 M91.9,8.1V11H89V8.1H91.9z M88.8,8.1V11h-2.9V8.1H88.8z M85.6,8.1V11h-2.9V8.1H85.6z M82.5,8.1V11h-2.9V8.1H82.5z M79.4,8.1V11
					h-2.9V8.1H79.4z M76.3,8.1V11h-2.9V8.1H76.3z M73.1,8.1V11h-2.9V8.1H73.1z M70,8.1V11h-2.9V8.1H70z M66.9,8.1V11H64V8.1H66.9z
					 M63.8,8.1V11h-2.9V8.1H63.8z M60.6,8.1V11h-2.9V8.1H60.6z M57.5,8.1V11h-2.9V8.1H57.5z M54.4,8.1V11h-2.9V8.1H54.4z M51.3,8.1
					V11h-2.9V8.1H51.3z M48.1,8.1V11h-2.9V8.1H48.1z M45,8.1V11h-2.9V8.1H45z M41.9,8.1V11H39V8.1H41.9z M38.8,8.1V11h-2.9V8.1H38.8
					z M35.6,8.1V11h-2.9V8.1H35.6z M32.5,8.1V11h-2.9V8.1H32.5z M29.4,8.1V11h-2.9V8.1H29.4z M26.3,8.1V11h-2.9V8.1H26.3z M23.1,8.1
					V11h-2.9V8.1H23.1z M20,8.1V11h-2.9V8.1H20z M16.9,8.1V11H14V8.1H16.9z M13.8,8.1V11h-2.9V8.1H13.8z M10.6,8.1V11H7.8V8.1H10.6z
					 M7.5,8.1V11H4.6V8.1H7.5z M4.4,8.1V11H1.5V8.1H4.4z M1.3,8.1V11h-2.9V8.1H1.3z"/>
			</g>
		</g>
	</g>
	<g id="XMLID_20_">
		<path class="st4" d="M81.4,83.3H18.1V14.9H69l12.4,11.7V83.3z M21.1,80.3h57.2V27.9l-10.6-10H21.1V80.3z"/>
	</g>
	<g id="XMLID_14_">
		<g id="XMLID_19_">
			<rect x="27.1" y="26.8" class="st5" width="6.4" height="3"/>
		</g>
		<g id="XMLID_18_">
			<rect x="38.4" y="26.8" class="st5" width="6.4" height="3"/>
		</g>
		<g id="XMLID_17_">
			<rect x="49.7" y="26.8" class="st5" width="6.4" height="3"/>
		</g>
	</g>
	<g id="XMLID_11_">
		<rect x="19.1" y="38.1" class="st4" width="61.2" height="3"/>
	</g>
	<g id="XMLID_7_">
		<g id="XMLID_10_">
			<polygon class="st5" points="41.5,67 33.3,58.7 41.5,50.5 42.9,51.9 36.1,58.7 42.9,65.6 			"/>
		</g>
		<g id="XMLID_9_">
			<polygon class="st5" points="58.7,67 57.3,65.6 64.2,58.7 57.3,51.9 58.7,50.5 67,58.7 			"/>
		</g>
		<g id="XMLID_8_">
			
				<rect x="38.4" y="57.7" transform="matrix(0.3682 -0.9298 0.9298 0.3682 -23.5191 82.8559)" class="st5" width="21.7" height="2"/>
		</g>
	</g>
	<g id="XMLID_6_">
		<path class="st4" d="M79.4,29.2H66.6V17.5c0-0.8,0.7-1.5,1.5-1.5s1.5,0.7,1.5,1.5v8.7h9.8c0.8,0,1.5,0.7,1.5,1.5
			S80.2,29.2,79.4,29.2z"/>
	</g>
	<g id="XMLID_5_">
		<circle class="st1" cx="74.3" cy="77.6" r="11.2"/>
		<path class="st6" d="M74.3,90.3c-7,0-12.7-5.7-12.7-12.7s5.7-12.7,12.7-12.7s12.7,5.7,12.7,12.7S81.3,90.3,74.3,90.3z M74.3,67.9
			c-5.4,0-9.7,4.4-9.7,9.7s4.4,9.7,9.7,9.7s9.7-4.4,9.7-9.7S79.7,67.9,74.3,67.9z"/>
	</g>
	<g id="XMLID_4_">
		<path class="st6" d="M73.8,81.7c-0.8,0-1.6-0.3-2.2-0.9l-3.8-3.8c-0.6-0.6-0.6-1.5,0-2.1s1.5-0.6,2.1,0l3.8,3.8
			c0.1,0.1,0.2,0.1,0.2,0l12.4-12.4c0.6-0.6,1.5-0.6,2.1,0s0.6,1.5,0,2.1L76.1,80.7C75.5,81.3,74.7,81.7,73.8,81.7z"/>
	</g>
</g>
</svg>
