<?xml version="1.0" encoding="utf-8"?>
<!-- Generator: Adobe Illustrator 19.2.1, SVG Export Plug-In . SVG Version: 6.00 Build 0)  -->
<svg version="1.1" id="图层_1" xmlns="http://www.w3.org/2000/svg" xmlns:xlink="http://www.w3.org/1999/xlink" x="0px" y="0px"
	 viewBox="0 0 100 100" style="enable-background:new 0 0 100 100;" xml:space="preserve">
<style type="text/css">
	.st0{fill:#F0F7F5;}
	.st1{fill:#FFFFFF;}
	.st2{clip-path:url(#SVGID_2_);}
	.st3{fill:#D1E0DC;}
	.st4{fill:#2B937C;}
	.st5{fill:#065E49;}
	.st6{fill:#414249;}
</style>
<g id="XMLID_1_">
	<g id="XMLID_153_">
		<circle class="st0" cx="50" cy="50" r="50"/>
	</g>
	<g id="XMLID_1942_">
		<polygon class="st1" points="29.5,70.2 70.2,70.2 76.1,53.8 50.2,43.3 24,53.7 		"/>
	</g>
	<g id="XMLID_3_">
		<defs>
			<polygon id="SVGID_1_" points="29.5,70.2 70.2,70.2 76.1,53.8 50.2,43.3 24,53.7 			"/>
		</defs>
		<clipPath id="SVGID_2_">
			<use xlink:href="#SVGID_1_"  style="overflow:visible;"/>
		</clipPath>
		<g id="XMLID_23_" class="st2">
			<g id="XMLID_1931_">
				<rect x="5.2" y="27" class="st3" width="86.5" height="0.2"/>
			</g>
			<g id="XMLID_24_">
				<path class="st3" d="M91.8,27.5h-0.2v1.9h-2.3v-1.9h-0.2v1.9h-2.3v-1.9h-0.2v1.9h-2.3v-1.9h-0.2v1.9H82v-1.9h-0.2v1.9h-2.3v-1.9
					h-0.2v1.9H77v-1.9h-0.2v1.9h-2.3v-1.9h-0.2v1.9h-2.3v-1.9h-0.2v1.9h-2.3v-1.9h-0.2v1.9h-2.3v-1.9h-0.2v1.9h-2.3v-1.9h-0.2v1.9
					h-2.3v-1.9H62v1.9h-2.3v-1.9h-0.2v1.9h-2.3v-1.9H57v1.9h-2.3v-1.9h-0.2v1.9h-2.3v-1.9h-0.2v1.9h-2.3v-1.9h-0.2v1.9h-2.3v-1.9
					h-0.2v1.9h-2.3v-1.9h-0.2v1.9h-2.3v-1.9h-0.2v1.9h-2.3v-1.9h-0.2v1.9h-2.3v-1.9h-0.2v1.9H35v-1.9h-0.2v1.9h-2.3v-1.9h-0.2v1.9
					h-2.3v-1.9h-0.2v1.9h-2.3v-1.9h-0.2v1.9h-2.3v-1.9h-0.2v1.9h-2.3v-1.9h-0.2v1.9h-2.3v-1.9H20v1.9h-2.3v-1.9h-0.2v1.9h-2.3v-1.9
					H15v1.9h-2.3v-1.9h-0.2v1.9h-2.3v-1.9h-0.2v1.9H7.8v-1.9H7.6v1.9H5.3v-1.9H5.1v68.8h0.1v0.1h86.5v-0.1h0.1V27.5z M91.6,29.6v2.3
					h-2.3v-2.3H91.6z M57,64.1h-2.3v-2.3H57V64.1z M57.2,61.8h2.3v2.3h-2.3V61.8z M54.6,64.1h-2.3v-2.3h2.3V64.1z M52.1,64.1h-2.3
					v-2.3h2.3V64.1z M49.6,64.1h-2.3v-2.3h2.3V64.1z M47.2,64.1h-2.3v-2.3h2.3V64.1z M44.7,64.1h-2.3v-2.3h2.3V64.1z M42.2,64.1
					h-2.3v-2.3h2.3V64.1z M39.7,64.1h-2.3v-2.3h2.3V64.1z M37.3,64.1H35v-2.3h2.3V64.1z M37.3,64.2v2.3H35v-2.3H37.3z M37.5,64.2
					h2.3v2.3h-2.3V64.2z M39.9,64.2h2.3v2.3h-2.3V64.2z M42.4,64.2h2.3v2.3h-2.3V64.2z M44.9,64.2h2.3v2.3h-2.3V64.2z M47.4,64.2
					h2.3v2.3h-2.3V64.2z M49.8,64.2h2.3v2.3h-2.3V64.2z M52.3,64.2h2.3v2.3h-2.3V64.2z M54.8,64.2H57v2.3h-2.3V64.2z M57.2,64.2h2.3
					v2.3h-2.3V64.2z M59.7,64.2H62v2.3h-2.3V64.2z M59.7,64.1v-2.3H62v2.3H59.7z M59.7,61.6v-2.3H62v2.3H59.7z M59.5,61.6h-2.3v-2.3
					h2.3V61.6z M57,61.6h-2.3v-2.3H57V61.6z M54.6,61.6h-2.3v-2.3h2.3V61.6z M52.1,61.6h-2.3v-2.3h2.3V61.6z M49.6,61.6h-2.3v-2.3
					h2.3V61.6z M47.2,61.6h-2.3v-2.3h2.3V61.6z M44.7,61.6h-2.3v-2.3h2.3V61.6z M42.2,61.6h-2.3v-2.3h2.3V61.6z M39.7,61.6h-2.3
					v-2.3h2.3V61.6z M37.3,61.6H35v-2.3h2.3V61.6z M34.8,61.6h-2.3v-2.3h2.3V61.6z M34.8,61.8v2.3h-2.3v-2.3H34.8z M34.8,64.2v2.3
					h-2.3v-2.3H34.8z M34.8,66.7V69h-2.3v-2.3H34.8z M35,66.7h2.3V69H35V66.7z M37.5,66.7h2.3V69h-2.3V66.7z M39.9,66.7h2.3V69h-2.3
					V66.7z M42.4,66.7h2.3V69h-2.3V66.7z M44.9,66.7h2.3V69h-2.3V66.7z M47.4,66.7h2.3V69h-2.3V66.7z M49.8,66.7h2.3V69h-2.3V66.7z
					 M52.3,66.7h2.3V69h-2.3V66.7z M54.8,66.7H57V69h-2.3V66.7z M57.2,66.7h2.3V69h-2.3V66.7z M59.7,66.7H62V69h-2.3V66.7z
					 M62.2,66.7h2.3V69h-2.3V66.7z M62.2,66.5v-2.3h2.3v2.3H62.2z M62.2,64.1v-2.3h2.3v2.3H62.2z M62.2,61.6v-2.3h2.3v2.3H62.2z
					 M62.2,59.1v-2.3h2.3v2.3H62.2z M62,59.1h-2.3v-2.3H62V59.1z M59.5,59.1h-2.3v-2.3h2.3V59.1z M57,59.1h-2.3v-2.3H57V59.1z
					 M54.6,59.1h-2.3v-2.3h2.3V59.1z M52.1,59.1h-2.3v-2.3h2.3V59.1z M49.6,59.1h-2.3v-2.3h2.3V59.1z M47.2,59.1h-2.3v-2.3h2.3V59.1
					z M44.7,59.1h-2.3v-2.3h2.3V59.1z M42.2,59.1h-2.3v-2.3h2.3V59.1z M39.7,59.1h-2.3v-2.3h2.3V59.1z M37.3,59.1H35v-2.3h2.3V59.1z
					 M34.8,59.1h-2.3v-2.3h2.3V59.1z M32.3,59.1h-2.3v-2.3h2.3V59.1z M32.3,59.3v2.3h-2.3v-2.3H32.3z M32.3,61.8v2.3h-2.3v-2.3H32.3
					z M32.3,64.2v2.3h-2.3v-2.3H32.3z M32.3,66.7V69h-2.3v-2.3H32.3z M32.3,69.2v2.3h-2.3v-2.3H32.3z M32.5,69.2h2.3v2.3h-2.3V69.2z
					 M35,69.2h2.3v2.3H35V69.2z M37.5,69.2h2.3v2.3h-2.3V69.2z M39.9,69.2h2.3v2.3h-2.3V69.2z M42.4,69.2h2.3v2.3h-2.3V69.2z
					 M44.9,69.2h2.3v2.3h-2.3V69.2z M47.4,69.2h2.3v2.3h-2.3V69.2z M49.8,69.2h2.3v2.3h-2.3V69.2z M52.3,69.2h2.3v2.3h-2.3V69.2z
					 M54.8,69.2H57v2.3h-2.3V69.2z M57.2,69.2h2.3v2.3h-2.3V69.2z M59.7,69.2H62v2.3h-2.3V69.2z M62.2,69.2h2.3v2.3h-2.3V69.2z
					 M64.7,69.2h2.3v2.3h-2.3V69.2z M64.7,69v-2.3h2.3V69H64.7z M64.7,66.5v-2.3h2.3v2.3H64.7z M64.7,64.1v-2.3h2.3v2.3H64.7z
					 M64.7,61.6v-2.3h2.3v2.3H64.7z M64.7,59.1v-2.3h2.3v2.3H64.7z M64.7,56.6v-2.3h2.3v2.3H64.7z M64.5,56.6h-2.3v-2.3h2.3V56.6z
					 M62,56.6h-2.3v-2.3H62V56.6z M59.5,56.6h-2.3v-2.3h2.3V56.6z M57,56.6h-2.3v-2.3H57V56.6z M54.6,56.6h-2.3v-2.3h2.3V56.6z
					 M52.1,56.6h-2.3v-2.3h2.3V56.6z M49.6,56.6h-2.3v-2.3h2.3V56.6z M47.2,56.6h-2.3v-2.3h2.3V56.6z M44.7,56.6h-2.3v-2.3h2.3V56.6
					z M42.2,56.6h-2.3v-2.3h2.3V56.6z M39.7,56.6h-2.3v-2.3h2.3V56.6z M37.3,56.6H35v-2.3h2.3V56.6z M34.8,56.6h-2.3v-2.3h2.3V56.6z
					 M32.3,56.6h-2.3v-2.3h2.3V56.6z M29.9,56.6h-2.3v-2.3h2.3V56.6z M29.9,56.8v2.3h-2.3v-2.3H29.9z M29.9,59.3v2.3h-2.3v-2.3H29.9
					z M29.9,61.8v2.3h-2.3v-2.3H29.9z M29.9,64.2v2.3h-2.3v-2.3H29.9z M29.9,66.7V69h-2.3v-2.3H29.9z M29.9,69.2v2.3h-2.3v-2.3H29.9
					z M29.9,71.7v2.3h-2.3v-2.3H29.9z M30.1,71.7h2.3v2.3h-2.3V71.7z M32.5,71.7h2.3v2.3h-2.3V71.7z M35,71.7h2.3v2.3H35V71.7z
					 M37.5,71.7h2.3v2.3h-2.3V71.7z M39.9,71.7h2.3v2.3h-2.3V71.7z M42.4,71.7h2.3v2.3h-2.3V71.7z M44.9,71.7h2.3v2.3h-2.3V71.7z
					 M47.4,71.7h2.3v2.3h-2.3V71.7z M49.8,71.7h2.3v2.3h-2.3V71.7z M52.3,71.7h2.3v2.3h-2.3V71.7z M54.8,71.7H57v2.3h-2.3V71.7z
					 M57.2,71.7h2.3v2.3h-2.3V71.7z M59.7,71.7H62v2.3h-2.3V71.7z M62.2,71.7h2.3v2.3h-2.3V71.7z M64.7,71.7h2.3v2.3h-2.3V71.7z
					 M67.1,71.7h2.3v2.3h-2.3V71.7z M67.1,71.5v-2.3h2.3v2.3H67.1z M67.1,69v-2.3h2.3V69H67.1z M67.1,66.5v-2.3h2.3v2.3H67.1z
					 M67.1,64.1v-2.3h2.3v2.3H67.1z M67.1,61.6v-2.3h2.3v2.3H67.1z M67.1,59.1v-2.3h2.3v2.3H67.1z M67.1,56.6v-2.3h2.3v2.3H67.1z
					 M67.1,54.2v-2.3h2.3v2.3H67.1z M66.9,54.2h-2.3v-2.3h2.3V54.2z M64.5,54.2h-2.3v-2.3h2.3V54.2z M62,54.2h-2.3v-2.3H62V54.2z
					 M59.5,54.2h-2.3v-2.3h2.3V54.2z M57,54.2h-2.3v-2.3H57V54.2z M54.6,54.2h-2.3v-2.3h2.3V54.2z M52.1,54.2h-2.3v-2.3h2.3V54.2z
					 M49.6,54.2h-2.3v-2.3h2.3V54.2z M47.2,54.2h-2.3v-2.3h2.3V54.2z M44.7,54.2h-2.3v-2.3h2.3V54.2z M42.2,54.2h-2.3v-2.3h2.3V54.2
					z M39.7,54.2h-2.3v-2.3h2.3V54.2z M37.3,54.2H35v-2.3h2.3V54.2z M34.8,54.2h-2.3v-2.3h2.3V54.2z M32.3,54.2h-2.3v-2.3h2.3V54.2z
					 M29.9,54.2h-2.3v-2.3h2.3V54.2z M27.4,54.2h-2.3v-2.3h2.3V54.2z M27.4,54.4v2.3h-2.3v-2.3H27.4z M27.4,56.8v2.3h-2.3v-2.3H27.4
					z M27.4,59.3v2.3h-2.3v-2.3H27.4z M27.4,61.8v2.3h-2.3v-2.3H27.4z M27.4,64.2v2.3h-2.3v-2.3H27.4z M27.4,66.7V69h-2.3v-2.3H27.4
					z M27.4,69.2v2.3h-2.3v-2.3H27.4z M27.4,71.7v2.3h-2.3v-2.3H27.4z M27.4,74.1v2.3h-2.3v-2.3H27.4z M27.6,74.1h2.3v2.3h-2.3V74.1
					z M30.1,74.1h2.3v2.3h-2.3V74.1z M32.5,74.1h2.3v2.3h-2.3V74.1z M35,74.1h2.3v2.3H35V74.1z M37.5,74.1h2.3v2.3h-2.3V74.1z
					 M39.9,74.1h2.3v2.3h-2.3V74.1z M42.4,74.1h2.3v2.3h-2.3V74.1z M44.9,74.1h2.3v2.3h-2.3V74.1z M47.4,74.1h2.3v2.3h-2.3V74.1z
					 M49.8,74.1h2.3v2.3h-2.3V74.1z M52.3,74.1h2.3v2.3h-2.3V74.1z M54.8,74.1H57v2.3h-2.3V74.1z M57.2,74.1h2.3v2.3h-2.3V74.1z
					 M59.7,74.1H62v2.3h-2.3V74.1z M62.2,74.1h2.3v2.3h-2.3V74.1z M64.7,74.1h2.3v2.3h-2.3V74.1z M67.1,74.1h2.3v2.3h-2.3V74.1z
					 M69.6,74.1h2.3v2.3h-2.3V74.1z M69.6,73.9v-2.3h2.3v2.3H69.6z M69.6,71.5v-2.3h2.3v2.3H69.6z M69.6,69v-2.3h2.3V69H69.6z
					 M69.6,66.5v-2.3h2.3v2.3H69.6z M69.6,64.1v-2.3h2.3v2.3H69.6z M69.6,61.6v-2.3h2.3v2.3H69.6z M69.6,59.1v-2.3h2.3v2.3H69.6z
					 M69.6,56.6v-2.3h2.3v2.3H69.6z M69.6,54.2v-2.3h2.3v2.3H69.6z M69.6,51.7v-2.3h2.3v2.3H69.6z M69.4,51.7h-2.3v-2.3h2.3V51.7z
					 M66.9,51.7h-2.3v-2.3h2.3V51.7z M64.5,51.7h-2.3v-2.3h2.3V51.7z M62,51.7h-2.3v-2.3H62V51.7z M59.5,51.7h-2.3v-2.3h2.3V51.7z
					 M57,51.7h-2.3v-2.3H57V51.7z M54.6,51.7h-2.3v-2.3h2.3V51.7z M52.1,51.7h-2.3v-2.3h2.3V51.7z M49.6,51.7h-2.3v-2.3h2.3V51.7z
					 M47.2,51.7h-2.3v-2.3h2.3V51.7z M44.7,51.7h-2.3v-2.3h2.3V51.7z M42.2,51.7h-2.3v-2.3h2.3V51.7z M39.7,51.7h-2.3v-2.3h2.3V51.7
					z M37.3,51.7H35v-2.3h2.3V51.7z M34.8,51.7h-2.3v-2.3h2.3V51.7z M32.3,51.7h-2.3v-2.3h2.3V51.7z M29.9,51.7h-2.3v-2.3h2.3V51.7z
					 M27.4,51.7h-2.3v-2.3h2.3V51.7z M24.9,51.7h-2.3v-2.3h2.3V51.7z M24.9,51.9v2.3h-2.3v-2.3H24.9z M24.9,54.4v2.3h-2.3v-2.3H24.9
					z M24.9,56.8v2.3h-2.3v-2.3H24.9z M24.9,59.3v2.3h-2.3v-2.3H24.9z M24.9,61.8v2.3h-2.3v-2.3H24.9z M24.9,64.2v2.3h-2.3v-2.3
					H24.9z M24.9,66.7V69h-2.3v-2.3H24.9z M24.9,69.2v2.3h-2.3v-2.3H24.9z M24.9,71.7v2.3h-2.3v-2.3H24.9z M24.9,74.1v2.3h-2.3v-2.3
					H24.9z M24.9,76.6v2.3h-2.3v-2.3H24.9z M25.1,76.6h2.3v2.3h-2.3V76.6z M27.6,76.6h2.3v2.3h-2.3V76.6z M30.1,76.6h2.3v2.3h-2.3
					V76.6z M32.5,76.6h2.3v2.3h-2.3V76.6z M35,76.6h2.3v2.3H35V76.6z M37.5,76.6h2.3v2.3h-2.3V76.6z M39.9,76.6h2.3v2.3h-2.3V76.6z
					 M42.4,76.6h2.3v2.3h-2.3V76.6z M44.9,76.6h2.3v2.3h-2.3V76.6z M47.4,76.6h2.3v2.3h-2.3V76.6z M49.8,76.6h2.3v2.3h-2.3V76.6z
					 M52.3,76.6h2.3v2.3h-2.3V76.6z M54.8,76.6H57v2.3h-2.3V76.6z M57.2,76.6h2.3v2.3h-2.3V76.6z M59.7,76.6H62v2.3h-2.3V76.6z
					 M62.2,76.6h2.3v2.3h-2.3V76.6z M64.7,76.6h2.3v2.3h-2.3V76.6z M67.1,76.6h2.3v2.3h-2.3V76.6z M69.6,76.6h2.3v2.3h-2.3V76.6z
					 M72.1,76.6h2.3v2.3h-2.3V76.6z M72.1,76.4v-2.3h2.3v2.3H72.1z M72.1,73.9v-2.3h2.3v2.3H72.1z M72.1,71.5v-2.3h2.3v2.3H72.1z
					 M72.1,69v-2.3h2.3V69H72.1z M72.1,66.5v-2.3h2.3v2.3H72.1z M72.1,64.1v-2.3h2.3v2.3H72.1z M72.1,61.6v-2.3h2.3v2.3H72.1z
					 M72.1,59.1v-2.3h2.3v2.3H72.1z M72.1,56.6v-2.3h2.3v2.3H72.1z M72.1,54.2v-2.3h2.3v2.3H72.1z M72.1,51.7v-2.3h2.3v2.3H72.1z
					 M72.1,49.2v-2.3h2.3v2.3H72.1z M71.9,49.2h-2.3v-2.3h2.3V49.2z M69.4,49.2h-2.3v-2.3h2.3V49.2z M66.9,49.2h-2.3v-2.3h2.3V49.2z
					 M64.5,49.2h-2.3v-2.3h2.3V49.2z M62,49.2h-2.3v-2.3H62V49.2z M59.5,49.2h-2.3v-2.3h2.3V49.2z M57,49.2h-2.3v-2.3H57V49.2z
					 M54.6,49.2h-2.3v-2.3h2.3V49.2z M52.1,49.2h-2.3v-2.3h2.3V49.2z M49.6,49.2h-2.3v-2.3h2.3V49.2z M47.2,49.2h-2.3v-2.3h2.3V49.2
					z M44.7,49.2h-2.3v-2.3h2.3V49.2z M42.2,49.2h-2.3v-2.3h2.3V49.2z M39.7,49.2h-2.3v-2.3h2.3V49.2z M37.3,49.2H35v-2.3h2.3V49.2z
					 M34.8,49.2h-2.3v-2.3h2.3V49.2z M32.3,49.2h-2.3v-2.3h2.3V49.2z M29.9,49.2h-2.3v-2.3h2.3V49.2z M27.4,49.2h-2.3v-2.3h2.3V49.2
					z M24.9,49.2h-2.3v-2.3h2.3V49.2z M22.4,49.2h-2.3v-2.3h2.3V49.2z M22.4,49.4v2.3h-2.3v-2.3H22.4z M22.4,51.9v2.3h-2.3v-2.3
					H22.4z M22.4,54.4v2.3h-2.3v-2.3H22.4z M22.4,56.8v2.3h-2.3v-2.3H22.4z M22.4,59.3v2.3h-2.3v-2.3H22.4z M22.4,61.8v2.3h-2.3
					v-2.3H22.4z M22.4,64.2v2.3h-2.3v-2.3H22.4z M22.4,66.7V69h-2.3v-2.3H22.4z M22.4,69.2v2.3h-2.3v-2.3H22.4z M22.4,71.7v2.3h-2.3
					v-2.3H22.4z M22.4,74.1v2.3h-2.3v-2.3H22.4z M22.4,76.6v2.3h-2.3v-2.3H22.4z M22.4,79.1v2.3h-2.3v-2.3H22.4z M22.6,79.1h2.3v2.3
					h-2.3V79.1z M25.1,79.1h2.3v2.3h-2.3V79.1z M27.6,79.1h2.3v2.3h-2.3V79.1z M30.1,79.1h2.3v2.3h-2.3V79.1z M32.5,79.1h2.3v2.3
					h-2.3V79.1z M35,79.1h2.3v2.3H35V79.1z M37.5,79.1h2.3v2.3h-2.3V79.1z M39.9,79.1h2.3v2.3h-2.3V79.1z M42.4,79.1h2.3v2.3h-2.3
					V79.1z M44.9,79.1h2.3v2.3h-2.3V79.1z M47.4,79.1h2.3v2.3h-2.3V79.1z M49.8,79.1h2.3v2.3h-2.3V79.1z M52.3,79.1h2.3v2.3h-2.3
					V79.1z M54.8,79.1H57v2.3h-2.3V79.1z M57.2,79.1h2.3v2.3h-2.3V79.1z M59.7,79.1H62v2.3h-2.3V79.1z M62.2,79.1h2.3v2.3h-2.3V79.1
					z M64.7,79.1h2.3v2.3h-2.3V79.1z M67.1,79.1h2.3v2.3h-2.3V79.1z M69.6,79.1h2.3v2.3h-2.3V79.1z M72.1,79.1h2.3v2.3h-2.3V79.1z
					 M74.5,79.1h2.3v2.3h-2.3V79.1z M74.5,78.9v-2.3h2.3v2.3H74.5z M74.5,76.4v-2.3h2.3v2.3H74.5z M74.5,73.9v-2.3h2.3v2.3H74.5z
					 M74.5,71.5v-2.3h2.3v2.3H74.5z M74.5,69v-2.3h2.3V69H74.5z M74.5,66.5v-2.3h2.3v2.3H74.5z M74.5,64.1v-2.3h2.3v2.3H74.5z
					 M74.5,61.6v-2.3h2.3v2.3H74.5z M74.5,59.1v-2.3h2.3v2.3H74.5z M74.5,56.6v-2.3h2.3v2.3H74.5z M74.5,54.2v-2.3h2.3v2.3H74.5z
					 M74.5,51.7v-2.3h2.3v2.3H74.5z M74.5,49.2v-2.3h2.3v2.3H74.5z M74.5,46.8v-2.3h2.3v2.3H74.5z M74.3,46.8h-2.3v-2.3h2.3V46.8z
					 M71.9,46.8h-2.3v-2.3h2.3V46.8z M69.4,46.8h-2.3v-2.3h2.3V46.8z M66.9,46.8h-2.3v-2.3h2.3V46.8z M64.5,46.8h-2.3v-2.3h2.3V46.8
					z M62,46.8h-2.3v-2.3H62V46.8z M59.5,46.8h-2.3v-2.3h2.3V46.8z M57,46.8h-2.3v-2.3H57V46.8z M54.6,46.8h-2.3v-2.3h2.3V46.8z
					 M52.1,46.8h-2.3v-2.3h2.3V46.8z M49.6,46.8h-2.3v-2.3h2.3V46.8z M47.2,46.8h-2.3v-2.3h2.3V46.8z M44.7,46.8h-2.3v-2.3h2.3V46.8
					z M42.2,46.8h-2.3v-2.3h2.3V46.8z M39.7,46.8h-2.3v-2.3h2.3V46.8z M37.3,46.8H35v-2.3h2.3V46.8z M34.8,46.8h-2.3v-2.3h2.3V46.8z
					 M32.3,46.8h-2.3v-2.3h2.3V46.8z M29.9,46.8h-2.3v-2.3h2.3V46.8z M27.4,46.8h-2.3v-2.3h2.3V46.8z M24.9,46.8h-2.3v-2.3h2.3V46.8
					z M22.4,46.8h-2.3v-2.3h2.3V46.8z M20,46.8h-2.3v-2.3H20V46.8z M20,46.9v2.3h-2.3v-2.3H20z M20,49.4v2.3h-2.3v-2.3H20z M20,51.9
					v2.3h-2.3v-2.3H20z M20,54.4v2.3h-2.3v-2.3H20z M20,56.8v2.3h-2.3v-2.3H20z M20,59.3v2.3h-2.3v-2.3H20z M20,61.8v2.3h-2.3v-2.3
					H20z M20,64.2v2.3h-2.3v-2.3H20z M20,66.7V69h-2.3v-2.3H20z M20,69.2v2.3h-2.3v-2.3H20z M20,71.7v2.3h-2.3v-2.3H20z M20,74.1
					v2.3h-2.3v-2.3H20z M20,76.6v2.3h-2.3v-2.3H20z M20,79.1v2.3h-2.3v-2.3H20z M20,81.5v2.3h-2.3v-2.3H20z M20.2,81.5h2.3v2.3h-2.3
					V81.5z M22.6,81.5h2.3v2.3h-2.3V81.5z M25.1,81.5h2.3v2.3h-2.3V81.5z M27.6,81.5h2.3v2.3h-2.3V81.5z M30.1,81.5h2.3v2.3h-2.3
					V81.5z M32.5,81.5h2.3v2.3h-2.3V81.5z M35,81.5h2.3v2.3H35V81.5z M37.5,81.5h2.3v2.3h-2.3V81.5z M39.9,81.5h2.3v2.3h-2.3V81.5z
					 M42.4,81.5h2.3v2.3h-2.3V81.5z M44.9,81.5h2.3v2.3h-2.3V81.5z M47.4,81.5h2.3v2.3h-2.3V81.5z M49.8,81.5h2.3v2.3h-2.3V81.5z
					 M52.3,81.5h2.3v2.3h-2.3V81.5z M54.8,81.5H57v2.3h-2.3V81.5z M57.2,81.5h2.3v2.3h-2.3V81.5z M59.7,81.5H62v2.3h-2.3V81.5z
					 M62.2,81.5h2.3v2.3h-2.3V81.5z M64.7,81.5h2.3v2.3h-2.3V81.5z M67.1,81.5h2.3v2.3h-2.3V81.5z M69.6,81.5h2.3v2.3h-2.3V81.5z
					 M72.1,81.5h2.3v2.3h-2.3V81.5z M74.5,81.5h2.3v2.3h-2.3V81.5z M77,81.5h2.3v2.3H77V81.5z M77,81.4v-2.3h2.3v2.3H77z M77,78.9
					v-2.3h2.3v2.3H77z M77,76.4v-2.3h2.3v2.3H77z M77,73.9v-2.3h2.3v2.3H77z M77,71.5v-2.3h2.3v2.3H77z M77,69v-2.3h2.3V69H77z
					 M77,66.5v-2.3h2.3v2.3H77z M77,64.1v-2.3h2.3v2.3H77z M77,61.6v-2.3h2.3v2.3H77z M77,59.1v-2.3h2.3v2.3H77z M77,56.6v-2.3h2.3
					v2.3H77z M77,54.2v-2.3h2.3v2.3H77z M77,51.7v-2.3h2.3v2.3H77z M77,49.2v-2.3h2.3v2.3H77z M77,46.8v-2.3h2.3v2.3H77z M77,44.3
					V42h2.3v2.3H77z M76.8,44.3h-2.3V42h2.3V44.3z M74.3,44.3h-2.3V42h2.3V44.3z M71.9,44.3h-2.3V42h2.3V44.3z M69.4,44.3h-2.3V42
					h2.3V44.3z M66.9,44.3h-2.3V42h2.3V44.3z M64.5,44.3h-2.3V42h2.3V44.3z M62,44.3h-2.3V42H62V44.3z M59.5,44.3h-2.3V42h2.3V44.3z
					 M57,44.3h-2.3V42H57V44.3z M54.6,44.3h-2.3V42h2.3V44.3z M52.1,44.3h-2.3V42h2.3V44.3z M49.6,44.3h-2.3V42h2.3V44.3z
					 M47.2,44.3h-2.3V42h2.3V44.3z M44.7,44.3h-2.3V42h2.3V44.3z M42.2,44.3h-2.3V42h2.3V44.3z M39.7,44.3h-2.3V42h2.3V44.3z
					 M37.3,44.3H35V42h2.3V44.3z M34.8,44.3h-2.3V42h2.3V44.3z M32.3,44.3h-2.3V42h2.3V44.3z M29.9,44.3h-2.3V42h2.3V44.3z
					 M27.4,44.3h-2.3V42h2.3V44.3z M24.9,44.3h-2.3V42h2.3V44.3z M22.4,44.3h-2.3V42h2.3V44.3z M20,44.3h-2.3V42H20V44.3z
					 M17.5,44.3h-2.3V42h2.3V44.3z M17.5,44.5v2.3h-2.3v-2.3H17.5z M17.5,46.9v2.3h-2.3v-2.3H17.5z M17.5,49.4v2.3h-2.3v-2.3H17.5z
					 M17.5,51.9v2.3h-2.3v-2.3H17.5z M17.5,54.4v2.3h-2.3v-2.3H17.5z M17.5,56.8v2.3h-2.3v-2.3H17.5z M17.5,59.3v2.3h-2.3v-2.3H17.5
					z M17.5,61.8v2.3h-2.3v-2.3H17.5z M17.5,64.2v2.3h-2.3v-2.3H17.5z M17.5,66.7V69h-2.3v-2.3H17.5z M17.5,69.2v2.3h-2.3v-2.3H17.5
					z M17.5,71.7v2.3h-2.3v-2.3H17.5z M17.5,74.1v2.3h-2.3v-2.3H17.5z M17.5,76.6v2.3h-2.3v-2.3H17.5z M17.5,79.1v2.3h-2.3v-2.3
					H17.5z M17.5,81.5v2.3h-2.3v-2.3H17.5z M17.5,84v2.3h-2.3V84H17.5z M17.7,84H20v2.3h-2.3V84z M20.2,84h2.3v2.3h-2.3V84z
					 M22.6,84h2.3v2.3h-2.3V84z M25.1,84h2.3v2.3h-2.3V84z M27.6,84h2.3v2.3h-2.3V84z M30.1,84h2.3v2.3h-2.3V84z M32.5,84h2.3v2.3
					h-2.3V84z M35,84h2.3v2.3H35V84z M37.5,84h2.3v2.3h-2.3V84z M39.9,84h2.3v2.3h-2.3V84z M42.4,84h2.3v2.3h-2.3V84z M44.9,84h2.3
					v2.3h-2.3V84z M47.4,84h2.3v2.3h-2.3V84z M49.8,84h2.3v2.3h-2.3V84z M52.3,84h2.3v2.3h-2.3V84z M54.8,84H57v2.3h-2.3V84z
					 M57.2,84h2.3v2.3h-2.3V84z M59.7,84H62v2.3h-2.3V84z M62.2,84h2.3v2.3h-2.3V84z M64.7,84h2.3v2.3h-2.3V84z M67.1,84h2.3v2.3
					h-2.3V84z M69.6,84h2.3v2.3h-2.3V84z M72.1,84h2.3v2.3h-2.3V84z M74.5,84h2.3v2.3h-2.3V84z M77,84h2.3v2.3H77V84z M79.5,84h2.3
					v2.3h-2.3V84z M79.5,83.8v-2.3h2.3v2.3H79.5z M79.5,81.4v-2.3h2.3v2.3H79.5z M79.5,78.9v-2.3h2.3v2.3H79.5z M79.5,76.4v-2.3h2.3
					v2.3H79.5z M79.5,73.9v-2.3h2.3v2.3H79.5z M79.5,71.5v-2.3h2.3v2.3H79.5z M79.5,69v-2.3h2.3V69H79.5z M79.5,66.5v-2.3h2.3v2.3
					H79.5z M79.5,64.1v-2.3h2.3v2.3H79.5z M79.5,61.6v-2.3h2.3v2.3H79.5z M79.5,59.1v-2.3h2.3v2.3H79.5z M79.5,56.6v-2.3h2.3v2.3
					H79.5z M79.5,54.2v-2.3h2.3v2.3H79.5z M79.5,51.7v-2.3h2.3v2.3H79.5z M79.5,49.2v-2.3h2.3v2.3H79.5z M79.5,46.8v-2.3h2.3v2.3
					H79.5z M79.5,44.3V42h2.3v2.3H79.5z M79.5,41.8v-2.3h2.3v2.3H79.5z M79.3,41.8H77v-2.3h2.3V41.8z M76.8,41.8h-2.3v-2.3h2.3V41.8
					z M74.3,41.8h-2.3v-2.3h2.3V41.8z M71.9,41.8h-2.3v-2.3h2.3V41.8z M69.4,41.8h-2.3v-2.3h2.3V41.8z M66.9,41.8h-2.3v-2.3h2.3
					V41.8z M64.5,41.8h-2.3v-2.3h2.3V41.8z M62,41.8h-2.3v-2.3H62V41.8z M59.5,41.8h-2.3v-2.3h2.3V41.8z M57,41.8h-2.3v-2.3H57V41.8
					z M54.6,41.8h-2.3v-2.3h2.3V41.8z M52.1,41.8h-2.3v-2.3h2.3V41.8z M49.6,41.8h-2.3v-2.3h2.3V41.8z M47.2,41.8h-2.3v-2.3h2.3
					V41.8z M44.7,41.8h-2.3v-2.3h2.3V41.8z M42.2,41.8h-2.3v-2.3h2.3V41.8z M39.7,41.8h-2.3v-2.3h2.3V41.8z M37.3,41.8H35v-2.3h2.3
					V41.8z M34.8,41.8h-2.3v-2.3h2.3V41.8z M32.3,41.8h-2.3v-2.3h2.3V41.8z M29.9,41.8h-2.3v-2.3h2.3V41.8z M27.4,41.8h-2.3v-2.3
					h2.3V41.8z M24.9,41.8h-2.3v-2.3h2.3V41.8z M22.4,41.8h-2.3v-2.3h2.3V41.8z M20,41.8h-2.3v-2.3H20V41.8z M17.5,41.8h-2.3v-2.3
					h2.3V41.8z M15,41.8h-2.3v-2.3H15V41.8z M15,42v2.3h-2.3V42H15z M15,44.5v2.3h-2.3v-2.3H15z M15,46.9v2.3h-2.3v-2.3H15z
					 M15,49.4v2.3h-2.3v-2.3H15z M15,51.9v2.3h-2.3v-2.3H15z M15,54.4v2.3h-2.3v-2.3H15z M15,56.8v2.3h-2.3v-2.3H15z M15,59.3v2.3
					h-2.3v-2.3H15z M15,61.8v2.3h-2.3v-2.3H15z M15,64.2v2.3h-2.3v-2.3H15z M15,66.7V69h-2.3v-2.3H15z M15,69.2v2.3h-2.3v-2.3H15z
					 M15,71.7v2.3h-2.3v-2.3H15z M15,74.1v2.3h-2.3v-2.3H15z M15,76.6v2.3h-2.3v-2.3H15z M15,79.1v2.3h-2.3v-2.3H15z M15,81.5v2.3
					h-2.3v-2.3H15z M15,84v2.3h-2.3V84H15z M15,86.5v2.3h-2.3v-2.3H15z M15.2,86.5h2.3v2.3h-2.3V86.5z M17.7,86.5H20v2.3h-2.3V86.5z
					 M20.2,86.5h2.3v2.3h-2.3V86.5z M22.6,86.5h2.3v2.3h-2.3V86.5z M25.1,86.5h2.3v2.3h-2.3V86.5z M27.6,86.5h2.3v2.3h-2.3V86.5z
					 M30.1,86.5h2.3v2.3h-2.3V86.5z M32.5,86.5h2.3v2.3h-2.3V86.5z M35,86.5h2.3v2.3H35V86.5z M37.5,86.5h2.3v2.3h-2.3V86.5z
					 M39.9,86.5h2.3v2.3h-2.3V86.5z M42.4,86.5h2.3v2.3h-2.3V86.5z M44.9,86.5h2.3v2.3h-2.3V86.5z M47.4,86.5h2.3v2.3h-2.3V86.5z
					 M49.8,86.5h2.3v2.3h-2.3V86.5z M52.3,86.5h2.3v2.3h-2.3V86.5z M54.8,86.5H57v2.3h-2.3V86.5z M57.2,86.5h2.3v2.3h-2.3V86.5z
					 M59.7,86.5H62v2.3h-2.3V86.5z M62.2,86.5h2.3v2.3h-2.3V86.5z M64.7,86.5h2.3v2.3h-2.3V86.5z M67.1,86.5h2.3v2.3h-2.3V86.5z
					 M69.6,86.5h2.3v2.3h-2.3V86.5z M72.1,86.5h2.3v2.3h-2.3V86.5z M74.5,86.5h2.3v2.3h-2.3V86.5z M77,86.5h2.3v2.3H77V86.5z
					 M79.5,86.5h2.3v2.3h-2.3V86.5z M82,86.5h2.3v2.3H82V86.5z M82,86.3V84h2.3v2.3H82z M82,83.8v-2.3h2.3v2.3H82z M82,81.4v-2.3
					h2.3v2.3H82z M82,78.9v-2.3h2.3v2.3H82z M82,76.4v-2.3h2.3v2.3H82z M82,73.9v-2.3h2.3v2.3H82z M82,71.5v-2.3h2.3v2.3H82z M82,69
					v-2.3h2.3V69H82z M82,66.5v-2.3h2.3v2.3H82z M82,64.1v-2.3h2.3v2.3H82z M82,61.6v-2.3h2.3v2.3H82z M82,59.1v-2.3h2.3v2.3H82z
					 M82,56.6v-2.3h2.3v2.3H82z M82,54.2v-2.3h2.3v2.3H82z M82,51.7v-2.3h2.3v2.3H82z M82,49.2v-2.3h2.3v2.3H82z M82,46.8v-2.3h2.3
					v2.3H82z M82,44.3V42h2.3v2.3H82z M82,41.8v-2.3h2.3v2.3H82z M82,39.3v-2.3h2.3v2.3H82z M81.8,39.3h-2.3v-2.3h2.3V39.3z
					 M79.3,39.3H77v-2.3h2.3V39.3z M76.8,39.3h-2.3v-2.3h2.3V39.3z M74.3,39.3h-2.3v-2.3h2.3V39.3z M71.9,39.3h-2.3v-2.3h2.3V39.3z
					 M69.4,39.3h-2.3v-2.3h2.3V39.3z M66.9,39.3h-2.3v-2.3h2.3V39.3z M64.5,39.3h-2.3v-2.3h2.3V39.3z M62,39.3h-2.3v-2.3H62V39.3z
					 M59.5,39.3h-2.3v-2.3h2.3V39.3z M57,39.3h-2.3v-2.3H57V39.3z M54.6,39.3h-2.3v-2.3h2.3V39.3z M52.1,39.3h-2.3v-2.3h2.3V39.3z
					 M49.6,39.3h-2.3v-2.3h2.3V39.3z M47.2,39.3h-2.3v-2.3h2.3V39.3z M44.7,39.3h-2.3v-2.3h2.3V39.3z M42.2,39.3h-2.3v-2.3h2.3V39.3
					z M39.7,39.3h-2.3v-2.3h2.3V39.3z M37.3,39.3H35v-2.3h2.3V39.3z M34.8,39.3h-2.3v-2.3h2.3V39.3z M32.3,39.3h-2.3v-2.3h2.3V39.3z
					 M29.9,39.3h-2.3v-2.3h2.3V39.3z M27.4,39.3h-2.3v-2.3h2.3V39.3z M24.9,39.3h-2.3v-2.3h2.3V39.3z M22.4,39.3h-2.3v-2.3h2.3V39.3
					z M20,39.3h-2.3v-2.3H20V39.3z M17.5,39.3h-2.3v-2.3h2.3V39.3z M15,39.3h-2.3v-2.3H15V39.3z M12.6,39.3h-2.3v-2.3h2.3V39.3z
					 M12.6,39.5v2.3h-2.3v-2.3H12.6z M12.6,42v2.3h-2.3V42H12.6z M12.6,44.5v2.3h-2.3v-2.3H12.6z M12.6,46.9v2.3h-2.3v-2.3H12.6z
					 M12.6,49.4v2.3h-2.3v-2.3H12.6z M12.6,51.9v2.3h-2.3v-2.3H12.6z M12.6,54.4v2.3h-2.3v-2.3H12.6z M12.6,56.8v2.3h-2.3v-2.3H12.6
					z M12.6,59.3v2.3h-2.3v-2.3H12.6z M12.6,61.8v2.3h-2.3v-2.3H12.6z M12.6,64.2v2.3h-2.3v-2.3H12.6z M12.6,66.7V69h-2.3v-2.3H12.6
					z M12.6,69.2v2.3h-2.3v-2.3H12.6z M12.6,71.7v2.3h-2.3v-2.3H12.6z M12.6,74.1v2.3h-2.3v-2.3H12.6z M12.6,76.6v2.3h-2.3v-2.3
					H12.6z M12.6,79.1v2.3h-2.3v-2.3H12.6z M12.6,81.5v2.3h-2.3v-2.3H12.6z M12.6,84v2.3h-2.3V84H12.6z M12.6,86.5v2.3h-2.3v-2.3
					H12.6z M12.6,89v2.3h-2.3V89H12.6z M12.8,89H15v2.3h-2.3V89z M15.2,89h2.3v2.3h-2.3V89z M17.7,89H20v2.3h-2.3V89z M20.2,89h2.3
					v2.3h-2.3V89z M22.6,89h2.3v2.3h-2.3V89z M25.1,89h2.3v2.3h-2.3V89z M27.6,89h2.3v2.3h-2.3V89z M30.1,89h2.3v2.3h-2.3V89z
					 M32.5,89h2.3v2.3h-2.3V89z M35,89h2.3v2.3H35V89z M37.5,89h2.3v2.3h-2.3V89z M39.9,89h2.3v2.3h-2.3V89z M42.4,89h2.3v2.3h-2.3
					V89z M44.9,89h2.3v2.3h-2.3V89z M47.4,89h2.3v2.3h-2.3V89z M49.8,89h2.3v2.3h-2.3V89z M52.3,89h2.3v2.3h-2.3V89z M54.8,89H57
					v2.3h-2.3V89z M57.2,89h2.3v2.3h-2.3V89z M59.7,89H62v2.3h-2.3V89z M62.2,89h2.3v2.3h-2.3V89z M64.7,89h2.3v2.3h-2.3V89z
					 M67.1,89h2.3v2.3h-2.3V89z M69.6,89h2.3v2.3h-2.3V89z M72.1,89h2.3v2.3h-2.3V89z M74.5,89h2.3v2.3h-2.3V89z M77,89h2.3v2.3H77
					V89z M79.5,89h2.3v2.3h-2.3V89z M82,89h2.3v2.3H82V89z M84.4,89h2.3v2.3h-2.3V89z M84.4,88.8v-2.3h2.3v2.3H84.4z M84.4,86.3V84
					h2.3v2.3H84.4z M84.4,83.8v-2.3h2.3v2.3H84.4z M84.4,81.4v-2.3h2.3v2.3H84.4z M84.4,78.9v-2.3h2.3v2.3H84.4z M84.4,76.4v-2.3
					h2.3v2.3H84.4z M84.4,73.9v-2.3h2.3v2.3H84.4z M84.4,71.5v-2.3h2.3v2.3H84.4z M84.4,69v-2.3h2.3V69H84.4z M84.4,66.5v-2.3h2.3
					v2.3H84.4z M84.4,64.1v-2.3h2.3v2.3H84.4z M84.4,61.6v-2.3h2.3v2.3H84.4z M84.4,59.1v-2.3h2.3v2.3H84.4z M84.4,56.6v-2.3h2.3
					v2.3H84.4z M84.4,54.2v-2.3h2.3v2.3H84.4z M84.4,51.7v-2.3h2.3v2.3H84.4z M84.4,49.2v-2.3h2.3v2.3H84.4z M84.4,46.8v-2.3h2.3
					v2.3H84.4z M84.4,44.3V42h2.3v2.3H84.4z M84.4,41.8v-2.3h2.3v2.3H84.4z M84.4,39.3v-2.3h2.3v2.3H84.4z M84.4,36.9v-2.3h2.3v2.3
					H84.4z M84.2,36.9H82v-2.3h2.3V36.9z M81.8,36.9h-2.3v-2.3h2.3V36.9z M79.3,36.9H77v-2.3h2.3V36.9z M76.8,36.9h-2.3v-2.3h2.3
					V36.9z M74.3,36.9h-2.3v-2.3h2.3V36.9z M71.9,36.9h-2.3v-2.3h2.3V36.9z M69.4,36.9h-2.3v-2.3h2.3V36.9z M66.9,36.9h-2.3v-2.3
					h2.3V36.9z M64.5,36.9h-2.3v-2.3h2.3V36.9z M62,36.9h-2.3v-2.3H62V36.9z M59.5,36.9h-2.3v-2.3h2.3V36.9z M57,36.9h-2.3v-2.3H57
					V36.9z M54.6,36.9h-2.3v-2.3h2.3V36.9z M52.1,36.9h-2.3v-2.3h2.3V36.9z M49.6,36.9h-2.3v-2.3h2.3V36.9z M47.2,36.9h-2.3v-2.3
					h2.3V36.9z M44.7,36.9h-2.3v-2.3h2.3V36.9z M42.2,36.9h-2.3v-2.3h2.3V36.9z M39.7,36.9h-2.3v-2.3h2.3V36.9z M37.3,36.9H35v-2.3
					h2.3V36.9z M34.8,36.9h-2.3v-2.3h2.3V36.9z M32.3,36.9h-2.3v-2.3h2.3V36.9z M29.9,36.9h-2.3v-2.3h2.3V36.9z M27.4,36.9h-2.3
					v-2.3h2.3V36.9z M24.9,36.9h-2.3v-2.3h2.3V36.9z M22.4,36.9h-2.3v-2.3h2.3V36.9z M20,36.9h-2.3v-2.3H20V36.9z M17.5,36.9h-2.3
					v-2.3h2.3V36.9z M15,36.9h-2.3v-2.3H15V36.9z M12.6,36.9h-2.3v-2.3h2.3V36.9z M10.1,36.9H7.8v-2.3h2.3V36.9z M10.1,37.1v2.3H7.8
					v-2.3H10.1z M10.1,39.5v2.3H7.8v-2.3H10.1z M10.1,42v2.3H7.8V42H10.1z M10.1,44.5v2.3H7.8v-2.3H10.1z M10.1,46.9v2.3H7.8v-2.3
					H10.1z M10.1,49.4v2.3H7.8v-2.3H10.1z M10.1,51.9v2.3H7.8v-2.3H10.1z M10.1,54.4v2.3H7.8v-2.3H10.1z M10.1,56.8v2.3H7.8v-2.3
					H10.1z M10.1,59.3v2.3H7.8v-2.3H10.1z M10.1,61.8v2.3H7.8v-2.3H10.1z M10.1,64.2v2.3H7.8v-2.3H10.1z M10.1,66.7V69H7.8v-2.3
					H10.1z M10.1,69.2v2.3H7.8v-2.3H10.1z M10.1,71.7v2.3H7.8v-2.3H10.1z M10.1,74.1v2.3H7.8v-2.3H10.1z M10.1,76.6v2.3H7.8v-2.3
					H10.1z M10.1,79.1v2.3H7.8v-2.3H10.1z M10.1,81.5v2.3H7.8v-2.3H10.1z M10.1,84v2.3H7.8V84H10.1z M10.1,86.5v2.3H7.8v-2.3H10.1z
					 M10.1,89v2.3H7.8V89H10.1z M10.1,91.4v2.3H7.8v-2.3H10.1z M10.3,91.4h2.3v2.3h-2.3V91.4z M12.8,91.4H15v2.3h-2.3V91.4z
					 M15.2,91.4h2.3v2.3h-2.3V91.4z M17.7,91.4H20v2.3h-2.3V91.4z M20.2,91.4h2.3v2.3h-2.3V91.4z M22.6,91.4h2.3v2.3h-2.3V91.4z
					 M25.1,91.4h2.3v2.3h-2.3V91.4z M27.6,91.4h2.3v2.3h-2.3V91.4z M30.1,91.4h2.3v2.3h-2.3V91.4z M32.5,91.4h2.3v2.3h-2.3V91.4z
					 M35,91.4h2.3v2.3H35V91.4z M37.5,91.4h2.3v2.3h-2.3V91.4z M39.9,91.4h2.3v2.3h-2.3V91.4z M42.4,91.4h2.3v2.3h-2.3V91.4z
					 M44.9,91.4h2.3v2.3h-2.3V91.4z M47.4,91.4h2.3v2.3h-2.3V91.4z M49.8,91.4h2.3v2.3h-2.3V91.4z M52.3,91.4h2.3v2.3h-2.3V91.4z
					 M54.8,91.4H57v2.3h-2.3V91.4z M57.2,91.4h2.3v2.3h-2.3V91.4z M59.7,91.4H62v2.3h-2.3V91.4z M62.2,91.4h2.3v2.3h-2.3V91.4z
					 M64.7,91.4h2.3v2.3h-2.3V91.4z M67.1,91.4h2.3v2.3h-2.3V91.4z M69.6,91.4h2.3v2.3h-2.3V91.4z M72.1,91.4h2.3v2.3h-2.3V91.4z
					 M74.5,91.4h2.3v2.3h-2.3V91.4z M77,91.4h2.3v2.3H77V91.4z M79.5,91.4h2.3v2.3h-2.3V91.4z M82,91.4h2.3v2.3H82V91.4z M84.4,91.4
					h2.3v2.3h-2.3V91.4z M86.9,91.4h2.3v2.3h-2.3V91.4z M86.9,91.2V89h2.3v2.3H86.9z M86.9,88.8v-2.3h2.3v2.3H86.9z M86.9,86.3V84
					h2.3v2.3H86.9z M86.9,83.8v-2.3h2.3v2.3H86.9z M86.9,81.4v-2.3h2.3v2.3H86.9z M86.9,78.9v-2.3h2.3v2.3H86.9z M86.9,76.4v-2.3
					h2.3v2.3H86.9z M86.9,73.9v-2.3h2.3v2.3H86.9z M86.9,71.5v-2.3h2.3v2.3H86.9z M86.9,69v-2.3h2.3V69H86.9z M86.9,66.5v-2.3h2.3
					v2.3H86.9z M86.9,64.1v-2.3h2.3v2.3H86.9z M86.9,61.6v-2.3h2.3v2.3H86.9z M86.9,59.1v-2.3h2.3v2.3H86.9z M86.9,56.6v-2.3h2.3
					v2.3H86.9z M86.9,54.2v-2.3h2.3v2.3H86.9z M86.9,51.7v-2.3h2.3v2.3H86.9z M86.9,49.2v-2.3h2.3v2.3H86.9z M86.9,46.8v-2.3h2.3
					v2.3H86.9z M86.9,44.3V42h2.3v2.3H86.9z M86.9,41.8v-2.3h2.3v2.3H86.9z M86.9,39.3v-2.3h2.3v2.3H86.9z M86.9,36.9v-2.3h2.3v2.3
					H86.9z M86.9,34.4v-2.3h2.3v2.3H86.9z M86.7,34.4h-2.3v-2.3h2.3V34.4z M84.2,34.4H82v-2.3h2.3V34.4z M81.8,34.4h-2.3v-2.3h2.3
					V34.4z M79.3,34.4H77v-2.3h2.3V34.4z M76.8,34.4h-2.3v-2.3h2.3V34.4z M74.3,34.4h-2.3v-2.3h2.3V34.4z M71.9,34.4h-2.3v-2.3h2.3
					V34.4z M69.4,34.4h-2.3v-2.3h2.3V34.4z M66.9,34.4h-2.3v-2.3h2.3V34.4z M64.5,34.4h-2.3v-2.3h2.3V34.4z M62,34.4h-2.3v-2.3H62
					V34.4z M59.5,34.4h-2.3v-2.3h2.3V34.4z M57,34.4h-2.3v-2.3H57V34.4z M54.6,34.4h-2.3v-2.3h2.3V34.4z M52.1,34.4h-2.3v-2.3h2.3
					V34.4z M49.6,34.4h-2.3v-2.3h2.3V34.4z M47.2,34.4h-2.3v-2.3h2.3V34.4z M44.7,34.4h-2.3v-2.3h2.3V34.4z M42.2,34.4h-2.3v-2.3
					h2.3V34.4z M39.7,34.4h-2.3v-2.3h2.3V34.4z M37.3,34.4H35v-2.3h2.3V34.4z M34.8,34.4h-2.3v-2.3h2.3V34.4z M32.3,34.4h-2.3v-2.3
					h2.3V34.4z M29.9,34.4h-2.3v-2.3h2.3V34.4z M27.4,34.4h-2.3v-2.3h2.3V34.4z M24.9,34.4h-2.3v-2.3h2.3V34.4z M22.4,34.4h-2.3
					v-2.3h2.3V34.4z M20,34.4h-2.3v-2.3H20V34.4z M17.5,34.4h-2.3v-2.3h2.3V34.4z M15,34.4h-2.3v-2.3H15V34.4z M12.6,34.4h-2.3v-2.3
					h2.3V34.4z M10.1,34.4H7.8v-2.3h2.3V34.4z M7.6,34.4H5.3v-2.3h2.3V34.4z M7.6,34.6v2.3H5.3v-2.3H7.6z M7.6,37.1v2.3H5.3v-2.3
					H7.6z M7.6,39.5v2.3H5.3v-2.3H7.6z M7.6,42v2.3H5.3V42H7.6z M7.6,44.5v2.3H5.3v-2.3H7.6z M7.6,46.9v2.3H5.3v-2.3H7.6z M7.6,49.4
					v2.3H5.3v-2.3H7.6z M7.6,51.9v2.3H5.3v-2.3H7.6z M7.6,54.4v2.3H5.3v-2.3H7.6z M7.6,56.8v2.3H5.3v-2.3H7.6z M7.6,59.3v2.3H5.3
					v-2.3H7.6z M7.6,61.8v2.3H5.3v-2.3H7.6z M7.6,64.2v2.3H5.3v-2.3H7.6z M7.6,66.7V69H5.3v-2.3H7.6z M7.6,69.2v2.3H5.3v-2.3H7.6z
					 M7.6,71.7v2.3H5.3v-2.3H7.6z M7.6,74.1v2.3H5.3v-2.3H7.6z M7.6,76.6v2.3H5.3v-2.3H7.6z M7.6,79.1v2.3H5.3v-2.3H7.6z M7.6,81.5
					v2.3H5.3v-2.3H7.6z M7.6,84v2.3H5.3V84H7.6z M7.6,86.5v2.3H5.3v-2.3H7.6z M7.6,89v2.3H5.3V89H7.6z M7.6,91.4v2.3H5.3v-2.3H7.6z
					 M7.6,93.9v2.3H5.3v-2.3H7.6z M7.8,93.9h2.3v2.3H7.8V93.9z M10.3,93.9h2.3v2.3h-2.3V93.9z M12.8,93.9H15v2.3h-2.3V93.9z
					 M15.2,93.9h2.3v2.3h-2.3V93.9z M17.7,93.9H20v2.3h-2.3V93.9z M20.2,93.9h2.3v2.3h-2.3V93.9z M22.6,93.9h2.3v2.3h-2.3V93.9z
					 M25.1,93.9h2.3v2.3h-2.3V93.9z M27.6,93.9h2.3v2.3h-2.3V93.9z M30.1,93.9h2.3v2.3h-2.3V93.9z M32.5,93.9h2.3v2.3h-2.3V93.9z
					 M35,93.9h2.3v2.3H35V93.9z M37.5,93.9h2.3v2.3h-2.3V93.9z M39.9,93.9h2.3v2.3h-2.3V93.9z M42.4,93.9h2.3v2.3h-2.3V93.9z
					 M44.9,93.9h2.3v2.3h-2.3V93.9z M47.4,93.9h2.3v2.3h-2.3V93.9z M49.8,93.9h2.3v2.3h-2.3V93.9z M52.3,93.9h2.3v2.3h-2.3V93.9z
					 M54.8,93.9H57v2.3h-2.3V93.9z M57.2,93.9h2.3v2.3h-2.3V93.9z M59.7,93.9H62v2.3h-2.3V93.9z M62.2,93.9h2.3v2.3h-2.3V93.9z
					 M64.7,93.9h2.3v2.3h-2.3V93.9z M67.1,93.9h2.3v2.3h-2.3V93.9z M69.6,93.9h2.3v2.3h-2.3V93.9z M72.1,93.9h2.3v2.3h-2.3V93.9z
					 M74.5,93.9h2.3v2.3h-2.3V93.9z M77,93.9h2.3v2.3H77V93.9z M79.5,93.9h2.3v2.3h-2.3V93.9z M82,93.9h2.3v2.3H82V93.9z M84.4,93.9
					h2.3v2.3h-2.3V93.9z M86.9,93.9h2.3v2.3h-2.3V93.9z M89.4,93.9h2.3v2.3h-2.3V93.9z M89.4,93.7v-2.3h2.3v2.3H89.4z M89.4,91.2V89
					h2.3v2.3H89.4z M89.4,88.8v-2.3h2.3v2.3H89.4z M89.4,86.3V84h2.3v2.3H89.4z M89.4,83.8v-2.3h2.3v2.3H89.4z M89.4,81.4v-2.3h2.3
					v2.3H89.4z M89.4,78.9v-2.3h2.3v2.3H89.4z M89.4,76.4v-2.3h2.3v2.3H89.4z M89.4,73.9v-2.3h2.3v2.3H89.4z M89.4,71.5v-2.3h2.3
					v2.3H89.4z M89.4,69v-2.3h2.3V69H89.4z M89.4,66.5v-2.3h2.3v2.3H89.4z M89.4,64.1v-2.3h2.3v2.3H89.4z M89.4,61.6v-2.3h2.3v2.3
					H89.4z M89.4,59.1v-2.3h2.3v2.3H89.4z M89.4,56.6v-2.3h2.3v2.3H89.4z M89.4,54.2v-2.3h2.3v2.3H89.4z M89.4,51.7v-2.3h2.3v2.3
					H89.4z M89.4,49.2v-2.3h2.3v2.3H89.4z M89.4,46.8v-2.3h2.3v2.3H89.4z M89.4,44.3V42h2.3v2.3H89.4z M89.4,41.8v-2.3h2.3v2.3H89.4
					z M89.4,39.3v-2.3h2.3v2.3H89.4z M89.4,36.9v-2.3h2.3v2.3H89.4z M89.4,34.4v-2.3h2.3v2.3H89.4z M89.2,29.6v2.3h-2.3v-2.3H89.2z
					 M86.7,29.6v2.3h-2.3v-2.3H86.7z M84.2,29.6v2.3H82v-2.3H84.2z M81.8,29.6v2.3h-2.3v-2.3H81.8z M79.3,29.6v2.3H77v-2.3H79.3z
					 M76.8,29.6v2.3h-2.3v-2.3H76.8z M74.3,29.6v2.3h-2.3v-2.3H74.3z M71.9,29.6v2.3h-2.3v-2.3H71.9z M69.4,29.6v2.3h-2.3v-2.3H69.4
					z M66.9,29.6v2.3h-2.3v-2.3H66.9z M64.5,29.6v2.3h-2.3v-2.3H64.5z M62,29.6v2.3h-2.3v-2.3H62z M59.5,29.6v2.3h-2.3v-2.3H59.5z
					 M57,29.6v2.3h-2.3v-2.3H57z M54.6,29.6v2.3h-2.3v-2.3H54.6z M52.1,29.6v2.3h-2.3v-2.3H52.1z M49.6,29.6v2.3h-2.3v-2.3H49.6z
					 M47.2,29.6v2.3h-2.3v-2.3H47.2z M44.7,29.6v2.3h-2.3v-2.3H44.7z M42.2,29.6v2.3h-2.3v-2.3H42.2z M39.7,29.6v2.3h-2.3v-2.3H39.7
					z M37.3,29.6v2.3H35v-2.3H37.3z M34.8,29.6v2.3h-2.3v-2.3H34.8z M32.3,29.6v2.3h-2.3v-2.3H32.3z M29.9,29.6v2.3h-2.3v-2.3H29.9z
					 M27.4,29.6v2.3h-2.3v-2.3H27.4z M24.9,29.6v2.3h-2.3v-2.3H24.9z M22.4,29.6v2.3h-2.3v-2.3H22.4z M20,29.6v2.3h-2.3v-2.3H20z
					 M17.5,29.6v2.3h-2.3v-2.3H17.5z M15,29.6v2.3h-2.3v-2.3H15z M12.6,29.6v2.3h-2.3v-2.3H12.6z M10.1,29.6v2.3H7.8v-2.3H10.1z
					 M7.6,29.6v2.3H5.3v-2.3H7.6z"/>
			</g>
		</g>
	</g>
	<g id="XMLID_5_">
		<circle class="st1" cx="49.3" cy="29.9" r="8.4"/>
		<path class="st4" d="M49.3,39.8c-5.4,0-9.9-4.4-9.9-9.9s4.4-9.9,9.9-9.9c5.4,0,9.9,4.4,9.9,9.9S54.8,39.8,49.3,39.8z M49.3,23
			c-3.8,0-6.9,3.1-6.9,6.9s3.1,6.9,6.9,6.9c3.8,0,6.9-3.1,6.9-6.9S53.1,23,49.3,23z"/>
	</g>
	<g id="XMLID_9_">
		<circle class="st1" cx="71.4" cy="36.2" r="6.1"/>
		<path class="st5" d="M71.4,43.8c-4.2,0-7.6-3.4-7.6-7.6s3.4-7.6,7.6-7.6S79,32,79,36.2S75.6,43.8,71.4,43.8z M71.4,31.6
			c-2.5,0-4.6,2.1-4.6,4.6s2.1,4.6,4.6,4.6s4.6-2.1,4.6-4.6S73.9,31.6,71.4,31.6z"/>
	</g>
	<g id="XMLID_7_">
		<path class="st4" d="M57.9,77.3H41.8L33,44.5l10.8-4.3c0.8-0.3,1.6,0.1,1.9,0.8c0.3,0.8-0.1,1.6-0.8,1.9l-8.3,3.3l7.5,27.9h11.5
			l7.5-28l-7.4-3.3L49,51.7c-0.5,0.7-1.4,0.8-2.1,0.3c-0.7-0.5-0.8-1.4-0.3-2.1l8.2-10.7l11.9,5.4L57.9,77.3z"/>
	</g>
	<g id="XMLID_1938_">
		<polygon class="st5" points="74,75.2 62,75.2 62,72.2 71.9,72.2 78.8,52.6 70.1,48.7 71.4,46 82.6,51 		"/>
	</g>
	<g id="XMLID_1940_">
		<circle class="st1" cx="28.6" cy="36.2" r="6.1"/>
		<path class="st5" d="M28.6,43.8c-4.2,0-7.6-3.4-7.6-7.6s3.4-7.6,7.6-7.6s7.6,3.4,7.6,7.6S32.8,43.8,28.6,43.8z M28.6,31.6
			c-2.6,0-4.6,2.1-4.6,4.6s2.1,4.6,4.6,4.6s4.6-2.1,4.6-4.6S31.2,31.6,28.6,31.6z"/>
	</g>
	<g id="XMLID_1939_">
		<polygon class="st5" points="38,75.2 26,75.2 17.4,51 28.6,46 29.9,48.7 21.2,52.6 28.1,72.2 38,72.2 		"/>
	</g>
	<g id="XMLID_12_">
		<path class="st6" d="M73.4,81.6H26.6c-0.6,0-1-0.4-1-1s0.4-1,1-1h46.8c0.6,0,1,0.4,1,1S73.9,81.6,73.4,81.6z"/>
	</g>
</g>
</svg>
