<?xml version="1.0" encoding="utf-8"?>
<!-- Generator: Adobe Illustrator 19.2.1, SVG Export Plug-In . SVG Version: 6.00 Build 0)  -->
<svg version="1.1" id="图层_1" xmlns="http://www.w3.org/2000/svg" xmlns:xlink="http://www.w3.org/1999/xlink" x="0px" y="0px"
	 viewBox="0 0 100 100" style="enable-background:new 0 0 100 100;" xml:space="preserve">
<style type="text/css">
	.st0{fill:#F0F7F5;}
	.st1{fill:#FFFFFF;}
	.st2{fill:#414249;}
	.st3{fill:#065E49;}
	.st4{clip-path:url(#SVGID_2_);}
	.st5{fill:#D1E0DC;}
	.st6{fill:#2B937C;}
</style>
<circle id="XMLID_153_" class="st0" cx="50" cy="50" r="50"/>
<g id="XMLID_21_">
	<path class="st1" d="M60.7,28c-0.5,0-1,0-1.5,0.1c-0.8-7.5-7.2-13.4-15-13.4c-7.8,0-14.2,5.9-15,13.4c-1.7-0.9-3.6-1.3-5.7-1.3
		c-7,0-12.7,5.7-12.7,12.7s5.7,12.7,12.7,12.7h36.4c0,0,0.5,0,0.8,0c6.7,0,12.1-5.4,12.1-12.1S67.4,28,60.7,28z"/>
</g>
<g id="XMLID_68_">
	<path class="st2" d="M38.7,78.6h-2v-2h2V78.6z M34.7,78.6h-2v-2h2V78.6z M30.7,78.6h-2v-2h2V78.6z M26.7,78.6h-2v-2h2V78.6z
		 M24.4,77h-2v-2h2V77z M24.4,73h-2v-2h2V73z M24.4,69h-2v-2h2V69z M24.4,65h-2v-2h2V65z M24.4,61h-2v-2h2V61z M24.4,57h-2v-2h2V57z
		"/>
</g>
<g id="XMLID_209_">
	<path class="st1" d="M69.4,68.6c-0.3,0-0.5,0-0.8,0.1c-0.4-4-3.8-7.1-7.9-7.1c-4.1,0-7.5,3.1-7.9,7.1c-0.9-0.4-1.9-0.7-3-0.7
		c-3.7,0-6.7,3-6.7,6.7c0,3.7,3,6.7,6.7,6.7H69c0,0,0.3,0,0.4,0c3.5,0,6.4-2.8,6.4-6.4S72.9,68.6,69.4,68.6z"/>
	<path class="st3" d="M69.4,82.3H49.8c-4.2,0-7.7-3.4-7.7-7.7c0-4.2,3.4-7.7,7.7-7.7c0.8,0,1.5,0.1,2.2,0.3c1-3.9,4.5-6.7,8.6-6.7
		c4.2,0,7.8,2.9,8.7,7c4,0,7.3,3.3,7.3,7.4C76.8,79,73.4,82.3,69.4,82.3z M49.8,68.9c-3.1,0-5.7,2.5-5.7,5.7s2.6,5.7,5.7,5.7h19.5
		c3,0,5.4-2.4,5.4-5.4s-2.4-5.4-5.4-5.4c-0.2,0-0.4,0-0.7,0l-1,0.1l-0.1-1c-0.4-3.5-3.4-6.2-6.9-6.2c-3.5,0-6.5,2.7-6.9,6.2
		l-0.2,1.4l-1.3-0.6C51.6,69.1,50.7,68.9,49.8,68.9z"/>
</g>
<g id="XMLID_219_">
	<path class="st2" d="M84.4,65.2h-2v-2h2V65.2z M80.4,65.2h-2v-2h2V65.2z M76.4,65.2h-2v-2h2V65.2z M72.4,65.2h-1.6v-2h1.6V65.2z
		 M87.1,63.9h-2v-2h2V63.9z M87.1,59.9h-2v-2h2V59.9z M87.1,55.9h-2v-2h2V55.9z M87.1,51.9h-2v-2h2V51.9z M87.1,47.9h-2v-2h2V47.9z
		 M87.1,43.9h-2v-2h2V43.9z M85.3,41.6h-2v-2h2V41.6z M81.3,41.6h-2v-2h2V41.6z M77.3,41.6h-2v-2h2V41.6z"/>
</g>
<g id="XMLID_16_">
	<defs>
		<path id="SVGID_1_" d="M60.7,27.7c-0.5,0-1,0-1.5,0.1c-0.8-7.5-7.2-13.4-15-13.4c-7.8,0-14.2,5.9-15,13.4
			c-1.7-0.9-3.6-1.3-5.7-1.3c-7,0-12.7,5.7-12.7,12.7s5.7,12.7,12.7,12.7h36.4c0,0,0.5,0,0.8,0c6.7,0,12.1-5.4,12.1-12.1
			S67.4,27.7,60.7,27.7z"/>
	</defs>
	<clipPath id="SVGID_2_">
		<use xlink:href="#SVGID_1_"  style="overflow:visible;"/>
	</clipPath>
	<g id="XMLID_23_" class="st4">
		<g id="XMLID_1931_">
			<rect x="-16" y="-6.1" class="st5" width="109.4" height="0.3"/>
		</g>
		<g id="XMLID_24_">
			<path class="st5" d="M93.5-5.4h-0.3V-3h-2.9v-2.5h-0.3V-3h-2.9v-2.5H87V-3h-2.9v-2.5h-0.3V-3H81v-2.5h-0.3V-3h-2.9v-2.5h-0.3V-3
				h-2.9v-2.5h-0.3V-3h-2.9v-2.5h-0.3V-3h-2.9v-2.5h-0.3V-3h-2.9v-2.5h-0.3V-3h-2.9v-2.5H62V-3h-2.9v-2.5h-0.3V-3H56v-2.5h-0.3V-3
				h-2.9v-2.5h-0.3V-3h-2.9v-2.5h-0.3V-3h-2.9v-2.5h-0.3V-3h-2.9v-2.5h-0.3V-3h-2.9v-2.5h-0.3V-3h-2.9v-2.5H37V-3h-2.9v-2.5h-0.3V-3
				H31v-2.5h-0.3V-3h-2.9v-2.5h-0.3V-3h-2.9v-2.5h-0.3V-3h-2.9v-2.5h-0.3V-3h-2.9v-2.5h-0.3V-3h-2.9v-2.5h-0.3V-3h-2.9v-2.5H12V-3
				H9.1v-2.5H8.9V-3H6v-2.5H5.8V-3H2.9v-2.5H2.6V-3h-2.9v-2.5h-0.3V-3h-2.9v-2.5h-0.3V-3h-2.9v-2.5h-0.3V-3h-2.9v-2.5h-0.3V-3h-2.9
				v-2.5H-13V-3h-2.9v-2.5h-0.2v87h0.1v0.1H93.4v-0.1h0.1V-5.4z M93.3-2.7v2.9h-2.9v-2.9H93.3z M49.5,40.8h-2.9v-2.9h2.9V40.8z
				 M49.8,37.9h2.9v2.9h-2.9V37.9z M46.4,40.8h-2.9v-2.9h2.9V40.8z M43.3,40.8h-2.9v-2.9h2.9V40.8z M40.1,40.8h-2.9v-2.9h2.9V40.8z
				 M37,40.8h-2.9v-2.9H37V40.8z M33.9,40.8H31v-2.9h2.9V40.8z M30.8,40.8h-2.9v-2.9h2.9V40.8z M27.6,40.8h-2.9v-2.9h2.9V40.8z
				 M24.5,40.8h-2.9v-2.9h2.9V40.8z M24.5,41v2.9h-2.9V41H24.5z M24.8,41h2.9v2.9h-2.9V41z M27.9,41h2.9v2.9h-2.9V41z M31,41h2.9
				v2.9H31V41z M34.1,41H37v2.9h-2.9V41z M37.3,41h2.9v2.9h-2.9V41z M40.4,41h2.9v2.9h-2.9V41z M43.5,41h2.9v2.9h-2.9V41z M46.6,41
				h2.9v2.9h-2.9V41z M49.8,41h2.9v2.9h-2.9V41z M52.9,41h2.9v2.9h-2.9V41z M52.9,40.8v-2.9h2.9v2.9H52.9z M52.9,37.7v-2.9h2.9v2.9
				H52.9z M52.6,37.7h-2.9v-2.9h2.9V37.7z M49.5,37.7h-2.9v-2.9h2.9V37.7z M46.4,37.7h-2.9v-2.9h2.9V37.7z M43.3,37.7h-2.9v-2.9h2.9
				V37.7z M40.1,37.7h-2.9v-2.9h2.9V37.7z M37,37.7h-2.9v-2.9H37V37.7z M33.9,37.7H31v-2.9h2.9V37.7z M30.8,37.7h-2.9v-2.9h2.9V37.7
				z M27.6,37.7h-2.9v-2.9h2.9V37.7z M24.5,37.7h-2.9v-2.9h2.9V37.7z M21.4,37.7h-2.9v-2.9h2.9V37.7z M21.4,37.9v2.9h-2.9v-2.9H21.4
				z M21.4,41v2.9h-2.9V41H21.4z M21.4,44.2V47h-2.9v-2.9H21.4z M21.6,44.2h2.9V47h-2.9V44.2z M24.8,44.2h2.9V47h-2.9V44.2z
				 M27.9,44.2h2.9V47h-2.9V44.2z M31,44.2h2.9V47H31V44.2z M34.1,44.2H37V47h-2.9V44.2z M37.3,44.2h2.9V47h-2.9V44.2z M40.4,44.2
				h2.9V47h-2.9V44.2z M43.5,44.2h2.9V47h-2.9V44.2z M46.6,44.2h2.9V47h-2.9V44.2z M49.8,44.2h2.9V47h-2.9V44.2z M52.9,44.2h2.9V47
				h-2.9V44.2z M56,44.2h2.9V47H56V44.2z M56,43.9V41h2.9v2.9H56z M56,40.8v-2.9h2.9v2.9H56z M56,37.7v-2.9h2.9v2.9H56z M56,34.5
				v-2.9h2.9v2.9H56z M55.8,34.5h-2.9v-2.9h2.9V34.5z M52.6,34.5h-2.9v-2.9h2.9V34.5z M49.5,34.5h-2.9v-2.9h2.9V34.5z M46.4,34.5
				h-2.9v-2.9h2.9V34.5z M43.3,34.5h-2.9v-2.9h2.9V34.5z M40.1,34.5h-2.9v-2.9h2.9V34.5z M37,34.5h-2.9v-2.9H37V34.5z M33.9,34.5H31
				v-2.9h2.9V34.5z M30.8,34.5h-2.9v-2.9h2.9V34.5z M27.6,34.5h-2.9v-2.9h2.9V34.5z M24.5,34.5h-2.9v-2.9h2.9V34.5z M21.4,34.5h-2.9
				v-2.9h2.9V34.5z M18.3,34.5h-2.9v-2.9h2.9V34.5z M18.3,34.8v2.9h-2.9v-2.9H18.3z M18.3,37.9v2.9h-2.9v-2.9H18.3z M18.3,41v2.9
				h-2.9V41H18.3z M18.3,44.2V47h-2.9v-2.9H18.3z M18.3,47.3v2.9h-2.9v-2.9H18.3z M18.5,47.3h2.9v2.9h-2.9V47.3z M21.6,47.3h2.9v2.9
				h-2.9V47.3z M24.8,47.3h2.9v2.9h-2.9V47.3z M27.9,47.3h2.9v2.9h-2.9V47.3z M31,47.3h2.9v2.9H31V47.3z M34.1,47.3H37v2.9h-2.9
				V47.3z M37.3,47.3h2.9v2.9h-2.9V47.3z M40.4,47.3h2.9v2.9h-2.9V47.3z M43.5,47.3h2.9v2.9h-2.9V47.3z M46.6,47.3h2.9v2.9h-2.9
				V47.3z M49.8,47.3h2.9v2.9h-2.9V47.3z M52.9,47.3h2.9v2.9h-2.9V47.3z M56,47.3h2.9v2.9H56V47.3z M59.1,47.3H62v2.9h-2.9V47.3z
				 M59.1,47v-2.9H62V47H59.1z M59.1,43.9V41H62v2.9H59.1z M59.1,40.8v-2.9H62v2.9H59.1z M59.1,37.7v-2.9H62v2.9H59.1z M59.1,34.5
				v-2.9H62v2.9H59.1z M59.1,31.4v-2.9H62v2.9H59.1z M58.9,31.4H56v-2.9h2.9V31.4z M55.8,31.4h-2.9v-2.9h2.9V31.4z M52.6,31.4h-2.9
				v-2.9h2.9V31.4z M49.5,31.4h-2.9v-2.9h2.9V31.4z M46.4,31.4h-2.9v-2.9h2.9V31.4z M43.3,31.4h-2.9v-2.9h2.9V31.4z M40.1,31.4h-2.9
				v-2.9h2.9V31.4z M37,31.4h-2.9v-2.9H37V31.4z M33.9,31.4H31v-2.9h2.9V31.4z M30.8,31.4h-2.9v-2.9h2.9V31.4z M27.6,31.4h-2.9v-2.9
				h2.9V31.4z M24.5,31.4h-2.9v-2.9h2.9V31.4z M21.4,31.4h-2.9v-2.9h2.9V31.4z M18.3,31.4h-2.9v-2.9h2.9V31.4z M15.1,31.4h-2.9v-2.9
				h2.9V31.4z M15.1,31.7v2.9h-2.9v-2.9H15.1z M15.1,34.8v2.9h-2.9v-2.9H15.1z M15.1,37.9v2.9h-2.9v-2.9H15.1z M15.1,41v2.9h-2.9V41
				H15.1z M15.1,44.2V47h-2.9v-2.9H15.1z M15.1,47.3v2.9h-2.9v-2.9H15.1z M15.1,50.4v2.9h-2.9v-2.9H15.1z M15.4,50.4h2.9v2.9h-2.9
				V50.4z M18.5,50.4h2.9v2.9h-2.9V50.4z M21.6,50.4h2.9v2.9h-2.9V50.4z M24.8,50.4h2.9v2.9h-2.9V50.4z M27.9,50.4h2.9v2.9h-2.9
				V50.4z M31,50.4h2.9v2.9H31V50.4z M34.1,50.4H37v2.9h-2.9V50.4z M37.3,50.4h2.9v2.9h-2.9V50.4z M40.4,50.4h2.9v2.9h-2.9V50.4z
				 M43.5,50.4h2.9v2.9h-2.9V50.4z M46.6,50.4h2.9v2.9h-2.9V50.4z M49.8,50.4h2.9v2.9h-2.9V50.4z M52.9,50.4h2.9v2.9h-2.9V50.4z
				 M56,50.4h2.9v2.9H56V50.4z M59.1,50.4H62v2.9h-2.9V50.4z M62.3,50.4h2.9v2.9h-2.9V50.4z M62.3,50.2v-2.9h2.9v2.9H62.3z M62.3,47
				v-2.9h2.9V47H62.3z M62.3,43.9V41h2.9v2.9H62.3z M62.3,40.8v-2.9h2.9v2.9H62.3z M62.3,37.7v-2.9h2.9v2.9H62.3z M62.3,34.5v-2.9
				h2.9v2.9H62.3z M62.3,31.4v-2.9h2.9v2.9H62.3z M62.3,28.3v-2.9h2.9v2.9H62.3z M62,28.3h-2.9v-2.9H62V28.3z M58.9,28.3H56v-2.9
				h2.9V28.3z M55.8,28.3h-2.9v-2.9h2.9V28.3z M52.6,28.3h-2.9v-2.9h2.9V28.3z M49.5,28.3h-2.9v-2.9h2.9V28.3z M46.4,28.3h-2.9v-2.9
				h2.9V28.3z M43.3,28.3h-2.9v-2.9h2.9V28.3z M40.1,28.3h-2.9v-2.9h2.9V28.3z M37,28.3h-2.9v-2.9H37V28.3z M33.9,28.3H31v-2.9h2.9
				V28.3z M30.8,28.3h-2.9v-2.9h2.9V28.3z M27.6,28.3h-2.9v-2.9h2.9V28.3z M24.5,28.3h-2.9v-2.9h2.9V28.3z M21.4,28.3h-2.9v-2.9h2.9
				V28.3z M18.3,28.3h-2.9v-2.9h2.9V28.3z M15.1,28.3h-2.9v-2.9h2.9V28.3z M12,28.3H9.1v-2.9H12V28.3z M12,28.5v2.9H9.1v-2.9H12z
				 M12,31.7v2.9H9.1v-2.9H12z M12,34.8v2.9H9.1v-2.9H12z M12,37.9v2.9H9.1v-2.9H12z M12,41v2.9H9.1V41H12z M12,44.2V47H9.1v-2.9H12
				z M12,47.3v2.9H9.1v-2.9H12z M12,50.4v2.9H9.1v-2.9H12z M12,53.5v2.9H9.1v-2.9H12z M12.3,53.5h2.9v2.9h-2.9V53.5z M15.4,53.5h2.9
				v2.9h-2.9V53.5z M18.5,53.5h2.9v2.9h-2.9V53.5z M21.6,53.5h2.9v2.9h-2.9V53.5z M24.8,53.5h2.9v2.9h-2.9V53.5z M27.9,53.5h2.9v2.9
				h-2.9V53.5z M31,53.5h2.9v2.9H31V53.5z M34.1,53.5H37v2.9h-2.9V53.5z M37.3,53.5h2.9v2.9h-2.9V53.5z M40.4,53.5h2.9v2.9h-2.9
				V53.5z M43.5,53.5h2.9v2.9h-2.9V53.5z M46.6,53.5h2.9v2.9h-2.9V53.5z M49.8,53.5h2.9v2.9h-2.9V53.5z M52.9,53.5h2.9v2.9h-2.9
				V53.5z M56,53.5h2.9v2.9H56V53.5z M59.1,53.5H62v2.9h-2.9V53.5z M62.3,53.5h2.9v2.9h-2.9V53.5z M65.4,53.5h2.9v2.9h-2.9V53.5z
				 M65.4,53.3v-2.9h2.9v2.9H65.4z M65.4,50.2v-2.9h2.9v2.9H65.4z M65.4,47v-2.9h2.9V47H65.4z M65.4,43.9V41h2.9v2.9H65.4z
				 M65.4,40.8v-2.9h2.9v2.9H65.4z M65.4,37.7v-2.9h2.9v2.9H65.4z M65.4,34.5v-2.9h2.9v2.9H65.4z M65.4,31.4v-2.9h2.9v2.9H65.4z
				 M65.4,28.3v-2.9h2.9v2.9H65.4z M65.4,25.2v-2.9h2.9v2.9H65.4z M65.1,25.2h-2.9v-2.9h2.9V25.2z M62,25.2h-2.9v-2.9H62V25.2z
				 M58.9,25.2H56v-2.9h2.9V25.2z M55.8,25.2h-2.9v-2.9h2.9V25.2z M52.6,25.2h-2.9v-2.9h2.9V25.2z M49.5,25.2h-2.9v-2.9h2.9V25.2z
				 M46.4,25.2h-2.9v-2.9h2.9V25.2z M43.3,25.2h-2.9v-2.9h2.9V25.2z M40.1,25.2h-2.9v-2.9h2.9V25.2z M37,25.2h-2.9v-2.9H37V25.2z
				 M33.9,25.2H31v-2.9h2.9V25.2z M30.8,25.2h-2.9v-2.9h2.9V25.2z M27.6,25.2h-2.9v-2.9h2.9V25.2z M24.5,25.2h-2.9v-2.9h2.9V25.2z
				 M21.4,25.2h-2.9v-2.9h2.9V25.2z M18.3,25.2h-2.9v-2.9h2.9V25.2z M15.1,25.2h-2.9v-2.9h2.9V25.2z M12,25.2H9.1v-2.9H12V25.2z
				 M8.9,25.2H6v-2.9h2.9V25.2z M8.9,25.4v2.9H6v-2.9H8.9z M8.9,28.5v2.9H6v-2.9H8.9z M8.9,31.7v2.9H6v-2.9H8.9z M8.9,34.8v2.9H6
				v-2.9H8.9z M8.9,37.9v2.9H6v-2.9H8.9z M8.9,41v2.9H6V41H8.9z M8.9,44.2V47H6v-2.9H8.9z M8.9,47.3v2.9H6v-2.9H8.9z M8.9,50.4v2.9
				H6v-2.9H8.9z M8.9,53.5v2.9H6v-2.9H8.9z M8.9,56.7v2.9H6v-2.9H8.9z M9.1,56.7H12v2.9H9.1V56.7z M12.3,56.7h2.9v2.9h-2.9V56.7z
				 M15.4,56.7h2.9v2.9h-2.9V56.7z M18.5,56.7h2.9v2.9h-2.9V56.7z M21.6,56.7h2.9v2.9h-2.9V56.7z M24.8,56.7h2.9v2.9h-2.9V56.7z
				 M27.9,56.7h2.9v2.9h-2.9V56.7z M31,56.7h2.9v2.9H31V56.7z M34.1,56.7H37v2.9h-2.9V56.7z M37.3,56.7h2.9v2.9h-2.9V56.7z
				 M40.4,56.7h2.9v2.9h-2.9V56.7z M43.5,56.7h2.9v2.9h-2.9V56.7z M46.6,56.7h2.9v2.9h-2.9V56.7z M49.8,56.7h2.9v2.9h-2.9V56.7z
				 M52.9,56.7h2.9v2.9h-2.9V56.7z M56,56.7h2.9v2.9H56V56.7z M59.1,56.7H62v2.9h-2.9V56.7z M62.3,56.7h2.9v2.9h-2.9V56.7z
				 M65.4,56.7h2.9v2.9h-2.9V56.7z M68.5,56.7h2.9v2.9h-2.9V56.7z M68.5,56.4v-2.9h2.9v2.9H68.5z M68.5,53.3v-2.9h2.9v2.9H68.5z
				 M68.5,50.2v-2.9h2.9v2.9H68.5z M68.5,47v-2.9h2.9V47H68.5z M68.5,43.9V41h2.9v2.9H68.5z M68.5,40.8v-2.9h2.9v2.9H68.5z
				 M68.5,37.7v-2.9h2.9v2.9H68.5z M68.5,34.5v-2.9h2.9v2.9H68.5z M68.5,31.4v-2.9h2.9v2.9H68.5z M68.5,28.3v-2.9h2.9v2.9H68.5z
				 M68.5,25.2v-2.9h2.9v2.9H68.5z M68.5,22v-2.9h2.9V22H68.5z M68.3,22h-2.9v-2.9h2.9V22z M65.1,22h-2.9v-2.9h2.9V22z M62,22h-2.9
				v-2.9H62V22z M58.9,22H56v-2.9h2.9V22z M55.8,22h-2.9v-2.9h2.9V22z M52.6,22h-2.9v-2.9h2.9V22z M49.5,22h-2.9v-2.9h2.9V22z
				 M46.4,22h-2.9v-2.9h2.9V22z M43.3,22h-2.9v-2.9h2.9V22z M40.1,22h-2.9v-2.9h2.9V22z M37,22h-2.9v-2.9H37V22z M33.9,22H31v-2.9
				h2.9V22z M30.8,22h-2.9v-2.9h2.9V22z M27.6,22h-2.9v-2.9h2.9V22z M24.5,22h-2.9v-2.9h2.9V22z M21.4,22h-2.9v-2.9h2.9V22z
				 M18.3,22h-2.9v-2.9h2.9V22z M15.1,22h-2.9v-2.9h2.9V22z M12,22H9.1v-2.9H12V22z M8.9,22H6v-2.9h2.9V22z M5.8,22H2.9v-2.9h2.9V22
				z M5.8,22.3v2.9H2.9v-2.9H5.8z M5.8,25.4v2.9H2.9v-2.9H5.8z M5.8,28.5v2.9H2.9v-2.9H5.8z M5.8,31.7v2.9H2.9v-2.9H5.8z M5.8,34.8
				v2.9H2.9v-2.9H5.8z M5.8,37.9v2.9H2.9v-2.9H5.8z M5.8,41v2.9H2.9V41H5.8z M5.8,44.2V47H2.9v-2.9H5.8z M5.8,47.3v2.9H2.9v-2.9H5.8
				z M5.8,50.4v2.9H2.9v-2.9H5.8z M5.8,53.5v2.9H2.9v-2.9H5.8z M5.8,56.7v2.9H2.9v-2.9H5.8z M5.8,59.8v2.9H2.9v-2.9H5.8z M6,59.8
				h2.9v2.9H6V59.8z M9.1,59.8H12v2.9H9.1V59.8z M12.3,59.8h2.9v2.9h-2.9V59.8z M15.4,59.8h2.9v2.9h-2.9V59.8z M18.5,59.8h2.9v2.9
				h-2.9V59.8z M21.6,59.8h2.9v2.9h-2.9V59.8z M24.8,59.8h2.9v2.9h-2.9V59.8z M27.9,59.8h2.9v2.9h-2.9V59.8z M31,59.8h2.9v2.9H31
				V59.8z M34.1,59.8H37v2.9h-2.9V59.8z M37.3,59.8h2.9v2.9h-2.9V59.8z M40.4,59.8h2.9v2.9h-2.9V59.8z M43.5,59.8h2.9v2.9h-2.9V59.8
				z M46.6,59.8h2.9v2.9h-2.9V59.8z M49.8,59.8h2.9v2.9h-2.9V59.8z M52.9,59.8h2.9v2.9h-2.9V59.8z M56,59.8h2.9v2.9H56V59.8z
				 M59.1,59.8H62v2.9h-2.9V59.8z M62.3,59.8h2.9v2.9h-2.9V59.8z M65.4,59.8h2.9v2.9h-2.9V59.8z M68.5,59.8h2.9v2.9h-2.9V59.8z
				 M71.6,59.8h2.9v2.9h-2.9V59.8z M71.6,59.5v-2.9h2.9v2.9H71.6z M71.6,56.4v-2.9h2.9v2.9H71.6z M71.6,53.3v-2.9h2.9v2.9H71.6z
				 M71.6,50.2v-2.9h2.9v2.9H71.6z M71.6,47v-2.9h2.9V47H71.6z M71.6,43.9V41h2.9v2.9H71.6z M71.6,40.8v-2.9h2.9v2.9H71.6z
				 M71.6,37.7v-2.9h2.9v2.9H71.6z M71.6,34.5v-2.9h2.9v2.9H71.6z M71.6,31.4v-2.9h2.9v2.9H71.6z M71.6,28.3v-2.9h2.9v2.9H71.6z
				 M71.6,25.2v-2.9h2.9v2.9H71.6z M71.6,22v-2.9h2.9V22H71.6z M71.6,18.9V16h2.9v2.9H71.6z M71.4,18.9h-2.9V16h2.9V18.9z
				 M68.3,18.9h-2.9V16h2.9V18.9z M65.1,18.9h-2.9V16h2.9V18.9z M62,18.9h-2.9V16H62V18.9z M58.9,18.9H56V16h2.9V18.9z M55.8,18.9
				h-2.9V16h2.9V18.9z M52.6,18.9h-2.9V16h2.9V18.9z M49.5,18.9h-2.9V16h2.9V18.9z M46.4,18.9h-2.9V16h2.9V18.9z M43.3,18.9h-2.9V16
				h2.9V18.9z M40.1,18.9h-2.9V16h2.9V18.9z M37,18.9h-2.9V16H37V18.9z M33.9,18.9H31V16h2.9V18.9z M30.8,18.9h-2.9V16h2.9V18.9z
				 M27.6,18.9h-2.9V16h2.9V18.9z M24.5,18.9h-2.9V16h2.9V18.9z M21.4,18.9h-2.9V16h2.9V18.9z M18.3,18.9h-2.9V16h2.9V18.9z
				 M15.1,18.9h-2.9V16h2.9V18.9z M12,18.9H9.1V16H12V18.9z M8.9,18.9H6V16h2.9V18.9z M5.8,18.9H2.9V16h2.9V18.9z M2.6,18.9h-2.9V16
				h2.9V18.9z M2.6,19.2V22h-2.9v-2.9H2.6z M2.6,22.3v2.9h-2.9v-2.9H2.6z M2.6,25.4v2.9h-2.9v-2.9H2.6z M2.6,28.5v2.9h-2.9v-2.9H2.6
				z M2.6,31.7v2.9h-2.9v-2.9H2.6z M2.6,34.8v2.9h-2.9v-2.9H2.6z M2.6,37.9v2.9h-2.9v-2.9H2.6z M2.6,41v2.9h-2.9V41H2.6z M2.6,44.2
				V47h-2.9v-2.9H2.6z M2.6,47.3v2.9h-2.9v-2.9H2.6z M2.6,50.4v2.9h-2.9v-2.9H2.6z M2.6,53.5v2.9h-2.9v-2.9H2.6z M2.6,56.7v2.9h-2.9
				v-2.9H2.6z M2.6,59.8v2.9h-2.9v-2.9H2.6z M2.6,62.9v2.9h-2.9v-2.9H2.6z M2.9,62.9h2.9v2.9H2.9V62.9z M6,62.9h2.9v2.9H6V62.9z
				 M9.1,62.9H12v2.9H9.1V62.9z M12.3,62.9h2.9v2.9h-2.9V62.9z M15.4,62.9h2.9v2.9h-2.9V62.9z M18.5,62.9h2.9v2.9h-2.9V62.9z
				 M21.6,62.9h2.9v2.9h-2.9V62.9z M24.8,62.9h2.9v2.9h-2.9V62.9z M27.9,62.9h2.9v2.9h-2.9V62.9z M31,62.9h2.9v2.9H31V62.9z
				 M34.1,62.9H37v2.9h-2.9V62.9z M37.3,62.9h2.9v2.9h-2.9V62.9z M40.4,62.9h2.9v2.9h-2.9V62.9z M43.5,62.9h2.9v2.9h-2.9V62.9z
				 M46.6,62.9h2.9v2.9h-2.9V62.9z M49.8,62.9h2.9v2.9h-2.9V62.9z M52.9,62.9h2.9v2.9h-2.9V62.9z M56,62.9h2.9v2.9H56V62.9z
				 M59.1,62.9H62v2.9h-2.9V62.9z M62.3,62.9h2.9v2.9h-2.9V62.9z M65.4,62.9h2.9v2.9h-2.9V62.9z M68.5,62.9h2.9v2.9h-2.9V62.9z
				 M71.6,62.9h2.9v2.9h-2.9V62.9z M74.8,62.9h2.9v2.9h-2.9V62.9z M74.8,62.7v-2.9h2.9v2.9H74.8z M74.8,59.5v-2.9h2.9v2.9H74.8z
				 M74.8,56.4v-2.9h2.9v2.9H74.8z M74.8,53.3v-2.9h2.9v2.9H74.8z M74.8,50.2v-2.9h2.9v2.9H74.8z M74.8,47v-2.9h2.9V47H74.8z
				 M74.8,43.9V41h2.9v2.9H74.8z M74.8,40.8v-2.9h2.9v2.9H74.8z M74.8,37.7v-2.9h2.9v2.9H74.8z M74.8,34.5v-2.9h2.9v2.9H74.8z
				 M74.8,31.4v-2.9h2.9v2.9H74.8z M74.8,28.3v-2.9h2.9v2.9H74.8z M74.8,25.2v-2.9h2.9v2.9H74.8z M74.8,22v-2.9h2.9V22H74.8z
				 M74.8,18.9V16h2.9v2.9H74.8z M74.8,15.8v-2.9h2.9v2.9H74.8z M74.5,15.8h-2.9v-2.9h2.9V15.8z M71.4,15.8h-2.9v-2.9h2.9V15.8z
				 M68.3,15.8h-2.9v-2.9h2.9V15.8z M65.1,15.8h-2.9v-2.9h2.9V15.8z M62,15.8h-2.9v-2.9H62V15.8z M58.9,15.8H56v-2.9h2.9V15.8z
				 M55.8,15.8h-2.9v-2.9h2.9V15.8z M52.6,15.8h-2.9v-2.9h2.9V15.8z M49.5,15.8h-2.9v-2.9h2.9V15.8z M46.4,15.8h-2.9v-2.9h2.9V15.8z
				 M43.3,15.8h-2.9v-2.9h2.9V15.8z M40.1,15.8h-2.9v-2.9h2.9V15.8z M37,15.8h-2.9v-2.9H37V15.8z M33.9,15.8H31v-2.9h2.9V15.8z
				 M30.8,15.8h-2.9v-2.9h2.9V15.8z M27.6,15.8h-2.9v-2.9h2.9V15.8z M24.5,15.8h-2.9v-2.9h2.9V15.8z M21.4,15.8h-2.9v-2.9h2.9V15.8z
				 M18.3,15.8h-2.9v-2.9h2.9V15.8z M15.1,15.8h-2.9v-2.9h2.9V15.8z M12,15.8H9.1v-2.9H12V15.8z M8.9,15.8H6v-2.9h2.9V15.8z
				 M5.8,15.8H2.9v-2.9h2.9V15.8z M2.6,15.8h-2.9v-2.9h2.9V15.8z M-0.5,15.8h-2.9v-2.9h2.9V15.8z M-0.5,16v2.9h-2.9V16H-0.5z
				 M-0.5,19.2V22h-2.9v-2.9H-0.5z M-0.5,22.3v2.9h-2.9v-2.9H-0.5z M-0.5,25.4v2.9h-2.9v-2.9H-0.5z M-0.5,28.5v2.9h-2.9v-2.9H-0.5z
				 M-0.5,31.7v2.9h-2.9v-2.9H-0.5z M-0.5,34.8v2.9h-2.9v-2.9H-0.5z M-0.5,37.9v2.9h-2.9v-2.9H-0.5z M-0.5,41v2.9h-2.9V41H-0.5z
				 M-0.5,44.2V47h-2.9v-2.9H-0.5z M-0.5,47.3v2.9h-2.9v-2.9H-0.5z M-0.5,50.4v2.9h-2.9v-2.9H-0.5z M-0.5,53.5v2.9h-2.9v-2.9H-0.5z
				 M-0.5,56.7v2.9h-2.9v-2.9H-0.5z M-0.5,59.8v2.9h-2.9v-2.9H-0.5z M-0.5,62.9v2.9h-2.9v-2.9H-0.5z M-0.5,66v2.9h-2.9V66H-0.5z
				 M-0.2,66h2.9v2.9h-2.9V66z M2.9,66h2.9v2.9H2.9V66z M6,66h2.9v2.9H6V66z M9.1,66H12v2.9H9.1V66z M12.3,66h2.9v2.9h-2.9V66z
				 M15.4,66h2.9v2.9h-2.9V66z M18.5,66h2.9v2.9h-2.9V66z M21.6,66h2.9v2.9h-2.9V66z M24.8,66h2.9v2.9h-2.9V66z M27.9,66h2.9v2.9
				h-2.9V66z M31,66h2.9v2.9H31V66z M34.1,66H37v2.9h-2.9V66z M37.3,66h2.9v2.9h-2.9V66z M40.4,66h2.9v2.9h-2.9V66z M43.5,66h2.9
				v2.9h-2.9V66z M46.6,66h2.9v2.9h-2.9V66z M49.8,66h2.9v2.9h-2.9V66z M52.9,66h2.9v2.9h-2.9V66z M56,66h2.9v2.9H56V66z M59.1,66
				H62v2.9h-2.9V66z M62.3,66h2.9v2.9h-2.9V66z M65.4,66h2.9v2.9h-2.9V66z M68.5,66h2.9v2.9h-2.9V66z M71.6,66h2.9v2.9h-2.9V66z
				 M74.8,66h2.9v2.9h-2.9V66z M77.9,66h2.9v2.9h-2.9V66z M77.9,65.8v-2.9h2.9v2.9H77.9z M77.9,62.7v-2.9h2.9v2.9H77.9z M77.9,59.5
				v-2.9h2.9v2.9H77.9z M77.9,56.4v-2.9h2.9v2.9H77.9z M77.9,53.3v-2.9h2.9v2.9H77.9z M77.9,50.2v-2.9h2.9v2.9H77.9z M77.9,47v-2.9
				h2.9V47H77.9z M77.9,43.9V41h2.9v2.9H77.9z M77.9,40.8v-2.9h2.9v2.9H77.9z M77.9,37.7v-2.9h2.9v2.9H77.9z M77.9,34.5v-2.9h2.9
				v2.9H77.9z M77.9,31.4v-2.9h2.9v2.9H77.9z M77.9,28.3v-2.9h2.9v2.9H77.9z M77.9,25.2v-2.9h2.9v2.9H77.9z M77.9,22v-2.9h2.9V22
				H77.9z M77.9,18.9V16h2.9v2.9H77.9z M77.9,15.8v-2.9h2.9v2.9H77.9z M77.9,12.7V9.8h2.9v2.9H77.9z M77.6,12.7h-2.9V9.8h2.9V12.7z
				 M74.5,12.7h-2.9V9.8h2.9V12.7z M71.4,12.7h-2.9V9.8h2.9V12.7z M68.3,12.7h-2.9V9.8h2.9V12.7z M65.1,12.7h-2.9V9.8h2.9V12.7z
				 M62,12.7h-2.9V9.8H62V12.7z M58.9,12.7H56V9.8h2.9V12.7z M55.8,12.7h-2.9V9.8h2.9V12.7z M52.6,12.7h-2.9V9.8h2.9V12.7z
				 M49.5,12.7h-2.9V9.8h2.9V12.7z M46.4,12.7h-2.9V9.8h2.9V12.7z M43.3,12.7h-2.9V9.8h2.9V12.7z M40.1,12.7h-2.9V9.8h2.9V12.7z
				 M37,12.7h-2.9V9.8H37V12.7z M33.9,12.7H31V9.8h2.9V12.7z M30.8,12.7h-2.9V9.8h2.9V12.7z M27.6,12.7h-2.9V9.8h2.9V12.7z
				 M24.5,12.7h-2.9V9.8h2.9V12.7z M21.4,12.7h-2.9V9.8h2.9V12.7z M18.3,12.7h-2.9V9.8h2.9V12.7z M15.1,12.7h-2.9V9.8h2.9V12.7z
				 M12,12.7H9.1V9.8H12V12.7z M8.9,12.7H6V9.8h2.9V12.7z M5.8,12.7H2.9V9.8h2.9V12.7z M2.6,12.7h-2.9V9.8h2.9V12.7z M-0.5,12.7
				h-2.9V9.8h2.9V12.7z M-3.6,12.7h-2.9V9.8h2.9V12.7z M-3.6,12.9v2.9h-2.9v-2.9H-3.6z M-3.6,16v2.9h-2.9V16H-3.6z M-3.6,19.2V22
				h-2.9v-2.9H-3.6z M-3.6,22.3v2.9h-2.9v-2.9H-3.6z M-3.6,25.4v2.9h-2.9v-2.9H-3.6z M-3.6,28.5v2.9h-2.9v-2.9H-3.6z M-3.6,31.7v2.9
				h-2.9v-2.9H-3.6z M-3.6,34.8v2.9h-2.9v-2.9H-3.6z M-3.6,37.9v2.9h-2.9v-2.9H-3.6z M-3.6,41v2.9h-2.9V41H-3.6z M-3.6,44.2V47h-2.9
				v-2.9H-3.6z M-3.6,47.3v2.9h-2.9v-2.9H-3.6z M-3.6,50.4v2.9h-2.9v-2.9H-3.6z M-3.6,53.5v2.9h-2.9v-2.9H-3.6z M-3.6,56.7v2.9h-2.9
				v-2.9H-3.6z M-3.6,59.8v2.9h-2.9v-2.9H-3.6z M-3.6,62.9v2.9h-2.9v-2.9H-3.6z M-3.6,66v2.9h-2.9V66H-3.6z M-3.6,69.2V72h-2.9v-2.9
				H-3.6z M-3.4,69.2h2.9V72h-2.9V69.2z M-0.2,69.2h2.9V72h-2.9V69.2z M2.9,69.2h2.9V72H2.9V69.2z M6,69.2h2.9V72H6V69.2z M9.1,69.2
				H12V72H9.1V69.2z M12.3,69.2h2.9V72h-2.9V69.2z M15.4,69.2h2.9V72h-2.9V69.2z M18.5,69.2h2.9V72h-2.9V69.2z M21.6,69.2h2.9V72
				h-2.9V69.2z M24.8,69.2h2.9V72h-2.9V69.2z M27.9,69.2h2.9V72h-2.9V69.2z M31,69.2h2.9V72H31V69.2z M34.1,69.2H37V72h-2.9V69.2z
				 M37.3,69.2h2.9V72h-2.9V69.2z M40.4,69.2h2.9V72h-2.9V69.2z M43.5,69.2h2.9V72h-2.9V69.2z M46.6,69.2h2.9V72h-2.9V69.2z
				 M49.8,69.2h2.9V72h-2.9V69.2z M52.9,69.2h2.9V72h-2.9V69.2z M56,69.2h2.9V72H56V69.2z M59.1,69.2H62V72h-2.9V69.2z M62.3,69.2
				h2.9V72h-2.9V69.2z M65.4,69.2h2.9V72h-2.9V69.2z M68.5,69.2h2.9V72h-2.9V69.2z M71.6,69.2h2.9V72h-2.9V69.2z M74.8,69.2h2.9V72
				h-2.9V69.2z M77.9,69.2h2.9V72h-2.9V69.2z M81,69.2h2.9V72H81V69.2z M81,68.9V66h2.9v2.9H81z M81,65.8v-2.9h2.9v2.9H81z M81,62.7
				v-2.9h2.9v2.9H81z M81,59.5v-2.9h2.9v2.9H81z M81,56.4v-2.9h2.9v2.9H81z M81,53.3v-2.9h2.9v2.9H81z M81,50.2v-2.9h2.9v2.9H81z
				 M81,47v-2.9h2.9V47H81z M81,43.9V41h2.9v2.9H81z M81,40.8v-2.9h2.9v2.9H81z M81,37.7v-2.9h2.9v2.9H81z M81,34.5v-2.9h2.9v2.9H81
				z M81,31.4v-2.9h2.9v2.9H81z M81,28.3v-2.9h2.9v2.9H81z M81,25.2v-2.9h2.9v2.9H81z M81,22v-2.9h2.9V22H81z M81,18.9V16h2.9v2.9
				H81z M81,15.8v-2.9h2.9v2.9H81z M81,12.7V9.8h2.9v2.9H81z M81,9.5V6.7h2.9v2.9H81z M80.8,9.5h-2.9V6.7h2.9V9.5z M77.6,9.5h-2.9
				V6.7h2.9V9.5z M74.5,9.5h-2.9V6.7h2.9V9.5z M71.4,9.5h-2.9V6.7h2.9V9.5z M68.3,9.5h-2.9V6.7h2.9V9.5z M65.1,9.5h-2.9V6.7h2.9V9.5
				z M62,9.5h-2.9V6.7H62V9.5z M58.9,9.5H56V6.7h2.9V9.5z M55.8,9.5h-2.9V6.7h2.9V9.5z M52.6,9.5h-2.9V6.7h2.9V9.5z M49.5,9.5h-2.9
				V6.7h2.9V9.5z M46.4,9.5h-2.9V6.7h2.9V9.5z M43.3,9.5h-2.9V6.7h2.9V9.5z M40.1,9.5h-2.9V6.7h2.9V9.5z M37,9.5h-2.9V6.7H37V9.5z
				 M33.9,9.5H31V6.7h2.9V9.5z M30.8,9.5h-2.9V6.7h2.9V9.5z M27.6,9.5h-2.9V6.7h2.9V9.5z M24.5,9.5h-2.9V6.7h2.9V9.5z M21.4,9.5
				h-2.9V6.7h2.9V9.5z M18.3,9.5h-2.9V6.7h2.9V9.5z M15.1,9.5h-2.9V6.7h2.9V9.5z M12,9.5H9.1V6.7H12V9.5z M8.9,9.5H6V6.7h2.9V9.5z
				 M5.8,9.5H2.9V6.7h2.9V9.5z M2.6,9.5h-2.9V6.7h2.9V9.5z M-0.5,9.5h-2.9V6.7h2.9V9.5z M-3.6,9.5h-2.9V6.7h2.9V9.5z M-6.7,9.5h-2.9
				V6.7h2.9V9.5z M-6.7,9.8v2.9h-2.9V9.8H-6.7z M-6.7,12.9v2.9h-2.9v-2.9H-6.7z M-6.7,16v2.9h-2.9V16H-6.7z M-6.7,19.2V22h-2.9v-2.9
				H-6.7z M-6.7,22.3v2.9h-2.9v-2.9H-6.7z M-6.7,25.4v2.9h-2.9v-2.9H-6.7z M-6.7,28.5v2.9h-2.9v-2.9H-6.7z M-6.7,31.7v2.9h-2.9v-2.9
				H-6.7z M-6.7,34.8v2.9h-2.9v-2.9H-6.7z M-6.7,37.9v2.9h-2.9v-2.9H-6.7z M-6.7,41v2.9h-2.9V41H-6.7z M-6.7,44.2V47h-2.9v-2.9H-6.7
				z M-6.7,47.3v2.9h-2.9v-2.9H-6.7z M-6.7,50.4v2.9h-2.9v-2.9H-6.7z M-6.7,53.5v2.9h-2.9v-2.9H-6.7z M-6.7,56.7v2.9h-2.9v-2.9H-6.7
				z M-6.7,59.8v2.9h-2.9v-2.9H-6.7z M-6.7,62.9v2.9h-2.9v-2.9H-6.7z M-6.7,66v2.9h-2.9V66H-6.7z M-6.7,69.2V72h-2.9v-2.9H-6.7z
				 M-6.7,72.3v2.9h-2.9v-2.9H-6.7z M-6.5,72.3h2.9v2.9h-2.9V72.3z M-3.4,72.3h2.9v2.9h-2.9V72.3z M-0.2,72.3h2.9v2.9h-2.9V72.3z
				 M2.9,72.3h2.9v2.9H2.9V72.3z M6,72.3h2.9v2.9H6V72.3z M9.1,72.3H12v2.9H9.1V72.3z M12.3,72.3h2.9v2.9h-2.9V72.3z M15.4,72.3h2.9
				v2.9h-2.9V72.3z M18.5,72.3h2.9v2.9h-2.9V72.3z M21.6,72.3h2.9v2.9h-2.9V72.3z M24.8,72.3h2.9v2.9h-2.9V72.3z M27.9,72.3h2.9v2.9
				h-2.9V72.3z M31,72.3h2.9v2.9H31V72.3z M34.1,72.3H37v2.9h-2.9V72.3z M37.3,72.3h2.9v2.9h-2.9V72.3z M40.4,72.3h2.9v2.9h-2.9
				V72.3z M43.5,72.3h2.9v2.9h-2.9V72.3z M46.6,72.3h2.9v2.9h-2.9V72.3z M49.8,72.3h2.9v2.9h-2.9V72.3z M52.9,72.3h2.9v2.9h-2.9
				V72.3z M56,72.3h2.9v2.9H56V72.3z M59.1,72.3H62v2.9h-2.9V72.3z M62.3,72.3h2.9v2.9h-2.9V72.3z M65.4,72.3h2.9v2.9h-2.9V72.3z
				 M68.5,72.3h2.9v2.9h-2.9V72.3z M71.6,72.3h2.9v2.9h-2.9V72.3z M74.8,72.3h2.9v2.9h-2.9V72.3z M77.9,72.3h2.9v2.9h-2.9V72.3z
				 M81,72.3h2.9v2.9H81V72.3z M84.1,72.3H87v2.9h-2.9V72.3z M84.1,72v-2.9H87V72H84.1z M84.1,68.9V66H87v2.9H84.1z M84.1,65.8v-2.9
				H87v2.9H84.1z M84.1,62.7v-2.9H87v2.9H84.1z M84.1,59.5v-2.9H87v2.9H84.1z M84.1,56.4v-2.9H87v2.9H84.1z M84.1,53.3v-2.9H87v2.9
				H84.1z M84.1,50.2v-2.9H87v2.9H84.1z M84.1,47v-2.9H87V47H84.1z M84.1,43.9V41H87v2.9H84.1z M84.1,40.8v-2.9H87v2.9H84.1z
				 M84.1,37.7v-2.9H87v2.9H84.1z M84.1,34.5v-2.9H87v2.9H84.1z M84.1,31.4v-2.9H87v2.9H84.1z M84.1,28.3v-2.9H87v2.9H84.1z
				 M84.1,25.2v-2.9H87v2.9H84.1z M84.1,22v-2.9H87V22H84.1z M84.1,18.9V16H87v2.9H84.1z M84.1,15.8v-2.9H87v2.9H84.1z M84.1,12.7
				V9.8H87v2.9H84.1z M84.1,9.5V6.7H87v2.9H84.1z M84.1,6.4V3.5H87v2.9H84.1z M83.9,6.4H81V3.5h2.9V6.4z M80.8,6.4h-2.9V3.5h2.9V6.4
				z M77.6,6.4h-2.9V3.5h2.9V6.4z M74.5,6.4h-2.9V3.5h2.9V6.4z M71.4,6.4h-2.9V3.5h2.9V6.4z M68.3,6.4h-2.9V3.5h2.9V6.4z M65.1,6.4
				h-2.9V3.5h2.9V6.4z M62,6.4h-2.9V3.5H62V6.4z M58.9,6.4H56V3.5h2.9V6.4z M55.8,6.4h-2.9V3.5h2.9V6.4z M52.6,6.4h-2.9V3.5h2.9V6.4
				z M49.5,6.4h-2.9V3.5h2.9V6.4z M46.4,6.4h-2.9V3.5h2.9V6.4z M43.3,6.4h-2.9V3.5h2.9V6.4z M40.1,6.4h-2.9V3.5h2.9V6.4z M37,6.4
				h-2.9V3.5H37V6.4z M33.9,6.4H31V3.5h2.9V6.4z M30.8,6.4h-2.9V3.5h2.9V6.4z M27.6,6.4h-2.9V3.5h2.9V6.4z M24.5,6.4h-2.9V3.5h2.9
				V6.4z M21.4,6.4h-2.9V3.5h2.9V6.4z M18.3,6.4h-2.9V3.5h2.9V6.4z M15.1,6.4h-2.9V3.5h2.9V6.4z M12,6.4H9.1V3.5H12V6.4z M8.9,6.4H6
				V3.5h2.9V6.4z M5.8,6.4H2.9V3.5h2.9V6.4z M2.6,6.4h-2.9V3.5h2.9V6.4z M-0.5,6.4h-2.9V3.5h2.9V6.4z M-3.6,6.4h-2.9V3.5h2.9V6.4z
				 M-6.7,6.4h-2.9V3.5h2.9V6.4z M-9.9,6.4h-2.9V3.5h2.9V6.4z M-9.9,6.7v2.9h-2.9V6.7H-9.9z M-9.9,9.8v2.9h-2.9V9.8H-9.9z
				 M-9.9,12.9v2.9h-2.9v-2.9H-9.9z M-9.9,16v2.9h-2.9V16H-9.9z M-9.9,19.2V22h-2.9v-2.9H-9.9z M-9.9,22.3v2.9h-2.9v-2.9H-9.9z
				 M-9.9,25.4v2.9h-2.9v-2.9H-9.9z M-9.9,28.5v2.9h-2.9v-2.9H-9.9z M-9.9,31.7v2.9h-2.9v-2.9H-9.9z M-9.9,34.8v2.9h-2.9v-2.9H-9.9z
				 M-9.9,37.9v2.9h-2.9v-2.9H-9.9z M-9.9,41v2.9h-2.9V41H-9.9z M-9.9,44.2V47h-2.9v-2.9H-9.9z M-9.9,47.3v2.9h-2.9v-2.9H-9.9z
				 M-9.9,50.4v2.9h-2.9v-2.9H-9.9z M-9.9,53.5v2.9h-2.9v-2.9H-9.9z M-9.9,56.7v2.9h-2.9v-2.9H-9.9z M-9.9,59.8v2.9h-2.9v-2.9H-9.9z
				 M-9.9,62.9v2.9h-2.9v-2.9H-9.9z M-9.9,66v2.9h-2.9V66H-9.9z M-9.9,69.2V72h-2.9v-2.9H-9.9z M-9.9,72.3v2.9h-2.9v-2.9H-9.9z
				 M-9.9,75.4v2.9h-2.9v-2.9H-9.9z M-9.6,75.4h2.9v2.9h-2.9V75.4z M-6.5,75.4h2.9v2.9h-2.9V75.4z M-3.4,75.4h2.9v2.9h-2.9V75.4z
				 M-0.2,75.4h2.9v2.9h-2.9V75.4z M2.9,75.4h2.9v2.9H2.9V75.4z M6,75.4h2.9v2.9H6V75.4z M9.1,75.4H12v2.9H9.1V75.4z M12.3,75.4h2.9
				v2.9h-2.9V75.4z M15.4,75.4h2.9v2.9h-2.9V75.4z M18.5,75.4h2.9v2.9h-2.9V75.4z M21.6,75.4h2.9v2.9h-2.9V75.4z M24.8,75.4h2.9v2.9
				h-2.9V75.4z M27.9,75.4h2.9v2.9h-2.9V75.4z M31,75.4h2.9v2.9H31V75.4z M34.1,75.4H37v2.9h-2.9V75.4z M37.3,75.4h2.9v2.9h-2.9
				V75.4z M40.4,75.4h2.9v2.9h-2.9V75.4z M43.5,75.4h2.9v2.9h-2.9V75.4z M46.6,75.4h2.9v2.9h-2.9V75.4z M49.8,75.4h2.9v2.9h-2.9
				V75.4z M52.9,75.4h2.9v2.9h-2.9V75.4z M56,75.4h2.9v2.9H56V75.4z M59.1,75.4H62v2.9h-2.9V75.4z M62.3,75.4h2.9v2.9h-2.9V75.4z
				 M65.4,75.4h2.9v2.9h-2.9V75.4z M68.5,75.4h2.9v2.9h-2.9V75.4z M71.6,75.4h2.9v2.9h-2.9V75.4z M74.8,75.4h2.9v2.9h-2.9V75.4z
				 M77.9,75.4h2.9v2.9h-2.9V75.4z M81,75.4h2.9v2.9H81V75.4z M84.1,75.4H87v2.9h-2.9V75.4z M87.3,75.4h2.9v2.9h-2.9V75.4z
				 M87.3,75.2v-2.9h2.9v2.9H87.3z M87.3,72v-2.9h2.9V72H87.3z M87.3,68.9V66h2.9v2.9H87.3z M87.3,65.8v-2.9h2.9v2.9H87.3z
				 M87.3,62.7v-2.9h2.9v2.9H87.3z M87.3,59.5v-2.9h2.9v2.9H87.3z M87.3,56.4v-2.9h2.9v2.9H87.3z M87.3,53.3v-2.9h2.9v2.9H87.3z
				 M87.3,50.2v-2.9h2.9v2.9H87.3z M87.3,47v-2.9h2.9V47H87.3z M87.3,43.9V41h2.9v2.9H87.3z M87.3,40.8v-2.9h2.9v2.9H87.3z
				 M87.3,37.7v-2.9h2.9v2.9H87.3z M87.3,34.5v-2.9h2.9v2.9H87.3z M87.3,31.4v-2.9h2.9v2.9H87.3z M87.3,28.3v-2.9h2.9v2.9H87.3z
				 M87.3,25.2v-2.9h2.9v2.9H87.3z M87.3,22v-2.9h2.9V22H87.3z M87.3,18.9V16h2.9v2.9H87.3z M87.3,15.8v-2.9h2.9v2.9H87.3z
				 M87.3,12.7V9.8h2.9v2.9H87.3z M87.3,9.5V6.7h2.9v2.9H87.3z M87.3,6.4V3.5h2.9v2.9H87.3z M87.3,3.3V0.4h2.9v2.9H87.3z M87,3.3
				h-2.9V0.4H87V3.3z M83.9,3.3H81V0.4h2.9V3.3z M80.8,3.3h-2.9V0.4h2.9V3.3z M77.6,3.3h-2.9V0.4h2.9V3.3z M74.5,3.3h-2.9V0.4h2.9
				V3.3z M71.4,3.3h-2.9V0.4h2.9V3.3z M68.3,3.3h-2.9V0.4h2.9V3.3z M65.1,3.3h-2.9V0.4h2.9V3.3z M62,3.3h-2.9V0.4H62V3.3z M58.9,3.3
				H56V0.4h2.9V3.3z M55.8,3.3h-2.9V0.4h2.9V3.3z M52.6,3.3h-2.9V0.4h2.9V3.3z M49.5,3.3h-2.9V0.4h2.9V3.3z M46.4,3.3h-2.9V0.4h2.9
				V3.3z M43.3,3.3h-2.9V0.4h2.9V3.3z M40.1,3.3h-2.9V0.4h2.9V3.3z M37,3.3h-2.9V0.4H37V3.3z M33.9,3.3H31V0.4h2.9V3.3z M30.8,3.3
				h-2.9V0.4h2.9V3.3z M27.6,3.3h-2.9V0.4h2.9V3.3z M24.5,3.3h-2.9V0.4h2.9V3.3z M21.4,3.3h-2.9V0.4h2.9V3.3z M18.3,3.3h-2.9V0.4
				h2.9V3.3z M15.1,3.3h-2.9V0.4h2.9V3.3z M12,3.3H9.1V0.4H12V3.3z M8.9,3.3H6V0.4h2.9V3.3z M5.8,3.3H2.9V0.4h2.9V3.3z M2.6,3.3
				h-2.9V0.4h2.9V3.3z M-0.5,3.3h-2.9V0.4h2.9V3.3z M-3.6,3.3h-2.9V0.4h2.9V3.3z M-6.7,3.3h-2.9V0.4h2.9V3.3z M-9.9,3.3h-2.9V0.4
				h2.9V3.3z M-13,3.3h-2.9V0.4h2.9V3.3z M-13,3.5v2.9h-2.9V3.5H-13z M-13,6.7v2.9h-2.9V6.7H-13z M-13,9.8v2.9h-2.9V9.8H-13z
				 M-13,12.9v2.9h-2.9v-2.9H-13z M-13,16v2.9h-2.9V16H-13z M-13,19.2V22h-2.9v-2.9H-13z M-13,22.3v2.9h-2.9v-2.9H-13z M-13,25.4
				v2.9h-2.9v-2.9H-13z M-13,28.5v2.9h-2.9v-2.9H-13z M-13,31.7v2.9h-2.9v-2.9H-13z M-13,34.8v2.9h-2.9v-2.9H-13z M-13,37.9v2.9
				h-2.9v-2.9H-13z M-13,41v2.9h-2.9V41H-13z M-13,44.2V47h-2.9v-2.9H-13z M-13,47.3v2.9h-2.9v-2.9H-13z M-13,50.4v2.9h-2.9v-2.9
				H-13z M-13,53.5v2.9h-2.9v-2.9H-13z M-13,56.7v2.9h-2.9v-2.9H-13z M-13,59.8v2.9h-2.9v-2.9H-13z M-13,62.9v2.9h-2.9v-2.9H-13z
				 M-13,66v2.9h-2.9V66H-13z M-13,69.2V72h-2.9v-2.9H-13z M-13,72.3v2.9h-2.9v-2.9H-13z M-13,75.4v2.9h-2.9v-2.9H-13z M-13,78.5
				v2.9h-2.9v-2.9H-13z M-12.7,78.5h2.9v2.9h-2.9V78.5z M-9.6,78.5h2.9v2.9h-2.9V78.5z M-6.5,78.5h2.9v2.9h-2.9V78.5z M-3.4,78.5
				h2.9v2.9h-2.9V78.5z M-0.2,78.5h2.9v2.9h-2.9V78.5z M2.9,78.5h2.9v2.9H2.9V78.5z M6,78.5h2.9v2.9H6V78.5z M9.1,78.5H12v2.9H9.1
				V78.5z M12.3,78.5h2.9v2.9h-2.9V78.5z M15.4,78.5h2.9v2.9h-2.9V78.5z M18.5,78.5h2.9v2.9h-2.9V78.5z M21.6,78.5h2.9v2.9h-2.9
				V78.5z M24.8,78.5h2.9v2.9h-2.9V78.5z M27.9,78.5h2.9v2.9h-2.9V78.5z M31,78.5h2.9v2.9H31V78.5z M34.1,78.5H37v2.9h-2.9V78.5z
				 M37.3,78.5h2.9v2.9h-2.9V78.5z M40.4,78.5h2.9v2.9h-2.9V78.5z M43.5,78.5h2.9v2.9h-2.9V78.5z M46.6,78.5h2.9v2.9h-2.9V78.5z
				 M49.8,78.5h2.9v2.9h-2.9V78.5z M52.9,78.5h2.9v2.9h-2.9V78.5z M56,78.5h2.9v2.9H56V78.5z M59.1,78.5H62v2.9h-2.9V78.5z
				 M62.3,78.5h2.9v2.9h-2.9V78.5z M65.4,78.5h2.9v2.9h-2.9V78.5z M68.5,78.5h2.9v2.9h-2.9V78.5z M71.6,78.5h2.9v2.9h-2.9V78.5z
				 M74.8,78.5h2.9v2.9h-2.9V78.5z M77.9,78.5h2.9v2.9h-2.9V78.5z M81,78.5h2.9v2.9H81V78.5z M84.1,78.5H87v2.9h-2.9V78.5z
				 M87.3,78.5h2.9v2.9h-2.9V78.5z M90.4,78.5h2.9v2.9h-2.9V78.5z M90.4,78.3v-2.9h2.9v2.9H90.4z M90.4,75.2v-2.9h2.9v2.9H90.4z
				 M90.4,72v-2.9h2.9V72H90.4z M90.4,68.9V66h2.9v2.9H90.4z M90.4,65.8v-2.9h2.9v2.9H90.4z M90.4,62.7v-2.9h2.9v2.9H90.4z
				 M90.4,59.5v-2.9h2.9v2.9H90.4z M90.4,56.4v-2.9h2.9v2.9H90.4z M90.4,53.3v-2.9h2.9v2.9H90.4z M90.4,50.2v-2.9h2.9v2.9H90.4z
				 M90.4,47v-2.9h2.9V47H90.4z M90.4,43.9V41h2.9v2.9H90.4z M90.4,40.8v-2.9h2.9v2.9H90.4z M90.4,37.7v-2.9h2.9v2.9H90.4z
				 M90.4,34.5v-2.9h2.9v2.9H90.4z M90.4,31.4v-2.9h2.9v2.9H90.4z M90.4,28.3v-2.9h2.9v2.9H90.4z M90.4,25.2v-2.9h2.9v2.9H90.4z
				 M90.4,22v-2.9h2.9V22H90.4z M90.4,18.9V16h2.9v2.9H90.4z M90.4,15.8v-2.9h2.9v2.9H90.4z M90.4,12.7V9.8h2.9v2.9H90.4z M90.4,9.5
				V6.7h2.9v2.9H90.4z M90.4,6.4V3.5h2.9v2.9H90.4z M90.4,3.3V0.4h2.9v2.9H90.4z M90.1-2.7v2.9h-2.9v-2.9H90.1z M87-2.7v2.9h-2.9
				v-2.9H87z M83.9-2.7v2.9H81v-2.9H83.9z M80.8-2.7v2.9h-2.9v-2.9H80.8z M77.6-2.7v2.9h-2.9v-2.9H77.6z M74.5-2.7v2.9h-2.9v-2.9
				H74.5z M71.4-2.7v2.9h-2.9v-2.9H71.4z M68.3-2.7v2.9h-2.9v-2.9H68.3z M65.1-2.7v2.9h-2.9v-2.9H65.1z M62-2.7v2.9h-2.9v-2.9H62z
				 M58.9-2.7v2.9H56v-2.9H58.9z M55.8-2.7v2.9h-2.9v-2.9H55.8z M52.6-2.7v2.9h-2.9v-2.9H52.6z M49.5-2.7v2.9h-2.9v-2.9H49.5z
				 M46.4-2.7v2.9h-2.9v-2.9H46.4z M43.3-2.7v2.9h-2.9v-2.9H43.3z M40.1-2.7v2.9h-2.9v-2.9H40.1z M37-2.7v2.9h-2.9v-2.9H37z
				 M33.9-2.7v2.9H31v-2.9H33.9z M30.8-2.7v2.9h-2.9v-2.9H30.8z M27.6-2.7v2.9h-2.9v-2.9H27.6z M24.5-2.7v2.9h-2.9v-2.9H24.5z
				 M21.4-2.7v2.9h-2.9v-2.9H21.4z M18.3-2.7v2.9h-2.9v-2.9H18.3z M15.1-2.7v2.9h-2.9v-2.9H15.1z M12-2.7v2.9H9.1v-2.9H12z M8.9-2.7
				v2.9H6v-2.9H8.9z M5.8-2.7v2.9H2.9v-2.9H5.8z M2.6-2.7v2.9h-2.9v-2.9H2.6z M-0.5-2.7v2.9h-2.9v-2.9H-0.5z M-3.6-2.7v2.9h-2.9
				v-2.9H-3.6z M-6.7-2.7v2.9h-2.9v-2.9H-6.7z M-9.9-2.7v2.9h-2.9v-2.9H-9.9z M-13-2.7v2.9h-2.9v-2.9H-13z"/>
		</g>
	</g>
</g>
<g id="XMLID_1_">
	<g id="XMLID_64_">
		<path class="st2" d="M31.7,41.5c-0.2,0-0.4-0.2-0.6-0.3c-0.2-0.2-0.4-0.5-0.4-0.9c0-0.3,0.1-0.7,0.4-0.9c0.2-0.2,0.3-0.3,0.6-0.3
			l0.4-0.1L32,38.5c-0.1-0.3-0.2-0.6-0.3-0.9c-0.1-0.3-0.2-0.5-0.4-0.8l-0.2-0.3l-0.3,0.2c-0.2,0.1-0.4,0.2-0.6,0.2
			c-0.3,0-0.7-0.1-0.9-0.4c-0.2-0.2-0.4-0.5-0.4-0.9c0-0.2,0-0.4,0.2-0.6l0.1-0.4l-0.3-0.2c-0.2-0.2-0.5-0.3-0.8-0.4
			c-0.3-0.1-0.6-0.2-0.9-0.3l-0.4-0.1L26.8,34c0,0.2-0.2,0.4-0.3,0.5c-0.5,0.5-1.3,0.5-1.8,0c-0.2-0.2-0.2-0.3-0.3-0.5l-0.1-0.4
			l-0.4,0.1c-0.3,0.1-0.6,0.2-0.9,0.3c-0.3,0.1-0.6,0.2-0.8,0.4l-0.3,0.2L22,35c0.1,0.2,0.2,0.4,0.2,0.6c0,0.3-0.1,0.7-0.4,0.9
			c-0.2,0.3-0.6,0.4-0.9,0.4c-0.2,0-0.4,0-0.6-0.2l-0.4-0.2l-0.2,0.3c-0.1,0.2-0.3,0.5-0.4,0.8c-0.1,0.3-0.2,0.6-0.3,0.9L19,38.9
			l0.4,0.1c0.2,0,0.4,0.2,0.5,0.3c0.2,0.2,0.4,0.6,0.4,0.9c0,0.3-0.1,0.7-0.4,0.9c-0.2,0.2-0.3,0.3-0.6,0.3L19,41.5l0.1,0.4
			c0.1,0.3,0.2,0.5,0.2,0.7l0,0.1c0.1,0.3,0.2,0.5,0.4,0.8l0.2,0.3l0.3-0.2c0.2-0.1,0.4-0.2,0.6-0.2c0.3,0,0.7,0.1,0.9,0.4
			s0.4,0.5,0.4,0.9c0,0.2,0,0.5-0.2,0.6l-0.2,0.4l0.3,0.2c0.3,0.2,0.5,0.3,0.8,0.4c0.3,0.1,0.6,0.2,0.8,0.3l0.4,0.1l0.1-0.4
			c0-0.2,0.2-0.4,0.3-0.6c0.5-0.5,1.3-0.5,1.8,0c0.2,0.2,0.3,0.3,0.3,0.6l0.1,0.4l0.4-0.1c0.3-0.1,0.6-0.2,0.8-0.3
			c0.3-0.1,0.6-0.2,0.8-0.4l0.3-0.2L29,45.5c-0.1-0.2-0.2-0.4-0.2-0.6c0-0.3,0.1-0.7,0.4-0.9c0.2-0.2,0.5-0.4,0.9-0.4
			c0.2,0,0.5,0,0.6,0.2L31,44l0.2-0.3c0.2-0.3,0.3-0.5,0.4-0.8c0.1-0.3,0.2-0.6,0.3-0.9l0.1-0.4L31.7,41.5z M31,42.5"/>
	</g>
	<g id="XMLID_2_">
		<path class="st1" d="M25.5,37c-1.8,0-3.3,1.5-3.3,3.3c0,1.8,1.5,3.3,3.3,3.3c1.8,0,3.3-1.5,3.3-3.3C28.8,38.4,27.3,37,25.5,37
			L25.5,37z M25.5,42.4c-1.2,0-2.2-1-2.2-2.2c0-1.2,1-2.2,2.2-2.2c1.2,0,2.2,1,2.2,2.2C27.7,41.4,26.7,42.4,25.5,42.4L25.5,42.4z
			 M25.5,42.4"/>
	</g>
</g>
<g id="XMLID_210_">
	<g id="XMLID_215_">
		<path class="st2" d="M53.2,33.2c-0.3-0.1-0.6-0.2-0.8-0.5c-0.4-0.4-0.5-0.8-0.5-1.3c0-0.5,0.2-1,0.5-1.3c0.2-0.2,0.5-0.4,0.8-0.5
			l0.5-0.2l-0.1-0.5c-0.1-0.4-0.2-0.8-0.4-1.3c-0.2-0.4-0.4-0.8-0.6-1.2l-0.3-0.5l-0.5,0.3c-0.3,0.2-0.6,0.2-0.9,0.2
			c-0.5,0-1-0.2-1.3-0.5c-0.4-0.4-0.5-0.8-0.5-1.3c0-0.3,0.1-0.6,0.2-0.9l0.2-0.6L49,22.8c-0.4-0.2-0.8-0.4-1.2-0.6
			c-0.4-0.2-0.8-0.3-1.3-0.4L46,21.6l-0.1,0.5c-0.1,0.3-0.2,0.6-0.5,0.8c-0.7,0.7-1.9,0.7-2.6,0c-0.2-0.2-0.4-0.5-0.5-0.8l-0.2-0.5
			l-0.5,0.1c-0.4,0.1-0.8,0.2-1.3,0.4c-0.4,0.2-0.8,0.4-1.2,0.6l-0.5,0.3l0.3,0.5c0.2,0.3,0.2,0.6,0.2,0.9c0,0.5-0.2,1-0.5,1.3
			c-0.4,0.4-0.8,0.6-1.3,0.6c-0.3,0-0.6-0.1-0.9-0.2l-0.5-0.2l-0.3,0.5c-0.2,0.4-0.4,0.7-0.6,1.2c-0.2,0.4-0.3,0.8-0.4,1.3l-0.1,0.5
			l0.5,0.1c0.3,0.1,0.6,0.2,0.8,0.5c0.4,0.4,0.5,0.8,0.5,1.3c0,0.5-0.2,1-0.5,1.3c-0.2,0.2-0.5,0.4-0.8,0.5l-0.5,0.2l0.2,0.5
			c0.1,0.4,0.2,0.8,0.4,1.1l0.1,0.2c0.2,0.4,0.4,0.8,0.6,1.2l0.2,0.5l0.5-0.3c0.3-0.2,0.5-0.2,0.9-0.2c0.5,0,1,0.2,1.3,0.5
			c0.4,0.4,0.5,0.8,0.5,1.3c0,0.3-0.1,0.7-0.2,0.9l-0.2,0.6l0.5,0.3c0.4,0.2,0.8,0.4,1.2,0.6c0.4,0.2,0.8,0.3,1.2,0.4l0.5,0.2
			l0.2-0.5c0.1-0.3,0.2-0.6,0.5-0.8c0.7-0.7,1.9-0.7,2.6,0c0.2,0.2,0.4,0.5,0.5,0.8l0.2,0.5l0.5-0.2c0.4-0.1,0.8-0.2,1.2-0.4
			c0.4-0.2,0.8-0.4,1.2-0.6l0.5-0.3l-0.2-0.5c-0.2-0.3-0.2-0.6-0.2-0.9c0-0.5,0.2-1,0.5-1.3c0.4-0.4,0.8-0.5,1.3-0.5
			c0.3,0,0.7,0.1,0.9,0.2l0.5,0.3l0.3-0.5c0.2-0.4,0.4-0.8,0.6-1.2c0.2-0.4,0.3-0.8,0.4-1.3l0.2-0.5L53.2,33.2z M52,34.7"/>
	</g>
	<g id="XMLID_211_">
		<path class="st1" d="M44,26.5c-2.7,0-4.8,2.2-4.8,4.8c0,2.7,2.2,4.8,4.8,4.8c2.7,0,4.8-2.2,4.8-4.8C48.9,28.7,46.7,26.5,44,26.5
			L44,26.5z M44,34.6c-1.8,0-3.2-1.4-3.2-3.2c0-1.8,1.4-3.2,3.2-3.2c1.8,0,3.2,1.4,3.2,3.2C47.2,33.1,45.8,34.6,44,34.6L44,34.6z
			 M44,34.6"/>
	</g>
</g>
<g id="XMLID_63_">
	<path class="st6" d="M60.7,54.2H23.5c-8.1,0-14.7-6.6-14.7-14.7s6.6-14.7,14.7-14.7c1.4,0,2.8,0.2,4.2,0.6
		c2-7.4,8.7-12.7,16.5-12.7c8.1,0,14.9,5.6,16.7,13.3c7.7,0.1,13.9,6.4,13.9,14.1C74.8,47.9,68.5,54.2,60.7,54.2z M23.5,28.8
		c-5.9,0-10.7,4.8-10.7,10.7s4.8,10.7,10.7,10.7h37.2c5.6,0,10.1-4.5,10.1-10.1S66.3,30,60.7,30c-0.4,0-0.8,0-1.3,0.1l-2,0.3l-0.2-2
		c-0.7-6.6-6.3-11.6-13-11.6c-6.7,0-12.3,5-13,11.7l-0.3,2.9l-2.6-1.3C26.8,29.2,25.2,28.8,23.5,28.8z"/>
</g>
<g id="XMLID_41_">
	<circle class="st1" cx="23.9" cy="77.3" r="3.8"/>
	<path class="st2" d="M23.9,82.1c-2.7,0-4.8-2.2-4.8-4.8c0-2.7,2.2-4.8,4.8-4.8c2.7,0,4.8,2.2,4.8,4.8C28.7,80,26.5,82.1,23.9,82.1z
		 M23.9,74.5c-1.6,0-2.8,1.3-2.8,2.8c0,1.6,1.3,2.8,2.8,2.8s2.8-1.3,2.8-2.8C26.7,75.8,25.4,74.5,23.9,74.5z"/>
</g>
<g id="XMLID_58_">
	<circle class="st1" cx="86.1" cy="40" r="3.8"/>
	<path class="st2" d="M86.1,44.8c-2.7,0-4.8-2.2-4.8-4.8c0-2.7,2.2-4.8,4.8-4.8c2.7,0,4.8,2.2,4.8,4.8
		C90.9,42.6,88.7,44.8,86.1,44.8z M86.1,37.2c-1.6,0-2.8,1.3-2.8,2.8s1.3,2.8,2.8,2.8c1.6,0,2.8-1.3,2.8-2.8S87.6,37.2,86.1,37.2z"
		/>
</g>
</svg>
