<?xml version="1.0" standalone="no"?><!DOCTYPE svg PUBLIC "-//W3C//DTD SVG 1.1//EN" "http://www.w3.org/Graphics/SVG/1.1/DTD/svg11.dtd"><svg t="1720255329609" class="icon" viewBox="0 0 1024 1024" version="1.1" xmlns="http://www.w3.org/2000/svg" p-id="17972" xmlns:xlink="http://www.w3.org/1999/xlink" width="32" height="32"><path d="M839.682194 205.238857v318.464c0 96.256-53.906286 192.731429-160.182857 286.866286-36.352 31.378286-74.898286 59.830857-114.541714 84.626286-8.484571 5.339429-16.969143 9.947429-25.161143 14.409142l-10.971429 5.997715c-50.907429-28.818286-102.4-65.097143-148.918857-105.033143C273.55648 716.434286 219.577051 619.958857 219.577051 523.702857V205.238857l310.857143-77.312L839.682194 205.238857z m45.129143-63.926857L538.479909 54.710857a27.062857 27.062857 0 0 0-17.334858-0.073143L174.521051 141.238857A36.205714 36.205714 0 0 0 146.287909 177.005714v346.697143c0 119.003429 62.756571 233.910857 186.514285 341.577143a1134.226286 1134.226286 0 0 0 165.814857 115.565714c2.413714 1.170286 4.608 2.194286 6.729143 3.072 3.510857 1.609143 6.582857 2.925714 9.654857 5.046857 4.827429 2.925714 10.605714 4.388571 16.384 4.388572a31.451429 31.451429 0 0 0 16.091429-4.242286 880.859429 880.859429 0 0 0 179.126857-123.904c123.684571-107.593143 186.441143-222.500571 186.441143-341.577143v-346.697143a36.205714 36.205714 0 0 0-28.233143-35.620571z" fill="var(--ci-primary-color, currentColor)" p-id="17973"></path><path d="M586.315337 375.296a51.785143 51.785143 0 0 1-52.516571 50.907429c-27.428571 0-52.516571-24.283429-52.516572-50.907429 0-28.013714 23.552-50.834286 52.516572-50.834286 31.451429 0 52.516571 20.48 52.516571 50.834286m-179.931428-1.682286c0 49.883429 31.305143 94.866286 78.262857 112.932572v272.091428c0 20.845714 15.067429 35.84 35.84 35.84 20.772571 0 35.84-14.994286 35.84-35.84v-27.428571h52.516571a27.867429 27.867429 0 0 0 29.110857-29.184 27.867429 27.867429 0 0 0-29.110857-29.184h-52.516571v-21.430857l55.881143 3.072c17.846857 0 30.72-12.214857 30.72-29.110857a27.867429 27.867429 0 0 0-29.110858-29.184h-52.516571V492.105143a121.344 121.344 0 0 0 96.694857-118.491429c0-67.510857-56.466286-122.441143-125.805714-122.441143-68.242286 0-125.805714 56.100571-125.805714 122.441143" fill="var(--ci-primary-color, currentColor)" p-id="17974"></path></svg>