<?xml version="1.0" standalone="no"?><!DOCTYPE svg PUBLIC "-//W3C//DTD SVG 1.1//EN" "http://www.w3.org/Graphics/SVG/1.1/DTD/svg11.dtd"><svg t="1720255690016" class="icon" viewBox="0 0 1024 1024" version="1.1" xmlns="http://www.w3.org/2000/svg" p-id="23164" xmlns:xlink="http://www.w3.org/1999/xlink" width="32" height="32"><path fill="var(--ci-primary-color, currentColor)" d="M684.8 832c-51.2 27.733333-108.8 42.666667-172.8 42.666667-200.533333 0-362.666667-162.133333-362.666667-362.666667v-21.333333-4.266667h91.733334c17.066667 0 25.6-17.066667 19.2-32l-96-172.8c-6.4-12.8-25.6-14.933333-34.133334-2.133333-38.4 57.6-59.733333 123.733333-64 198.4-2.133333 4.266667-2.133333 8.533333-2.133333 12.8v21.333333c0 247.466667 200.533333 448 448 448 76.8 0 149.333333-19.2 211.2-53.333333 21.333333-10.666667 27.733333-36.266667 17.066667-57.6-10.666667-21.333333-36.266667-27.733333-55.466667-17.066667z" p-id="23165"></path><path fill="var(--ci-primary-color, currentColor)" d="M401.066667 678.4l38.4-91.733333h142.933333l38.4 91.733333c8.533333 21.333333 34.133333 32 55.466667 23.466667 21.333333-8.533333 32-34.133333 23.466666-55.466667l-149.333333-362.666667c-6.4-17.066667-21.333333-25.6-38.4-25.6s-32 10.666667-40.533333 25.6l-149.333334 362.666667c-8.533333 21.333333 2.133333 46.933333 23.466667 55.466667 23.466667 8.533333 46.933333-2.133333 55.466667-23.466667zM512 411.733333l36.266667 89.6h-72.533334l36.266667-89.6z" p-id="23166"></path><path fill="var(--ci-primary-color, currentColor)" d="M960 512c0-247.466667-200.533333-448-448-448-76.8 0-149.333333 19.2-211.2 53.333333-21.333333 10.666667-27.733333 36.266667-17.066667 57.6 10.666667 21.333333 36.266667 27.733333 57.6 17.066667 51.2-27.733333 108.8-42.666667 172.8-42.666667 200.533333 0 362.666667 162.133333 362.666667 362.666667v25.6h-91.733333c-17.066667 0-25.6 17.066667-19.2 32l96 172.8c6.4 12.8 25.6 14.933333 34.133333 2.133333 38.4-57.6 59.733333-123.733333 64-198.4V512z" p-id="23167"></path></svg>