<?xml version="1.0" standalone="no"?><!DOCTYPE svg PUBLIC "-//W3C//DTD SVG 1.1//EN" "http://www.w3.org/Graphics/SVG/1.1/DTD/svg11.dtd"><svg t="1720255453724" class="icon" viewBox="0 0 1024 1024" version="1.1" xmlns="http://www.w3.org/2000/svg" p-id="22128" xmlns:xlink="http://www.w3.org/1999/xlink" width="32" height="32"><path d="M732.32 160c-11.424 0-23.776 3.776-36.16 10.944C661.44 191.04 592.608 224 512 224s-149.408-32.96-184.192-53.056C315.456 163.776 303.104 160 291.648 160c-14.272 0-27.936 5.728-37.984 15.872L77.184 354.24l135.904 135.872 14.816-14.816C250.08 453.12 288 468.8 288 500.16V832a32 32 0 0 0 32 32h384a32 32 0 0 0 32-32V500.032c0-31.36 37.92-47.072 60.096-24.896l14.912 14.912 135.872-135.872-176.544-178.304A53.504 53.504 0 0 0 732.352 160zM800 559.392V832a96 96 0 0 1-96 96H320a96 96 0 0 1-96-96v-272.512a48 48 0 0 1-44.864-12.8L20.672 388.224a48 48 0 0 1-0.16-67.68l187.648-189.696A117.472 117.472 0 0 1 291.68 96c25.344 0 48.704 8.256 68.192 19.52C390.528 133.28 447.744 160 512 160c64.224 0 121.472-26.72 152.128-44.48 19.488-11.264 42.848-19.52 68.192-19.52 31.36 0 61.44 12.544 83.52 34.848l187.744 189.6a48 48 0 0 1-0.192 67.712l-158.432 158.464a48 48 0 0 1-44.96 12.8z" fill="var(--ci-primary-color, currentColor)" p-id="22129"></path></svg>