<?xml version="1.0" standalone="no"?><!DOCTYPE svg PUBLIC "-//W3C//DTD SVG 1.1//EN" "http://www.w3.org/Graphics/SVG/1.1/DTD/svg11.dtd"><svg t="1720254465307" class="icon" viewBox="0 0 1024 1024" version="1.1" xmlns="http://www.w3.org/2000/svg" p-id="5421" width="32" height="32" xmlns:xlink="http://www.w3.org/1999/xlink"><path d="M384 128a32 32 0 0 1 32-32h192a32 32 0 0 1 32 32v192a32 32 0 0 1-32 32h-64v128h256a64 64 0 0 1 64 64v128h64a32 32 0 0 1 32 32v192a32 32 0 0 1-32 32h-192a32 32 0 0 1-32-32v-192a32 32 0 0 1 32-32h64v-128h-256v128h64a32 32 0 0 1 32 32v192a32 32 0 0 1-32 32h-192A32 32 0 0 1 384 896v-192a32 32 0 0 1 32-32h64v-128h-256v128h64a32 32 0 0 1 32 32v192a32 32 0 0 1-32 32h-192A32 32 0 0 1 64 896v-192a32 32 0 0 1 32-32h64v-128a64 64 0 0 1 64-64h256v-128h-64A32 32 0 0 1 384 320V128z m64 160h128v-128H448v128z m-320 448v128h128v-128H128z m320 128h128v-128H448v128z m320-128v128h128v-128h-128z" fill="var(--ci-primary-color, currentColor)" p-id="5422"></path></svg>