<svg viewBox="0 0 512 512" xmlns="http://www.w3.org/2000/svg"><text x="729.64001" y="231.36"><tspan x="729.64001" y="231.36"/></text><text transform="scale(4.0128 .2492)" x="378.91" y="579.25"/><text x="1310.91" y="151.36"><tspan x="1310.91" y="151.36"/></text><text transform="scale(4.0128 .2492)" x="523.76001" y="258.22"/><text x="239.33" y="-29.900999"><tspan x="239.33" y="-29.900999"/></text><text transform="scale(4.0128 .2492)" x="256.72" y="-469.14001"/><text x="1337.38" y="-246.37"><tspan x="1337.38" y="-246.37"/></text><text transform="scale(4.0128 .2492)" x="530.35999" y="-1337.8101"/><text x="1918.65" y="-326.38"><tspan x="1918.65" y="-326.38"/></text><text transform="scale(4.0128 .2492)" x="675.21002" y="-1658.85"/><text x="1529.53" y="-798.78003"><tspan x="1529.53" y="-798.78003"/></text><text transform="scale(4.0128 .2492)" x="578.23999" y="-3554.51"/><text x="2110.79" y="-878.78003"><tspan x="2110.79" y="-878.78003"/></text><text transform="scale(4.0128 .2492)" x="723.09003" y="-3875.54"/><text x="277.98999" y="535.94"><tspan x="277.98999" y="535.94"/></text><path d="m471.95 253.05c0 120.9-98.01 218.9-218.9 218.9-120.9 0-218.9-98.01-218.9-218.9 0-120.9 98.01-218.9 218.9-218.9 120.9 0 218.9 98.01 218.9 218.9" fill="#0279ad" fill-rule="evenodd"/><path d="m256.73 32.577c-119.06 0-216.41 93.37-223.62 211.27 2.263 5.493 7.424 9.187 10.357 14.599l1.414 13.07 2.37-12.12 26.1 11.08 18.04 16.893 15.479 2.293c-5.528 12.662-16.713 33.06-14.676 47.2 1.185 8.221 9.466 19.947 14.217 26.638 6.637 9.346 19.17 14.873 22.511 26.638l.535 19.377 3.631 14.523c-.6 5.087-4.576 13.239-3.822 19.15 10.253 7.143 21.13 13.435 32.524 18.804 1.994-1.897 1.739-5.998-.077-8.905l8.828-12.345 11.198-8.37 7.873-27.632 16.969-11.122c6.946-10.534 1.911-19.296 4.51-30.12l11.427-32.677c-12.92-4.898-31.435-10.909-40.55-21.785l-2.37 1.223-2.408-10.892-14.294-7.262-2.37 2.408-3.593-16.931-19.07-1.567-14.332-7.911c-6.171-.891-14.341 9.342-16.663 14.294l-8.37-1.185 2.408-2.446-7.147-4.854 1.185 4.854c-5.142-5.397-6.03-12.205-4.777-19.377l-8.332-3.631-1.223 3.631c-1.491-5.99-.862-13.726 3.593-18.15-6.534-4.525-10.926-.267-15.479 4.854l-9.555-19.377c-2.627 5.941-1.669 11.867-1.185 18.15h-2.408c-.527-6.773-2.159-14.178 1.223-20.562 6.32-11.93 25.301-16.963 36.957-14.523l-1.223 2.408 10.739 9.708c.049-18.508 7.236-20.464 17.313-33.938l7.03-12.994c7.82-8.732 19.967-14.686 30.46-18.612l13.147-8.293c-4.256-7.479-15.442-5.339-22.625-4.854 12.917-7.462 30.479-3.419 39.33-16.931-9.652-7.131-9.652-25.736-25.03-18.15l2.37-7.262-13.11-6.077-9.555 20.256-13.11 16.05-1.185-8.446c-5.04-2.378-18.915-6.559-19.19-13.338-.294-7.368 22.13-18.498 27.556-22.969l-2.408 6.04 9.249-.879c1.959-1.256 20.545-27.871 22.931-11.236 12.927 4.975 14.404 10.677 27.441 2.446l-8.332-3.669c-1.315-11.954-11.728-12.07-21.479-12.08l30.995-14.523c3.451 8.594 14.269 10.353 17.772 18.268 2.488 5.624-4.888 9.01-4.701 14.408.231 6.653 6.6 14.787 9.593 20.562l17.925-19.874c9.897-5.357 25.827-5.944 33.709-14.599 9.125-10.02 4.104-25.966 21.1-26.03-3.448-1.473-9-2.591-11.924 0l-3.593-3.631h4.777c-2.493-3.471-4.163-5.364-8.332-6.077-.974-1.223-2.229-2.042-3.631-2.637-3.657-.178-7.344-.268-11.05-.268m104.07 35.581c-4.191 3.484-11.301 5.241-16.663 6.077l-9.746 13.606-11.351 9.593c-1.828 4.409 1.086 11.08 1.987 15.517l11.924-6.04c1.715 6.01 6.362 7.559 10.739 10.892 7.07-13.616.985-26.635 17.886-33.9l-10.739 13.338 3.593-2.446 1.185 7.262 1.185-9.669c3.149 10.919-.146 25.918-11.924 30.04l-11.924-.994v-7.262c-6.781 1.437-6.526 4.865-4.739 10.892-4.602-1.328-7.348-1.107-10.739 2.408-3.642-3.8-6.607-6.688-7.147-12.08-2.315-2.341-3.354-3.935-3.593-7.262l-8.332-1.223 3.554 19.377c-3.181-6.06-6.475-7.537-13.11-6.077l3.593 14.523 4.777-1.185-3.593-1.223 4.777-8.485 2.37 13.338 10.739-2.446c-3.01 2.916-5.409 3.624-9.555 3.631l1.223 3.631h-5.962l8.332 14.523c-19.535.164-19.761 10.318-19.07 26.638 3.813.279 5.668.852 8.332 3.631 15.776-8.439 19.413-24.12 38.14-29.05 3.039 9.595 12.439 9.02 9.555 20.6 9.202-1.907 11.778-9.789 5.962-16.969 7.84 4.741 10.08 14.476 15.478 21.785 3.801-5.067 2.342-10.858 8.37-14.523v3.631c10.1 9.1 17.07 11.152 29.81 15.746-4.379 6.311-9.662 12.48-17.886 11.962-10.07-.633-22.918-10.649-29.81 1.338l-19.19-15.44c-10.641-4.556-21.1-.248-32.07-1.491l-4.777 2.408 2.37 1.223c-21.843 9.977-33.959 36.25-36.23 58.09l-4.166 14.523c2.323 14.184 14.175 28.872 24.12 38.524 7 6.795 12.03-6.486 18.689.229 8.812-3.387 22.11-9.299 30.19.153 5.309 6.211-.237 11.356 1.605 18 3.187 11.498 10.796 24.971 10.778 37.531l-2.981 30.23c2.612 18.436 12.684 33.959 12.841 53.28 14.618-1.529 31.06-8.993 39.17-21.785l3.478-10.778 6.04-7.491-2.293-11.886c3.412-8.314 17.222-9.223 19.3-18.307 2.83-12.367-4.562-27.01-.153-39.9 6.8-19.868 25.735-34.418 26.26-56.907l-14.294 1.223c12.868-16.03 40.13-24.1 26.22-48.42l-5.962 7.262h-2.37c-4.604-9.807-11.915-10.83-11.924-23.01 11.161 9.752 22.707 10.06 33.365 21.785.973-.535 1.783-1.211 2.446-2.026-8.147-62.56-41.822-117.04-90.16-152.53-9.09-.905-19.831-2.204-25.53-7.605h-2.408v-.038" fill="#fff" fill-opacity=".437"/><path d="m327.47 135.69c-22.939.003-41.525 18.456-41.875 41.31.333.209.641.44.969.656-.003.115.002.228 0 .344.342.215.663.465 1 .688-.002.094.001.187 0 .281.342.215.663.465 1 .688-.002.105.002.208 0 .313.342.215.663.465 1 .688-.002.105.002.208 0 .313.342.215.663.465 1 .688-.002.105.002.208 0 .313.342.215.663.465 1 .688-.002.105.002.208 0 .313.333.209.641.44.969.656-.003.115.002.228 0 .344.342.215.663.465 1 .688-.002.103.002.209 0 .313.339.213.666.436 1 .656-.002.105.002.208 0 .313.342.215.663.465 1 .688-.002.105.002.208 0 .313.342.215.663.465 1 .688-.002.105.002.208 0 .313.342.215.663.465 1 .688-.002.105.002.208 0 .313.333.209.641.44.969.656-.003.115.002.228 0 .344.337.212.668.437 1 .656-.003.113.002.23 0 .344.339.213.666.436 1 .656-.002.105.002.208 0 .313.342.215.663.465 1 .688-.002.105.002.208 0 .313.152.095.287.216.438.313 3.743 5.867 6.344 12.534 7.469 19.688-.047-.047-.109-.079-.156-.125-.327-.34-.662-.671-1-1-.381-.397-.791-.775-1.188-1.156-.317-.349-.671-.662-1-1-.06-.066-.127-.122-.188-.188-.08-.076-.138-.175-.219-.25-.515-.55-1.05-1.072-1.594-1.594-.273-.28-.563-.54-.844-.813-.022-.02-.041-.043-.063-.063-.328-.339-.661-.672-1-1-.349-.361-.701-.715-1.063-1.063-.317-.349-.671-.662-1-1-.06-.066-.127-.122-.188-.188-.08-.076-.138-.175-.219-.25-.515-.55-1.05-1.072-1.594-1.594-.273-.28-.563-.54-.844-.813-.022-.02-.041-.043-.063-.063-.328-.339-.661-.672-1-1-.292-.302-.574-.613-.875-.906-.522-.544-1.043-1.079-1.594-1.594-.161-.172-.336-.33-.5-.5-.17-.164-.328-.339-.5-.5-.125-.125-.248-.252-.375-.375-.342-.356-.708-.687-1.063-1.031-.022-.02-.041-.043-.063-.063-.328-.339-.661-.672-1-1-.292-.302-.574-.613-.875-.906-.522-.544-1.043-1.079-1.594-1.594-7.588-7.588-18.08-12.281-29.656-12.281-4.681 0-9.171.772-13.375 2.188-.156-.17-.31-.333-.469-.5-.366-.419-.741-.817-1.125-1.219-.326-.37-.66-.737-1-1.094-.326-.371-.66-.736-1-1.094-.376-.429-.762-.838-1.156-1.25-.309-.351-.615-.692-.938-1.031-.345-.394-.702-.777-1.063-1.156-.465-.531-.944-1.059-1.438-1.563-.114-.126-.228-.25-.344-.375-.565-.66-1.142-1.286-1.75-1.906-.193-.213-.396-.416-.594-.625-.489-.56-.98-1.125-1.5-1.656-.104-.115-.207-.23-.313-.344-.474-.554-.996-1.068-1.5-1.594-.445-.503-.874-1.021-1.344-1.5-.184-.203-.375-.395-.563-.594-.406-.465-.823-.898-1.25-1.344-.24-.271-.471-.548-.719-.813-.432-.499-.888-.992-1.344-1.469-.275-.31-.56-.605-.844-.906-.409-.469-.82-.925-1.25-1.375-.332-.375-.686-.732-1.031-1.094-.298-.337-.598-.673-.906-1-.501-.572-.999-1.145-1.531-1.688-.216-.238-.435-.455-.656-.688-.317-.36-.639-.714-.969-1.063-.331-.377-.687-.729-1.031-1.094-.377-.43-.762-.867-1.156-1.281-7.682-8.688-18.901-14.156-31.406-14.156-23.16 0-41.938 18.746-41.938 41.906 0 14.02 6.899 26.419 17.469 34.03.116.09.227.193.344.281.224.158.46.315.688.469.35.272.704.552 1.063.813.052.041.104.085.156.125.217.156.437.317.656.469.072.053.146.103.219.156.07.055.148.102.219.156.216.156.405.348.625.5.058.046.129.079.188.125.209.153.413.319.625.469.405.307.802.614 1.219.906.012.009.02.022.031.031.208.156.414.317.625.469.452.35.908.7 1.375 1.031.207.158.415.315.625.469.42.33.848.655 1.281.969.347.27.706.522 1.063.781.286.223.583.441.875.656.635.504 1.271 1 1.938 1.469.03.022.064.04.094.063.138.111.266.234.406.344h-7.656c-29.604 0-53.688 24.09-53.688 53.688v43.531c.003.02.125.688.125.688l.875.281v.031c.003.02.125.656.125.656l.875.281v.063c.003.02.125.656.125.656l.875.281v.062c.003.02.094.656.094.656l.906.281v.031c.003.02.094.688.094.688l.906.281v.031c.003.02.094.688.094.688l.906.281v.031c.003.02.094.688.094.688l.875.281v.031c.003.02.125.656.125.656l.875.281v.063c.003.02.125.656.125.656l.875.281v.063c.003.019.125.656.125.656l.875.281v.031c.003.019.094.688.094.688l.906.281v.031c.003.019.094.688.094.688l.906.281v.031c.003.019.094.688.094.688l.875.281v.031c.003.019.125.656.125.656l.875.281v.063c.003.019.125.656.125.656l.875.281v.063c.003.019.125.656.125.656l.875.281v.031c.003.019.094.688.094.688l.906.281v.031c.003.019.094.688.094.688l.906.281v.031c.003.019.094.688.094.688l.875.281v.031c.003.019.125.688.125.688l.875.281v.031c.003.018.125.656.125.656l.875.281v.063l.125.656.875.281v.031c.003.018.094.688.094.688l.906.281v.031c.003.018.094.688.094.688l.906.281v.031c.003.018.094.688.094.688l.875.281v.031c.003.018.125.688.125.688l.875.281v.031c.003.018.125.656.125.656l.875.281v.063c.003.018.125.656.125.656l.875.281v.063c.003.018.125.656.125.656l.875.281v.031c.003.017.094.688.094.688l.906.281v.031c.003.017.094.688.094.688l.906.281v.031c.003.017.094.688.094.688l.875.281v.031c.003.017.125.656.125.656l.875.281v.063c.003.017.125.656.125.656l.875.281v.063c.003.017.125.656.125.656l.875.281v.031c.003.017.094.688.094.688l.906.281v.031c.003.017.094.688.094.688l.906.281v.031c.003.017.094.688.094.688l.875.281v.031c.003.017.125.656.125.656l.875.281v.063c.003.017.125.656.125.656l.875.281v.063c.003.016.125.656.125.656l.875.281v.031c.003.016.094.688.094.688l.906.281v.031c.003.016.094.688.094.688l.906.281v.031c.003.016.094.688.094.688l.875.281v.031c.003.016.125.688.125.688l.875.281v.031c.003.016.125.656.125.656l.875.281v.063l.125.656.875.281v.031c.003.016.125.688.125.688l.875.281v.031c.003.015.094.688.094.688l.906.281v.031c.003.015.094.688.094.688l.875.281v.031c.003.015.125.688.125.688l.875.281v.031c.002.015.125.656.125.656l.875.281v.063c.002.015.125.656.125.656l.875.281v.063c.002.015.125.656.125.656l.875.281v.031c.002.015.094.688.094.688l.906.281v.031c.002.015.094.688.094.688l.906.281v.031l.094.688.875.281v.031c.002.015.125.656.125.656l.875.281v.063c.002.014.125.656.125.656l.875.281v.063c.002.014.125.656.125.656l.875.281v.031c.002.014.094.688.094.688l.906.281v.031c.002.014.094.688.094.688l.906.281v.031c.002.014.094.688.094.688l.875.281v.031c.002.014.125.688.125.688l.875.281v.031c.002.014.125.656.125.656l.875.281v.063c.002.014.125.656.125.656l.875.281v.031c.002.014.094.688.094.688l.906.281v.031c.002.014.094.688.094.688l.906.281v.031c.002.014.094.688.094.688l.875.281v.031c.002.013.125.688.125.688l.875.281v.031c.002.013.125.656.125.656l.875.281v.063c.002.013.125.656.125.656l.875.281v.063c.002.013.125.656.125.656l.875.281v.031c.002.013.094.688.094.688l.906.281v.031c.002.013.094.688.094.688l.906.281v.031c.002.013.094.688.094.688l.875.281v.031c.002.013.125.656.125.656l.875.281v.063c.002.013.125.656.125.656l.875.281v.063c.002.012.125.656.125.656l.875.281v.031c.002.012.094.688.094.688l.906.281v.031c.002.012.094.688.094.688l.906.281v.031l.094.688.875.281v.031c.002.012.125.656.125.656l.875.281v.063c.002.012.125.656.125.656l.875.281v.063c.002.012.125.656.125.656l.875.281v.031c.002.012.094.688.094.688l.906.281v.031c.002.012.094.688.094.688l.906.281v.031c.002.012.094.688.094.688l.875.281v.031c.002.012.125.688.125.688l.875.281v.031c.002.011.125.656.125.656l.875.281v.063c.002.011.125.656.125.656l.875.281v.031c.002.011.125.688.125.688l.875.281v.031c.002.011.094.688.094.688l.906.281v.031c.002.011.094.688.094.688l.875.281v.031c.002.011.125.688.125.688l.875.281v.031c.002.011.125.656.125.656l.875.281v.063c.002.011.125.656.125.656l.875.281v.063c.002.011.125.656.125.656l.875.281v.031c.002.01.094.688.094.688l.906.281v.031c.002.01.094.688.094.688l.906.281v.031c.002.01.094.688.094.688l.875.281v.031c.002.01.125.656.125.656l.875.281v.063c.002.01.125.656.125.656l.875.281v.063c.002.01.125.656.125.656l.875.281v.031c.002.01.094.688.094.688l.906.281v.031c.002.01.094.688.094.688l.906.281v.031c.002.01.094.688.094.688l.875.281v.031c.002.01.125.688.125.688l.875.281v.031c.002.009.125.656.125.656l.875.281v.063c.002.009.125.656.125.656l.875.281v.031c.002.009.094.688.094.688l.906.281v.031c.001.009.094.688.094.688l.906.281v.031c.001.009.094.688.094.688l.875.281v.031c.001.009.125.688.125.688l.875.281v.031c.001.009.125.656.125.656l.875.281v.063c.001.009.125.656.125.656l.875.281v.063c.001.009.125.656.125.656l.875.281v.031c.001.009.094.688.094.688l.906.281v.031c.001.008.094.688.094.688l.906.281v.031c.001.008.094.688.094.688l.875.281v.031c.001.008.125.656.125.656l.875.281v.063c.001.008.125.656.125.656l.875.281v.063c.001.008.125.656.125.656l.875.281v.031c.001.008.094.688.094.688l.906.281v.031c.001.008.094.688.094.688l.906.281v.031c.001.008.094.688.094.688l.875.281v.031c.001.008.125.656.125.656l.875.281v.063c.001.008.125.656.125.656l.875.281v.063c.001.007.125.656.125.656l.875.281v.031c.001.007.094.688.094.688l.906.281v.031c.001.007.094.688.094.688l.906.281v.031c.001.007.094.688.094.688l.875.281v.031c.001.007.125.688.125.688l.875.281v.031c.001.007.125.656.125.656l.875.281v.063c.001.007.125.656.125.656l.875.281v.031c.001.007.094.688.094.688l.906.281v.031c.001.007.094.688.094.688l.906.281v.031c.001.007.094.688.094.688l.875.281v.031c.001.006.125.688.125.688l.875.281v.031c.001.006.125.656.125.656l.875.281v.063c.001.006.125.656.125.656l.875.281v.063c.001.006.125.656.125.656l.875.281v.031l.094.688.906.281v.031c.001.006.094.688.094.688l.906.281v.031c.001.006.094.688.094.688l.875.281v.031c.001.006.125.656.125.656l.875.281v.063c.001.006.125.656.125.656l.875.281v.063c.001.005.125.656.125.656l.875.281v.031c.001.005.094.688.094.688l.906.281v.031c.001.005.094.688.094.688l.906.281v.031c.001.005.094.688.094.688l.875.281v.031l.125.688.875.281v.031l.125.656.313.094c112.31-5.901 202.17-96.44 207-209.03-.206-.2-.419-.393-.625-.594-.022-.02-.041-.043-.063-.063-.292-.302-.574-.613-.875-.906-.357-.372-.723-.735-1.094-1.094-.493-.511-.981-1.015-1.5-1.5l-.188-.188c-.457-.482-.927-.946-1.406-1.406-.273-.28-.563-.54-.844-.813-.022-.02-.041-.043-.063-.063-.328-.339-.661-.672-1-1-.292-.302-.574-.613-.875-.906-.522-.544-1.043-1.079-1.594-1.594l-.188-.188c-.427-.451-.866-.881-1.313-1.313-.358-.37-.722-.737-1.094-1.094-.273-.28-.563-.54-.844-.813-.022-.02-.041-.043-.063-.063-.292-.302-.574-.613-.875-.906-.522-.544-1.043-1.079-1.594-1.594-.141-.141-.295-.267-.438-.406-.054-.049-.102-.107-.156-.156-.06-.066-.127-.122-.188-.188-.08-.076-.138-.175-.219-.25l-.188-.188c-.457-.482-.927-.946-1.406-1.406-.273-.28-.563-.54-.844-.813-.022-.02-.041-.043-.063-.063-.292-.302-.574-.613-.875-.906-.357-.372-.723-.735-1.094-1.094-.493-.511-.981-1.015-1.5-1.5l-.188-.188c-.457-.482-.927-.946-1.406-1.406-.273-.28-.563-.54-.844-.813-.022-.02-.041-.043-.063-.063-.292-.302-.574-.613-.875-.906-.325-.338-.664-.673-1-1-.522-.544-1.043-1.079-1.594-1.594l-.188-.188c-.457-.482-.927-.946-1.406-1.406-.327-.336-.662-.675-1-1-.273-.28-.563-.54-.844-.813-.022-.02-.041-.043-.063-.063-.292-.302-.574-.613-.875-.906-.522-.544-1.043-1.079-1.594-1.594l-.188-.188c-.427-.451-.866-.881-1.313-1.313-.358-.37-.722-.737-1.094-1.094-.273-.28-.563-.54-.844-.813-.022-.02-.041-.043-.063-.063-.292-.302-.574-.613-.875-.906-.522-.544-1.043-1.079-1.594-1.594-.141-.141-.295-.267-.438-.406-.054-.049-.102-.107-.156-.156-.06-.066-.127-.122-.188-.188-.08-.076-.138-.175-.219-.25l-.188-.188c-.457-.482-.927-.946-1.406-1.406-.273-.28-.563-.54-.844-.813-.022-.02-.041-.043-.063-.063-.292-.302-.574-.613-.875-.906-.357-.372-.723-.735-1.094-1.094-.493-.511-.981-1.015-1.5-1.5l-.188-.188c-.457-.482-.927-.946-1.406-1.406-.273-.28-.563-.54-.844-.813-.022-.02-.041-.043-.063-.063-.328-.339-.661-.672-1-1-.292-.302-.574-.613-.875-.906-.522-.544-1.043-1.079-1.594-1.594l-.188-.188c-.427-.451-.866-.881-1.313-1.313-.358-.37-.722-.737-1.094-1.094-.273-.28-.563-.54-.844-.813-.022-.02-.041-.043-.063-.063-.292-.302-.574-.613-.875-.906-.522-.544-1.043-1.079-1.594-1.594-.141-.141-.295-.267-.438-.406-.054-.049-.102-.107-.156-.156-.06-.066-.127-.122-.188-.188-.08-.076-.138-.175-.219-.25l-.188-.188c-.457-.482-.927-.946-1.406-1.406-.273-.28-.563-.54-.844-.813-.022-.02-.041-.043-.063-.063-.292-.302-.574-.613-.875-.906-.357-.372-.723-.735-1.094-1.094-.493-.511-.981-1.015-1.5-1.5l-.188-.188c-.457-.482-.927-.946-1.406-1.406-.273-.28-.563-.54-.844-.813-.022-.02-.041-.043-.063-.063-.292-.302-.574-.613-.875-.906-.325-.338-.664-.673-1-1-.522-.544-1.043-1.079-1.594-1.594l-.188-.188c-.457-.482-.927-.946-1.406-1.406-.327-.336-.662-.675-1-1-.273-.28-.563-.54-.844-.813-.022-.02-.041-.043-.063-.063-.292-.302-.574-.613-.875-.906-.522-.544-1.043-1.079-1.594-1.594l-.188-.188c-.427-.451-.866-.881-1.313-1.313-.358-.37-.722-.737-1.094-1.094-.273-.28-.563-.54-.844-.813-.022-.02-.041-.043-.063-.063-.292-.302-.574-.613-.875-.906-.522-.544-1.043-1.079-1.594-1.594-.141-.141-.295-.267-.438-.406-.054-.049-.102-.107-.156-.156-.06-.066-.127-.122-.188-.188-.08-.076-.138-.175-.219-.25l-.188-.188c-.457-.482-.927-.946-1.406-1.406-.273-.28-.563-.54-.844-.813-.022-.02-.041-.043-.063-.063-.292-.302-.574-.613-.875-.906-.357-.372-.723-.735-1.094-1.094-.493-.511-.981-1.015-1.5-1.5l-.188-.188c-.457-.482-.927-.946-1.406-1.406-.273-.28-.563-.54-.844-.813-.022-.02-.041-.043-.063-.063-.328-.339-.661-.672-1-1-.292-.302-.574-.613-.875-.906-.522-.544-1.043-1.079-1.594-1.594l-.188-.188c-.457-.482-.927-.946-1.406-1.406-.327-.336-.662-.675-1-1-.273-.28-.563-.54-.844-.813-.022-.02-.041-.043-.063-.063-.292-.302-.574-.613-.875-.906-.522-.544-1.043-1.079-1.594-1.594-.141-.141-.295-.267-.438-.406-.054-.049-.102-.107-.156-.156-.06-.066-.127-.122-.188-.188-.08-.076-.138-.175-.219-.25l-.188-.188c-.457-.482-.927-.946-1.406-1.406-.273-.28-.563-.54-.844-.813-.022-.02-.041-.043-.063-.063-.292-.302-.574-.613-.875-.906-.357-.372-.723-.735-1.094-1.094-.493-.511-.981-1.015-1.5-1.5l-.188-.188c-.457-.482-.927-.946-1.406-1.406-.273-.28-.563-.54-.844-.813-.022-.02-.041-.043-.063-.063-.292-.302-.574-.613-.875-.906-7.63-7.945-18.361-12.906-30.25-12.906" fill-opacity=".235"/><g fill-rule="evenodd"><path d="m256 1c-140.83 0-255 114.17-255 255s114.17 255 255 255 255-114.17 255-255-114.17-255-255-255m8.827 44.931c120.9 0 218.9 98 218.9 218.9s-98 218.9-218.9 218.9-218.93-98-218.93-218.9 98.03-218.9 218.93-218.9" fill-opacity=".067"/><g fill-opacity=".129"><path d="m256 4.433c-138.94 0-251.57 112.63-251.57 251.57s112.63 251.57 251.57 251.57 251.57-112.63 251.57-251.57-112.63-251.57-251.57-251.57m5.885 38.556c120.9 0 218.9 98 218.9 218.9s-98 218.9-218.9 218.9-218.93-98-218.93-218.9 98.03-218.9 218.93-218.9"/><path d="m256 8.356c-136.77 0-247.64 110.87-247.64 247.64s110.87 247.64 247.64 247.64 247.64-110.87 247.64-247.64-110.87-247.64-247.64-247.64m2.942 31.691c120.9 0 218.9 98 218.9 218.9s-98 218.9-218.9 218.9-218.93-98-218.93-218.9 98.03-218.9 218.93-218.9"/></g><path d="m253.04 7.859c-135.42 0-245.19 109.78-245.19 245.19 0 135.42 109.78 245.19 245.19 245.19 135.42 0 245.19-109.78 245.19-245.19 0-135.42-109.78-245.19-245.19-245.19zm0 26.297c120.9 0 218.9 98 218.9 218.9s-98 218.9-218.9 218.9-218.93-98-218.93-218.9 98.03-218.9 218.93-218.9z" fill="#fff" stroke="#000" stroke-opacity=".31" stroke-width="4.904"/></g><text x="729.64001" y="231.36"><tspan x="729.64001" y="231.36"/></text><text transform="scale(4.0128 .2492)" x="378.91" y="579.25"/><text x="1310.91" y="151.36"><tspan x="1310.91" y="151.36"/></text><text transform="scale(4.0128 .2492)" x="523.76001" y="258.22"/><text x="239.33" y="-29.900999"><tspan x="239.33" y="-29.900999"/></text><text transform="scale(4.0128 .2492)" x="256.72" y="-469.14001"/><text x="1337.38" y="-246.37"><tspan x="1337.38" y="-246.37"/></text><text transform="scale(4.0128 .2492)" x="530.35999" y="-1337.8101"/><text x="1918.65" y="-326.38"><tspan x="1918.65" y="-326.38"/></text><text transform="scale(4.0128 .2492)" x="675.21002" y="-1658.85"/><text x="1529.53" y="-798.78003"><tspan x="1529.53" y="-798.78003"/></text><text transform="scale(4.0128 .2492)" x="578.23999" y="-3554.51"/><text x="2110.79" y="-878.78003"><tspan x="2110.79" y="-878.78003"/></text><text transform="scale(4.0128 .2492)" x="723.09003" y="-3875.54"/><text x="277.98999" y="535.94"><tspan x="277.98999" y="535.94"/></text><path d="m285.58 176.99c13.22 8.289 22.49 22.315 24.18 38.596 5.388 2.519 11.375 3.968 17.715 3.968 23.16 0 41.932-18.772 41.932-41.928 0-23.16-18.768-41.932-41.932-41.932-22.939.003-41.547 18.44-41.896 41.3m-27.471 85.85c23.16 0 41.932-18.775 41.932-41.932 0-23.16-18.775-41.928-41.932-41.928-23.16 0-41.939 18.775-41.939 41.932 0 23.16 18.782 41.928 41.939 41.928m17.783 2.858h-35.577c-29.604 0-53.689 24.09-53.689 53.689v43.516l.111.682 2.997.938c28.25 8.824 52.797 11.771 72.999 11.771 39.459 0 62.33-11.25 63.744-11.967l2.801-1.42h.3v-43.52c.003-29.601-24.08-53.689-53.685-53.689m69.38-43.29h-35.31c-.382 14.13-6.412 26.846-15.946 35.995 26.315 7.825 45.564 32.23 45.564 61.05v13.409c34.86-1.281 54.948-11.157 56.27-11.825l2.801-1.42h.3v-43.523c0-29.601-24.08-53.685-53.685-53.685m-160.74-2.858c8.203 0 15.835-2.394 22.3-6.472 2.055-13.405 9.241-25.12 19.507-33.1.043-.785.118-1.563.118-2.355 0-23.16-18.775-41.932-41.925-41.932-23.16 0-41.932 18.772-41.932 41.932 0 23.15 18.768 41.925 41.932 41.925m37.657 38.853c-9.491-9.102-15.5-21.755-15.939-35.795-1.309-.096-2.605-.2-3.939-.2h-35.577c-29.604 0-53.689 24.08-53.689 53.685v43.52l.111.674 2.997.942c22.664 7.079 42.892 10.337 60.46 11.364v-13.14c.007-28.823 19.253-53.22 45.575-61.05" fill="#fff"/></svg>