<svg viewBox="0 0 72 72" xmlns="http://www.w3.org/2000/svg"><path d="m35.8667 16.3788c-7.7171 0-15.6368 1.8276-19.9692 4.8061v16.314c0 12.5228 11.9812 18.6153 18.3445 22.4061a3.0225 3.0225 0 0 0 3.2494 0c6.6336-3.994 19.0216-9.4092 19.0216-22.4061v-16.314c-4.4678-2.9785-12.253-4.8061-20.6463-4.8061zm8.1613 22.16.9476 2.1662a.7326.7326 0 0 1 -.4058 1.0829l-2.2342 1.0155a2.0538 2.0538 0 0 0 -1.1507 1.0153l-.88 2.3016a.8841.8841 0 0 1 -1.0836.4737l-2.3013-1.0149a2.779 2.779 0 0 0 -1.4893 0l-2.1664.9475a.8527.8527 0 0 1 -1.0829-.406l-1.0153-2.2339a2.9215 2.9215 0 0 0 -1.0829-1.1506l-2.1664-.88a.8087.8087 0 0 1 -.5418-1.0832l1.0158-2.3013a1.7562 1.7562 0 0 0 -.1354-1.4216l-.88-2.2338a.9263.9263 0 0 1 .4741-1.151l2.2341-1.0152a2.0953 2.0953 0 0 0 1.1506-1.0155l.88-2.3016a.7232.7232 0 0 1 1.0153-.4061l2.3018 1.0153a2.0714 2.0714 0 0 0 1.557-.0675l2.1659-.9478a.8155.8155 0 0 1 1.0834.4061l1.0153 2.3016c.2031.4063.474 1.0155.9475 1.1506l2.3018.8124a.8587.8587 0 0 1 .5412 1.0832l-1.0154 2.3015a2.0653 2.0653 0 0 0 0 1.5569z" fill="#5c9e31"/><path d="m35.8666 16.3788c-.641 0-1.283.0171-1.9247.042 4.7673.1722 13.6272 2.1348 17.571 4.764v16.3141c0 12.7585-10.9338 18.21-17.6469 22.1837.1261.0745.2539.15.376.2224a3.0225 3.0225 0 0 0 3.2494 0c6.6335-3.994 19.0215-9.4092 19.0215-22.4061v-16.3141c-4.4677-2.9784-12.2529-4.806-20.6463-4.806z" fill="#b1cc33"/><path d="m35.8667 16.3788c-7.7171 0-15.6368 1.8276-19.9692 4.8061v16.314c0 12.5228 11.9812 18.6153 18.3445 22.4061a3.0225 3.0225 0 0 0 3.2494 0c6.6336-3.994 19.0216-9.4092 19.0216-22.4061v-16.314c-4.4678-2.9785-12.253-4.8061-20.6463-4.8061zm8.1613 22.16.9476 2.1662a.7326.7326 0 0 1 -.4058 1.0829l-2.2342 1.0155a2.0538 2.0538 0 0 0 -1.1507 1.0153l-.88 2.3016a.8841.8841 0 0 1 -1.0836.4737l-2.3013-1.0149a2.779 2.779 0 0 0 -1.4893 0l-2.1664.9475a.8527.8527 0 0 1 -1.0829-.406l-1.0153-2.2339a2.9215 2.9215 0 0 0 -1.0829-1.1506l-2.1664-.88a.8087.8087 0 0 1 -.5418-1.0832l1.0158-2.3013a1.7562 1.7562 0 0 0 -.1354-1.4216l-.88-2.2338a.9263.9263 0 0 1 .4741-1.151l2.2341-1.0152a2.0953 2.0953 0 0 0 1.1506-1.0155l.88-2.3016a.7232.7232 0 0 1 1.0153-.4061l2.3018 1.0153a2.0714 2.0714 0 0 0 1.557-.0675l2.1659-.9478a.8155.8155 0 0 1 1.0834.4061l1.0153 2.3016c.2031.4063.474 1.0155.9475 1.1506l2.3018.8124a.8587.8587 0 0 1 .5412 1.0832l-1.0154 2.3015a2.0653 2.0653 0 0 0 0 1.5569z" fill="none" stroke="#000" stroke-width="2"/></svg>