<svg viewBox="0 0 72 72" xmlns="http://www.w3.org/2000/svg"><path d="m14.1961 35.6519c-.2003-7.666 5.5788-16.3843 12.4516-16.6004 6.9307-.218 14.4147 10.2522 12.4099 17.1736h-3.1826s.7894-7.1326-2.2339-10.144c-1.5425-1.5365-4.5505-4.3006-7.4804-3.869-1.9766.2912-6.3916 2.8073-7.3105 4.5813-1.0274 1.9835-1.1693 8.8584-1.1693 8.8584h-3.4848z" style="fill:#d0cfce;stroke:#d0cfce;stroke-linecap:round;stroke-linejoin:round;stroke-miterlimit:10;stroke-width:2"/><path d="m41.6978 36.3614h1.6305v23.3711h-33.0456v-23.3711h1.6305z" fill="#fcea2b"/><path d="m42.9415 36.532-16.3229 23.0462h16.7902z" fill="#f1b31c"/><path d="m55.9395 32.5829c3.5838-1.818 6.0691-5.786 6.0691-10.3885 0-6.3218-4.689-11.4467-10.4731-11.4467s-10.4731 5.1249-10.4731 11.4467c0 5.1112 3.1002 10.0458 7.3573 10.6187" fill="#f4aa41"/><path d="m56.0267 32.3492-.0107 3.077.1555 20.7247-4.5014 4.5015-4.6603-4.6603 2.8829-2.883-3.157-3.1569 3.6417-3.6417-3.1406-3.1405.0138-2.9761 2.7098-2.7098-1.2413-1.2412v-3.8937" style="fill:#f4aa41;stroke:#f4aa41;stroke-linecap:round;stroke-linejoin:round;stroke-miterlimit:10;stroke-width:2"/><path d="m53.5436 57.0903 1.2007-1.202-.2191-19.8274-1.2138.0134z" fill="#e27022"/><ellipse cx="51.5355" cy="18.1091" fill="#e27022" rx="3.5206" ry="3.5206" transform="matrix(.7071 -.7071 .7071 .7071 2.2893 41.7451)"/><g style="stroke-linecap:round;stroke-linejoin:round;stroke-miterlimit:10;stroke-width:2;fill:none;stroke:#000"><path d="m39.4673 33.4202c.5811-8.0338-5.889-14.5868-12.8196-14.3688-6.8728.2162-12.4516 7.0826-12.4516 14.3688"/><path d="m41.6978 36.3207h1.6305v23.3711h-33.0456v-23.3711h1.6305z"/><path d="m17.8248 33.4202c0-5.5092 3.979-10.701 8.8809-10.8645 4.9432-.1648 9.5578 4.79 9.1434 10.8645"/><path d="m56.0253 36.0256.2562 20.446-4.5606 4.5606-4.7656-4.7656 2.9208-2.9208-3.2283-3.2283 3.6895-3.6895-3.2115-3.2115v-3.0292l2.7454-2.7454-1.2693-1.2693"/><ellipse cx="51.5355" cy="18.1091" rx="3.5206" ry="3.5206" transform="matrix(.7071 -.7071 .7071 .7071 2.2893 41.7451)"/><path d="m56.0171 31.6362c3.5704-1.7692 6.0267-5.5901 5.9932-10-.0461-6.0573-4.7723-10.9321-10.5563-10.8882-5.784.044-10.4355 4.9901-10.3894 11.0475.0372 4.8974 3.1337 9.0217 7.3751 10.3985"/></g></svg>