<svg viewBox="0 0 512 512" xmlns="http://www.w3.org/2000/svg"><g fill-rule="evenodd"><path d="m471.95 253.05c0 120.9-98.01 218.91-218.91 218.91s-218.91-98.01-218.91-218.91 98.01-218.91 218.91-218.91 218.91 98.01 218.91 218.91" fill="#49a026"/><path d="m250.81 104.44c-25.21.891-39.757 27.511-62.781 36.16-21.483 14.509-51.994 21.625-70.75 34.438 2.813 67.837 25.64 135.85 67.16 189.84 33.23 35.867 68.71 69.64 103.16 104.38 104.48-16.57 184.34-107.05 184.34-216.19 0-1.221-.011-2.44-.031-3.656-2.319-2.422-4.603-4.855-7.344-6.969-3.672-4.845-8.938-8.512-12.594-13.375-5.127-3.905-8.614-9.04-13.75-12.938-3.628-4.881-8.923-8.505-12.563-13.375-5.126-3.905-8.612-9.04-13.75-12.938-3.638-4.888-8.95-8.532-12.594-13.406-10.418-9.683-32.16-12.181-46.44-20.969-27.805-12.164-53.29-29.32-76.62-48.19-6.518-2.101-13.445-2.559-20.25-2.625-1.781-.182-3.507-.247-5.188-.188" fill-opacity=".235"/><path d="m256 1c-140.83 0-255 114.17-255 255s114.17 255 255 255 255-114.17 255-255-114.17-255-255-255m8.827 44.931c120.9 0 218.9 98 218.9 218.9s-98 218.9-218.9 218.9-218.93-98-218.93-218.9 98.03-218.9 218.93-218.9" fill-opacity=".067"/><g fill-opacity=".129"><path d="m256 4.43c-138.94 0-251.57 112.63-251.57 251.57s112.63 251.57 251.57 251.57 251.57-112.63 251.57-251.57-112.63-251.57-251.57-251.57m5.885 38.556c120.9 0 218.9 98 218.9 218.9s-98 218.9-218.9 218.9-218.93-98-218.93-218.9 98.03-218.9 218.93-218.9"/><path d="m256 8.36c-136.77 0-247.64 110.87-247.64 247.64s110.87 247.64 247.64 247.64 247.64-110.87 247.64-247.64-110.87-247.64-247.64-247.64m2.942 31.691c120.9 0 218.9 98 218.9 218.9s-98 218.9-218.9 218.9-218.93-98-218.93-218.9 98.03-218.9 218.93-218.9"/></g><path d="m253.04 7.86c-135.42 0-245.19 109.78-245.19 245.19 0 135.42 109.78 245.19 245.19 245.19 135.42 0 245.19-109.78 245.19-245.19 0-135.42-109.78-245.19-245.19-245.19zm0 26.297c120.9 0 218.9 98 218.9 218.9s-98 218.9-218.9 218.9-218.93-98-218.93-218.9 98.03-218.9 218.93-218.9z" fill="#fff" stroke="#000" stroke-opacity=".31" stroke-width="4.904"/></g><text x="729.64001" y="231.36"><tspan x="729.64001" y="231.36"/></text><text transform="scale(4.0128 .2492)" x="378.91" y="579.26001"/><text x="1310.91" y="151.36"><tspan x="1310.91" y="151.36"/></text><text transform="scale(4.0128 .2492)" x="523.76001" y="258.22"/><text x="239.33" y="-29.9"><tspan x="239.33" y="-29.9"/></text><text transform="scale(4.0128 .2492)" x="256.72" y="-469.13"/><text x="1337.38" y="-246.37"><tspan x="1337.38" y="-246.37"/></text><text transform="scale(4.0128 .2492)" x="530.35999" y="-1337.8"/><text x="1918.65" y="-326.37"><tspan x="1918.65" y="-326.37"/></text><text transform="scale(4.0128 .2492)" x="675.21002" y="-1658.83"/><text x="1529.53" y="-798.77002"><tspan x="1529.53" y="-798.77002"/></text><text transform="scale(4.0128 .2492)" x="578.23999" y="-3554.48"/><text x="2110.79" y="-878.78003"><tspan x="2110.79" y="-878.78003"/></text><text transform="scale(4.0128 .2492)" x="723.09003" y="-3875.52"/><text x="277.98999" y="535.94"><tspan x="277.98999" y="535.94"/></text><path d="m256 104.63c-10.1 0-20.2 1.562-24.438 4.656-29.871 29.858-92.47 56.49-114.31 62.56 0 93.78 62.925 235.53 138.75 235.53 75.66 0 138.75-141.75 138.75-235.53-21.844-6.072-84.44-32.704-114.31-62.56-4.237-3.096-14.337-4.657-24.438-4.656m72.344 70.438a13.945 13.945 0 0 1 9.5625 24.156c-44.861 40.583-72.47 82.969-95.53 129.97a13.945 13.945 0 0 1 -22.938 3.0312l-46.25-53.688a13.945 13.945 0 0 1 17.562-21.25l29.03 16.531c30.937-41.26 65.5-75.11 99.25-94.84.119-.108.183-.225.313-.344.767-.443 1.608-1.255 2.375-1.688a13.945 13.945 0 0 1 4.375-1.6875 13.945 13.945 0 0 1 2.25-.1875" fill="#fff" fill-rule="evenodd"/><text x="126.94" y="105.38"><tspan x="126.94" y="105.38"/></text><text transform="scale(4.0128 .2492)" x="228.71001" y="73.720001"/><text x="708.21002" y="25.379"><tspan x="708.21002" y="25.379"/></text><text transform="scale(4.0128 .2492)" x="373.56" y="-247.32001"/><text x="-363.37" y="-155.88"><tspan x="-363.37" y="-155.88"/></text><text transform="scale(4.0128 .2492)" x="106.53" y="-974.66998"/><text x="734.67999" y="-372.35001"><tspan x="734.67999" y="-372.35001"/></text><text transform="scale(4.0128 .2492)" x="380.16" y="-1843.33"/><text x="1315.95" y="-452.35001"><tspan x="1315.95" y="-452.35001"/></text><text transform="scale(4.0128 .2492)" x="525.01001" y="-2164.3601"/><text x="926.83002" y="-924.75"><tspan x="926.83002" y="-924.75"/></text><text transform="scale(4.0128 .2492)" x="428.04001" y="-4060"/><text x="1508.09" y="-1004.76"><tspan x="1508.09" y="-1004.76"/></text><text transform="scale(4.0128 .2492)" x="572.89001" y="-4381.04"/><text x="-324.70999" y="409.95999"><tspan x="-324.70999" y="409.95999"/></text><text x="-28046.811" y="1187.11"><tspan x="-28046.811" y="1187.11"/></text><text transform="scale(4.0128 .2492)" x="405" y="-8336.3604"/><text x="-28181.551" y="2099.1699"><tspan x="-28181.551" y="2099.1699"/></text><text transform="scale(4.0128 .2492)" x="371.47" y="-4676.5098"/><g transform="matrix(23.273 0 0 23.273 -918.71 -198.08)"><g fill="#555753"><text transform="scale(1.0508 .95163)" x="-549.96002" y="-204.06"><tspan x="-549.96002" y="-204.06"/></text><text transform="scale(4.2168 .23715)" x="57.980999" y="-1164.37"/><text transform="scale(1.0508 .95163)" x="-145.92999" y="-239.50999"><tspan x="-145.92999" y="-239.50999"/></text><text transform="scale(4.2168 .23715)" x="68.040001" y="-1146.0601"/><text x="-1695.66" y="-74.269997"><tspan x="-1695.66" y="-74.269997"/></text><text transform="scale(4.0128 .2492)" x="-117.54" y="-838.39001"/></g><g><text stroke="#cd1d31" x="-1086.23" y="-599.63"><tspan x="-1086.23" y="-599.63"/></text><text transform="scale(4.0128 .2492)" x="47.040001" y="-2969.1201"/><text stroke="#cd1d31" x="-1092.03" y="-560.44"><tspan x="-1092.03" y="-560.44"/></text><text transform="scale(4.0128 .2492)" x="45.592999" y="-2811.8501"/></g><g fill="#555753"><g stroke="#cd1d31"><text transform="scale(1.0508 .95163)" x="-474.37" y="-896.71002"><tspan x="-474.37" y="-896.71002"/></text><text transform="scale(4.2168 .23715)" x="76.82" y="-3943.8701"/><text transform="scale(1.0508 .95163)" x="-70.349998" y="-932.15997"><tspan x="-70.349998" y="-932.15997"/></text><text transform="scale(4.2168 .23715)" x="86.870003" y="-3925.5601"/><text x="-1616.23" y="-733.41998"><tspan x="-1616.23" y="-733.41998"/></text></g><text transform="scale(4.0128 .2492)" x="-97.75" y="-3483.46"/></g><g><text stroke="#cd1d31" x="-356.79999" y="-887.07001"><tspan x="-356.79999" y="-887.07001"/></text><text transform="scale(4.0128 .2492)" x="216.10001" y="-4100.0298"/><text stroke="#cd1d31" x="542.82001" y="-1010.89"><tspan x="542.82001" y="-1010.89"/></text><text transform="scale(4.0128 .2492)" x="440.29001" y="-4596.8901"/></g><g fill="#555753"><text stroke="#555753" x="90.919998" y="-21.434"><tspan x="90.919998" y="-21.434"/></text><text transform="scale(4.0128 .2492)" x="327.67001" y="-626.38"/><text stroke="#555753" x="836.29999" y="31.709"><tspan x="836.29999" y="31.709"/></text><text transform="scale(4.0128 .2492)" x="513.41998" y="-413.13"/><text stroke="#555753" x="1735.91" y="-92.110001"><tspan x="1735.91" y="-92.110001"/></text><text transform="scale(4.0128 .2492)" x="737.60999" y="-909.98999"/><text stroke="#555753" x="863.76001" y="-144.75"><tspan x="863.76001" y="-144.75"/></text><text transform="scale(4.0128 .2492)" x="520.27002" y="-1121.21"/><text stroke="#555753" x="1763.38" y="-268.56"><tspan x="1763.38" y="-268.56"/></text><text transform="scale(4.0128 .2492)" x="744.45001" y="-1618.0699"/><text stroke="#555753" x="-2146.22" y="307.14001"><tspan x="-2146.22" y="307.14001"/></text><text transform="scale(4.0128 .2492)" x="-229.82001" y="692.12"/></g></g></svg>