<svg viewBox="0 0 72 72" xmlns="http://www.w3.org/2000/svg"><path d="m16.917 58.9189c-.4844.001-.9102-.3525-.9863-.8466-.0411-.2696-.9727-6.6328 2.581-10.7754 1.9229-2.2412 4.751-3.377 8.4072-3.377.1973 0 .3907.0586.5547.168 3.1631 2.1084 5.6758 3.418 8.4053 3.4238h.04c.5518 0 .9991.4473 1 .999.001.5518-.4462 1-.998 1.001-.001 0-.001 0-.002 0h-.0029c-.0107-.001-.0254-.001-.0381 0h-.084c-.0146 0-.0302 0-.0449-.001-3.0986-.0419-5.8164-1.4023-9.1269-3.5878-2.8965.0566-5.1104.9541-6.586 2.6689-2.956 3.4365-2.1377 9.1201-2.1289 9.1777.083.545-.292 1.0547-.8379 1.1387-.0507.0078-.1015.0107-.1523.0107z"/><path d="m33.9961 55.2832c-.294 0-.584-.1279-.7813-.375l-7.2646-9.0713c-.3457-.4306-.2764-1.0605.1553-1.4053.4326-.3486 1.0615-.2753 1.4052.1553l7.2647 9.0713c.3457.4307.2764 1.0606-.1553 1.4053-.1846.1484-.4053.2197-.624.2197z"/><path d="m33.0068 57.3555c-.0742 0-.1494-.0078-.2255-.0254l-4.8975-1.127c-.2686-.0615-.499-.2314-.6387-.4697-.1387-.2373-.1738-.5225-.0967-.7861l.458-1.5606h-3.2373c-.2509 0-.4921-.0947-.6767-.2637-1.4043-1.2919-1.6201-2.6455-1.5537-3.5546.2129-2.9268 3.459-5.2227 3.8281-5.4746.4551-.3116 1.0762-.1934 1.3877.2617.3115.455.1953 1.0771-.2598 1.3896-.7832.5381-2.8427 2.3008-2.9619 3.9717-.042.5918.1709 1.1406.6504 1.6699h4.1592c.3154 0 .6113.1485.8008.4004.1884.2529.247.5791.1591.8809l-.5351 1.8242 3.8633.8887c.5381.124.874.6601.75 1.1992-.1065.4619-.5186.7754-.9737.7754z"/><path d="m35.1467 59.7725h24.99l6.95-16.35h-24.99z" style="fill:none;stroke:#000;stroke-linecap:round;stroke-linejoin:round;stroke-miterlimit:10;stroke-width:2"/><path d="m24.1767 59.7725h10.97" style="fill:none;stroke:#000;stroke-linecap:round;stroke-linejoin:round;stroke-miterlimit:10;stroke-width:2"/><path d="m41.9729 27.0429c0 1.1045-.8965 2-2 2s-2-.8955-2-2c0-1.1035.8965-2 2-2s2 .8965 2 2"/><path d="m33.9729 27.0429c0 1.1045-.8965 2-2 2s-2-.8955-2-2c0-1.1035.8965-2 2-2s2 .8965 2 2"/><path d="m35.9727 37.0453c-1.1518 0-2.3037-.2861-3.4472-.8579-.4942-.2471-.6944-.8477-.4473-1.3418.2466-.4937.8462-.6943 1.3418-.4473 1.7178.8594 3.3877.8594 5.1055 0 .4946-.247 1.0947-.0464 1.3418.4473.2471.4941.0469 1.0947-.4473 1.3418-1.1435.5718-2.2954.8579-3.4473.8579z"/><path d="m35.8506 43.5771c-6.8037 0-12.3389-6.8066-12.3389-15.1733 0-.667.0352-1.3345.1045-1.9839.0576-.5488.5586-.9477 1.0996-.8882.5498.0581.9473.5508.8887 1.1001-.0615.5796-.0928 1.1758-.0928 1.772 0 7.2642 4.6377 13.1733 10.3389 13.1733 5.7002 0 10.3379-5.9091 10.3379-13.1733 0-.5874-.0303-1.1807-.0918-1.7637-.0567-.5493.3428-1.041.8916-1.0981.5527-.061 1.041.3423 1.0986.8911.0674.6519.1016 1.3145.1016 1.9707 0 8.3667-5.5352 15.1733-12.3379 15.1733z"/><path d="m41.4707 32.668h-2.0078c-1.5479 0-2.8828-.9258-3.4815-2.253-.5976 1.3272-1.9335 2.253-3.4804 2.253h-2.0078c-2.1045 0-3.8164-1.7119-3.8164-3.8164v-1.2378h-.6924c-.5528 0-1-.4478-1-1 0-.5523.4472-1 1-1h1.6924c.5527 0 1 .4477 1 1v2.2378c0 1.0019.8144 1.8164 1.8164 1.8164h2.0078c1.001 0 1.8154-.8145 1.8154-1.8164v-1.104c0-.5523.4473-1 1-1h1.3301c.5527 0 1 .4477 1 1v1.104c0 1.0019.8144 1.8164 1.8164 1.8164h2.0078c1.001 0 1.8154-.8145 1.8154-1.8164v-2.2378c0-.5523.4473-1 1-1h1.1573c.5527 0 1 .4477 1 1 0 .5522-.4473 1-1 1h-.1573v1.2378c0 2.1045-1.7119 3.8164-3.8154 3.8164z"/><path d="m47.1885 27.5259c-.124 0-.249-.0235-.3682-.0703-.2998-.1187-.5234-.3745-.6015-.687-.5752-2.2959-1.6895-5.0489-2.4864-5.4927-.4824-.2691-.6553-.878-.3857-1.3604.2685-.4824.8769-.6567 1.3603-.3867 1.2647.7051 2.2422 2.9419 2.8369 4.6831.3282-1.6045-.2646-3.9809-.8261-5.8525-.1582-.5288.1416-1.0865.6709-1.2451.5302-.1582 1.0869.142 1.2451.6709.6767 2.2568 2.2627 7.5429-.9043 9.5815-.1631.1055-.3516.1592-.541.1592z"/><path d="m24.5117 27.8125c-.3467 0-.6699-.1802-.8525-.4771-1.7031-2.7768-2.2315-5.3974-1.5694-7.789.7041-2.5474 2.5743-4.0908 3.5264-4.7349.0234-2.1943 1.5703-4.3305 4.1006-5.5786 3.6406-1.7964 9.4297-1.8003 15.0107 3.3648l1.9483-1.5035c.4248-.3266 1.0293-.2612 1.374.1446 1.127 1.3281 2.5264 4.6406-.251 7.6684-.6748.7334-1.4804 1.3623-2.3945 1.8697-3.8799 2.1523-10.9658 2.9814-16.8916.4965l-3.1133 5.9995c-.166.3204-.4912.5259-.8515.5391-.0127.0005-.0245.0005-.0362.0005zm10.0147-17.6646c-1.4903 0-2.8282.3379-3.9248.8785-2.0049.9897-3.168 2.6347-2.9629 4.1919.0556.4165-.1563.8232-.5283 1.0175-.0206.0108-2.4004 1.3008-3.0987 3.8643-.3769 1.3818-.2099 2.9072.4951 4.5508l2.667-5.1392c.25-.4804.835-.6763 1.3262-.4385 5.2793 2.5743 12.249 1.9981 15.9336-.0454.7275-.4028 1.3633-.8989 1.8916-1.4736 1.5156-1.6523 1.1514-3.2715.7061-4.2075l-1.7637 1.3608c-.3985.3062-.961.271-1.3184-.0845-3.2812-3.2817-6.6211-4.4751-9.4228-4.4751z"/></svg>