<svg viewBox="0 0 72 72" xmlns="http://www.w3.org/2000/svg"><path d="m17.2331 58.6244s-2-13.5 10-13.5c3.1918 2.1279 5.9264 3.5984 9 3.5921h-.125c3.0736.0063 4.7081-2.1642 7.9-4.2921 15.5705-.0001 11.5 14.2 11.5 14.2" fill="#92d3f5"/><path d="m35.4872 55.298-3.2389-3.9318-3.239-3.9318h6.4779 6.478l-3.239 3.9318z" fill="#fff"/><path d="m26.4802 44.7199s-5.9003 4.0266-2.161 7.4669h4.5729l-.8335 3.7419 7.8919 1.9525.2903-2.5055-8.3606-10.3636" fill="#61b2e4"/><path d="m67.0367 43.2225-6.95 16.35h-24.99l6.95-16.35z" fill="#d0cfce"/><path d="m67.2533 43.2225-6.95 16.35h-.22-8.77l6.95-16.35h8.77z" fill="#9b9b9a"/><path d="m40.4042 47.0866 1.6425-3.8641h16.2823c2.0935-4.7527-4.3265-5.1398-4.3265-5.1398s.0685-.1664.0806-.6989c.0352-1.5532-.1998-6.2212-4.2254-18.9596-7.1146-17.1343-20.6161-9.1257-22.0119-6.7236-2.3333-.8591-3.3057 0-5.2433 5.6871-1.4147 5.3541-4.1835 16.175-3.9714 20.3615-.8116-.4277-7.4719-.0046-3.0917 8.0864 1.0489 1.2944 2.1478 2.4639 3.288 3.5111 1.4121-2.3496 3.9374-4.2223 8.4058-4.2223 3.1653 2.1103 5.8819 3.5698 8.9245 3.5878 1.677-.0101 2.9298-.6806 4.2465-1.6256z" fill="#a57939"/><path d="m47.4113 22.3057c.2218.6774.4048 1.3798.5455 2.103.22 1.1303.3365 2.3113.3365 3.5262 0 8.2116-5.3254 14.8684-11.8947 14.8684s-11.8948-6.6568-11.8948-14.8684c0-.4816.0183-.9578.0541-1.4277l.0514.3835c2.0191-.9811 5.0299-9.8162 5.0299-9.8162s-.7095 6.4405 17.8189 5.6156" fill="#fadcbc"/><path d="m42.0185 26.8672c0 1.1045-.8965 2-2 2s-2-.8955-2-2c0-1.1035.8965-2 2-2s2 .8965 2 2"/><path d="m34.0185 26.8672c0 1.1045-.8965 2-2 2s-2-.8955-2-2c0-1.1035.8965-2 2-2s2 .8965 2 2"/><path d="m36.0183 36.8696c-1.1518 0-2.3037-.2861-3.4472-.8579-.4942-.2471-.6944-.8477-.4473-1.3418.2466-.4937.8462-.6943 1.3418-.4473 1.7178.8594 3.3877.8594 5.1055 0 .4946-.247 1.0947-.0464 1.3418.4473.247.4941.0468 1.0947-.4473 1.3418-1.1436.5718-2.2954.8579-3.4473.8579z"/><path d="m36.0186 43.4014c-6.8038 0-12.3389-6.8067-12.3389-15.1734 0-.4848.0185-.9643.0547-1.437l1.9941.1524c-.0322.4228-.0488.8515-.0488 1.2846 0 7.2642 4.6377 13.1734 10.3389 13.1734 5.7002 0 10.3378-5.9092 10.3378-13.1734 0-1.0757-.1015-2.1421-.3017-3.1699-.124-.6392-.2891-1.2729-.4893-1.8848l1.9004-.623c.2266.6904.4121 1.4058.5518 2.126.2246 1.1528.3388 2.3481.3388 3.5517 0 8.3667-5.5351 15.1734-12.3378 15.1734z"/><path d="m41.5156 32.4922h-2.0068c-1.5479 0-2.8828-.9258-3.4815-2.2529-.5986 1.3271-1.9335 2.2529-3.4814 2.2529h-2.0068c-2.1045 0-3.8164-1.7119-3.8164-3.8164v-1.2378h-.6924c-.5528 0-1-.4478-1-1 0-.5523.4472-1 1-1h1.6924c.5527 0 1 .4477 1 1v2.2378c0 1.0019.8144 1.8164 1.8164 1.8164h2.0068c1.002 0 1.8164-.8145 1.8164-1.8164v-1.104c0-.5523.4473-1 1-1h1.3301c.5527 0 1 .4477 1 1v1.104c0 1.0019.8144 1.8164 1.8164 1.8164h2.0068c1.002 0 1.8164-.8145 1.8164-1.8164v-2.2378c0-.5523.4473-1 1-1h1.1563c.5527 0 1 .4477 1 1 0 .5522-.4473 1-1 1h-.1563v1.2378c0 2.1045-1.7119 3.8164-3.8164 3.8164z"/><path d="m24.7334 27.8672c-.3711.0005-.7275-.207-.9004-.563-.2412-.4966-.0342-1.0952.4629-1.3364.9268-.4502 2.9639-4.9038 4.2852-8.7808.165-.4829.666-.7617 1.164-.6533.4971.1108.832.5786.7764 1.0854.001 0-.0166.6861.8076 1.5093 1.2217 1.2193 4.8213 3.1973 15.1387 2.7354.542-.0249 1.0195.4023 1.0439.9546.0244.5517-.4023 1.019-.9541 1.0434-8.6269.3877-14.2695-.7803-16.7803-3.4614-.0585-.0625-.1152-.1255-.1679-.188-1.0948 2.8359-2.8584 6.7861-4.4405 7.5542-.1406.0684-.289.1006-.4355.1006z"/><path d="m16.2852 46.0303c-.3555 0-.6993-.1895-.8799-.5235-1.8106-3.3437-2.1446-5.6201-1.0225-6.9609.9297-1.1094 2.5215-1.1328 3.6641-.9678.1787-3.3994 1.5595-9.9536 4.1933-19.9214 1.3702-4.0268 2.2549-5.5683 3.5284-6.1753.7187-.3422 1.4443-.3022 2.082-.1474 1.5683-1.6494 5.6025-3.8858 10.0078-3.6035 3.6475.2426 8.7344 2.3105 12.2539 10.7861 1.8174 5.7397 3.0361 10.4038 3.6533 13.9434.0703.4062.542 3.3418.7871 4.8691.9444.0088 2.3174.2744 3.3008 1.5391.3399.4365.2608 1.0644-.1748 1.4033-.4365.3418-1.0635.2598-1.4033-.1748-.8154-1.0488-2.3154-.7246-2.3301-.7188-.2695.0655-.5557.0137-.7881-.1406s-.3886-.3984-.4326-.6738c0 0-.834-5.211-.9297-5.7608-.6015-3.4521-1.7988-8.0283-3.5595-13.6015-2.4805-5.9615-6.0264-9.1768-10.5098-9.4751-4.2783-.2779-8.1026 2.3164-8.6553 3.2671-.2441.4194-.7558.601-1.2099.436-.7598-.2798-1.0489-.2295-1.2315-.1421-.8301.3955-1.7168 2.7232-2.4756 4.9478-2.9111 11.0297-4.3017 17.9565-4.1113 20.519.0254.333-.1182.6572-.3818.8623-.2637.2061-.6143.2647-.9297.1611-.9121-.2959-2.3985-.4453-2.8155.0538-.1318.1591-.6953 1.1337 1.2491 4.7226.2627.4863.082 1.0928-.4034 1.3565-.1513.081-.3144.1201-.4755.1201z"/><path d="m16.8672 58.7188c-.4844.0009-.9102-.3526-.9863-.8467-.0411-.2696-.9727-6.6328 2.581-10.7754 1.9229-2.2412 4.751-3.377 8.4072-3.377.1973 0 .3907.0586.5547.168 3.1621 2.1084 5.6748 3.418 8.4063 3.4248h.039c.5518 0 .9991.4473 1 .999.001.5586-.4404 1.0059-1.0185 1.001-.0078 0-.0137 0-.0215 0h-.085c-.0156 0-.0302 0-.0459-.001-3.0996-.0429-5.8164-1.4033-9.1259-3.5888-2.8965.0566-5.1104.9541-6.586 2.6689-2.956 3.4365-2.1377 9.1201-2.1289 9.1777.083.545-.292 1.0547-.8379 1.1387-.0507.0078-.1015.0108-.1523.0108z"/><path d="m33.9463 55.083c-.294 0-.584-.1279-.7813-.375l-7.2646-9.0713c-.3457-.4306-.2764-1.0605.1553-1.4053.4326-.3486 1.0615-.2753 1.4052.1553l7.2647 9.0713c.3457.4307.2764 1.0606-.1553 1.4053-.1846.1484-.4053.2197-.624.2197z"/><path d="m32.957 57.1563c-.0742 0-.1494-.0079-.2256-.0254l-4.8974-1.128c-.2686-.0615-.499-.2314-.6387-.4697-.1387-.2373-.1738-.5225-.0967-.7861l.458-1.5606h-3.2373c-.2509 0-.4922-.0947-.6767-.2636-1.4043-1.292-1.6201-2.6456-1.5537-3.5547.2129-2.9268 3.459-5.2227 3.8281-5.4746.4551-.3106 1.0771-.1944 1.3877.2617.3115.4551.1953 1.0771-.2598 1.3896-.7832.5381-2.8428 2.3008-2.9619 3.9717-.042.5918.1709 1.1406.6504 1.6699h4.1592c.3154 0 .6113.1485.8008.4004.1884.2529.247.5791.1591.8809l-.5361 1.8242 3.8643.8896c.5381.1241.874.6612.75 1.1993-.1065.4629-.5186.7754-.9737.7754z"/><g style="fill:none;stroke:#000;stroke-linecap:round;stroke-linejoin:round;stroke-miterlimit:10;stroke-width:2"><path d="m35.0967 59.5725h24.99l6.95-16.35h-24.99z"/><path d="m24.1267 59.5725h10.97"/></g></svg>