<svg height="60" viewBox="0 0 60 60" width="60" xmlns="http://www.w3.org/2000/svg"><g fill="none" fill-rule="evenodd"><path d="m0 30c0-16.5685433 13.2303603-30 29.5508386-30s29.5508386 13.4314567 29.5508386 30-13.2303603 30-29.5508386 30-29.5508386-13.4314567-29.5508386-30zm0 0" fill="#0dadea"/><path d="m13.1847437 19.1277676 12.0872164-1.6909013v11.8717069h-12.0863975zm12.0872164 11.7001276v11.7374518l-12.085713-1.6885515-.0006845-10.0483539h12.0863975zm1.3370686-13.577691 16.0838983-2.2502042v14.3085732h-16.0838983zm16.0839118 13.577691v14.1721048l-16.0839118-2.247991v-11.9241138zm0 0" fill="#fff"/><path d="m59.1016772 30c0 16.5685433-13.2303603 30-29.5508386 30-6.0528788 0-11.6807142-1.8474866-16.3660949-5.0172246l33.8602214-49.16336437c7.311898 5.46123927 12.0567121 14.25838627 12.0567121 24.18058897zm0 0" fill="#000" fill-opacity=".08"/></g></svg>