<svg viewBox="0 0 14 14" xmlns="http://www.w3.org/2000/svg" fill="currentColor"><path d="m7 1q1.63281 0 3.01172.804688 1.3789.804687 2.18359 2.183594.80469 1.378905.80469 3.011718 0 1.632813-.80469 3.011718-.80469 1.378907-2.18359 2.183594-1.37891.804688-3.01172.804688-1.63281 0-3.01172-.804688-1.37891-.804687-2.183592-2.183594-.804688-1.378905-.804688-3.011718 0-1.632813.804688-3.011718.804682-1.378907 2.183592-2.183594 1.37891-.804688 3.01172-.804688zm2.14062 4.070312q-.0156.0078-.0742.07422-.0586.06641-.10547.07422.0156 0 .0352-.03906.0195-.03906.0391-.08594.0195-.04687.0273-.05469.0469-.05469.17188-.117187.10937-.04687.40624-.09375.26563-.0625.39844.08594-.0156-.01563.0742-.101563.0898-.08594.11328-.09375.0234-.01563.11719-.03516.0937-.01953.11719-.05859l.0156-.171875q-.0937.0078-.13672-.05469-.043-.0625-.0508-.164063 0 .01563-.0469.0625 0-.05469-.0352-.0625-.0352-.0078-.0898.0078-.0547.01563-.0703.0078-.0781-.02344-.11719-.05859-.0391-.03516-.0625-.128906-.0234-.09375-.0312-.117188-.0156-.03906-.0742-.08203-.0586-.04297-.0742-.08203-.008-.01563-.0195-.04297-.0117-.02734-.0234-.05078-.0117-.02344-.0312-.04297-.0195-.01953-.043-.01953-.0234 0-.0547.03906-.0312.03906-.0586.07813-.0273.03906-.0352.03906-.0234-.01563-.0469-.01172-.0234.0039-.0352.0078-.0117.0039-.0352.02344-.0234.01953-.0391.02734-.0234.01563-.0664.02344-.043.0078-.0664.01562.11719-.03906-.008-.08594-.0781-.03125-.125-.02344.0703-.03125.0586-.09375-.0117-.0625-.0664-.109374h.0391q-.008-.03125-.0664-.06641-.0586-.03516-.13672-.06641-.0781-.03125-.10156-.04687-.0625-.03906-.26562-.07422-.20313-.03516-.25781-.0039-.0391.04687-.0352.08203.004.03516.0312.109374.0273.07422.0273.09766.008.04687-.043.101562-.0508.05469-.0508.09375 0 .05469.10938.121094.10937.06641.0781.167968-.0234.0625-.125.125001-.10156.0625-.125.09375-.0391.0625-.0117.144532.0273.08203.082.128906.0156.01563.0117.03125-.004.01563-.0273.03516-.0234.01953-.043.03125-.0195.01172-.0508.02734l-.0234.01563q-.0859.03906-.16015-.04687-.0742-.08594-.10547-.203125-.0547-.195312-.125-.234375-.17969-.0625-.22657.0078-.0391-.101563-.32031-.203125-.19531-.07031-.45312-.03125.0469-.0078 0-.117188-.0547-.117187-.14844-.09375.0234-.04687.0312-.136719.008-.08984.008-.105469.0234-.101562.0937-.179687.008-.0078.0547-.06641.0469-.05859.0742-.105468.0273-.04687.004-.04687.27343.03125.39062-.08594.0391-.03906.0898-.132812.0508-.09375.082-.132813.0703-.04687.10938-.04297.0391.0039.11328.04297.0742.03906.11328.03906.10938.0078.1211-.08594.0117-.09375-.0586-.156249.0937.0078.0234-.132813-.0391-.05469-.0625-.07031-.0937-.03125-.21094.03906-.0625.03125.0156.0625-.008-.0078-.0742.08203-.0664.08984-.12891.136719-.0625.04687-.125-.03906-.008-.0078-.043-.105469-.0352-.09766-.0742-.105469-.0625 0-.125.117187.0234-.0625-.0859-.117187-.10938-.05469-.1875-.0625.14844-.09375-.0625-.210937-.0547-.03125-.16016-.03906-.10547-.0078-.15234.03125-.0391.05469-.043.08984-.004.03516.0391.0625.043.02734.082.04297.0391.01563.0898.03125.0508.01563.0664.02344.10938.07813.0625.109375-.0156.0078-.0664.02734-.0508.01953-.0898.03516-.0391.01563-.0469.03125-.0234.03125 0 .109375.0234.07813-.0156.109375-.0391-.03906-.0703-.136719-.0312-.09766-.0547-.128906.0547.07031-.19531.04687l-.0781-.0078q-.0313 0-.12501.01563-.0937.01562-.16015.0078-.0664-.0078-.10547-.0625-.0312-.0625 0-.15625.008-.03125.0312-.01563-.0312-.02344-.0859-.07422-.0547-.05078-.0781-.06641-.35938.117188-.73438.320313.0469.0078.0937-.0078.0391-.01563.10156-.05078.0625-.03516.0781-.04297.26563-.109375.32813-.05469l.0391-.03906q.10937.125.15625.195313-.0547-.03125-.23438-.0078-.15625.04687-.17187.09375.0547.09375.0391.140625-.0312-.02344-.0898-.07813-.0586-.05469-.11328-.08594-.0547-.03125-.11719-.03906-.125 0-.17188.0078-1.14062.625001-1.83593 1.734375.0547.05469.0937.0625.0312.0078.0391.07031.008.0625.0195.08594.0117.02344.0898-.02344.0703.0625.0234.148437.008-.0078.34375.210938.14844.132812.16406.164062.0234.08594-.0781.140626-.008-.01563-.0703-.07031-.0625-.05469-.0703-.03125-.0234.03906.004.144532.0273.105468.082.09766-.0547 0-.0742.124999-.0195.125-.0195.277344 0 .152344-.008.183594l.0156.0078q-.0234.09375.043.269532.0664.175781.16797.152343-.10156.02344.15625.335938.0469.0625.0625.07031.0234.01563.0937.05859.0703.04297.11719.07813.0469.03516.0781.08203.0312.03906.0781.175781.0469.136719.10937.183593-.0156.04688.0742.156251.0898.109374.082.179687-.008 0-.0195.0078-.0117.0078-.0195.0078.0234.05469.12109.109375.0977.05469.1211.101563.008.02344.0156.07812.008.05469.0234.08594.0156.03125.0625.01563.0156-.15625-.1875-.484375-.11719-.195313-.13281-.226563-.0234-.03906-.043-.121093-.0195-.08203-.0352-.113282.0156 0 .0469.01172.0312.01172.0664.02734.0352.01563.0586.03125.0234.01563.0156.02344-.0234.05469.0156.136719.0391.08203.0937.144531.0547.0625.13281.148438.0781.08594.0937.101563.0469.04687.10938.152343.0625.105469 0 .105469.0703 0 .15625.07813.0859.07813.13281.15625.0391.0625.0625.203125.0234.140625.0391.1875.0156.05469.0664.105469.0508.05078.0977.07422l.125.0625.10156.05469q.0391.01563.14454.08203.10547.06641.16797.08984.0781.03125.12499.03125.0469 0 .11329-.01953.0664-.01953.10547-.02734.11718-.01563.22656.117187.10937.132813.16406.164063.28125.148437.42969.08594-.0156.0078.004.05859.0195.05078.0625.121094.043.07031.0703.113281.0273.04297.043.06641.0391.04688.14062.117188.10156.07031.14062.117188.0469-.03125.0547-.07031-.0234.0625.0547.15625.0781.09375.14063.07813.10937-.02344.10937-.25-.24219.117187-.38281-.140625 0-.0078-.0195-.04297-.0195-.03516-.0312-.06641-.0117-.03125-.0195-.06641-.008-.03516 0-.05859.008-.02344.0391-.02344.0703 0 .0781-.02734.008-.02734-.0156-.09766-.0234-.07031-.0312-.101562-.008-.0625-.0859-.15625-.0781-.09375-.0937-.117188-.0391.07031-.125.0625-.0859-.0078-.125-.07031 0 .0078-.0117.04297-.0117.03516-.0117.05078-.10156 0-.11718-.0078.008-.02344.0195-.136718.0117-.113282.0273-.175782.008-.03125.043-.09375.0352-.0625.0586-.113282.0234-.05078.0312-.09766.008-.04687-.0352-.07422-.043-.02734-.13672-.01953-.14844.0078-.20313.15625-.008.02344-.0234.08203-.0156.05859-.0391.08984-.0234.03125-.0703.05469-.0547.02344-.1875.01562-.13281-.0078-.1875-.03906-.10156-.0625-.17578-.226562-.0742-.164063-.0742-.289063 0-.07813.0195-.207031.0195-.128907.0234-.195313.004-.06641-.043-.191406.0234-.01563.0703-.07422.0469-.05859.0781-.08203.0156-.0078.0352-.01172.0195-.0039.0352 0 .0156.0039.0312-.01172.0156-.01562.0234-.04687-.008-.0078-.0312-.02344-.0234-.02344-.0312-.02344.0547.02344.22265-.01172.16797-.03516.21485.01172.11718.08594.17187-.01563 0-.0078-.0195-.07422-.0195-.06641-.004-.105469.0391.210938.22657.07031.0234.02344.12109.03906.0977.01563.13672.03906.0234.01563.0547.04297.0312.02734.043.03516.0117.0078.0391-.0039.0273-.01172.0664-.05078.0781.109375.0937.1875.0859.3125.14844.34375.0547.02344.0859.01563.0312-.0078.0352-.07422.004-.06641 0-.109376-.004-.04297-.0117-.09766l-.008-.0625v-.140625l-.008-.0625q-.11718-.02344-.14453-.09375-.0273-.07031.0117-.144531.0391-.07422.11719-.144531.008-.0078.0625-.02734.0547-.01953.12109-.05078.0664-.03125.0977-.0625.16406-.148438.11719-.273438.0547 0 .0859-.07031-.008 0-.0391-.02344-.0312-.02344-.0586-.03906-.0273-.01563-.0352-.01563.0703-.03906.0156-.124999.0391-.02344.0586-.08594.0195-.0625.0586-.07813.0703.09375.16407.01563.0547-.0625.008-.125.0391-.05469.16015-.08203.1211-.02734.14454-.07422.0547.01563.0625-.01563.008-.03125.008-.09375 0-.0625.0234-.09375.0312-.03906.11718-.07031.0859-.03125.10156-.03906l.13282-.08594q.0234-.03125 0-.03125.14062.01563.24218-.08594.0781-.08594-.0469-.15625.0234-.04687-.0234-.07422-.0469-.02734-.11718-.04297.0234-.0078.0898-.0039.0664.0039.082-.01172.11719-.07812-.0547-.124999-.13281-.03906-.33594.09375zm-1.27343 6.851563q1.60937-.28125 2.74218-1.476562-.0234-.02344-.0977-.03516-.0742-.01172-.0977-.02734-.14062-.05469-.1875-.0625.008-.05469-.0195-.101562-.0273-.04687-.0625-.07031-.0352-.02344-.0977-.0625-.0625-.03906-.0859-.05469-.0156-.01563-.0547-.04687-.0391-.03125-.0547-.04297-.0156-.01172-.0586-.03516-.043-.02344-.0664-.01563-.0234.0078-.0781.0078l-.0234.0078q-.0234.0078-.043.01953-.0195.01172-.043.02344-.0234.01172-.0312.02344-.008.01172 0 .01953-.16406-.132813-.28125-.171875-.0391-.0078-.0859-.04297-.0469-.03516-.082-.05469-.0352-.01953-.0781-.01172-.043.0078-.0898.05469-.0391.03906-.0469.117188-.008.07813-.0156.101562-.0547-.03906 0-.136719.0547-.09766.0156-.144531-.0234-.04687-.082-.03516-.0586.01172-.0937.03516-.0352.02344-.0898.06641-.0547.04297-.0703.05078-.0156.0078-.0664.04297-.0508.03516-.0664.05859-.0234.03125-.0469.09375-.0234.0625-.0391.08594-.0156-.03125-.0898-.05078-.0742-.01953-.0742-.04297.0156.07813.0312.273438.0156.195312.0391.296875.0547.242188-.0937.375-.21093.195313-.22656.3125-.0312.171875.0937.203125 0 .05469-.0625.160157-.0625.105468-.0547.167968 0 .04687.0156.125z"/></svg>